%TF.GenerationSoftware,KiCad,Pcbnew,10.0.3*%
%TF.CreationDate,2026-08-30T02:55:00+05:30*%
%TF.ProjectId,Transformerless Power Supply,5472616e-7366-46f7-926d-65726c657373,rev?*%
%TF.SameCoordinates,Original*%
%TF.FileFunction,Legend,Top*%
%TF.FilePolarity,Positive*%
%FSLAX46Y46*%
G04 Gerber Fmt 4.6, Leading zero omitted, Abs format (unit mm)*
G04 Created by KiCad (PCBNEW 10.0.3) date 2026-08-30 02:55:00*
%MOMM*%
%LPD*%
G01*
G04 APERTURE LIST*
%ADD10C,0.150000*%
%ADD11C,0.120000*%
G04 APERTURE END LIST*
D10*
X67333333Y-48359580D02*
X67285714Y-48407200D01*
X67285714Y-48407200D02*
X67142857Y-48454819D01*
X67142857Y-48454819D02*
X67047619Y-48454819D01*
X67047619Y-48454819D02*
X66904762Y-48407200D01*
X66904762Y-48407200D02*
X66809524Y-48311961D01*
X66809524Y-48311961D02*
X66761905Y-48216723D01*
X66761905Y-48216723D02*
X66714286Y-48026247D01*
X66714286Y-48026247D02*
X66714286Y-47883390D01*
X66714286Y-47883390D02*
X66761905Y-47692914D01*
X66761905Y-47692914D02*
X66809524Y-47597676D01*
X66809524Y-47597676D02*
X66904762Y-47502438D01*
X66904762Y-47502438D02*
X67047619Y-47454819D01*
X67047619Y-47454819D02*
X67142857Y-47454819D01*
X67142857Y-47454819D02*
X67285714Y-47502438D01*
X67285714Y-47502438D02*
X67333333Y-47550057D01*
X68285714Y-48454819D02*
X67714286Y-48454819D01*
X68000000Y-48454819D02*
X68000000Y-47454819D01*
X68000000Y-47454819D02*
X67904762Y-47597676D01*
X67904762Y-47597676D02*
X67809524Y-47692914D01*
X67809524Y-47692914D02*
X67714286Y-47740533D01*
X70609580Y-60798989D02*
X70657200Y-60846608D01*
X70657200Y-60846608D02*
X70704819Y-60989465D01*
X70704819Y-60989465D02*
X70704819Y-61084703D01*
X70704819Y-61084703D02*
X70657200Y-61227560D01*
X70657200Y-61227560D02*
X70561961Y-61322798D01*
X70561961Y-61322798D02*
X70466723Y-61370417D01*
X70466723Y-61370417D02*
X70276247Y-61418036D01*
X70276247Y-61418036D02*
X70133390Y-61418036D01*
X70133390Y-61418036D02*
X69942914Y-61370417D01*
X69942914Y-61370417D02*
X69847676Y-61322798D01*
X69847676Y-61322798D02*
X69752438Y-61227560D01*
X69752438Y-61227560D02*
X69704819Y-61084703D01*
X69704819Y-61084703D02*
X69704819Y-60989465D01*
X69704819Y-60989465D02*
X69752438Y-60846608D01*
X69752438Y-60846608D02*
X69800057Y-60798989D01*
X69800057Y-60418036D02*
X69752438Y-60370417D01*
X69752438Y-60370417D02*
X69704819Y-60275179D01*
X69704819Y-60275179D02*
X69704819Y-60037084D01*
X69704819Y-60037084D02*
X69752438Y-59941846D01*
X69752438Y-59941846D02*
X69800057Y-59894227D01*
X69800057Y-59894227D02*
X69895295Y-59846608D01*
X69895295Y-59846608D02*
X69990533Y-59846608D01*
X69990533Y-59846608D02*
X70133390Y-59894227D01*
X70133390Y-59894227D02*
X70704819Y-60465655D01*
X70704819Y-60465655D02*
X70704819Y-59846608D01*
X41274819Y-63293333D02*
X41989104Y-63293333D01*
X41989104Y-63293333D02*
X42131961Y-63340952D01*
X42131961Y-63340952D02*
X42227200Y-63436190D01*
X42227200Y-63436190D02*
X42274819Y-63579047D01*
X42274819Y-63579047D02*
X42274819Y-63674285D01*
X42274819Y-62293333D02*
X42274819Y-62864761D01*
X42274819Y-62579047D02*
X41274819Y-62579047D01*
X41274819Y-62579047D02*
X41417676Y-62674285D01*
X41417676Y-62674285D02*
X41512914Y-62769523D01*
X41512914Y-62769523D02*
X41560533Y-62864761D01*
X87924819Y-61738094D02*
X86924819Y-61738094D01*
X86924819Y-61738094D02*
X86924819Y-61499999D01*
X86924819Y-61499999D02*
X86972438Y-61357142D01*
X86972438Y-61357142D02*
X87067676Y-61261904D01*
X87067676Y-61261904D02*
X87162914Y-61214285D01*
X87162914Y-61214285D02*
X87353390Y-61166666D01*
X87353390Y-61166666D02*
X87496247Y-61166666D01*
X87496247Y-61166666D02*
X87686723Y-61214285D01*
X87686723Y-61214285D02*
X87781961Y-61261904D01*
X87781961Y-61261904D02*
X87877200Y-61357142D01*
X87877200Y-61357142D02*
X87924819Y-61499999D01*
X87924819Y-61499999D02*
X87924819Y-61738094D01*
X86924819Y-60309523D02*
X86924819Y-60499999D01*
X86924819Y-60499999D02*
X86972438Y-60595237D01*
X86972438Y-60595237D02*
X87020057Y-60642856D01*
X87020057Y-60642856D02*
X87162914Y-60738094D01*
X87162914Y-60738094D02*
X87353390Y-60785713D01*
X87353390Y-60785713D02*
X87734342Y-60785713D01*
X87734342Y-60785713D02*
X87829580Y-60738094D01*
X87829580Y-60738094D02*
X87877200Y-60690475D01*
X87877200Y-60690475D02*
X87924819Y-60595237D01*
X87924819Y-60595237D02*
X87924819Y-60404761D01*
X87924819Y-60404761D02*
X87877200Y-60309523D01*
X87877200Y-60309523D02*
X87829580Y-60261904D01*
X87829580Y-60261904D02*
X87734342Y-60214285D01*
X87734342Y-60214285D02*
X87496247Y-60214285D01*
X87496247Y-60214285D02*
X87401009Y-60261904D01*
X87401009Y-60261904D02*
X87353390Y-60309523D01*
X87353390Y-60309523D02*
X87305771Y-60404761D01*
X87305771Y-60404761D02*
X87305771Y-60595237D01*
X87305771Y-60595237D02*
X87353390Y-60690475D01*
X87353390Y-60690475D02*
X87401009Y-60738094D01*
X87401009Y-60738094D02*
X87496247Y-60785713D01*
X87354819Y-57451904D02*
X86354819Y-57451904D01*
X87354819Y-56880476D02*
X86783390Y-57309047D01*
X86354819Y-56880476D02*
X86926247Y-57451904D01*
X83084819Y-75666666D02*
X82608628Y-75999999D01*
X83084819Y-76238094D02*
X82084819Y-76238094D01*
X82084819Y-76238094D02*
X82084819Y-75857142D01*
X82084819Y-75857142D02*
X82132438Y-75761904D01*
X82132438Y-75761904D02*
X82180057Y-75714285D01*
X82180057Y-75714285D02*
X82275295Y-75666666D01*
X82275295Y-75666666D02*
X82418152Y-75666666D01*
X82418152Y-75666666D02*
X82513390Y-75714285D01*
X82513390Y-75714285D02*
X82561009Y-75761904D01*
X82561009Y-75761904D02*
X82608628Y-75857142D01*
X82608628Y-75857142D02*
X82608628Y-76238094D01*
X82180057Y-75285713D02*
X82132438Y-75238094D01*
X82132438Y-75238094D02*
X82084819Y-75142856D01*
X82084819Y-75142856D02*
X82084819Y-74904761D01*
X82084819Y-74904761D02*
X82132438Y-74809523D01*
X82132438Y-74809523D02*
X82180057Y-74761904D01*
X82180057Y-74761904D02*
X82275295Y-74714285D01*
X82275295Y-74714285D02*
X82370533Y-74714285D01*
X82370533Y-74714285D02*
X82513390Y-74761904D01*
X82513390Y-74761904D02*
X83084819Y-75333332D01*
X83084819Y-75333332D02*
X83084819Y-74714285D01*
X63643333Y-69084819D02*
X63310000Y-68608628D01*
X63071905Y-69084819D02*
X63071905Y-68084819D01*
X63071905Y-68084819D02*
X63452857Y-68084819D01*
X63452857Y-68084819D02*
X63548095Y-68132438D01*
X63548095Y-68132438D02*
X63595714Y-68180057D01*
X63595714Y-68180057D02*
X63643333Y-68275295D01*
X63643333Y-68275295D02*
X63643333Y-68418152D01*
X63643333Y-68418152D02*
X63595714Y-68513390D01*
X63595714Y-68513390D02*
X63548095Y-68561009D01*
X63548095Y-68561009D02*
X63452857Y-68608628D01*
X63452857Y-68608628D02*
X63071905Y-68608628D01*
X64500476Y-68418152D02*
X64500476Y-69084819D01*
X64262381Y-68037200D02*
X64024286Y-68751485D01*
X64024286Y-68751485D02*
X64643333Y-68751485D01*
X56924819Y-61738094D02*
X55924819Y-61738094D01*
X55924819Y-61738094D02*
X55924819Y-61499999D01*
X55924819Y-61499999D02*
X55972438Y-61357142D01*
X55972438Y-61357142D02*
X56067676Y-61261904D01*
X56067676Y-61261904D02*
X56162914Y-61214285D01*
X56162914Y-61214285D02*
X56353390Y-61166666D01*
X56353390Y-61166666D02*
X56496247Y-61166666D01*
X56496247Y-61166666D02*
X56686723Y-61214285D01*
X56686723Y-61214285D02*
X56781961Y-61261904D01*
X56781961Y-61261904D02*
X56877200Y-61357142D01*
X56877200Y-61357142D02*
X56924819Y-61499999D01*
X56924819Y-61499999D02*
X56924819Y-61738094D01*
X56020057Y-60785713D02*
X55972438Y-60738094D01*
X55972438Y-60738094D02*
X55924819Y-60642856D01*
X55924819Y-60642856D02*
X55924819Y-60404761D01*
X55924819Y-60404761D02*
X55972438Y-60309523D01*
X55972438Y-60309523D02*
X56020057Y-60261904D01*
X56020057Y-60261904D02*
X56115295Y-60214285D01*
X56115295Y-60214285D02*
X56210533Y-60214285D01*
X56210533Y-60214285D02*
X56353390Y-60261904D01*
X56353390Y-60261904D02*
X56924819Y-60833332D01*
X56924819Y-60833332D02*
X56924819Y-60214285D01*
X56554819Y-56181904D02*
X55554819Y-56181904D01*
X56554819Y-55610476D02*
X55983390Y-56039047D01*
X55554819Y-55610476D02*
X56126247Y-56181904D01*
X36584819Y-48856666D02*
X36108628Y-49189999D01*
X36584819Y-49428094D02*
X35584819Y-49428094D01*
X35584819Y-49428094D02*
X35584819Y-49047142D01*
X35584819Y-49047142D02*
X35632438Y-48951904D01*
X35632438Y-48951904D02*
X35680057Y-48904285D01*
X35680057Y-48904285D02*
X35775295Y-48856666D01*
X35775295Y-48856666D02*
X35918152Y-48856666D01*
X35918152Y-48856666D02*
X36013390Y-48904285D01*
X36013390Y-48904285D02*
X36061009Y-48951904D01*
X36061009Y-48951904D02*
X36108628Y-49047142D01*
X36108628Y-49047142D02*
X36108628Y-49428094D01*
X35584819Y-48523332D02*
X35584819Y-47904285D01*
X35584819Y-47904285D02*
X35965771Y-48237618D01*
X35965771Y-48237618D02*
X35965771Y-48094761D01*
X35965771Y-48094761D02*
X36013390Y-47999523D01*
X36013390Y-47999523D02*
X36061009Y-47951904D01*
X36061009Y-47951904D02*
X36156247Y-47904285D01*
X36156247Y-47904285D02*
X36394342Y-47904285D01*
X36394342Y-47904285D02*
X36489580Y-47951904D01*
X36489580Y-47951904D02*
X36537200Y-47999523D01*
X36537200Y-47999523D02*
X36584819Y-48094761D01*
X36584819Y-48094761D02*
X36584819Y-48380475D01*
X36584819Y-48380475D02*
X36537200Y-48475713D01*
X36537200Y-48475713D02*
X36489580Y-48523332D01*
X75084819Y-75476666D02*
X74608628Y-75809999D01*
X75084819Y-76048094D02*
X74084819Y-76048094D01*
X74084819Y-76048094D02*
X74084819Y-75667142D01*
X74084819Y-75667142D02*
X74132438Y-75571904D01*
X74132438Y-75571904D02*
X74180057Y-75524285D01*
X74180057Y-75524285D02*
X74275295Y-75476666D01*
X74275295Y-75476666D02*
X74418152Y-75476666D01*
X74418152Y-75476666D02*
X74513390Y-75524285D01*
X74513390Y-75524285D02*
X74561009Y-75571904D01*
X74561009Y-75571904D02*
X74608628Y-75667142D01*
X74608628Y-75667142D02*
X74608628Y-76048094D01*
X75084819Y-74524285D02*
X75084819Y-75095713D01*
X75084819Y-74809999D02*
X74084819Y-74809999D01*
X74084819Y-74809999D02*
X74227676Y-74905237D01*
X74227676Y-74905237D02*
X74322914Y-75000475D01*
X74322914Y-75000475D02*
X74370533Y-75095713D01*
X96701010Y-64609580D02*
X96653391Y-64657200D01*
X96653391Y-64657200D02*
X96510534Y-64704819D01*
X96510534Y-64704819D02*
X96415296Y-64704819D01*
X96415296Y-64704819D02*
X96272439Y-64657200D01*
X96272439Y-64657200D02*
X96177201Y-64561961D01*
X96177201Y-64561961D02*
X96129582Y-64466723D01*
X96129582Y-64466723D02*
X96081963Y-64276247D01*
X96081963Y-64276247D02*
X96081963Y-64133390D01*
X96081963Y-64133390D02*
X96129582Y-63942914D01*
X96129582Y-63942914D02*
X96177201Y-63847676D01*
X96177201Y-63847676D02*
X96272439Y-63752438D01*
X96272439Y-63752438D02*
X96415296Y-63704819D01*
X96415296Y-63704819D02*
X96510534Y-63704819D01*
X96510534Y-63704819D02*
X96653391Y-63752438D01*
X96653391Y-63752438D02*
X96701010Y-63800057D01*
X97034344Y-63704819D02*
X97653391Y-63704819D01*
X97653391Y-63704819D02*
X97320058Y-64085771D01*
X97320058Y-64085771D02*
X97462915Y-64085771D01*
X97462915Y-64085771D02*
X97558153Y-64133390D01*
X97558153Y-64133390D02*
X97605772Y-64181009D01*
X97605772Y-64181009D02*
X97653391Y-64276247D01*
X97653391Y-64276247D02*
X97653391Y-64514342D01*
X97653391Y-64514342D02*
X97605772Y-64609580D01*
X97605772Y-64609580D02*
X97558153Y-64657200D01*
X97558153Y-64657200D02*
X97462915Y-64704819D01*
X97462915Y-64704819D02*
X97177201Y-64704819D01*
X97177201Y-64704819D02*
X97081963Y-64657200D01*
X97081963Y-64657200D02*
X97034344Y-64609580D01*
X49424819Y-61738094D02*
X48424819Y-61738094D01*
X48424819Y-61738094D02*
X48424819Y-61499999D01*
X48424819Y-61499999D02*
X48472438Y-61357142D01*
X48472438Y-61357142D02*
X48567676Y-61261904D01*
X48567676Y-61261904D02*
X48662914Y-61214285D01*
X48662914Y-61214285D02*
X48853390Y-61166666D01*
X48853390Y-61166666D02*
X48996247Y-61166666D01*
X48996247Y-61166666D02*
X49186723Y-61214285D01*
X49186723Y-61214285D02*
X49281961Y-61261904D01*
X49281961Y-61261904D02*
X49377200Y-61357142D01*
X49377200Y-61357142D02*
X49424819Y-61499999D01*
X49424819Y-61499999D02*
X49424819Y-61738094D01*
X49424819Y-60214285D02*
X49424819Y-60785713D01*
X49424819Y-60499999D02*
X48424819Y-60499999D01*
X48424819Y-60499999D02*
X48567676Y-60595237D01*
X48567676Y-60595237D02*
X48662914Y-60690475D01*
X48662914Y-60690475D02*
X48710533Y-60785713D01*
X49054819Y-56181904D02*
X48054819Y-56181904D01*
X49054819Y-55610476D02*
X48483390Y-56039047D01*
X48054819Y-55610476D02*
X48626247Y-56181904D01*
X61531905Y-77494819D02*
X61531905Y-76494819D01*
X61531905Y-76494819D02*
X61770000Y-76494819D01*
X61770000Y-76494819D02*
X61912857Y-76542438D01*
X61912857Y-76542438D02*
X62008095Y-76637676D01*
X62008095Y-76637676D02*
X62055714Y-76732914D01*
X62055714Y-76732914D02*
X62103333Y-76923390D01*
X62103333Y-76923390D02*
X62103333Y-77066247D01*
X62103333Y-77066247D02*
X62055714Y-77256723D01*
X62055714Y-77256723D02*
X62008095Y-77351961D01*
X62008095Y-77351961D02*
X61912857Y-77447200D01*
X61912857Y-77447200D02*
X61770000Y-77494819D01*
X61770000Y-77494819D02*
X61531905Y-77494819D01*
X62436667Y-76494819D02*
X63103333Y-76494819D01*
X63103333Y-76494819D02*
X62674762Y-77494819D01*
X56924819Y-78818094D02*
X55924819Y-78818094D01*
X55924819Y-78818094D02*
X55924819Y-78579999D01*
X55924819Y-78579999D02*
X55972438Y-78437142D01*
X55972438Y-78437142D02*
X56067676Y-78341904D01*
X56067676Y-78341904D02*
X56162914Y-78294285D01*
X56162914Y-78294285D02*
X56353390Y-78246666D01*
X56353390Y-78246666D02*
X56496247Y-78246666D01*
X56496247Y-78246666D02*
X56686723Y-78294285D01*
X56686723Y-78294285D02*
X56781961Y-78341904D01*
X56781961Y-78341904D02*
X56877200Y-78437142D01*
X56877200Y-78437142D02*
X56924819Y-78579999D01*
X56924819Y-78579999D02*
X56924819Y-78818094D01*
X56258152Y-77389523D02*
X56924819Y-77389523D01*
X55877200Y-77627618D02*
X56591485Y-77865713D01*
X56591485Y-77865713D02*
X56591485Y-77246666D01*
X56554819Y-73261904D02*
X55554819Y-73261904D01*
X56554819Y-72690476D02*
X55983390Y-73119047D01*
X55554819Y-72690476D02*
X56126247Y-73261904D01*
X82238095Y-40304819D02*
X82238095Y-41114342D01*
X82238095Y-41114342D02*
X82285714Y-41209580D01*
X82285714Y-41209580D02*
X82333333Y-41257200D01*
X82333333Y-41257200D02*
X82428571Y-41304819D01*
X82428571Y-41304819D02*
X82619047Y-41304819D01*
X82619047Y-41304819D02*
X82714285Y-41257200D01*
X82714285Y-41257200D02*
X82761904Y-41209580D01*
X82761904Y-41209580D02*
X82809523Y-41114342D01*
X82809523Y-41114342D02*
X82809523Y-40304819D01*
X83809523Y-41304819D02*
X83238095Y-41304819D01*
X83523809Y-41304819D02*
X83523809Y-40304819D01*
X83523809Y-40304819D02*
X83428571Y-40447676D01*
X83428571Y-40447676D02*
X83333333Y-40542914D01*
X83333333Y-40542914D02*
X83238095Y-40590533D01*
X103602319Y-76328333D02*
X104316604Y-76328333D01*
X104316604Y-76328333D02*
X104459461Y-76375952D01*
X104459461Y-76375952D02*
X104554700Y-76471190D01*
X104554700Y-76471190D02*
X104602319Y-76614047D01*
X104602319Y-76614047D02*
X104602319Y-76709285D01*
X103697557Y-75899761D02*
X103649938Y-75852142D01*
X103649938Y-75852142D02*
X103602319Y-75756904D01*
X103602319Y-75756904D02*
X103602319Y-75518809D01*
X103602319Y-75518809D02*
X103649938Y-75423571D01*
X103649938Y-75423571D02*
X103697557Y-75375952D01*
X103697557Y-75375952D02*
X103792795Y-75328333D01*
X103792795Y-75328333D02*
X103888033Y-75328333D01*
X103888033Y-75328333D02*
X104030890Y-75375952D01*
X104030890Y-75375952D02*
X104602319Y-75947380D01*
X104602319Y-75947380D02*
X104602319Y-75328333D01*
X79924819Y-61738094D02*
X78924819Y-61738094D01*
X78924819Y-61738094D02*
X78924819Y-61499999D01*
X78924819Y-61499999D02*
X78972438Y-61357142D01*
X78972438Y-61357142D02*
X79067676Y-61261904D01*
X79067676Y-61261904D02*
X79162914Y-61214285D01*
X79162914Y-61214285D02*
X79353390Y-61166666D01*
X79353390Y-61166666D02*
X79496247Y-61166666D01*
X79496247Y-61166666D02*
X79686723Y-61214285D01*
X79686723Y-61214285D02*
X79781961Y-61261904D01*
X79781961Y-61261904D02*
X79877200Y-61357142D01*
X79877200Y-61357142D02*
X79924819Y-61499999D01*
X79924819Y-61499999D02*
X79924819Y-61738094D01*
X78924819Y-60261904D02*
X78924819Y-60738094D01*
X78924819Y-60738094D02*
X79401009Y-60785713D01*
X79401009Y-60785713D02*
X79353390Y-60738094D01*
X79353390Y-60738094D02*
X79305771Y-60642856D01*
X79305771Y-60642856D02*
X79305771Y-60404761D01*
X79305771Y-60404761D02*
X79353390Y-60309523D01*
X79353390Y-60309523D02*
X79401009Y-60261904D01*
X79401009Y-60261904D02*
X79496247Y-60214285D01*
X79496247Y-60214285D02*
X79734342Y-60214285D01*
X79734342Y-60214285D02*
X79829580Y-60261904D01*
X79829580Y-60261904D02*
X79877200Y-60309523D01*
X79877200Y-60309523D02*
X79924819Y-60404761D01*
X79924819Y-60404761D02*
X79924819Y-60642856D01*
X79924819Y-60642856D02*
X79877200Y-60738094D01*
X79877200Y-60738094D02*
X79829580Y-60785713D01*
X79354819Y-57451904D02*
X78354819Y-57451904D01*
X79354819Y-56880476D02*
X78783390Y-57309047D01*
X78354819Y-56880476D02*
X78926247Y-57451904D01*
X52333333Y-40609580D02*
X52285714Y-40657200D01*
X52285714Y-40657200D02*
X52142857Y-40704819D01*
X52142857Y-40704819D02*
X52047619Y-40704819D01*
X52047619Y-40704819D02*
X51904762Y-40657200D01*
X51904762Y-40657200D02*
X51809524Y-40561961D01*
X51809524Y-40561961D02*
X51761905Y-40466723D01*
X51761905Y-40466723D02*
X51714286Y-40276247D01*
X51714286Y-40276247D02*
X51714286Y-40133390D01*
X51714286Y-40133390D02*
X51761905Y-39942914D01*
X51761905Y-39942914D02*
X51809524Y-39847676D01*
X51809524Y-39847676D02*
X51904762Y-39752438D01*
X51904762Y-39752438D02*
X52047619Y-39704819D01*
X52047619Y-39704819D02*
X52142857Y-39704819D01*
X52142857Y-39704819D02*
X52285714Y-39752438D01*
X52285714Y-39752438D02*
X52333333Y-39800057D01*
X53190476Y-40038152D02*
X53190476Y-40704819D01*
X52952381Y-39657200D02*
X52714286Y-40371485D01*
X52714286Y-40371485D02*
X53333333Y-40371485D01*
X49424819Y-78318094D02*
X48424819Y-78318094D01*
X48424819Y-78318094D02*
X48424819Y-78079999D01*
X48424819Y-78079999D02*
X48472438Y-77937142D01*
X48472438Y-77937142D02*
X48567676Y-77841904D01*
X48567676Y-77841904D02*
X48662914Y-77794285D01*
X48662914Y-77794285D02*
X48853390Y-77746666D01*
X48853390Y-77746666D02*
X48996247Y-77746666D01*
X48996247Y-77746666D02*
X49186723Y-77794285D01*
X49186723Y-77794285D02*
X49281961Y-77841904D01*
X49281961Y-77841904D02*
X49377200Y-77937142D01*
X49377200Y-77937142D02*
X49424819Y-78079999D01*
X49424819Y-78079999D02*
X49424819Y-78318094D01*
X48424819Y-77413332D02*
X48424819Y-76794285D01*
X48424819Y-76794285D02*
X48805771Y-77127618D01*
X48805771Y-77127618D02*
X48805771Y-76984761D01*
X48805771Y-76984761D02*
X48853390Y-76889523D01*
X48853390Y-76889523D02*
X48901009Y-76841904D01*
X48901009Y-76841904D02*
X48996247Y-76794285D01*
X48996247Y-76794285D02*
X49234342Y-76794285D01*
X49234342Y-76794285D02*
X49329580Y-76841904D01*
X49329580Y-76841904D02*
X49377200Y-76889523D01*
X49377200Y-76889523D02*
X49424819Y-76984761D01*
X49424819Y-76984761D02*
X49424819Y-77270475D01*
X49424819Y-77270475D02*
X49377200Y-77365713D01*
X49377200Y-77365713D02*
X49329580Y-77413332D01*
X49054819Y-72761904D02*
X48054819Y-72761904D01*
X49054819Y-72190476D02*
X48483390Y-72619047D01*
X48054819Y-72190476D02*
X48626247Y-72761904D01*
%TO.C,C1*%
D11*
X65030000Y-49130000D02*
X69970000Y-49130000D01*
X65030000Y-49460000D02*
X65030000Y-49130000D01*
X65030000Y-51870000D02*
X65030000Y-51540000D01*
X69970000Y-49130000D02*
X69970000Y-49460000D01*
X69970000Y-51540000D02*
X69970000Y-51870000D01*
X69970000Y-51870000D02*
X65030000Y-51870000D01*
%TO.C,C2*%
X62760000Y-61912323D02*
X59083000Y-61912323D01*
X62760000Y-61952323D02*
X59093000Y-61952323D01*
X62760000Y-61992323D02*
X59104000Y-61992323D01*
X62760000Y-62032323D02*
X59115000Y-62032323D01*
X62760000Y-62072323D02*
X59127000Y-62072323D01*
X62760000Y-62112323D02*
X59139000Y-62112323D01*
X62760000Y-62152323D02*
X59151000Y-62152323D01*
X62760000Y-62192323D02*
X59163000Y-62192323D01*
X62760000Y-62232323D02*
X59176000Y-62232323D01*
X62760000Y-62272323D02*
X59190000Y-62272323D01*
X62760000Y-62312323D02*
X59203000Y-62312323D01*
X62760000Y-62352323D02*
X59218000Y-62352323D01*
X62760000Y-62392323D02*
X59232000Y-62392323D01*
X62760000Y-62432323D02*
X59247000Y-62432323D01*
X62760000Y-62472323D02*
X59262000Y-62472323D01*
X62760000Y-62512323D02*
X59278000Y-62512323D01*
X62760000Y-62552323D02*
X59294000Y-62552323D01*
X62760000Y-62592323D02*
X59310000Y-62592323D01*
X62760000Y-62632323D02*
X59327000Y-62632323D01*
X62760000Y-62672323D02*
X59344000Y-62672323D01*
X62760000Y-62712323D02*
X59362000Y-62712323D01*
X62760000Y-62752323D02*
X59380000Y-62752323D01*
X62760000Y-62792323D02*
X59398000Y-62792323D01*
X62760000Y-62832323D02*
X59417000Y-62832323D01*
X62760000Y-62872323D02*
X59436000Y-62872323D01*
X62760000Y-62912323D02*
X59456000Y-62912323D01*
X62760000Y-62952323D02*
X59476000Y-62952323D01*
X62760000Y-62992323D02*
X59496000Y-62992323D01*
X62760000Y-63032323D02*
X59517000Y-63032323D01*
X62760000Y-63072323D02*
X59539000Y-63072323D01*
X62760000Y-63112323D02*
X59561000Y-63112323D01*
X62760000Y-63152323D02*
X59583000Y-63152323D01*
X62760000Y-63192323D02*
X59606000Y-63192323D01*
X62760000Y-63232323D02*
X59629000Y-63232323D01*
X62760000Y-63272323D02*
X59653000Y-63272323D01*
X62760000Y-63312323D02*
X59677000Y-63312323D01*
X62760000Y-63352323D02*
X59702000Y-63352323D01*
X62760000Y-63392323D02*
X59728000Y-63392323D01*
X62760000Y-63432323D02*
X59753000Y-63432323D01*
X62760000Y-63472323D02*
X59780000Y-63472323D01*
X62760000Y-63512323D02*
X59807000Y-63512323D01*
X62760000Y-63552323D02*
X59834000Y-63552323D01*
X62760000Y-63592323D02*
X59862000Y-63592323D01*
X62760000Y-63632323D02*
X59891000Y-63632323D01*
X62760000Y-63672323D02*
X59920000Y-63672323D01*
X62760000Y-63712323D02*
X59950000Y-63712323D01*
X62760000Y-63752323D02*
X59980000Y-63752323D01*
X62760000Y-63792323D02*
X60012000Y-63792323D01*
X62760000Y-63832323D02*
X60043000Y-63832323D01*
X62760000Y-63872323D02*
X60076000Y-63872323D01*
X62760000Y-63912323D02*
X60109000Y-63912323D01*
X62760000Y-63952323D02*
X60142000Y-63952323D01*
X62760000Y-63992323D02*
X60177000Y-63992323D01*
X62760000Y-64032323D02*
X60212000Y-64032323D01*
X62760000Y-64072323D02*
X60248000Y-64072323D01*
X62760000Y-64112323D02*
X60284000Y-64112323D01*
X62760000Y-64152323D02*
X60322000Y-64152323D01*
X62760000Y-64192323D02*
X60360000Y-64192323D01*
X62760000Y-64232323D02*
X60399000Y-64232323D01*
X62760000Y-64272323D02*
X60439000Y-64272323D01*
X62760000Y-64312323D02*
X60480000Y-64312323D01*
X62760000Y-64352323D02*
X60522000Y-64352323D01*
X64599000Y-65712323D02*
X63401000Y-65712323D01*
X64862000Y-65672323D02*
X63138000Y-65672323D01*
X65062000Y-65632323D02*
X62938000Y-65632323D01*
X65230000Y-65592323D02*
X62770000Y-65592323D01*
X65377000Y-65552323D02*
X62623000Y-65552323D01*
X65509000Y-65512323D02*
X62491000Y-65512323D01*
X65630000Y-65472323D02*
X62370000Y-65472323D01*
X65742000Y-65432323D02*
X62258000Y-65432323D01*
X65846000Y-65392323D02*
X62154000Y-65392323D01*
X65944000Y-65352323D02*
X62056000Y-65352323D01*
X66037000Y-65312323D02*
X61963000Y-65312323D01*
X66124000Y-65272323D02*
X61876000Y-65272323D01*
X66208000Y-65232323D02*
X61792000Y-65232323D01*
X66288000Y-65192323D02*
X61712000Y-65192323D01*
X66365000Y-65152323D02*
X61635000Y-65152323D01*
X66439000Y-65112323D02*
X61561000Y-65112323D01*
X66510000Y-65072323D02*
X61490000Y-65072323D01*
X66578000Y-65032323D02*
X61422000Y-65032323D01*
X66644000Y-64992323D02*
X61356000Y-64992323D01*
X66708000Y-64952323D02*
X61292000Y-64952323D01*
X66770000Y-64912323D02*
X61230000Y-64912323D01*
X66830000Y-64872323D02*
X61170000Y-64872323D01*
X66875000Y-55152677D02*
X66875000Y-56152677D01*
X66888000Y-64832323D02*
X61112000Y-64832323D01*
X66945000Y-64792323D02*
X61055000Y-64792323D01*
X67000000Y-64752323D02*
X61000000Y-64752323D01*
X67053000Y-64712323D02*
X60947000Y-64712323D01*
X67105000Y-64672323D02*
X60895000Y-64672323D01*
X67156000Y-64632323D02*
X60844000Y-64632323D01*
X67205000Y-64592323D02*
X60795000Y-64592323D01*
X67254000Y-64552323D02*
X60746000Y-64552323D01*
X67301000Y-64512323D02*
X60699000Y-64512323D01*
X67347000Y-64472323D02*
X60653000Y-64472323D01*
X67375000Y-55652677D02*
X66375000Y-55652677D01*
X67391000Y-64432323D02*
X60609000Y-64432323D01*
X67435000Y-64392323D02*
X60565000Y-64392323D01*
X67478000Y-64352323D02*
X65240000Y-64352323D01*
X67520000Y-64312323D02*
X65240000Y-64312323D01*
X67561000Y-64272323D02*
X65240000Y-64272323D01*
X67601000Y-64232323D02*
X65240000Y-64232323D01*
X67640000Y-64192323D02*
X65240000Y-64192323D01*
X67678000Y-64152323D02*
X65240000Y-64152323D01*
X67716000Y-64112323D02*
X65240000Y-64112323D01*
X67752000Y-64072323D02*
X65240000Y-64072323D01*
X67788000Y-64032323D02*
X65240000Y-64032323D01*
X67823000Y-63992323D02*
X65240000Y-63992323D01*
X67858000Y-63952323D02*
X65240000Y-63952323D01*
X67891000Y-63912323D02*
X65240000Y-63912323D01*
X67924000Y-63872323D02*
X65240000Y-63872323D01*
X67957000Y-63832323D02*
X65240000Y-63832323D01*
X67988000Y-63792323D02*
X65240000Y-63792323D01*
X68020000Y-63752323D02*
X65240000Y-63752323D01*
X68050000Y-63712323D02*
X65240000Y-63712323D01*
X68080000Y-63672323D02*
X65240000Y-63672323D01*
X68109000Y-63632323D02*
X65240000Y-63632323D01*
X68138000Y-63592323D02*
X65240000Y-63592323D01*
X68166000Y-63552323D02*
X65240000Y-63552323D01*
X68193000Y-63512323D02*
X65240000Y-63512323D01*
X68220000Y-63472323D02*
X65240000Y-63472323D01*
X68247000Y-63432323D02*
X65240000Y-63432323D01*
X68272000Y-63392323D02*
X65240000Y-63392323D01*
X68298000Y-63352323D02*
X65240000Y-63352323D01*
X68323000Y-63312323D02*
X65240000Y-63312323D01*
X68347000Y-63272323D02*
X65240000Y-63272323D01*
X68371000Y-63232323D02*
X65240000Y-63232323D01*
X68394000Y-63192323D02*
X65240000Y-63192323D01*
X68417000Y-63152323D02*
X65240000Y-63152323D01*
X68439000Y-63112323D02*
X65240000Y-63112323D01*
X68461000Y-63072323D02*
X65240000Y-63072323D01*
X68483000Y-63032323D02*
X65240000Y-63032323D01*
X68504000Y-62992323D02*
X65240000Y-62992323D01*
X68524000Y-62952323D02*
X65240000Y-62952323D01*
X68544000Y-62912323D02*
X65240000Y-62912323D01*
X68564000Y-62872323D02*
X65240000Y-62872323D01*
X68583000Y-62832323D02*
X65240000Y-62832323D01*
X68602000Y-62792323D02*
X65240000Y-62792323D01*
X68620000Y-62752323D02*
X65240000Y-62752323D01*
X68638000Y-62712323D02*
X65240000Y-62712323D01*
X68656000Y-62672323D02*
X65240000Y-62672323D01*
X68673000Y-62632323D02*
X65240000Y-62632323D01*
X68690000Y-62592323D02*
X65240000Y-62592323D01*
X68706000Y-62552323D02*
X65240000Y-62552323D01*
X68722000Y-62512323D02*
X65240000Y-62512323D01*
X68738000Y-62472323D02*
X65240000Y-62472323D01*
X68753000Y-62432323D02*
X65240000Y-62432323D01*
X68768000Y-62392323D02*
X65240000Y-62392323D01*
X68782000Y-62352323D02*
X65240000Y-62352323D01*
X68797000Y-62312323D02*
X65240000Y-62312323D01*
X68810000Y-62272323D02*
X65240000Y-62272323D01*
X68824000Y-62232323D02*
X65240000Y-62232323D01*
X68837000Y-62192323D02*
X65240000Y-62192323D01*
X68849000Y-62152323D02*
X65240000Y-62152323D01*
X68861000Y-62112323D02*
X65240000Y-62112323D01*
X68873000Y-62072323D02*
X65240000Y-62072323D01*
X68885000Y-62032323D02*
X65240000Y-62032323D01*
X68896000Y-61992323D02*
X65240000Y-61992323D01*
X68907000Y-61952323D02*
X65240000Y-61952323D01*
X68917000Y-61912323D02*
X65240000Y-61912323D01*
X68928000Y-61872323D02*
X59072000Y-61872323D01*
X68937000Y-61832323D02*
X59063000Y-61832323D01*
X68947000Y-61792323D02*
X59053000Y-61792323D01*
X68956000Y-61752323D02*
X59044000Y-61752323D01*
X68965000Y-61712323D02*
X59035000Y-61712323D01*
X68973000Y-61672323D02*
X59027000Y-61672323D01*
X68981000Y-61632323D02*
X59019000Y-61632323D01*
X68989000Y-61592323D02*
X59011000Y-61592323D01*
X68997000Y-61552323D02*
X59003000Y-61552323D01*
X69004000Y-61512323D02*
X58996000Y-61512323D01*
X69011000Y-61472323D02*
X58989000Y-61472323D01*
X69017000Y-61432323D02*
X58983000Y-61432323D01*
X69023000Y-61392323D02*
X58977000Y-61392323D01*
X69029000Y-61352323D02*
X58971000Y-61352323D01*
X69035000Y-61312323D02*
X58965000Y-61312323D01*
X69040000Y-61272323D02*
X58960000Y-61272323D01*
X69045000Y-61232323D02*
X58955000Y-61232323D01*
X69049000Y-61192323D02*
X58951000Y-61192323D01*
X69054000Y-61152323D02*
X58946000Y-61152323D01*
X69057000Y-61112323D02*
X58943000Y-61112323D01*
X69061000Y-61072323D02*
X58939000Y-61072323D01*
X69064000Y-61032323D02*
X58936000Y-61032323D01*
X69067000Y-60992323D02*
X58933000Y-60992323D01*
X69070000Y-60952323D02*
X58930000Y-60952323D01*
X69072000Y-60912323D02*
X58928000Y-60912323D01*
X69074000Y-60872323D02*
X58926000Y-60872323D01*
X69076000Y-60832323D02*
X58924000Y-60832323D01*
X69077000Y-60792323D02*
X58923000Y-60792323D01*
X69079000Y-60712323D02*
X58921000Y-60712323D01*
X69079000Y-60752323D02*
X58921000Y-60752323D01*
X69080000Y-60632323D02*
X58920000Y-60632323D01*
X69080000Y-60672323D02*
X58920000Y-60672323D01*
X69120000Y-60632323D02*
G75*
G02*
X58880000Y-60632323I-5120000J0D01*
G01*
X58880000Y-60632323D02*
G75*
G02*
X69120000Y-60632323I5120000J0D01*
G01*
%TO.C,J1*%
X30780000Y-57760000D02*
X40820000Y-57760000D01*
X30780000Y-60120000D02*
X30780000Y-57760000D01*
X30780000Y-68160000D02*
X30780000Y-60720000D01*
X31400000Y-57760000D02*
X31400000Y-68160000D01*
X32900000Y-57760000D02*
X32900000Y-68160000D01*
X37800000Y-57760000D02*
X37800000Y-68160000D01*
X40820000Y-57760000D02*
X40820000Y-68160000D01*
X40820000Y-68160000D02*
X30780000Y-68160000D01*
X30780000Y-60420000D02*
X30170000Y-60860000D01*
X30170000Y-59980000D01*
X30780000Y-60420000D01*
G36*
X30780000Y-60420000D02*
G01*
X30170000Y-60860000D01*
X30170000Y-59980000D01*
X30780000Y-60420000D01*
G37*
%TO.C,D6*%
X83530000Y-58280000D02*
X83530000Y-63720000D01*
X83530000Y-63720000D02*
X83860000Y-63720000D01*
X83860000Y-58280000D02*
X83530000Y-58280000D01*
X86140000Y-58280000D02*
X86470000Y-58280000D01*
X86470000Y-58280000D02*
X86470000Y-63720000D01*
X86470000Y-59060000D02*
X83530000Y-59060000D01*
X86470000Y-59180000D02*
X83530000Y-59180000D01*
X86470000Y-59300000D02*
X83530000Y-59300000D01*
X86470000Y-63720000D02*
X86140000Y-63720000D01*
%TO.C,R2*%
X83630000Y-72230000D02*
X83960000Y-72230000D01*
X83630000Y-78770000D02*
X83630000Y-72230000D01*
X83960000Y-78770000D02*
X83630000Y-78770000D01*
X86040000Y-78770000D02*
X86370000Y-78770000D01*
X86370000Y-72230000D02*
X86040000Y-72230000D01*
X86370000Y-78770000D02*
X86370000Y-72230000D01*
%TO.C,R4*%
X60540000Y-69630000D02*
X67080000Y-69630000D01*
X60540000Y-69960000D02*
X60540000Y-69630000D01*
X60540000Y-72040000D02*
X60540000Y-72370000D01*
X60540000Y-72370000D02*
X67080000Y-72370000D01*
X67080000Y-69630000D02*
X67080000Y-69960000D01*
X67080000Y-72370000D02*
X67080000Y-72040000D01*
%TO.C,D2*%
X54000000Y-57260000D02*
X54000000Y-58280000D01*
X54000000Y-64740000D02*
X54000000Y-63720000D01*
X55470000Y-59060000D02*
X52530000Y-59060000D01*
X55470000Y-59180000D02*
X52530000Y-59180000D01*
X55470000Y-59300000D02*
X52530000Y-59300000D01*
X52530000Y-58280000D02*
X55470000Y-58280000D01*
X55470000Y-63720000D01*
X52530000Y-63720000D01*
X52530000Y-58280000D01*
%TO.C,R3*%
X37130000Y-45420000D02*
X37460000Y-45420000D01*
X37130000Y-51960000D02*
X37130000Y-45420000D01*
X37460000Y-51960000D02*
X37130000Y-51960000D01*
X39540000Y-51960000D02*
X39870000Y-51960000D01*
X39870000Y-45420000D02*
X39540000Y-45420000D01*
X39870000Y-51960000D02*
X39870000Y-45420000D01*
%TO.C,R1*%
X75630000Y-72040000D02*
X75960000Y-72040000D01*
X75630000Y-78580000D02*
X75630000Y-72040000D01*
X75960000Y-78580000D02*
X75630000Y-78580000D01*
X78040000Y-78580000D02*
X78370000Y-78580000D01*
X78370000Y-72040000D02*
X78040000Y-72040000D01*
X78370000Y-78580000D02*
X78370000Y-72040000D01*
%TO.C,C3*%
X91787677Y-58599000D02*
X91787677Y-57401000D01*
X91827677Y-58862000D02*
X91827677Y-57138000D01*
X91867677Y-59062000D02*
X91867677Y-56938000D01*
X91907677Y-59230000D02*
X91907677Y-56770000D01*
X91947677Y-59377000D02*
X91947677Y-56623000D01*
X91987677Y-59509000D02*
X91987677Y-56491000D01*
X92027677Y-59630000D02*
X92027677Y-56370000D01*
X92067677Y-59742000D02*
X92067677Y-56258000D01*
X92107677Y-59846000D02*
X92107677Y-56154000D01*
X92147677Y-59944000D02*
X92147677Y-56056000D01*
X92187677Y-60037000D02*
X92187677Y-55963000D01*
X92227677Y-60124000D02*
X92227677Y-55876000D01*
X92267677Y-60208000D02*
X92267677Y-55792000D01*
X92307677Y-60288000D02*
X92307677Y-55712000D01*
X92347677Y-60365000D02*
X92347677Y-55635000D01*
X92387677Y-60439000D02*
X92387677Y-55561000D01*
X92427677Y-60510000D02*
X92427677Y-55490000D01*
X92467677Y-60578000D02*
X92467677Y-55422000D01*
X92507677Y-60644000D02*
X92507677Y-55356000D01*
X92547677Y-60708000D02*
X92547677Y-55292000D01*
X92587677Y-60770000D02*
X92587677Y-55230000D01*
X92627677Y-60830000D02*
X92627677Y-55170000D01*
X92667677Y-60888000D02*
X92667677Y-55112000D01*
X92707677Y-60945000D02*
X92707677Y-55055000D01*
X92747677Y-61000000D02*
X92747677Y-55000000D01*
X92787677Y-61053000D02*
X92787677Y-54947000D01*
X92827677Y-61105000D02*
X92827677Y-54895000D01*
X92867677Y-61156000D02*
X92867677Y-54844000D01*
X92907677Y-61205000D02*
X92907677Y-54795000D01*
X92947677Y-61254000D02*
X92947677Y-54746000D01*
X92987677Y-61301000D02*
X92987677Y-54699000D01*
X93027677Y-61347000D02*
X93027677Y-54653000D01*
X93067677Y-61391000D02*
X93067677Y-54609000D01*
X93107677Y-61435000D02*
X93107677Y-54565000D01*
X93147677Y-61478000D02*
X93147677Y-54522000D01*
X93187677Y-61520000D02*
X93187677Y-54480000D01*
X93227677Y-61561000D02*
X93227677Y-54439000D01*
X93267677Y-61601000D02*
X93267677Y-54399000D01*
X93307677Y-61640000D02*
X93307677Y-54360000D01*
X93347677Y-61678000D02*
X93347677Y-54322000D01*
X93387677Y-61716000D02*
X93387677Y-54284000D01*
X93427677Y-61752000D02*
X93427677Y-54248000D01*
X93467677Y-61788000D02*
X93467677Y-54212000D01*
X93507677Y-61823000D02*
X93507677Y-54177000D01*
X93547677Y-61858000D02*
X93547677Y-54142000D01*
X93587677Y-61891000D02*
X93587677Y-54109000D01*
X93627677Y-61924000D02*
X93627677Y-54076000D01*
X93667677Y-61957000D02*
X93667677Y-54043000D01*
X93707677Y-61988000D02*
X93707677Y-54012000D01*
X93747677Y-56760000D02*
X93747677Y-53980000D01*
X93747677Y-62020000D02*
X93747677Y-59240000D01*
X93787677Y-56760000D02*
X93787677Y-53950000D01*
X93787677Y-62050000D02*
X93787677Y-59240000D01*
X93827677Y-56760000D02*
X93827677Y-53920000D01*
X93827677Y-62080000D02*
X93827677Y-59240000D01*
X93867677Y-56760000D02*
X93867677Y-53891000D01*
X93867677Y-62109000D02*
X93867677Y-59240000D01*
X93907677Y-56760000D02*
X93907677Y-53862000D01*
X93907677Y-62138000D02*
X93907677Y-59240000D01*
X93947677Y-56760000D02*
X93947677Y-53834000D01*
X93947677Y-62166000D02*
X93947677Y-59240000D01*
X93987677Y-56760000D02*
X93987677Y-53807000D01*
X93987677Y-62193000D02*
X93987677Y-59240000D01*
X94027677Y-56760000D02*
X94027677Y-53780000D01*
X94027677Y-62220000D02*
X94027677Y-59240000D01*
X94067677Y-56760000D02*
X94067677Y-53753000D01*
X94067677Y-62247000D02*
X94067677Y-59240000D01*
X94107677Y-56760000D02*
X94107677Y-53728000D01*
X94107677Y-62272000D02*
X94107677Y-59240000D01*
X94147677Y-56760000D02*
X94147677Y-53702000D01*
X94147677Y-62298000D02*
X94147677Y-59240000D01*
X94187677Y-56760000D02*
X94187677Y-53677000D01*
X94187677Y-62323000D02*
X94187677Y-59240000D01*
X94227677Y-56760000D02*
X94227677Y-53653000D01*
X94227677Y-62347000D02*
X94227677Y-59240000D01*
X94267677Y-56760000D02*
X94267677Y-53629000D01*
X94267677Y-62371000D02*
X94267677Y-59240000D01*
X94307677Y-56760000D02*
X94307677Y-53606000D01*
X94307677Y-62394000D02*
X94307677Y-59240000D01*
X94347677Y-56760000D02*
X94347677Y-53583000D01*
X94347677Y-62417000D02*
X94347677Y-59240000D01*
X94387677Y-56760000D02*
X94387677Y-53561000D01*
X94387677Y-62439000D02*
X94387677Y-59240000D01*
X94427677Y-56760000D02*
X94427677Y-53539000D01*
X94427677Y-62461000D02*
X94427677Y-59240000D01*
X94467677Y-56760000D02*
X94467677Y-53517000D01*
X94467677Y-62483000D02*
X94467677Y-59240000D01*
X94507677Y-56760000D02*
X94507677Y-53496000D01*
X94507677Y-62504000D02*
X94507677Y-59240000D01*
X94547677Y-56760000D02*
X94547677Y-53476000D01*
X94547677Y-62524000D02*
X94547677Y-59240000D01*
X94587677Y-56760000D02*
X94587677Y-53456000D01*
X94587677Y-62544000D02*
X94587677Y-59240000D01*
X94627677Y-56760000D02*
X94627677Y-53436000D01*
X94627677Y-62564000D02*
X94627677Y-59240000D01*
X94667677Y-56760000D02*
X94667677Y-53417000D01*
X94667677Y-62583000D02*
X94667677Y-59240000D01*
X94707677Y-56760000D02*
X94707677Y-53398000D01*
X94707677Y-62602000D02*
X94707677Y-59240000D01*
X94747677Y-56760000D02*
X94747677Y-53380000D01*
X94747677Y-62620000D02*
X94747677Y-59240000D01*
X94787677Y-56760000D02*
X94787677Y-53362000D01*
X94787677Y-62638000D02*
X94787677Y-59240000D01*
X94827677Y-56760000D02*
X94827677Y-53344000D01*
X94827677Y-62656000D02*
X94827677Y-59240000D01*
X94867677Y-56760000D02*
X94867677Y-53327000D01*
X94867677Y-62673000D02*
X94867677Y-59240000D01*
X94907677Y-56760000D02*
X94907677Y-53310000D01*
X94907677Y-62690000D02*
X94907677Y-59240000D01*
X94947677Y-56760000D02*
X94947677Y-53294000D01*
X94947677Y-62706000D02*
X94947677Y-59240000D01*
X94987677Y-56760000D02*
X94987677Y-53278000D01*
X94987677Y-62722000D02*
X94987677Y-59240000D01*
X95027677Y-56760000D02*
X95027677Y-53262000D01*
X95027677Y-62738000D02*
X95027677Y-59240000D01*
X95067677Y-56760000D02*
X95067677Y-53247000D01*
X95067677Y-62753000D02*
X95067677Y-59240000D01*
X95107677Y-56760000D02*
X95107677Y-53232000D01*
X95107677Y-62768000D02*
X95107677Y-59240000D01*
X95147677Y-56760000D02*
X95147677Y-53218000D01*
X95147677Y-62782000D02*
X95147677Y-59240000D01*
X95187677Y-56760000D02*
X95187677Y-53203000D01*
X95187677Y-62797000D02*
X95187677Y-59240000D01*
X95227677Y-56760000D02*
X95227677Y-53190000D01*
X95227677Y-62810000D02*
X95227677Y-59240000D01*
X95267677Y-56760000D02*
X95267677Y-53176000D01*
X95267677Y-62824000D02*
X95267677Y-59240000D01*
X95307677Y-56760000D02*
X95307677Y-53163000D01*
X95307677Y-62837000D02*
X95307677Y-59240000D01*
X95347677Y-56760000D02*
X95347677Y-53151000D01*
X95347677Y-62849000D02*
X95347677Y-59240000D01*
X95387677Y-56760000D02*
X95387677Y-53139000D01*
X95387677Y-62861000D02*
X95387677Y-59240000D01*
X95427677Y-56760000D02*
X95427677Y-53127000D01*
X95427677Y-62873000D02*
X95427677Y-59240000D01*
X95467677Y-56760000D02*
X95467677Y-53115000D01*
X95467677Y-62885000D02*
X95467677Y-59240000D01*
X95507677Y-56760000D02*
X95507677Y-53104000D01*
X95507677Y-62896000D02*
X95507677Y-59240000D01*
X95547677Y-56760000D02*
X95547677Y-53093000D01*
X95547677Y-62907000D02*
X95547677Y-59240000D01*
X95587677Y-56760000D02*
X95587677Y-53083000D01*
X95587677Y-62917000D02*
X95587677Y-59240000D01*
X95627677Y-56760000D02*
X95627677Y-53072000D01*
X95627677Y-62928000D02*
X95627677Y-59240000D01*
X95667677Y-56760000D02*
X95667677Y-53063000D01*
X95667677Y-62937000D02*
X95667677Y-59240000D01*
X95707677Y-56760000D02*
X95707677Y-53053000D01*
X95707677Y-62947000D02*
X95707677Y-59240000D01*
X95747677Y-56760000D02*
X95747677Y-53044000D01*
X95747677Y-62956000D02*
X95747677Y-59240000D01*
X95787677Y-56760000D02*
X95787677Y-53035000D01*
X95787677Y-62965000D02*
X95787677Y-59240000D01*
X95827677Y-56760000D02*
X95827677Y-53027000D01*
X95827677Y-62973000D02*
X95827677Y-59240000D01*
X95867677Y-56760000D02*
X95867677Y-53019000D01*
X95867677Y-62981000D02*
X95867677Y-59240000D01*
X95907677Y-56760000D02*
X95907677Y-53011000D01*
X95907677Y-62989000D02*
X95907677Y-59240000D01*
X95947677Y-56760000D02*
X95947677Y-53003000D01*
X95947677Y-62997000D02*
X95947677Y-59240000D01*
X95987677Y-56760000D02*
X95987677Y-52996000D01*
X95987677Y-63004000D02*
X95987677Y-59240000D01*
X96027677Y-56760000D02*
X96027677Y-52989000D01*
X96027677Y-63011000D02*
X96027677Y-59240000D01*
X96067677Y-56760000D02*
X96067677Y-52983000D01*
X96067677Y-63017000D02*
X96067677Y-59240000D01*
X96107677Y-56760000D02*
X96107677Y-52977000D01*
X96107677Y-63023000D02*
X96107677Y-59240000D01*
X96147677Y-56760000D02*
X96147677Y-52971000D01*
X96147677Y-63029000D02*
X96147677Y-59240000D01*
X96187677Y-56760000D02*
X96187677Y-52965000D01*
X96187677Y-63035000D02*
X96187677Y-59240000D01*
X96227677Y-63040000D02*
X96227677Y-52960000D01*
X96267677Y-63045000D02*
X96267677Y-52955000D01*
X96307677Y-63049000D02*
X96307677Y-52951000D01*
X96347677Y-63054000D02*
X96347677Y-52946000D01*
X96387677Y-63057000D02*
X96387677Y-52943000D01*
X96427677Y-63061000D02*
X96427677Y-52939000D01*
X96467677Y-63064000D02*
X96467677Y-52936000D01*
X96507677Y-63067000D02*
X96507677Y-52933000D01*
X96547677Y-63070000D02*
X96547677Y-52930000D01*
X96587677Y-63072000D02*
X96587677Y-52928000D01*
X96627677Y-63074000D02*
X96627677Y-52926000D01*
X96667677Y-63076000D02*
X96667677Y-52924000D01*
X96707677Y-63077000D02*
X96707677Y-52923000D01*
X96747677Y-63079000D02*
X96747677Y-52921000D01*
X96787677Y-63079000D02*
X96787677Y-52921000D01*
X96827677Y-63080000D02*
X96827677Y-52920000D01*
X96867677Y-63080000D02*
X96867677Y-52920000D01*
X101847323Y-61375000D02*
X101847323Y-60375000D01*
X102347323Y-60875000D02*
X101347323Y-60875000D01*
X101987677Y-58000000D02*
G75*
G02*
X91747677Y-58000000I-5120000J0D01*
G01*
X91747677Y-58000000D02*
G75*
G02*
X101987677Y-58000000I5120000J0D01*
G01*
%TO.C,D1*%
X46500000Y-57260000D02*
X46500000Y-58280000D01*
X46500000Y-64740000D02*
X46500000Y-63720000D01*
X47970000Y-59060000D02*
X45030000Y-59060000D01*
X47970000Y-59180000D02*
X45030000Y-59180000D01*
X47970000Y-59300000D02*
X45030000Y-59300000D01*
X45030000Y-58280000D02*
X47970000Y-58280000D01*
X47970000Y-63720000D01*
X45030000Y-63720000D01*
X45030000Y-58280000D01*
%TO.C,D7*%
X59710000Y-79455000D02*
X59710000Y-82545000D01*
X59710000Y-79455170D02*
G75*
G02*
X65260000Y-81000000I2560000J-1544830D01*
G01*
X65260000Y-81000000D02*
G75*
G02*
X59710000Y-82544830I-2990000J0D01*
G01*
X64770000Y-81000000D02*
G75*
G02*
X59770000Y-81000000I-2500000J0D01*
G01*
X59770000Y-81000000D02*
G75*
G02*
X64770000Y-81000000I2500000J0D01*
G01*
%TO.C,D4*%
X54000000Y-74340000D02*
X54000000Y-75360000D01*
X54000000Y-81820000D02*
X54000000Y-80800000D01*
X55470000Y-76140000D02*
X52530000Y-76140000D01*
X55470000Y-76260000D02*
X52530000Y-76260000D01*
X55470000Y-76380000D02*
X52530000Y-76380000D01*
X52530000Y-75360000D02*
X55470000Y-75360000D01*
X55470000Y-80800000D01*
X52530000Y-80800000D01*
X52530000Y-75360000D01*
%TO.C,U1*%
X77890000Y-41690000D02*
X88110000Y-41690000D01*
X77890000Y-43070000D02*
X88110000Y-43070000D01*
X77890000Y-46310000D02*
X77890000Y-41690000D01*
X81150000Y-41690000D02*
X81150000Y-43070000D01*
X84850000Y-41690000D02*
X84850000Y-43070000D01*
X88110000Y-41690000D02*
X88110000Y-46310000D01*
X88110000Y-46310000D02*
X77890000Y-46310000D01*
%TO.C,J2*%
X93107500Y-70795000D02*
X103147500Y-70795000D01*
X93107500Y-73155000D02*
X93107500Y-70795000D01*
X93107500Y-81195000D02*
X93107500Y-73755000D01*
X93727500Y-70795000D02*
X93727500Y-81195000D01*
X95227500Y-70795000D02*
X95227500Y-81195000D01*
X100127500Y-70795000D02*
X100127500Y-81195000D01*
X103147500Y-70795000D02*
X103147500Y-81195000D01*
X103147500Y-81195000D02*
X93107500Y-81195000D01*
X93107500Y-73455000D02*
X92497500Y-73895000D01*
X92497500Y-73015000D01*
X93107500Y-73455000D01*
G36*
X93107500Y-73455000D02*
G01*
X92497500Y-73895000D01*
X92497500Y-73015000D01*
X93107500Y-73455000D01*
G37*
%TO.C,D5*%
X75530000Y-58280000D02*
X75530000Y-63720000D01*
X75530000Y-63720000D02*
X75860000Y-63720000D01*
X75860000Y-58280000D02*
X75530000Y-58280000D01*
X78140000Y-58280000D02*
X78470000Y-58280000D01*
X78470000Y-58280000D02*
X78470000Y-63720000D01*
X78470000Y-59060000D02*
X75530000Y-59060000D01*
X78470000Y-59180000D02*
X75530000Y-59180000D01*
X78470000Y-59300000D02*
X75530000Y-59300000D01*
X78470000Y-63720000D02*
X78140000Y-63720000D01*
%TO.C,C4*%
X43380000Y-41380000D02*
X61620000Y-41380000D01*
X43380000Y-47620000D02*
X43380000Y-41380000D01*
X61620000Y-41380000D02*
X61620000Y-47620000D01*
X61620000Y-47620000D02*
X43380000Y-47620000D01*
%TO.C,D3*%
X46500000Y-73840000D02*
X46500000Y-74860000D01*
X46500000Y-81320000D02*
X46500000Y-80300000D01*
X47970000Y-75640000D02*
X45030000Y-75640000D01*
X47970000Y-75760000D02*
X45030000Y-75760000D01*
X47970000Y-75880000D02*
X45030000Y-75880000D01*
X45030000Y-74860000D02*
X47970000Y-74860000D01*
X47970000Y-80300000D01*
X45030000Y-80300000D01*
X45030000Y-74860000D01*
%TD*%
M02*
