%TF.GenerationSoftware,KiCad,Pcbnew,10.0.3*%
%TF.CreationDate,2026-08-30T02:55:00+05:30*%
%TF.ProjectId,Transformerless Power Supply,5472616e-7366-46f7-926d-65726c657373,rev?*%
%TF.SameCoordinates,Original*%
%TF.FileFunction,Copper,L1,Top*%
%TF.FilePolarity,Positive*%
%FSLAX46Y46*%
G04 Gerber Fmt 4.6, Leading zero omitted, Abs format (unit mm)*
G04 Created by KiCad (PCBNEW 10.0.3) date 2026-08-30 02:55:00*
%MOMM*%
%LPD*%
G01*
G04 APERTURE LIST*
G04 Aperture macros list*
%AMRoundRect*
0 Rectangle with rounded corners*
0 $1 Rounding radius*
0 $2 $3 $4 $5 $6 $7 $8 $9 X,Y pos of 4 corners*
0 Add a 4 corners polygon primitive as box body*
4,1,4,$2,$3,$4,$5,$6,$7,$8,$9,$2,$3,0*
0 Add four circle primitives for the rounded corners*
1,1,$1+$1,$2,$3*
1,1,$1+$1,$4,$5*
1,1,$1+$1,$6,$7*
1,1,$1+$1,$8,$9*
0 Add four rect primitives between the rounded corners*
20,1,$1+$1,$2,$3,$4,$5,0*
20,1,$1+$1,$4,$5,$6,$7,0*
20,1,$1+$1,$6,$7,$8,$9,0*
20,1,$1+$1,$8,$9,$2,$3,0*%
G04 Aperture macros list end*
%TA.AperFunction,ComponentPad*%
%ADD10C,1.600000*%
%TD*%
%TA.AperFunction,ComponentPad*%
%ADD11RoundRect,0.250000X-0.750000X0.750000X-0.750000X-0.750000X0.750000X-0.750000X0.750000X0.750000X0*%
%TD*%
%TA.AperFunction,ComponentPad*%
%ADD12C,2.000000*%
%TD*%
%TA.AperFunction,ComponentPad*%
%ADD13RoundRect,0.250000X-1.050000X1.050000X-1.050000X-1.050000X1.050000X-1.050000X1.050000X1.050000X0*%
%TD*%
%TA.AperFunction,ComponentPad*%
%ADD14C,2.600000*%
%TD*%
%TA.AperFunction,ComponentPad*%
%ADD15RoundRect,0.250000X-0.650000X0.650000X-0.650000X-0.650000X0.650000X-0.650000X0.650000X0.650000X0*%
%TD*%
%TA.AperFunction,ComponentPad*%
%ADD16C,1.800000*%
%TD*%
%TA.AperFunction,ComponentPad*%
%ADD17RoundRect,0.249999X-0.850001X0.850001X-0.850001X-0.850001X0.850001X-0.850001X0.850001X0.850001X0*%
%TD*%
%TA.AperFunction,ComponentPad*%
%ADD18C,2.200000*%
%TD*%
%TA.AperFunction,ComponentPad*%
%ADD19RoundRect,0.250000X0.750000X0.750000X-0.750000X0.750000X-0.750000X-0.750000X0.750000X-0.750000X0*%
%TD*%
%TA.AperFunction,ComponentPad*%
%ADD20R,1.800000X1.800000*%
%TD*%
%TA.AperFunction,ComponentPad*%
%ADD21R,1.905000X2.000000*%
%TD*%
%TA.AperFunction,ComponentPad*%
%ADD22O,1.905000X2.000000*%
%TD*%
%TA.AperFunction,ComponentPad*%
%ADD23C,2.400000*%
%TD*%
%TA.AperFunction,Conductor*%
%ADD24C,1.000000*%
%TD*%
G04 APERTURE END LIST*
D10*
%TO.P,C1,1*%
%TO.N,Net-(D1-K)*%
X65000000Y-50500000D03*
%TO.P,C1,2*%
%TO.N,GND*%
X70000000Y-50500000D03*
%TD*%
D11*
%TO.P,C2,1*%
%TO.N,Net-(D1-K)*%
X64000000Y-58132323D03*
D12*
%TO.P,C2,2*%
%TO.N,GND*%
X64000000Y-63132323D03*
%TD*%
D13*
%TO.P,J1,1,Pin_1_1*%
%TO.N,Net-(D2-A)*%
X35500000Y-60420000D03*
D14*
%TO.P,J1,2,Pin_2_2*%
%TO.N,Net-(J1-Pin_2)*%
X35500000Y-65500000D03*
%TD*%
D15*
%TO.P,D6,1,K_1*%
%TO.N,Net-(D1-K)*%
X85000000Y-57190000D03*
D16*
%TO.P,D6,2,A_2*%
%TO.N,Net-(D6-A)*%
X85000000Y-64810000D03*
%TD*%
D10*
%TO.P,R2,1*%
%TO.N,Net-(D6-A)*%
X85000000Y-79310000D03*
%TO.P,R2,2*%
%TO.N,GND*%
X85000000Y-71690000D03*
%TD*%
%TO.P,R4,1*%
%TO.N,Net-(D1-K)*%
X60000000Y-71000000D03*
%TO.P,R4,2*%
%TO.N,Net-(D7-A)*%
X67620000Y-71000000D03*
%TD*%
D17*
%TO.P,D2,1,K_1*%
%TO.N,Net-(D1-K)*%
X54000000Y-55920000D03*
D18*
%TO.P,D2,2,A_2*%
%TO.N,Net-(D2-A)*%
X54000000Y-66080000D03*
%TD*%
D10*
%TO.P,R3,1*%
%TO.N,Net-(J1-Pin_2)*%
X38500000Y-52500000D03*
%TO.P,R3,2*%
%TO.N,Net-(D1-A)*%
X38500000Y-44880000D03*
%TD*%
%TO.P,R1,1*%
%TO.N,Net-(D5-A)*%
X77000000Y-79120000D03*
%TO.P,R1,2*%
%TO.N,GND*%
X77000000Y-71500000D03*
%TD*%
D19*
%TO.P,C3,1*%
%TO.N,/5V*%
X98767677Y-58000000D03*
D12*
%TO.P,C3,2*%
%TO.N,GND*%
X94967677Y-58000000D03*
%TD*%
D17*
%TO.P,D1,1,K_1*%
%TO.N,Net-(D1-K)*%
X46500000Y-55920000D03*
D18*
%TO.P,D1,2,A_2*%
%TO.N,Net-(D1-A)*%
X46500000Y-66080000D03*
%TD*%
D20*
%TO.P,D7,1,K_1*%
%TO.N,GND*%
X61000000Y-81000000D03*
D16*
%TO.P,D7,2,A_2*%
%TO.N,Net-(D7-A)*%
X63540000Y-81000000D03*
%TD*%
D17*
%TO.P,D4,1,K_1*%
%TO.N,Net-(D2-A)*%
X54000000Y-73000000D03*
D18*
%TO.P,D4,2,A_2*%
%TO.N,GND*%
X54000000Y-83160000D03*
%TD*%
D21*
%TO.P,U1,1,IN_1*%
%TO.N,Net-(D1-K)*%
X80460000Y-44950000D03*
D22*
%TO.P,U1,2,GND_2*%
%TO.N,GND*%
X83000000Y-44950000D03*
%TO.P,U1,3,OUT_3*%
%TO.N,/5V*%
X85540000Y-44950000D03*
%TD*%
D13*
%TO.P,J2,1,Pin_1_1*%
%TO.N,/5V*%
X97827500Y-73455000D03*
D14*
%TO.P,J2,2,Pin_2_2*%
%TO.N,GND*%
X97827500Y-78535000D03*
%TD*%
D15*
%TO.P,D5,1,K_1*%
%TO.N,Net-(D1-K)*%
X77000000Y-57190000D03*
D16*
%TO.P,D5,2,A_2*%
%TO.N,Net-(D5-A)*%
X77000000Y-64810000D03*
%TD*%
D23*
%TO.P,C4,1*%
%TO.N,Net-(D1-A)*%
X45000000Y-44500000D03*
%TO.P,C4,2*%
%TO.N,Net-(J1-Pin_2)*%
X60000000Y-44500000D03*
%TD*%
D17*
%TO.P,D3,1,K_1*%
%TO.N,Net-(D1-A)*%
X46500000Y-72500000D03*
D18*
%TO.P,D3,2,A_2*%
%TO.N,GND*%
X46500000Y-82660000D03*
%TD*%
%TO.N,Net-(D1-K)*%
D24*
X60000000Y-71000000D02*
X60000000Y-62132323D01*
X60000000Y-62132323D02*
X64000000Y-58132323D01*
%TO.N,Net-(D1-A)*%
X38500000Y-50000000D02*
X43000000Y-54500000D01*
X43000000Y-46500000D02*
X43000000Y-54500000D01*
X38500000Y-44880000D02*
X38500000Y-50000000D01*
X43000000Y-63000000D02*
X43420000Y-63000000D01*
X43420000Y-63000000D02*
X46500000Y-66080000D01*
X43000000Y-54500000D02*
X43000000Y-63000000D01*
X45000000Y-44500000D02*
X43000000Y-46500000D01*
%TD*%
%TA.AperFunction,Conductor*%
%TO.N,GND*%
G36*
X106267481Y-38520185D02*
G01*
X106313236Y-38572989D01*
X106323180Y-38642147D01*
X106294155Y-38705703D01*
X106247895Y-38739061D01*
X106151330Y-38779059D01*
X106151319Y-38779064D01*
X105933955Y-38904561D01*
X105734834Y-39057351D01*
X105734827Y-39057357D01*
X105557357Y-39234827D01*
X105557351Y-39234834D01*
X105404561Y-39433955D01*
X105279064Y-39651319D01*
X105279059Y-39651330D01*
X105183011Y-39883210D01*
X105118047Y-40125659D01*
X105085286Y-40374495D01*
X105085286Y-40625504D01*
X105114668Y-40848673D01*
X105118048Y-40874344D01*
X105150529Y-40995564D01*
X105183011Y-41116789D01*
X105279059Y-41348669D01*
X105279064Y-41348680D01*
X105339456Y-41453280D01*
X105404558Y-41566040D01*
X105404560Y-41566043D01*
X105404561Y-41566044D01*
X105557351Y-41765165D01*
X105557357Y-41765172D01*
X105734827Y-41942642D01*
X105734833Y-41942647D01*
X105933960Y-42095442D01*
X106073661Y-42176099D01*
X106151319Y-42220935D01*
X106151324Y-42220937D01*
X106151327Y-42220939D01*
X106383215Y-42316990D01*
X106625656Y-42381952D01*
X106874503Y-42414714D01*
X106874510Y-42414714D01*
X107125490Y-42414714D01*
X107125497Y-42414714D01*
X107374344Y-42381952D01*
X107616785Y-42316990D01*
X107848673Y-42220939D01*
X108066040Y-42095442D01*
X108265167Y-41942647D01*
X108442647Y-41765167D01*
X108595442Y-41566040D01*
X108660544Y-41453279D01*
X108711111Y-41405064D01*
X108779718Y-41391842D01*
X108844583Y-41417810D01*
X108885111Y-41474724D01*
X108891931Y-41515280D01*
X108891931Y-83484719D01*
X108872246Y-83551758D01*
X108819442Y-83597513D01*
X108750284Y-83607457D01*
X108686728Y-83578432D01*
X108660544Y-83546720D01*
X108632752Y-83498583D01*
X108595442Y-83433960D01*
X108548123Y-83372292D01*
X108442648Y-83234834D01*
X108442642Y-83234827D01*
X108265172Y-83057357D01*
X108265165Y-83057351D01*
X108066044Y-82904561D01*
X108066043Y-82904560D01*
X108066040Y-82904558D01*
X107979377Y-82854523D01*
X107848680Y-82779064D01*
X107848669Y-82779059D01*
X107616789Y-82683011D01*
X107374340Y-82618047D01*
X107125504Y-82585286D01*
X107125497Y-82585286D01*
X106874503Y-82585286D01*
X106874495Y-82585286D01*
X106625659Y-82618047D01*
X106383210Y-82683011D01*
X106151330Y-82779059D01*
X106151319Y-82779064D01*
X105933955Y-82904561D01*
X105734834Y-83057351D01*
X105734827Y-83057357D01*
X105557357Y-83234827D01*
X105557351Y-83234834D01*
X105404561Y-83433955D01*
X105279064Y-83651319D01*
X105279059Y-83651330D01*
X105183011Y-83883210D01*
X105118047Y-84125659D01*
X105085286Y-84374495D01*
X105085286Y-84625504D01*
X105118047Y-84874340D01*
X105118048Y-84874344D01*
X105150529Y-84995564D01*
X105183011Y-85116789D01*
X105279059Y-85348669D01*
X105279064Y-85348680D01*
X105311618Y-85405064D01*
X105404558Y-85566040D01*
X105404560Y-85566043D01*
X105404561Y-85566044D01*
X105557351Y-85765165D01*
X105557357Y-85765172D01*
X105734827Y-85942642D01*
X105734833Y-85942647D01*
X105933960Y-86095442D01*
X106073661Y-86176099D01*
X106151319Y-86220935D01*
X106151324Y-86220937D01*
X106151327Y-86220939D01*
X106383215Y-86316990D01*
X106625656Y-86381952D01*
X106874503Y-86414714D01*
X106874510Y-86414714D01*
X107125490Y-86414714D01*
X107125497Y-86414714D01*
X107374344Y-86381952D01*
X107616785Y-86316990D01*
X107848673Y-86220939D01*
X108066040Y-86095442D01*
X108265167Y-85942647D01*
X108442647Y-85765167D01*
X108595442Y-85566040D01*
X108660544Y-85453279D01*
X108711111Y-85405064D01*
X108779718Y-85391842D01*
X108844583Y-85417810D01*
X108885111Y-85474724D01*
X108891931Y-85515280D01*
X108891931Y-86562250D01*
X108872246Y-86629289D01*
X108819442Y-86675044D01*
X108767931Y-86686250D01*
X24624500Y-86686250D01*
X24557461Y-86666565D01*
X24511706Y-86613761D01*
X24500500Y-86562250D01*
X24500500Y-85299558D01*
X24520185Y-85232519D01*
X24572989Y-85186764D01*
X24642147Y-85176820D01*
X24705703Y-85205845D01*
X24739061Y-85252105D01*
X24779059Y-85348669D01*
X24779064Y-85348680D01*
X24811618Y-85405064D01*
X24904558Y-85566040D01*
X24904560Y-85566043D01*
X24904561Y-85566044D01*
X25057351Y-85765165D01*
X25057357Y-85765172D01*
X25234827Y-85942642D01*
X25234833Y-85942647D01*
X25433960Y-86095442D01*
X25573661Y-86176099D01*
X25651319Y-86220935D01*
X25651324Y-86220937D01*
X25651327Y-86220939D01*
X25883215Y-86316990D01*
X26125656Y-86381952D01*
X26374503Y-86414714D01*
X26374510Y-86414714D01*
X26625490Y-86414714D01*
X26625497Y-86414714D01*
X26874344Y-86381952D01*
X27116785Y-86316990D01*
X27348673Y-86220939D01*
X27566040Y-86095442D01*
X27765167Y-85942647D01*
X27942647Y-85765167D01*
X28095442Y-85566040D01*
X28220939Y-85348673D01*
X28316990Y-85116785D01*
X28381952Y-84874344D01*
X28414714Y-84625497D01*
X28414714Y-84374503D01*
X28381952Y-84125656D01*
X28316990Y-83883215D01*
X28220939Y-83651327D01*
X28220937Y-83651324D01*
X28220935Y-83651319D01*
X28132752Y-83498583D01*
X28095442Y-83433960D01*
X28032409Y-83351814D01*
X27942648Y-83234834D01*
X27942642Y-83234827D01*
X27765172Y-83057357D01*
X27765165Y-83057351D01*
X27566044Y-82904561D01*
X27566043Y-82904560D01*
X27566040Y-82904558D01*
X27479377Y-82854523D01*
X27348680Y-82779064D01*
X27348669Y-82779059D01*
X27116789Y-82683011D01*
X27098220Y-82678035D01*
X26989781Y-82648979D01*
X26947238Y-82637580D01*
X26874344Y-82618048D01*
X26813215Y-82610000D01*
X26625504Y-82585286D01*
X26625497Y-82585286D01*
X26374503Y-82585286D01*
X26374495Y-82585286D01*
X26125659Y-82618047D01*
X25883210Y-82683011D01*
X25651330Y-82779059D01*
X25651319Y-82779064D01*
X25433955Y-82904561D01*
X25234834Y-83057351D01*
X25234827Y-83057357D01*
X25057357Y-83234827D01*
X25057351Y-83234834D01*
X24904561Y-83433955D01*
X24779064Y-83651319D01*
X24779059Y-83651331D01*
X24739061Y-83747894D01*
X24695220Y-83802297D01*
X24628925Y-83824362D01*
X24561226Y-83807083D01*
X24513616Y-83755945D01*
X24500500Y-83700441D01*
X24500500Y-82534071D01*
X44900000Y-82534071D01*
X44900000Y-82785928D01*
X44939397Y-83034669D01*
X45017219Y-83274184D01*
X45131557Y-83498583D01*
X45205748Y-83600697D01*
X45205748Y-83600698D01*
X45976212Y-82830234D01*
X45987482Y-82872292D01*
X46059890Y-82997708D01*
X46162292Y-83100110D01*
X46287708Y-83172518D01*
X46329765Y-83183787D01*
X45559300Y-83954250D01*
X45661416Y-84028442D01*
X45885815Y-84142780D01*
X46125330Y-84220602D01*
X46374072Y-84260000D01*
X46625928Y-84260000D01*
X46874669Y-84220602D01*
X47114184Y-84142780D01*
X47338575Y-84028446D01*
X47338581Y-84028442D01*
X47440697Y-83954250D01*
X47440698Y-83954250D01*
X46670234Y-83183787D01*
X46712292Y-83172518D01*
X46837708Y-83100110D01*
X46940110Y-82997708D01*
X47012518Y-82872292D01*
X47023787Y-82830235D01*
X47794250Y-83600698D01*
X47794250Y-83600697D01*
X47868442Y-83498581D01*
X47868446Y-83498575D01*
X47982780Y-83274184D01*
X48060602Y-83034669D01*
X48060697Y-83034071D01*
X52400000Y-83034071D01*
X52400000Y-83285928D01*
X52439397Y-83534669D01*
X52517219Y-83774184D01*
X52631557Y-83998583D01*
X52705748Y-84100697D01*
X52705748Y-84100698D01*
X53476212Y-83330233D01*
X53487482Y-83372292D01*
X53559890Y-83497708D01*
X53662292Y-83600110D01*
X53787708Y-83672518D01*
X53829765Y-83683787D01*
X53059300Y-84454250D01*
X53161416Y-84528442D01*
X53385815Y-84642780D01*
X53625330Y-84720602D01*
X53874072Y-84760000D01*
X54125928Y-84760000D01*
X54374669Y-84720602D01*
X54614184Y-84642780D01*
X54838575Y-84528446D01*
X54838581Y-84528442D01*
X54940697Y-84454250D01*
X54940698Y-84454250D01*
X54170234Y-83683787D01*
X54212292Y-83672518D01*
X54337708Y-83600110D01*
X54440110Y-83497708D01*
X54512518Y-83372292D01*
X54523787Y-83330234D01*
X55294250Y-84100698D01*
X55294250Y-84100697D01*
X55368442Y-83998581D01*
X55368446Y-83998575D01*
X55482780Y-83774184D01*
X55560602Y-83534669D01*
X55600000Y-83285928D01*
X55600000Y-83034071D01*
X55560602Y-82785330D01*
X55482780Y-82545815D01*
X55368442Y-82321416D01*
X55294250Y-82219301D01*
X55294250Y-82219300D01*
X54523787Y-82989764D01*
X54512518Y-82947708D01*
X54440110Y-82822292D01*
X54337708Y-82719890D01*
X54212292Y-82647482D01*
X54170232Y-82636212D01*
X54940698Y-81865748D01*
X54838583Y-81791557D01*
X54614184Y-81677219D01*
X54374669Y-81599397D01*
X54125928Y-81560000D01*
X53874072Y-81560000D01*
X53625330Y-81599397D01*
X53385815Y-81677219D01*
X53161413Y-81791559D01*
X53059301Y-81865747D01*
X53059300Y-81865748D01*
X53829765Y-82636212D01*
X53787708Y-82647482D01*
X53662292Y-82719890D01*
X53559890Y-82822292D01*
X53487482Y-82947708D01*
X53476212Y-82989765D01*
X52705748Y-82219300D01*
X52705747Y-82219301D01*
X52631559Y-82321413D01*
X52517219Y-82545815D01*
X52439397Y-82785330D01*
X52400000Y-83034071D01*
X48060697Y-83034071D01*
X48064541Y-83009806D01*
X48064541Y-83009805D01*
X48100000Y-82785928D01*
X48100000Y-82534071D01*
X48060602Y-82285330D01*
X47982780Y-82045815D01*
X47943795Y-81969303D01*
X47868442Y-81821416D01*
X47794250Y-81719301D01*
X47794250Y-81719300D01*
X47023787Y-82489764D01*
X47012518Y-82447708D01*
X46940110Y-82322292D01*
X46837708Y-82219890D01*
X46712292Y-82147482D01*
X46670232Y-82136212D01*
X47440698Y-81365748D01*
X47348767Y-81298956D01*
X47338582Y-81291556D01*
X47114184Y-81177219D01*
X46874669Y-81099397D01*
X46625928Y-81060000D01*
X46374072Y-81060000D01*
X46125330Y-81099397D01*
X45885815Y-81177219D01*
X45661413Y-81291559D01*
X45559301Y-81365747D01*
X45559300Y-81365748D01*
X46329765Y-82136212D01*
X46287708Y-82147482D01*
X46162292Y-82219890D01*
X46059890Y-82322292D01*
X45987482Y-82447708D01*
X45976212Y-82489765D01*
X45205748Y-81719300D01*
X45205747Y-81719301D01*
X45131559Y-81821413D01*
X45017219Y-82045815D01*
X44939397Y-82285330D01*
X44900000Y-82534071D01*
X24500500Y-82534071D01*
X24500500Y-80052155D01*
X59600000Y-80052155D01*
X59600000Y-80750000D01*
X60624722Y-80750000D01*
X60580667Y-80826306D01*
X60550000Y-80940756D01*
X60550000Y-81059244D01*
X60580667Y-81173694D01*
X60624722Y-81250000D01*
X59600000Y-81250000D01*
X59600000Y-81947844D01*
X59606401Y-82007372D01*
X59606403Y-82007379D01*
X59656645Y-82142086D01*
X59656649Y-82142093D01*
X59742809Y-82257187D01*
X59742812Y-82257190D01*
X59857906Y-82343350D01*
X59857913Y-82343354D01*
X59992620Y-82393596D01*
X59992627Y-82393598D01*
X60052155Y-82399999D01*
X60052172Y-82400000D01*
X60750000Y-82400000D01*
X60750000Y-81375277D01*
X60826306Y-81419333D01*
X60940756Y-81450000D01*
X61059244Y-81450000D01*
X61173694Y-81419333D01*
X61250000Y-81375277D01*
X61250000Y-82400000D01*
X61947828Y-82400000D01*
X61947844Y-82399999D01*
X62007372Y-82393598D01*
X62007379Y-82393596D01*
X62142086Y-82343354D01*
X62142093Y-82343350D01*
X62257187Y-82257190D01*
X62257190Y-82257187D01*
X62343350Y-82142093D01*
X62343354Y-82142086D01*
X62373213Y-82062031D01*
X62415084Y-82006097D01*
X62480548Y-81981680D01*
X62548821Y-81996531D01*
X62577076Y-82017683D01*
X62627636Y-82068243D01*
X62627641Y-82068247D01*
X62736700Y-82147482D01*
X62805978Y-82197815D01*
X62922501Y-82257187D01*
X63002393Y-82297895D01*
X63002396Y-82297896D01*
X63074776Y-82321413D01*
X63212049Y-82366015D01*
X63429778Y-82400500D01*
X63429779Y-82400500D01*
X63650221Y-82400500D01*
X63650222Y-82400500D01*
X63867951Y-82366015D01*
X64077606Y-82297895D01*
X64274022Y-82197815D01*
X64452365Y-82068242D01*
X64608242Y-81912365D01*
X64737815Y-81734022D01*
X64837895Y-81537606D01*
X64906015Y-81327951D01*
X64940500Y-81110222D01*
X64940500Y-80889778D01*
X64906015Y-80672049D01*
X64871955Y-80567221D01*
X64837896Y-80462396D01*
X64837895Y-80462393D01*
X64800232Y-80388477D01*
X64737815Y-80265978D01*
X64713335Y-80232284D01*
X64608247Y-80087641D01*
X64608243Y-80087636D01*
X64452363Y-79931756D01*
X64452358Y-79931752D01*
X64274025Y-79802187D01*
X64274024Y-79802186D01*
X64274022Y-79802185D01*
X64211096Y-79770122D01*
X64077606Y-79702104D01*
X64077603Y-79702103D01*
X63867952Y-79633985D01*
X63759086Y-79616742D01*
X63650222Y-79599500D01*
X63429778Y-79599500D01*
X63357201Y-79610995D01*
X63212047Y-79633985D01*
X63002396Y-79702103D01*
X63002393Y-79702104D01*
X62805974Y-79802187D01*
X62627641Y-79931752D01*
X62627636Y-79931756D01*
X62577075Y-79982317D01*
X62515752Y-80015801D01*
X62446060Y-80010816D01*
X62390127Y-79968945D01*
X62373213Y-79937968D01*
X62343354Y-79857913D01*
X62343350Y-79857906D01*
X62257190Y-79742812D01*
X62257187Y-79742809D01*
X62142093Y-79656649D01*
X62142086Y-79656645D01*
X62007379Y-79606403D01*
X62007372Y-79606401D01*
X61947844Y-79600000D01*
X61250000Y-79600000D01*
X61250000Y-80624722D01*
X61173694Y-80580667D01*
X61059244Y-80550000D01*
X60940756Y-80550000D01*
X60826306Y-80580667D01*
X60750000Y-80624722D01*
X60750000Y-79600000D01*
X60052155Y-79600000D01*
X59992627Y-79606401D01*
X59992620Y-79606403D01*
X59857913Y-79656645D01*
X59857906Y-79656649D01*
X59742812Y-79742809D01*
X59742809Y-79742812D01*
X59656649Y-79857906D01*
X59656645Y-79857913D01*
X59606403Y-79992620D01*
X59606401Y-79992627D01*
X59600000Y-80052155D01*
X24500500Y-80052155D01*
X24500500Y-79017648D01*
X75699500Y-79017648D01*
X75699500Y-79222351D01*
X75731522Y-79424534D01*
X75794781Y-79619223D01*
X75887715Y-79801613D01*
X76008028Y-79967213D01*
X76152786Y-80111971D01*
X76307749Y-80224556D01*
X76318390Y-80232287D01*
X76434607Y-80291503D01*
X76500776Y-80325218D01*
X76500778Y-80325218D01*
X76500781Y-80325220D01*
X76605137Y-80359127D01*
X76695465Y-80388477D01*
X76796557Y-80404488D01*
X76897648Y-80420500D01*
X76897649Y-80420500D01*
X77102351Y-80420500D01*
X77102352Y-80420500D01*
X77304534Y-80388477D01*
X77499219Y-80325220D01*
X77681610Y-80232287D01*
X77790969Y-80152834D01*
X77847213Y-80111971D01*
X77847215Y-80111968D01*
X77847219Y-80111966D01*
X77991966Y-79967219D01*
X77991968Y-79967215D01*
X77991971Y-79967213D01*
X78064030Y-79868030D01*
X78112287Y-79801610D01*
X78205220Y-79619219D01*
X78268477Y-79424534D01*
X78300500Y-79222352D01*
X78300500Y-79207648D01*
X83699500Y-79207648D01*
X83699500Y-79412352D01*
X83703878Y-79439995D01*
X83731522Y-79614534D01*
X83794781Y-79809223D01*
X83857214Y-79931752D01*
X83877863Y-79972279D01*
X83887715Y-79991613D01*
X84008028Y-80157213D01*
X84152786Y-80301971D01*
X84271854Y-80388477D01*
X84318390Y-80422287D01*
X84434607Y-80481503D01*
X84500776Y-80515218D01*
X84500778Y-80515218D01*
X84500781Y-80515220D01*
X84605137Y-80549127D01*
X84695465Y-80578477D01*
X84796557Y-80594488D01*
X84897648Y-80610500D01*
X84897649Y-80610500D01*
X85102351Y-80610500D01*
X85102352Y-80610500D01*
X85304534Y-80578477D01*
X85499219Y-80515220D01*
X85681610Y-80422287D01*
X85774590Y-80354732D01*
X85847213Y-80301971D01*
X85847215Y-80301968D01*
X85847219Y-80301966D01*
X85991966Y-80157219D01*
X85991968Y-80157215D01*
X85991971Y-80157213D01*
X86112284Y-79991614D01*
X86112285Y-79991613D01*
X86112287Y-79991610D01*
X86180413Y-79857906D01*
X86205216Y-79809228D01*
X86205218Y-79809223D01*
X86205220Y-79809219D01*
X86268477Y-79614534D01*
X86300500Y-79412352D01*
X86300500Y-79207648D01*
X86273929Y-79039888D01*
X86268477Y-79005465D01*
X86205218Y-78810776D01*
X86171503Y-78744607D01*
X86112287Y-78628390D01*
X86044436Y-78535000D01*
X86008726Y-78485848D01*
X85991971Y-78462786D01*
X85946199Y-78417014D01*
X96027500Y-78417014D01*
X96027500Y-78652985D01*
X96058299Y-78886914D01*
X96119370Y-79114837D01*
X96209660Y-79332819D01*
X96209665Y-79332828D01*
X96327644Y-79537171D01*
X96327645Y-79537172D01*
X96390221Y-79618723D01*
X97226458Y-78782487D01*
X97251478Y-78842890D01*
X97322612Y-78949351D01*
X97413149Y-79039888D01*
X97519610Y-79111022D01*
X97580011Y-79136041D01*
X96743775Y-79972277D01*
X96825327Y-80034854D01*
X96825328Y-80034855D01*
X97029671Y-80152834D01*
X97029680Y-80152839D01*
X97247663Y-80243129D01*
X97247661Y-80243129D01*
X97475585Y-80304200D01*
X97709514Y-80334999D01*
X97709529Y-80335000D01*
X97945471Y-80335000D01*
X97945485Y-80334999D01*
X98179414Y-80304200D01*
X98407337Y-80243129D01*
X98625319Y-80152839D01*
X98625328Y-80152834D01*
X98829681Y-80034850D01*
X98911223Y-79972279D01*
X98911223Y-79972276D01*
X98074987Y-79136041D01*
X98135390Y-79111022D01*
X98241851Y-79039888D01*
X98332388Y-78949351D01*
X98403522Y-78842890D01*
X98428541Y-78782487D01*
X99264776Y-79618723D01*
X99264779Y-79618723D01*
X99327350Y-79537181D01*
X99445334Y-79332828D01*
X99445339Y-79332819D01*
X99535629Y-79114837D01*
X99596700Y-78886914D01*
X99627499Y-78652985D01*
X99627500Y-78652971D01*
X99627500Y-78417028D01*
X99627499Y-78417014D01*
X99596700Y-78183085D01*
X99535629Y-77955162D01*
X99445339Y-77737180D01*
X99445334Y-77737171D01*
X99327355Y-77532828D01*
X99327354Y-77532827D01*
X99264777Y-77451275D01*
X98428541Y-78287511D01*
X98403522Y-78227110D01*
X98332388Y-78120649D01*
X98241851Y-78030112D01*
X98135390Y-77958978D01*
X98074988Y-77933958D01*
X98911223Y-77097721D01*
X98829672Y-77035145D01*
X98829671Y-77035144D01*
X98625328Y-76917165D01*
X98625319Y-76917160D01*
X98407336Y-76826870D01*
X98407338Y-76826870D01*
X98179414Y-76765799D01*
X97945485Y-76735000D01*
X97709514Y-76735000D01*
X97475585Y-76765799D01*
X97247662Y-76826870D01*
X97029680Y-76917160D01*
X97029671Y-76917165D01*
X96825328Y-77035144D01*
X96825318Y-77035150D01*
X96743775Y-77097720D01*
X96743775Y-77097721D01*
X97580012Y-77933958D01*
X97519610Y-77958978D01*
X97413149Y-78030112D01*
X97322612Y-78120649D01*
X97251478Y-78227110D01*
X97226458Y-78287512D01*
X96390221Y-77451275D01*
X96390220Y-77451275D01*
X96327650Y-77532818D01*
X96327644Y-77532828D01*
X96209665Y-77737171D01*
X96209660Y-77737180D01*
X96119370Y-77955162D01*
X96058299Y-78183085D01*
X96027500Y-78417014D01*
X85946199Y-78417014D01*
X85847213Y-78318028D01*
X85681613Y-78197715D01*
X85681612Y-78197714D01*
X85681610Y-78197713D01*
X85624653Y-78168691D01*
X85499223Y-78104781D01*
X85304534Y-78041522D01*
X85129995Y-78013878D01*
X85102352Y-78009500D01*
X84897648Y-78009500D01*
X84873329Y-78013351D01*
X84695465Y-78041522D01*
X84500776Y-78104781D01*
X84318386Y-78197715D01*
X84152786Y-78318028D01*
X84008028Y-78462786D01*
X83887715Y-78628386D01*
X83794781Y-78810776D01*
X83731522Y-79005465D01*
X83714804Y-79111022D01*
X83699500Y-79207648D01*
X78300500Y-79207648D01*
X78300500Y-79017648D01*
X78280053Y-78888554D01*
X78268477Y-78815465D01*
X78238952Y-78724598D01*
X78205220Y-78620781D01*
X78205218Y-78620778D01*
X78205218Y-78620776D01*
X78136468Y-78485848D01*
X78112287Y-78438390D01*
X78096757Y-78417014D01*
X77991971Y-78272786D01*
X77847213Y-78128028D01*
X77681613Y-78007715D01*
X77681612Y-78007714D01*
X77681610Y-78007713D01*
X77624653Y-77978691D01*
X77499223Y-77914781D01*
X77304534Y-77851522D01*
X77129995Y-77823878D01*
X77102352Y-77819500D01*
X76897648Y-77819500D01*
X76873329Y-77823351D01*
X76695465Y-77851522D01*
X76500776Y-77914781D01*
X76318386Y-78007715D01*
X76152786Y-78128028D01*
X76008028Y-78272786D01*
X75887715Y-78438386D01*
X75794781Y-78620776D01*
X75731522Y-78815465D01*
X75699500Y-79017648D01*
X24500500Y-79017648D01*
X24500500Y-71599982D01*
X44899500Y-71599982D01*
X44899500Y-73400017D01*
X44910000Y-73502796D01*
X44910001Y-73502798D01*
X44965186Y-73669335D01*
X45057288Y-73818656D01*
X45181344Y-73942712D01*
X45330665Y-74034814D01*
X45497202Y-74089999D01*
X45599990Y-74100500D01*
X45599995Y-74100500D01*
X47400005Y-74100500D01*
X47400010Y-74100500D01*
X47502798Y-74089999D01*
X47669335Y-74034814D01*
X47818656Y-73942712D01*
X47942712Y-73818656D01*
X48034814Y-73669335D01*
X48089999Y-73502798D01*
X48100500Y-73400010D01*
X48100500Y-72099982D01*
X52399500Y-72099982D01*
X52399500Y-73900017D01*
X52410000Y-74002796D01*
X52442376Y-74100499D01*
X52465186Y-74169335D01*
X52557288Y-74318656D01*
X52681344Y-74442712D01*
X52830665Y-74534814D01*
X52997202Y-74589999D01*
X53099990Y-74600500D01*
X53099995Y-74600500D01*
X54900005Y-74600500D01*
X54900010Y-74600500D01*
X55002798Y-74589999D01*
X55169335Y-74534814D01*
X55318656Y-74442712D01*
X55442712Y-74318656D01*
X55534814Y-74169335D01*
X55589999Y-74002798D01*
X55600500Y-73900010D01*
X55600500Y-72099990D01*
X55589999Y-71997202D01*
X55534814Y-71830665D01*
X55442712Y-71681344D01*
X55318656Y-71557288D01*
X55169335Y-71465186D01*
X55002798Y-71410001D01*
X55002796Y-71410000D01*
X54900017Y-71399500D01*
X54900010Y-71399500D01*
X53099990Y-71399500D01*
X53099982Y-71399500D01*
X52997203Y-71410000D01*
X52997202Y-71410001D01*
X52914669Y-71437349D01*
X52830667Y-71465185D01*
X52830662Y-71465187D01*
X52681342Y-71557289D01*
X52557289Y-71681342D01*
X52465187Y-71830662D01*
X52465185Y-71830667D01*
X52451243Y-71872741D01*
X52410001Y-71997202D01*
X52410001Y-71997203D01*
X52410000Y-71997203D01*
X52399500Y-72099982D01*
X48100500Y-72099982D01*
X48100500Y-71599990D01*
X48089999Y-71497202D01*
X48034814Y-71330665D01*
X47942712Y-71181344D01*
X47818656Y-71057288D01*
X47669335Y-70965186D01*
X47502798Y-70910001D01*
X47502796Y-70910000D01*
X47400017Y-70899500D01*
X47400010Y-70899500D01*
X45599990Y-70899500D01*
X45599982Y-70899500D01*
X45497203Y-70910000D01*
X45497202Y-70910001D01*
X45414669Y-70937349D01*
X45330667Y-70965185D01*
X45330662Y-70965187D01*
X45181342Y-71057289D01*
X45057289Y-71181342D01*
X44965187Y-71330662D01*
X44965186Y-71330665D01*
X44910001Y-71497202D01*
X44910001Y-71497203D01*
X44910000Y-71497203D01*
X44899500Y-71599982D01*
X24500500Y-71599982D01*
X24500500Y-70897648D01*
X58699500Y-70897648D01*
X58699500Y-71102351D01*
X58731522Y-71304534D01*
X58794781Y-71499223D01*
X58824368Y-71557289D01*
X58887577Y-71681344D01*
X58887715Y-71681613D01*
X59008028Y-71847213D01*
X59152786Y-71991971D01*
X59287714Y-72090000D01*
X59318390Y-72112287D01*
X59434607Y-72171503D01*
X59500776Y-72205218D01*
X59500778Y-72205218D01*
X59500781Y-72205220D01*
X59605137Y-72239127D01*
X59695465Y-72268477D01*
X59796557Y-72284488D01*
X59897648Y-72300500D01*
X59897649Y-72300500D01*
X60102351Y-72300500D01*
X60102352Y-72300500D01*
X60304534Y-72268477D01*
X60499219Y-72205220D01*
X60681610Y-72112287D01*
X60776215Y-72043553D01*
X60847213Y-71991971D01*
X60847215Y-71991968D01*
X60847219Y-71991966D01*
X60991966Y-71847219D01*
X60991968Y-71847215D01*
X60991971Y-71847213D01*
X61044732Y-71774590D01*
X61112287Y-71681610D01*
X61205220Y-71499219D01*
X61268477Y-71304534D01*
X61300500Y-71102352D01*
X61300500Y-70897648D01*
X66319500Y-70897648D01*
X66319500Y-71102351D01*
X66351522Y-71304534D01*
X66414781Y-71499223D01*
X66444368Y-71557289D01*
X66507577Y-71681344D01*
X66507715Y-71681613D01*
X66628028Y-71847213D01*
X66772786Y-71991971D01*
X66907714Y-72090000D01*
X66938390Y-72112287D01*
X67054607Y-72171503D01*
X67120776Y-72205218D01*
X67120778Y-72205218D01*
X67120781Y-72205220D01*
X67225137Y-72239127D01*
X67315465Y-72268477D01*
X67416557Y-72284488D01*
X67517648Y-72300500D01*
X67517649Y-72300500D01*
X67722351Y-72300500D01*
X67722352Y-72300500D01*
X67924534Y-72268477D01*
X68119219Y-72205220D01*
X68301610Y-72112287D01*
X68396215Y-72043553D01*
X68467213Y-71991971D01*
X68467215Y-71991968D01*
X68467219Y-71991966D01*
X68611966Y-71847219D01*
X68611968Y-71847215D01*
X68611971Y-71847213D01*
X68664732Y-71774590D01*
X68732287Y-71681610D01*
X68825220Y-71499219D01*
X68858211Y-71397682D01*
X75700000Y-71397682D01*
X75700000Y-71602317D01*
X75732009Y-71804417D01*
X75795244Y-71999031D01*
X75888141Y-72181350D01*
X75888147Y-72181359D01*
X75920523Y-72225921D01*
X75920524Y-72225922D01*
X76600000Y-71546446D01*
X76600000Y-71552661D01*
X76627259Y-71654394D01*
X76679920Y-71745606D01*
X76754394Y-71820080D01*
X76845606Y-71872741D01*
X76947339Y-71900000D01*
X76953553Y-71900000D01*
X76274076Y-72579474D01*
X76318650Y-72611859D01*
X76500968Y-72704755D01*
X76695582Y-72767990D01*
X76897683Y-72800000D01*
X77102317Y-72800000D01*
X77304417Y-72767990D01*
X77499031Y-72704755D01*
X77681348Y-72611860D01*
X77725921Y-72579474D01*
X77046447Y-71900000D01*
X77052661Y-71900000D01*
X77154394Y-71872741D01*
X77245606Y-71820080D01*
X77320080Y-71745606D01*
X77372741Y-71654394D01*
X77400000Y-71552661D01*
X77400000Y-71546447D01*
X78079474Y-72225921D01*
X78111859Y-72181349D01*
X78204755Y-71999031D01*
X78267990Y-71804417D01*
X78300000Y-71602317D01*
X78300000Y-71587682D01*
X83700000Y-71587682D01*
X83700000Y-71792317D01*
X83732009Y-71994417D01*
X83795244Y-72189031D01*
X83888141Y-72371350D01*
X83888147Y-72371359D01*
X83920523Y-72415921D01*
X83920524Y-72415922D01*
X84600000Y-71736446D01*
X84600000Y-71742661D01*
X84627259Y-71844394D01*
X84679920Y-71935606D01*
X84754394Y-72010080D01*
X84845606Y-72062741D01*
X84947339Y-72090000D01*
X84953553Y-72090000D01*
X84274076Y-72769474D01*
X84318650Y-72801859D01*
X84500968Y-72894755D01*
X84695582Y-72957990D01*
X84897683Y-72990000D01*
X85102317Y-72990000D01*
X85304417Y-72957990D01*
X85499031Y-72894755D01*
X85681349Y-72801859D01*
X85725921Y-72769474D01*
X85046447Y-72090000D01*
X85052661Y-72090000D01*
X85154394Y-72062741D01*
X85245606Y-72010080D01*
X85320080Y-71935606D01*
X85372741Y-71844394D01*
X85400000Y-71742661D01*
X85400000Y-71736447D01*
X86079474Y-72415921D01*
X86111859Y-72371349D01*
X86120198Y-72354983D01*
X96027000Y-72354983D01*
X96027000Y-74555001D01*
X96027001Y-74555018D01*
X96037500Y-74657796D01*
X96037501Y-74657799D01*
X96092685Y-74824331D01*
X96092686Y-74824334D01*
X96184788Y-74973656D01*
X96308844Y-75097712D01*
X96458166Y-75189814D01*
X96624703Y-75244999D01*
X96727491Y-75255500D01*
X98927508Y-75255499D01*
X99030297Y-75244999D01*
X99196834Y-75189814D01*
X99346156Y-75097712D01*
X99470212Y-74973656D01*
X99562314Y-74824334D01*
X99617499Y-74657797D01*
X99628000Y-74555009D01*
X99627999Y-72354992D01*
X99617499Y-72252203D01*
X99562314Y-72085666D01*
X99470212Y-71936344D01*
X99346156Y-71812288D01*
X99196834Y-71720186D01*
X99030297Y-71665001D01*
X99030295Y-71665000D01*
X98927510Y-71654500D01*
X96727498Y-71654500D01*
X96727481Y-71654501D01*
X96624703Y-71665000D01*
X96624700Y-71665001D01*
X96458168Y-71720185D01*
X96458163Y-71720187D01*
X96308842Y-71812289D01*
X96184789Y-71936342D01*
X96092687Y-72085663D01*
X96092685Y-72085668D01*
X96064849Y-72169670D01*
X96037501Y-72252203D01*
X96037501Y-72252204D01*
X96037500Y-72252204D01*
X96027000Y-72354983D01*
X86120198Y-72354983D01*
X86150487Y-72295539D01*
X86150488Y-72295537D01*
X86204754Y-72189034D01*
X86267990Y-71994417D01*
X86300000Y-71792317D01*
X86300000Y-71587682D01*
X86267990Y-71385582D01*
X86204755Y-71190968D01*
X86111859Y-71008650D01*
X86079474Y-70964077D01*
X86079474Y-70964076D01*
X85400000Y-71643551D01*
X85400000Y-71637339D01*
X85372741Y-71535606D01*
X85320080Y-71444394D01*
X85245606Y-71369920D01*
X85154394Y-71317259D01*
X85052661Y-71290000D01*
X85046446Y-71290000D01*
X85725922Y-70610524D01*
X85725921Y-70610523D01*
X85681359Y-70578147D01*
X85681350Y-70578141D01*
X85499031Y-70485244D01*
X85304417Y-70422009D01*
X85102317Y-70390000D01*
X84897683Y-70390000D01*
X84695582Y-70422009D01*
X84500968Y-70485244D01*
X84318644Y-70578143D01*
X84274077Y-70610523D01*
X84274077Y-70610524D01*
X84953554Y-71290000D01*
X84947339Y-71290000D01*
X84845606Y-71317259D01*
X84754394Y-71369920D01*
X84679920Y-71444394D01*
X84627259Y-71535606D01*
X84600000Y-71637339D01*
X84600000Y-71643553D01*
X83920524Y-70964077D01*
X83920523Y-70964077D01*
X83888143Y-71008644D01*
X83795244Y-71190968D01*
X83732009Y-71385582D01*
X83700000Y-71587682D01*
X78300000Y-71587682D01*
X78300000Y-71397682D01*
X78267990Y-71195582D01*
X78204755Y-71000968D01*
X78111859Y-70818650D01*
X78079474Y-70774077D01*
X78079474Y-70774076D01*
X77400000Y-71453551D01*
X77400000Y-71447339D01*
X77372741Y-71345606D01*
X77320080Y-71254394D01*
X77245606Y-71179920D01*
X77154394Y-71127259D01*
X77052661Y-71100000D01*
X77046446Y-71100000D01*
X77725922Y-70420524D01*
X77725921Y-70420523D01*
X77681359Y-70388147D01*
X77681350Y-70388141D01*
X77499031Y-70295244D01*
X77304417Y-70232009D01*
X77102317Y-70200000D01*
X76897683Y-70200000D01*
X76695582Y-70232009D01*
X76500968Y-70295244D01*
X76318644Y-70388143D01*
X76274077Y-70420523D01*
X76274077Y-70420524D01*
X76953554Y-71100000D01*
X76947339Y-71100000D01*
X76845606Y-71127259D01*
X76754394Y-71179920D01*
X76679920Y-71254394D01*
X76627259Y-71345606D01*
X76600000Y-71447339D01*
X76600000Y-71453553D01*
X75920524Y-70774077D01*
X75920523Y-70774077D01*
X75888143Y-70818644D01*
X75795244Y-71000968D01*
X75732009Y-71195582D01*
X75700000Y-71397682D01*
X68858211Y-71397682D01*
X68888477Y-71304534D01*
X68920500Y-71102352D01*
X68920500Y-70897648D01*
X68888477Y-70695466D01*
X68825220Y-70500781D01*
X68732287Y-70318390D01*
X68715471Y-70295244D01*
X68611971Y-70152786D01*
X68467213Y-70008028D01*
X68301613Y-69887715D01*
X68301612Y-69887714D01*
X68301610Y-69887713D01*
X68244653Y-69858691D01*
X68119223Y-69794781D01*
X67924534Y-69731522D01*
X67749995Y-69703878D01*
X67722352Y-69699500D01*
X67517648Y-69699500D01*
X67493329Y-69703351D01*
X67315465Y-69731522D01*
X67120776Y-69794781D01*
X66938386Y-69887715D01*
X66772786Y-70008028D01*
X66628028Y-70152786D01*
X66507715Y-70318386D01*
X66414781Y-70500776D01*
X66351522Y-70695465D01*
X66319500Y-70897648D01*
X61300500Y-70897648D01*
X61268477Y-70695466D01*
X61205220Y-70500781D01*
X61205218Y-70500777D01*
X61205218Y-70500776D01*
X61171503Y-70434607D01*
X61112287Y-70318390D01*
X61049528Y-70232009D01*
X61024182Y-70197122D01*
X61000702Y-70131316D01*
X61000500Y-70124237D01*
X61000500Y-64699778D01*
X75599500Y-64699778D01*
X75599500Y-64920221D01*
X75633985Y-65137952D01*
X75702103Y-65347603D01*
X75702104Y-65347606D01*
X75802187Y-65544025D01*
X75931752Y-65722358D01*
X75931756Y-65722363D01*
X76087636Y-65878243D01*
X76087641Y-65878247D01*
X76144657Y-65919671D01*
X76265978Y-66007815D01*
X76394375Y-66073237D01*
X76462393Y-66107895D01*
X76462396Y-66107896D01*
X76567221Y-66141955D01*
X76672049Y-66176015D01*
X76889778Y-66210500D01*
X76889779Y-66210500D01*
X77110221Y-66210500D01*
X77110222Y-66210500D01*
X77327951Y-66176015D01*
X77537606Y-66107895D01*
X77734022Y-66007815D01*
X77912365Y-65878242D01*
X78068242Y-65722365D01*
X78197815Y-65544022D01*
X78297895Y-65347606D01*
X78366015Y-65137951D01*
X78400500Y-64920222D01*
X78400500Y-64699778D01*
X83599500Y-64699778D01*
X83599500Y-64920221D01*
X83633985Y-65137952D01*
X83702103Y-65347603D01*
X83702104Y-65347606D01*
X83802187Y-65544025D01*
X83931752Y-65722358D01*
X83931756Y-65722363D01*
X84087636Y-65878243D01*
X84087641Y-65878247D01*
X84144657Y-65919671D01*
X84265978Y-66007815D01*
X84394375Y-66073237D01*
X84462393Y-66107895D01*
X84462396Y-66107896D01*
X84567221Y-66141955D01*
X84672049Y-66176015D01*
X84889778Y-66210500D01*
X84889779Y-66210500D01*
X85110221Y-66210500D01*
X85110222Y-66210500D01*
X85327951Y-66176015D01*
X85537606Y-66107895D01*
X85734022Y-66007815D01*
X85912365Y-65878242D01*
X86068242Y-65722365D01*
X86197815Y-65544022D01*
X86297895Y-65347606D01*
X86366015Y-65137951D01*
X86400500Y-64920222D01*
X86400500Y-64699778D01*
X86366015Y-64482049D01*
X86297895Y-64272394D01*
X86297895Y-64272393D01*
X86263237Y-64204375D01*
X86197815Y-64075978D01*
X86181260Y-64053192D01*
X86068247Y-63897641D01*
X86068243Y-63897636D01*
X85912363Y-63741756D01*
X85912358Y-63741752D01*
X85734025Y-63612187D01*
X85734024Y-63612186D01*
X85734022Y-63612185D01*
X85671096Y-63580122D01*
X85537606Y-63512104D01*
X85537603Y-63512103D01*
X85327952Y-63443985D01*
X85219086Y-63426742D01*
X85110222Y-63409500D01*
X84889778Y-63409500D01*
X84817201Y-63420995D01*
X84672047Y-63443985D01*
X84462396Y-63512103D01*
X84462393Y-63512104D01*
X84265974Y-63612187D01*
X84087641Y-63741752D01*
X84087636Y-63741756D01*
X83931756Y-63897636D01*
X83931752Y-63897641D01*
X83802187Y-64075974D01*
X83702104Y-64272393D01*
X83702103Y-64272396D01*
X83633985Y-64482047D01*
X83599500Y-64699778D01*
X78400500Y-64699778D01*
X78366015Y-64482049D01*
X78297895Y-64272394D01*
X78297895Y-64272393D01*
X78263237Y-64204375D01*
X78197815Y-64075978D01*
X78181260Y-64053192D01*
X78068247Y-63897641D01*
X78068243Y-63897636D01*
X77912363Y-63741756D01*
X77912358Y-63741752D01*
X77734025Y-63612187D01*
X77734024Y-63612186D01*
X77734022Y-63612185D01*
X77671096Y-63580122D01*
X77537606Y-63512104D01*
X77537603Y-63512103D01*
X77327952Y-63443985D01*
X77219086Y-63426742D01*
X77110222Y-63409500D01*
X76889778Y-63409500D01*
X76817201Y-63420995D01*
X76672047Y-63443985D01*
X76462396Y-63512103D01*
X76462393Y-63512104D01*
X76265974Y-63612187D01*
X76087641Y-63741752D01*
X76087636Y-63741756D01*
X75931756Y-63897636D01*
X75931752Y-63897641D01*
X75802187Y-64075974D01*
X75702104Y-64272393D01*
X75702103Y-64272396D01*
X75633985Y-64482047D01*
X75599500Y-64699778D01*
X61000500Y-64699778D01*
X61000500Y-63014270D01*
X62500000Y-63014270D01*
X62500000Y-63250375D01*
X62536934Y-63483570D01*
X62609897Y-63708125D01*
X62717087Y-63918497D01*
X62777338Y-64001427D01*
X62777340Y-64001428D01*
X63517037Y-63261731D01*
X63534075Y-63325316D01*
X63599901Y-63439330D01*
X63692993Y-63532422D01*
X63807007Y-63598248D01*
X63870590Y-63615285D01*
X63130893Y-64354981D01*
X63213828Y-64415237D01*
X63424197Y-64522425D01*
X63648752Y-64595388D01*
X63648751Y-64595388D01*
X63881948Y-64632323D01*
X64118052Y-64632323D01*
X64351247Y-64595388D01*
X64407919Y-64576975D01*
X64575802Y-64522425D01*
X64786163Y-64415241D01*
X64786169Y-64415237D01*
X64869104Y-64354981D01*
X64869105Y-64354981D01*
X64129408Y-63615285D01*
X64192993Y-63598248D01*
X64307007Y-63532422D01*
X64400099Y-63439330D01*
X64465925Y-63325316D01*
X64482962Y-63261731D01*
X65222658Y-64001428D01*
X65222658Y-64001427D01*
X65282914Y-63918492D01*
X65282918Y-63918486D01*
X65390102Y-63708125D01*
X65463065Y-63483570D01*
X65500000Y-63250375D01*
X65500000Y-63014270D01*
X65463065Y-62781075D01*
X65390102Y-62556520D01*
X65282914Y-62346151D01*
X65222658Y-62263217D01*
X65222658Y-62263216D01*
X64482962Y-63002913D01*
X64465925Y-62939330D01*
X64400099Y-62825316D01*
X64307007Y-62732224D01*
X64192993Y-62666398D01*
X64129409Y-62649360D01*
X64869105Y-61909663D01*
X64869104Y-61909661D01*
X64786174Y-61849410D01*
X64575802Y-61742220D01*
X64351247Y-61669257D01*
X64351248Y-61669257D01*
X64118052Y-61632323D01*
X63881948Y-61632323D01*
X63648752Y-61669257D01*
X63424197Y-61742220D01*
X63213830Y-61849407D01*
X63130894Y-61909663D01*
X63870591Y-62649360D01*
X63807007Y-62666398D01*
X63692993Y-62732224D01*
X63599901Y-62825316D01*
X63534075Y-62939330D01*
X63517037Y-63002914D01*
X62777340Y-62263217D01*
X62717084Y-62346153D01*
X62609897Y-62556520D01*
X62536934Y-62781075D01*
X62500000Y-63014270D01*
X61000500Y-63014270D01*
X61000500Y-62598105D01*
X61020185Y-62531066D01*
X61036819Y-62510424D01*
X63878102Y-59669141D01*
X63939425Y-59635656D01*
X63965783Y-59632822D01*
X64800002Y-59632822D01*
X64800008Y-59632822D01*
X64902797Y-59622322D01*
X65069334Y-59567137D01*
X65218656Y-59475035D01*
X65342712Y-59350979D01*
X65434814Y-59201657D01*
X65489999Y-59035120D01*
X65500500Y-58932332D01*
X65500499Y-57332315D01*
X65489999Y-57229526D01*
X65434814Y-57062989D01*
X65342712Y-56913667D01*
X65218656Y-56789611D01*
X65069334Y-56697509D01*
X64902797Y-56642324D01*
X64902795Y-56642323D01*
X64800010Y-56631823D01*
X63199998Y-56631823D01*
X63199981Y-56631824D01*
X63097203Y-56642323D01*
X63097200Y-56642324D01*
X62930668Y-56697508D01*
X62930663Y-56697510D01*
X62781342Y-56789612D01*
X62657289Y-56913665D01*
X62565187Y-57062986D01*
X62565185Y-57062991D01*
X62553848Y-57097204D01*
X62510001Y-57229526D01*
X62510001Y-57229527D01*
X62510000Y-57229527D01*
X62499500Y-57332306D01*
X62499500Y-58166539D01*
X62479815Y-58233578D01*
X62463180Y-58254220D01*
X59362220Y-61355182D01*
X59362218Y-61355184D01*
X59292538Y-61424863D01*
X59222859Y-61494542D01*
X59113371Y-61658402D01*
X59113366Y-61658412D01*
X59060022Y-61787196D01*
X59059168Y-61789261D01*
X59059138Y-61789334D01*
X59037949Y-61840487D01*
X59037947Y-61840493D01*
X58999500Y-62033779D01*
X58999500Y-70124237D01*
X58979815Y-70191276D01*
X58975818Y-70197122D01*
X58887715Y-70318386D01*
X58794781Y-70500776D01*
X58731522Y-70695465D01*
X58699500Y-70897648D01*
X24500500Y-70897648D01*
X24500500Y-65381995D01*
X33699500Y-65381995D01*
X33699500Y-65618004D01*
X33699501Y-65618020D01*
X33730306Y-65852010D01*
X33791394Y-66079993D01*
X33881714Y-66298045D01*
X33881719Y-66298056D01*
X33952677Y-66420957D01*
X33999727Y-66502450D01*
X33999729Y-66502453D01*
X33999730Y-66502454D01*
X34143406Y-66689697D01*
X34143412Y-66689704D01*
X34310295Y-66856587D01*
X34310301Y-66856592D01*
X34497550Y-67000273D01*
X34628918Y-67076118D01*
X34701943Y-67118280D01*
X34701948Y-67118282D01*
X34701951Y-67118284D01*
X34920007Y-67208606D01*
X35147986Y-67269693D01*
X35381989Y-67300500D01*
X35381996Y-67300500D01*
X35618004Y-67300500D01*
X35618011Y-67300500D01*
X35852014Y-67269693D01*
X36079993Y-67208606D01*
X36298049Y-67118284D01*
X36502450Y-67000273D01*
X36689699Y-66856592D01*
X36856592Y-66689699D01*
X37000273Y-66502450D01*
X37118284Y-66298049D01*
X37208606Y-66079993D01*
X37269693Y-65852014D01*
X37300500Y-65618011D01*
X37300500Y-65381989D01*
X37269693Y-65147986D01*
X37208606Y-64920007D01*
X37118284Y-64701951D01*
X37118282Y-64701948D01*
X37118280Y-64701943D01*
X37046129Y-64576975D01*
X37000273Y-64497550D01*
X36856592Y-64310301D01*
X36856587Y-64310295D01*
X36689704Y-64143412D01*
X36689697Y-64143406D01*
X36502454Y-63999730D01*
X36502453Y-63999729D01*
X36502450Y-63999727D01*
X36361756Y-63918497D01*
X36298056Y-63881719D01*
X36298045Y-63881714D01*
X36079993Y-63791394D01*
X36026782Y-63777136D01*
X35852014Y-63730307D01*
X35852013Y-63730306D01*
X35852010Y-63730306D01*
X35618020Y-63699501D01*
X35618017Y-63699500D01*
X35618011Y-63699500D01*
X35381989Y-63699500D01*
X35381983Y-63699500D01*
X35381979Y-63699501D01*
X35147989Y-63730306D01*
X34920006Y-63791394D01*
X34701954Y-63881714D01*
X34701943Y-63881719D01*
X34497545Y-63999730D01*
X34310302Y-64143406D01*
X34310295Y-64143412D01*
X34143412Y-64310295D01*
X34143406Y-64310302D01*
X33999730Y-64497545D01*
X33881719Y-64701943D01*
X33881714Y-64701954D01*
X33791394Y-64920006D01*
X33730306Y-65147989D01*
X33699501Y-65381979D01*
X33699500Y-65381995D01*
X24500500Y-65381995D01*
X24500500Y-59319983D01*
X33699500Y-59319983D01*
X33699500Y-61520001D01*
X33699501Y-61520018D01*
X33710000Y-61622796D01*
X33710001Y-61622799D01*
X33725396Y-61669257D01*
X33765186Y-61789334D01*
X33857288Y-61938656D01*
X33981344Y-62062712D01*
X34130666Y-62154814D01*
X34297203Y-62209999D01*
X34399991Y-62220500D01*
X36600008Y-62220499D01*
X36702797Y-62209999D01*
X36869334Y-62154814D01*
X37018656Y-62062712D01*
X37142712Y-61938656D01*
X37234814Y-61789334D01*
X37289999Y-61622797D01*
X37300500Y-61520009D01*
X37300499Y-59319992D01*
X37296711Y-59282914D01*
X37289999Y-59217203D01*
X37289998Y-59217200D01*
X37284848Y-59201659D01*
X37234814Y-59050666D01*
X37142712Y-58901344D01*
X37018656Y-58777288D01*
X36869334Y-58685186D01*
X36702797Y-58630001D01*
X36702795Y-58630000D01*
X36600010Y-58619500D01*
X34399998Y-58619500D01*
X34399981Y-58619501D01*
X34297203Y-58630000D01*
X34297200Y-58630001D01*
X34130668Y-58685185D01*
X34130663Y-58685187D01*
X33981342Y-58777289D01*
X33857289Y-58901342D01*
X33765187Y-59050663D01*
X33765186Y-59050666D01*
X33710001Y-59217203D01*
X33710001Y-59217204D01*
X33710000Y-59217204D01*
X33699500Y-59319983D01*
X24500500Y-59319983D01*
X24500500Y-44777648D01*
X37199500Y-44777648D01*
X37199500Y-44982351D01*
X37231522Y-45184534D01*
X37294781Y-45379223D01*
X37356321Y-45500000D01*
X37387713Y-45561610D01*
X37475819Y-45682877D01*
X37499298Y-45748681D01*
X37499500Y-45755761D01*
X37499500Y-50098541D01*
X37499500Y-50098543D01*
X37499499Y-50098543D01*
X37537947Y-50291829D01*
X37537950Y-50291839D01*
X37613364Y-50473907D01*
X37613371Y-50473920D01*
X37722860Y-50637781D01*
X37722863Y-50637785D01*
X37866537Y-50781459D01*
X37866559Y-50781479D01*
X38143813Y-51058733D01*
X38177298Y-51120056D01*
X38172314Y-51189748D01*
X38130442Y-51245681D01*
X38094452Y-51264344D01*
X38069060Y-51272594D01*
X38000776Y-51294781D01*
X37818386Y-51387715D01*
X37652786Y-51508028D01*
X37508028Y-51652786D01*
X37387715Y-51818386D01*
X37294781Y-52000776D01*
X37231522Y-52195465D01*
X37199500Y-52397648D01*
X37199500Y-52602351D01*
X37231522Y-52804534D01*
X37294781Y-52999223D01*
X37387715Y-53181613D01*
X37508028Y-53347213D01*
X37652786Y-53491971D01*
X37807749Y-53604556D01*
X37818390Y-53612287D01*
X37934607Y-53671503D01*
X38000776Y-53705218D01*
X38000778Y-53705218D01*
X38000781Y-53705220D01*
X38105137Y-53739127D01*
X38195465Y-53768477D01*
X38296557Y-53784488D01*
X38397648Y-53800500D01*
X38397649Y-53800500D01*
X38602351Y-53800500D01*
X38602352Y-53800500D01*
X38804534Y-53768477D01*
X38999219Y-53705220D01*
X39181610Y-53612287D01*
X39274590Y-53544732D01*
X39347213Y-53491971D01*
X39347215Y-53491968D01*
X39347219Y-53491966D01*
X39491966Y-53347219D01*
X39491968Y-53347215D01*
X39491971Y-53347213D01*
X39544732Y-53274590D01*
X39612287Y-53181610D01*
X39705220Y-52999219D01*
X39735655Y-52905548D01*
X39775093Y-52847874D01*
X39839452Y-52820676D01*
X39908298Y-52832591D01*
X39941267Y-52856187D01*
X41963181Y-54878101D01*
X41996666Y-54939424D01*
X41999500Y-54965782D01*
X41999500Y-62901459D01*
X41999500Y-63098541D01*
X41999500Y-63098543D01*
X41999499Y-63098543D01*
X42037947Y-63291829D01*
X42037950Y-63291839D01*
X42113364Y-63473907D01*
X42113371Y-63473920D01*
X42222860Y-63637781D01*
X42222863Y-63637785D01*
X42362214Y-63777136D01*
X42362218Y-63777139D01*
X42526079Y-63886628D01*
X42526092Y-63886635D01*
X42708160Y-63962049D01*
X42708165Y-63962051D01*
X42708169Y-63962051D01*
X42708170Y-63962052D01*
X42901456Y-64000500D01*
X42901459Y-64000500D01*
X42954218Y-64000500D01*
X43021257Y-64020185D01*
X43041899Y-64036819D01*
X44863427Y-65858348D01*
X44896912Y-65919671D01*
X44898920Y-65949166D01*
X44899500Y-65949166D01*
X44899500Y-66205961D01*
X44938910Y-66454785D01*
X45016760Y-66694383D01*
X45131132Y-66918848D01*
X45279201Y-67122649D01*
X45279205Y-67122654D01*
X45457345Y-67300794D01*
X45457350Y-67300798D01*
X45635117Y-67429952D01*
X45661155Y-67448870D01*
X45804184Y-67521747D01*
X45885616Y-67563239D01*
X45885618Y-67563239D01*
X45885621Y-67563241D01*
X46125215Y-67641090D01*
X46374038Y-67680500D01*
X46374039Y-67680500D01*
X46625961Y-67680500D01*
X46625962Y-67680500D01*
X46874785Y-67641090D01*
X47114379Y-67563241D01*
X47338845Y-67448870D01*
X47542656Y-67300793D01*
X47720793Y-67122656D01*
X47868870Y-66918845D01*
X47983241Y-66694379D01*
X48061090Y-66454785D01*
X48100500Y-66205962D01*
X48100500Y-65954038D01*
X52399500Y-65954038D01*
X52399500Y-66205961D01*
X52438910Y-66454785D01*
X52516760Y-66694383D01*
X52631132Y-66918848D01*
X52779201Y-67122649D01*
X52779205Y-67122654D01*
X52957345Y-67300794D01*
X52957350Y-67300798D01*
X53135117Y-67429952D01*
X53161155Y-67448870D01*
X53304184Y-67521747D01*
X53385616Y-67563239D01*
X53385618Y-67563239D01*
X53385621Y-67563241D01*
X53625215Y-67641090D01*
X53874038Y-67680500D01*
X53874039Y-67680500D01*
X54125961Y-67680500D01*
X54125962Y-67680500D01*
X54374785Y-67641090D01*
X54614379Y-67563241D01*
X54838845Y-67448870D01*
X55042656Y-67300793D01*
X55220793Y-67122656D01*
X55368870Y-66918845D01*
X55483241Y-66694379D01*
X55561090Y-66454785D01*
X55600500Y-66205962D01*
X55600500Y-65954038D01*
X55561090Y-65705215D01*
X55483241Y-65465621D01*
X55483239Y-65465618D01*
X55483239Y-65465616D01*
X55423108Y-65347603D01*
X55368870Y-65241155D01*
X55293888Y-65137951D01*
X55220798Y-65037350D01*
X55220794Y-65037345D01*
X55042654Y-64859205D01*
X55042649Y-64859201D01*
X54838848Y-64711132D01*
X54838847Y-64711131D01*
X54838845Y-64711130D01*
X54768747Y-64675413D01*
X54614383Y-64596760D01*
X54374785Y-64518910D01*
X54239924Y-64497550D01*
X54125962Y-64479500D01*
X53874038Y-64479500D01*
X53760107Y-64497545D01*
X53625214Y-64518910D01*
X53385616Y-64596760D01*
X53161151Y-64711132D01*
X52957350Y-64859201D01*
X52957345Y-64859205D01*
X52779205Y-65037345D01*
X52779201Y-65037350D01*
X52631132Y-65241151D01*
X52516760Y-65465616D01*
X52438910Y-65705214D01*
X52399500Y-65954038D01*
X48100500Y-65954038D01*
X48061090Y-65705215D01*
X47983241Y-65465621D01*
X47983239Y-65465618D01*
X47983239Y-65465616D01*
X47923108Y-65347603D01*
X47868870Y-65241155D01*
X47793888Y-65137951D01*
X47720798Y-65037350D01*
X47720794Y-65037345D01*
X47542654Y-64859205D01*
X47542649Y-64859201D01*
X47338848Y-64711132D01*
X47338847Y-64711131D01*
X47338845Y-64711130D01*
X47268747Y-64675413D01*
X47114383Y-64596760D01*
X46874785Y-64518910D01*
X46739924Y-64497550D01*
X46625962Y-64479500D01*
X46374038Y-64479500D01*
X46369166Y-64479500D01*
X46369166Y-64477986D01*
X46307350Y-64464983D01*
X46278348Y-64443427D01*
X44204766Y-62369846D01*
X44197140Y-62362220D01*
X44197139Y-62362218D01*
X44057782Y-62222861D01*
X44046100Y-62215055D01*
X44037909Y-62207064D01*
X44026165Y-62186175D01*
X44010801Y-62167788D01*
X44007844Y-62153587D01*
X44003669Y-62146160D01*
X44004250Y-62136321D01*
X44000500Y-62118306D01*
X44000500Y-55019982D01*
X44899500Y-55019982D01*
X44899500Y-56820017D01*
X44910000Y-56922796D01*
X44965185Y-57089332D01*
X44965187Y-57089337D01*
X44990819Y-57130893D01*
X45057288Y-57238656D01*
X45181344Y-57362712D01*
X45330665Y-57454814D01*
X45497202Y-57509999D01*
X45599990Y-57520500D01*
X45599995Y-57520500D01*
X47400005Y-57520500D01*
X47400010Y-57520500D01*
X47502798Y-57509999D01*
X47669335Y-57454814D01*
X47818656Y-57362712D01*
X47942712Y-57238656D01*
X48034814Y-57089335D01*
X48089999Y-56922798D01*
X48100500Y-56820010D01*
X48100500Y-55019990D01*
X48100499Y-55019982D01*
X52399500Y-55019982D01*
X52399500Y-56820017D01*
X52410000Y-56922796D01*
X52465185Y-57089332D01*
X52465187Y-57089337D01*
X52490819Y-57130893D01*
X52557288Y-57238656D01*
X52681344Y-57362712D01*
X52830665Y-57454814D01*
X52997202Y-57509999D01*
X53099990Y-57520500D01*
X53099995Y-57520500D01*
X54900005Y-57520500D01*
X54900010Y-57520500D01*
X55002798Y-57509999D01*
X55169335Y-57454814D01*
X55318656Y-57362712D01*
X55442712Y-57238656D01*
X55534814Y-57089335D01*
X55589999Y-56922798D01*
X55600500Y-56820010D01*
X55600500Y-56489983D01*
X75599500Y-56489983D01*
X75599500Y-57890001D01*
X75599501Y-57890018D01*
X75610000Y-57992796D01*
X75610001Y-57992799D01*
X75634200Y-58065826D01*
X75665186Y-58159334D01*
X75757288Y-58308656D01*
X75881344Y-58432712D01*
X76030666Y-58524814D01*
X76197203Y-58579999D01*
X76299991Y-58590500D01*
X77700008Y-58590499D01*
X77802797Y-58579999D01*
X77969334Y-58524814D01*
X78118656Y-58432712D01*
X78242712Y-58308656D01*
X78334814Y-58159334D01*
X78389999Y-57992797D01*
X78400500Y-57890009D01*
X78400499Y-56489992D01*
X78400498Y-56489983D01*
X83599500Y-56489983D01*
X83599500Y-57890001D01*
X83599501Y-57890018D01*
X83610000Y-57992796D01*
X83610001Y-57992799D01*
X83634200Y-58065826D01*
X83665186Y-58159334D01*
X83757288Y-58308656D01*
X83881344Y-58432712D01*
X84030666Y-58524814D01*
X84197203Y-58579999D01*
X84299991Y-58590500D01*
X85700008Y-58590499D01*
X85802797Y-58579999D01*
X85969334Y-58524814D01*
X86118656Y-58432712D01*
X86242712Y-58308656D01*
X86334814Y-58159334D01*
X86389999Y-57992797D01*
X86400500Y-57890009D01*
X86400500Y-57881947D01*
X93467677Y-57881947D01*
X93467677Y-58118052D01*
X93504611Y-58351247D01*
X93577574Y-58575802D01*
X93684764Y-58786174D01*
X93745015Y-58869104D01*
X93745017Y-58869105D01*
X94484714Y-58129408D01*
X94501752Y-58192993D01*
X94567578Y-58307007D01*
X94660670Y-58400099D01*
X94774684Y-58465925D01*
X94838267Y-58482962D01*
X94098570Y-59222658D01*
X94181505Y-59282914D01*
X94391874Y-59390102D01*
X94616429Y-59463065D01*
X94616428Y-59463065D01*
X94849625Y-59500000D01*
X95085729Y-59500000D01*
X95318924Y-59463065D01*
X95543479Y-59390102D01*
X95753840Y-59282918D01*
X95753846Y-59282914D01*
X95836781Y-59222658D01*
X95836782Y-59222658D01*
X95097085Y-58482962D01*
X95160670Y-58465925D01*
X95274684Y-58400099D01*
X95367776Y-58307007D01*
X95433602Y-58192993D01*
X95450639Y-58129408D01*
X96190335Y-58869105D01*
X96190335Y-58869104D01*
X96250591Y-58786169D01*
X96250595Y-58786163D01*
X96357779Y-58575802D01*
X96430742Y-58351247D01*
X96467677Y-58118052D01*
X96467677Y-57881947D01*
X96430742Y-57648752D01*
X96357779Y-57424197D01*
X96270616Y-57253129D01*
X96270615Y-57253127D01*
X96250593Y-57213830D01*
X96240532Y-57199983D01*
X97267177Y-57199983D01*
X97267177Y-58800001D01*
X97267178Y-58800018D01*
X97277677Y-58902796D01*
X97277678Y-58902799D01*
X97326676Y-59050663D01*
X97332863Y-59069334D01*
X97424965Y-59218656D01*
X97549021Y-59342712D01*
X97698343Y-59434814D01*
X97864880Y-59489999D01*
X97967668Y-59500500D01*
X99567685Y-59500499D01*
X99670474Y-59489999D01*
X99837011Y-59434814D01*
X99986333Y-59342712D01*
X100110389Y-59218656D01*
X100202491Y-59069334D01*
X100257676Y-58902797D01*
X100268177Y-58800009D01*
X100268176Y-57199992D01*
X100261117Y-57130893D01*
X100257676Y-57097203D01*
X100257675Y-57097200D01*
X100246339Y-57062991D01*
X100202491Y-56930666D01*
X100110389Y-56781344D01*
X99986333Y-56657288D01*
X99837011Y-56565186D01*
X99670474Y-56510001D01*
X99670472Y-56510000D01*
X99567687Y-56499500D01*
X97967675Y-56499500D01*
X97967658Y-56499501D01*
X97864880Y-56510000D01*
X97864877Y-56510001D01*
X97698345Y-56565185D01*
X97698340Y-56565187D01*
X97549019Y-56657289D01*
X97424966Y-56781342D01*
X97332864Y-56930663D01*
X97332863Y-56930666D01*
X97277678Y-57097203D01*
X97277678Y-57097204D01*
X97277677Y-57097204D01*
X97267177Y-57199983D01*
X96240532Y-57199983D01*
X96190335Y-57130894D01*
X96190335Y-57130893D01*
X95450639Y-57870590D01*
X95433602Y-57807007D01*
X95367776Y-57692993D01*
X95274684Y-57599901D01*
X95160670Y-57534075D01*
X95097086Y-57517037D01*
X95836782Y-56777340D01*
X95836781Y-56777338D01*
X95753851Y-56717087D01*
X95543479Y-56609897D01*
X95318924Y-56536934D01*
X95318925Y-56536934D01*
X95085729Y-56500000D01*
X94849625Y-56500000D01*
X94616429Y-56536934D01*
X94391874Y-56609897D01*
X94181507Y-56717084D01*
X94098571Y-56777340D01*
X94838268Y-57517037D01*
X94774684Y-57534075D01*
X94660670Y-57599901D01*
X94567578Y-57692993D01*
X94501752Y-57807007D01*
X94484714Y-57870591D01*
X93745017Y-57130894D01*
X93684761Y-57213830D01*
X93577574Y-57424197D01*
X93504611Y-57648752D01*
X93467677Y-57881947D01*
X86400500Y-57881947D01*
X86400499Y-56489992D01*
X86389999Y-56387203D01*
X86334814Y-56220666D01*
X86242712Y-56071344D01*
X86118656Y-55947288D01*
X85969334Y-55855186D01*
X85802797Y-55800001D01*
X85802795Y-55800000D01*
X85700010Y-55789500D01*
X84299998Y-55789500D01*
X84299981Y-55789501D01*
X84197203Y-55800000D01*
X84197200Y-55800001D01*
X84030668Y-55855185D01*
X84030663Y-55855187D01*
X83881342Y-55947289D01*
X83757289Y-56071342D01*
X83665187Y-56220663D01*
X83665186Y-56220666D01*
X83610001Y-56387203D01*
X83610001Y-56387204D01*
X83610000Y-56387204D01*
X83599500Y-56489983D01*
X78400498Y-56489983D01*
X78389999Y-56387203D01*
X78334814Y-56220666D01*
X78242712Y-56071344D01*
X78118656Y-55947288D01*
X77969334Y-55855186D01*
X77802797Y-55800001D01*
X77802795Y-55800000D01*
X77700010Y-55789500D01*
X76299998Y-55789500D01*
X76299981Y-55789501D01*
X76197203Y-55800000D01*
X76197200Y-55800001D01*
X76030668Y-55855185D01*
X76030663Y-55855187D01*
X75881342Y-55947289D01*
X75757289Y-56071342D01*
X75665187Y-56220663D01*
X75665186Y-56220666D01*
X75610001Y-56387203D01*
X75610001Y-56387204D01*
X75610000Y-56387204D01*
X75599500Y-56489983D01*
X55600500Y-56489983D01*
X55600500Y-55019990D01*
X55589999Y-54917202D01*
X55534814Y-54750665D01*
X55442712Y-54601344D01*
X55318656Y-54477288D01*
X55169335Y-54385186D01*
X55002798Y-54330001D01*
X55002796Y-54330000D01*
X54900017Y-54319500D01*
X54900010Y-54319500D01*
X53099990Y-54319500D01*
X53099982Y-54319500D01*
X52997203Y-54330000D01*
X52997202Y-54330001D01*
X52914669Y-54357349D01*
X52830667Y-54385185D01*
X52830662Y-54385187D01*
X52681342Y-54477289D01*
X52557289Y-54601342D01*
X52465187Y-54750662D01*
X52465186Y-54750665D01*
X52410001Y-54917202D01*
X52410001Y-54917203D01*
X52410000Y-54917203D01*
X52399500Y-55019982D01*
X48100499Y-55019982D01*
X48089999Y-54917202D01*
X48034814Y-54750665D01*
X47942712Y-54601344D01*
X47818656Y-54477288D01*
X47669335Y-54385186D01*
X47502798Y-54330001D01*
X47502796Y-54330000D01*
X47400017Y-54319500D01*
X47400010Y-54319500D01*
X45599990Y-54319500D01*
X45599982Y-54319500D01*
X45497203Y-54330000D01*
X45497202Y-54330001D01*
X45414669Y-54357349D01*
X45330667Y-54385185D01*
X45330662Y-54385187D01*
X45181342Y-54477289D01*
X45057289Y-54601342D01*
X44965187Y-54750662D01*
X44965186Y-54750665D01*
X44910001Y-54917202D01*
X44910001Y-54917203D01*
X44910000Y-54917203D01*
X44899500Y-55019982D01*
X44000500Y-55019982D01*
X44000500Y-50397648D01*
X63699500Y-50397648D01*
X63699500Y-50602351D01*
X63731522Y-50804534D01*
X63794781Y-50999223D01*
X63856350Y-51120056D01*
X63887585Y-51181359D01*
X63887715Y-51181613D01*
X64008028Y-51347213D01*
X64152786Y-51491971D01*
X64273226Y-51579474D01*
X64318390Y-51612287D01*
X64397864Y-51652781D01*
X64500776Y-51705218D01*
X64500778Y-51705218D01*
X64500781Y-51705220D01*
X64605137Y-51739127D01*
X64695465Y-51768477D01*
X64796557Y-51784488D01*
X64897648Y-51800500D01*
X64897649Y-51800500D01*
X65102351Y-51800500D01*
X65102352Y-51800500D01*
X65304534Y-51768477D01*
X65499219Y-51705220D01*
X65681610Y-51612287D01*
X65774590Y-51544732D01*
X65847213Y-51491971D01*
X65847215Y-51491968D01*
X65847219Y-51491966D01*
X65991966Y-51347219D01*
X65991968Y-51347215D01*
X65991971Y-51347213D01*
X66076023Y-51231523D01*
X66112287Y-51181610D01*
X66205220Y-50999219D01*
X66268477Y-50804534D01*
X66300500Y-50602352D01*
X66300500Y-50397682D01*
X68700000Y-50397682D01*
X68700000Y-50602317D01*
X68732009Y-50804417D01*
X68795244Y-50999031D01*
X68888141Y-51181350D01*
X68888147Y-51181359D01*
X68920523Y-51225921D01*
X68920524Y-51225922D01*
X69600000Y-50546446D01*
X69600000Y-50552661D01*
X69627259Y-50654394D01*
X69679920Y-50745606D01*
X69754394Y-50820080D01*
X69845606Y-50872741D01*
X69947339Y-50900000D01*
X69953553Y-50900000D01*
X69274076Y-51579474D01*
X69318650Y-51611859D01*
X69500968Y-51704755D01*
X69695582Y-51767990D01*
X69897683Y-51800000D01*
X70102317Y-51800000D01*
X70304417Y-51767990D01*
X70499031Y-51704755D01*
X70681349Y-51611859D01*
X70725921Y-51579474D01*
X70046447Y-50900000D01*
X70052661Y-50900000D01*
X70154394Y-50872741D01*
X70245606Y-50820080D01*
X70320080Y-50745606D01*
X70372741Y-50654394D01*
X70400000Y-50552661D01*
X70400000Y-50546447D01*
X71079474Y-51225921D01*
X71111859Y-51181349D01*
X71204755Y-50999031D01*
X71267990Y-50804417D01*
X71300000Y-50602317D01*
X71300000Y-50397682D01*
X71267990Y-50195582D01*
X71204755Y-50000968D01*
X71111859Y-49818650D01*
X71079474Y-49774077D01*
X71079474Y-49774076D01*
X70400000Y-50453551D01*
X70400000Y-50447339D01*
X70372741Y-50345606D01*
X70320080Y-50254394D01*
X70245606Y-50179920D01*
X70154394Y-50127259D01*
X70052661Y-50100000D01*
X70046446Y-50100000D01*
X70725922Y-49420524D01*
X70725921Y-49420523D01*
X70681359Y-49388147D01*
X70681350Y-49388141D01*
X70499031Y-49295244D01*
X70304417Y-49232009D01*
X70102317Y-49200000D01*
X69897683Y-49200000D01*
X69695582Y-49232009D01*
X69500968Y-49295244D01*
X69318644Y-49388143D01*
X69274077Y-49420523D01*
X69274077Y-49420524D01*
X69953554Y-50100000D01*
X69947339Y-50100000D01*
X69845606Y-50127259D01*
X69754394Y-50179920D01*
X69679920Y-50254394D01*
X69627259Y-50345606D01*
X69600000Y-50447339D01*
X69600000Y-50453553D01*
X68920524Y-49774077D01*
X68920523Y-49774077D01*
X68888143Y-49818644D01*
X68795244Y-50000968D01*
X68732009Y-50195582D01*
X68700000Y-50397682D01*
X66300500Y-50397682D01*
X66300500Y-50397648D01*
X66283740Y-50291829D01*
X66268477Y-50195465D01*
X66236984Y-50098541D01*
X66205220Y-50000781D01*
X66205218Y-50000778D01*
X66205218Y-50000776D01*
X66112419Y-49818650D01*
X66112287Y-49818390D01*
X66080092Y-49774077D01*
X65991971Y-49652786D01*
X65847213Y-49508028D01*
X65681613Y-49387715D01*
X65681612Y-49387714D01*
X65681610Y-49387713D01*
X65624653Y-49358691D01*
X65499223Y-49294781D01*
X65304534Y-49231522D01*
X65129995Y-49203878D01*
X65102352Y-49199500D01*
X64897648Y-49199500D01*
X64873329Y-49203351D01*
X64695465Y-49231522D01*
X64500776Y-49294781D01*
X64318386Y-49387715D01*
X64152786Y-49508028D01*
X64008028Y-49652786D01*
X63887715Y-49818386D01*
X63794781Y-50000776D01*
X63731522Y-50195465D01*
X63699500Y-50397648D01*
X44000500Y-50397648D01*
X44000500Y-46965781D01*
X44020185Y-46898742D01*
X44036815Y-46878104D01*
X44691438Y-46223480D01*
X44752759Y-46189997D01*
X44795298Y-46188224D01*
X44881998Y-46199638D01*
X44888527Y-46200498D01*
X44888543Y-46200500D01*
X44888550Y-46200500D01*
X45111450Y-46200500D01*
X45111457Y-46200500D01*
X45332463Y-46171404D01*
X45547781Y-46113710D01*
X45753726Y-46028405D01*
X45946774Y-45916948D01*
X46123624Y-45781247D01*
X46281247Y-45623624D01*
X46416948Y-45446774D01*
X46528405Y-45253726D01*
X46613710Y-45047781D01*
X46671404Y-44832463D01*
X46700500Y-44611457D01*
X46700500Y-44388543D01*
X58299500Y-44388543D01*
X58299500Y-44611457D01*
X58299500Y-44611463D01*
X58299501Y-44611466D01*
X58328594Y-44832452D01*
X58328595Y-44832457D01*
X58328596Y-44832463D01*
X58379492Y-45022409D01*
X58386290Y-45047780D01*
X58386293Y-45047790D01*
X58471593Y-45253722D01*
X58471595Y-45253726D01*
X58583052Y-45446774D01*
X58583057Y-45446780D01*
X58583058Y-45446782D01*
X58718751Y-45623622D01*
X58718757Y-45623629D01*
X58876370Y-45781242D01*
X58876376Y-45781247D01*
X59053226Y-45916948D01*
X59246274Y-46028405D01*
X59316475Y-46057483D01*
X59435990Y-46106988D01*
X59452219Y-46113710D01*
X59667537Y-46171404D01*
X59888543Y-46200500D01*
X59888550Y-46200500D01*
X60111450Y-46200500D01*
X60111457Y-46200500D01*
X60332463Y-46171404D01*
X60547781Y-46113710D01*
X60753726Y-46028405D01*
X60946774Y-45916948D01*
X61123624Y-45781247D01*
X61281247Y-45623624D01*
X61416948Y-45446774D01*
X61528405Y-45253726D01*
X61613710Y-45047781D01*
X61671404Y-44832463D01*
X61700500Y-44611457D01*
X61700500Y-44388543D01*
X61671404Y-44167537D01*
X61613710Y-43952219D01*
X61613705Y-43952206D01*
X61611240Y-43946254D01*
X61592965Y-43902135D01*
X79007000Y-43902135D01*
X79007000Y-45997870D01*
X79007001Y-45997876D01*
X79013408Y-46057483D01*
X79063702Y-46192327D01*
X79063706Y-46192335D01*
X79149952Y-46307544D01*
X79149955Y-46307547D01*
X79265164Y-46393793D01*
X79265171Y-46393797D01*
X79400017Y-46444091D01*
X79400016Y-46444091D01*
X79406944Y-46444835D01*
X79459627Y-46450500D01*
X81460372Y-46450499D01*
X81519983Y-46444091D01*
X81654831Y-46393796D01*
X81770046Y-46307546D01*
X81856296Y-46192331D01*
X81856296Y-46192329D01*
X81856298Y-46192327D01*
X81860805Y-46180243D01*
X81866872Y-46163974D01*
X81908740Y-46108041D01*
X81974204Y-46083622D01*
X82042477Y-46098472D01*
X82055940Y-46106988D01*
X82238723Y-46239788D01*
X82442429Y-46343582D01*
X82659871Y-46414234D01*
X82750000Y-46428509D01*
X82750000Y-45440747D01*
X82787708Y-45462518D01*
X82927591Y-45500000D01*
X83072409Y-45500000D01*
X83212292Y-45462518D01*
X83250000Y-45440747D01*
X83250000Y-46428508D01*
X83340128Y-46414234D01*
X83557570Y-46343582D01*
X83761276Y-46239788D01*
X83946242Y-46105402D01*
X84107905Y-45943739D01*
X84169371Y-45859137D01*
X84224701Y-45816470D01*
X84294314Y-45810491D01*
X84356109Y-45843096D01*
X84370007Y-45859134D01*
X84431714Y-45944066D01*
X84593434Y-46105786D01*
X84778462Y-46240217D01*
X84910599Y-46307544D01*
X84982244Y-46344049D01*
X85199751Y-46414721D01*
X85199752Y-46414721D01*
X85199755Y-46414722D01*
X85425646Y-46450500D01*
X85425647Y-46450500D01*
X85654353Y-46450500D01*
X85654354Y-46450500D01*
X85880245Y-46414722D01*
X85880248Y-46414721D01*
X85880249Y-46414721D01*
X86097755Y-46344049D01*
X86097755Y-46344048D01*
X86097758Y-46344048D01*
X86301538Y-46240217D01*
X86486566Y-46105786D01*
X86648286Y-45944066D01*
X86782717Y-45759038D01*
X86886548Y-45555258D01*
X86921794Y-45446782D01*
X86957221Y-45337749D01*
X86957221Y-45337748D01*
X86957222Y-45337745D01*
X86993000Y-45111854D01*
X86993000Y-44788146D01*
X86957222Y-44562255D01*
X86957221Y-44562251D01*
X86957221Y-44562250D01*
X86886549Y-44344744D01*
X86811976Y-44198386D01*
X86782717Y-44140962D01*
X86648286Y-43955934D01*
X86486566Y-43794214D01*
X86301538Y-43659783D01*
X86097755Y-43555950D01*
X85880248Y-43485278D01*
X85694812Y-43455908D01*
X85654354Y-43449500D01*
X85425646Y-43449500D01*
X85385188Y-43455908D01*
X85199753Y-43485278D01*
X85199750Y-43485278D01*
X84982244Y-43555950D01*
X84778461Y-43659783D01*
X84712550Y-43707671D01*
X84593434Y-43794214D01*
X84593432Y-43794216D01*
X84593431Y-43794216D01*
X84431716Y-43955931D01*
X84431709Y-43955940D01*
X84370007Y-44040864D01*
X84314677Y-44083530D01*
X84245063Y-44089508D01*
X84183269Y-44056901D01*
X84169372Y-44040863D01*
X84107907Y-43956263D01*
X84107902Y-43956257D01*
X83946242Y-43794597D01*
X83761276Y-43660211D01*
X83557568Y-43556417D01*
X83340124Y-43485765D01*
X83250000Y-43471490D01*
X83250000Y-44459252D01*
X83212292Y-44437482D01*
X83072409Y-44400000D01*
X82927591Y-44400000D01*
X82787708Y-44437482D01*
X82750000Y-44459252D01*
X82750000Y-43471490D01*
X82749999Y-43471490D01*
X82659875Y-43485765D01*
X82442431Y-43556417D01*
X82238719Y-43660213D01*
X82055939Y-43793010D01*
X81990132Y-43816490D01*
X81922079Y-43800664D01*
X81873384Y-43750558D01*
X81866875Y-43736033D01*
X81856296Y-43707669D01*
X81856295Y-43707667D01*
X81856293Y-43707664D01*
X81770047Y-43592455D01*
X81770044Y-43592452D01*
X81654835Y-43506206D01*
X81654828Y-43506202D01*
X81519982Y-43455908D01*
X81519983Y-43455908D01*
X81460383Y-43449501D01*
X81460381Y-43449500D01*
X81460373Y-43449500D01*
X81460364Y-43449500D01*
X79459629Y-43449500D01*
X79459623Y-43449501D01*
X79400016Y-43455908D01*
X79265171Y-43506202D01*
X79265164Y-43506206D01*
X79149955Y-43592452D01*
X79149952Y-43592455D01*
X79063706Y-43707664D01*
X79063702Y-43707671D01*
X79013408Y-43842517D01*
X79007001Y-43902116D01*
X79007000Y-43902135D01*
X61592965Y-43902135D01*
X61528406Y-43746277D01*
X61528405Y-43746274D01*
X61416948Y-43553226D01*
X61354230Y-43471490D01*
X61281248Y-43376377D01*
X61281242Y-43376370D01*
X61123629Y-43218757D01*
X61123622Y-43218751D01*
X60946782Y-43083058D01*
X60946780Y-43083057D01*
X60946774Y-43083052D01*
X60753726Y-42971595D01*
X60753722Y-42971593D01*
X60547790Y-42886293D01*
X60547783Y-42886291D01*
X60547781Y-42886290D01*
X60332463Y-42828596D01*
X60332457Y-42828595D01*
X60332452Y-42828594D01*
X60111466Y-42799501D01*
X60111463Y-42799500D01*
X60111457Y-42799500D01*
X59888543Y-42799500D01*
X59888537Y-42799500D01*
X59888533Y-42799501D01*
X59667547Y-42828594D01*
X59667540Y-42828595D01*
X59667537Y-42828596D01*
X59452219Y-42886290D01*
X59452209Y-42886293D01*
X59246277Y-42971593D01*
X59246273Y-42971595D01*
X59053226Y-43083052D01*
X59053217Y-43083058D01*
X58876377Y-43218751D01*
X58876370Y-43218757D01*
X58718757Y-43376370D01*
X58718751Y-43376377D01*
X58583058Y-43553217D01*
X58583052Y-43553226D01*
X58471595Y-43746273D01*
X58471593Y-43746277D01*
X58386293Y-43952209D01*
X58386290Y-43952219D01*
X58351106Y-44083530D01*
X58328597Y-44167534D01*
X58328594Y-44167547D01*
X58300522Y-44380781D01*
X58299500Y-44388543D01*
X46700500Y-44388543D01*
X46671404Y-44167537D01*
X46613710Y-43952219D01*
X46528405Y-43746274D01*
X46416948Y-43553226D01*
X46354230Y-43471490D01*
X46281248Y-43376377D01*
X46281242Y-43376370D01*
X46123629Y-43218757D01*
X46123622Y-43218751D01*
X45946782Y-43083058D01*
X45946780Y-43083057D01*
X45946774Y-43083052D01*
X45753726Y-42971595D01*
X45753722Y-42971593D01*
X45547790Y-42886293D01*
X45547783Y-42886291D01*
X45547781Y-42886290D01*
X45332463Y-42828596D01*
X45332457Y-42828595D01*
X45332452Y-42828594D01*
X45111466Y-42799501D01*
X45111463Y-42799500D01*
X45111457Y-42799500D01*
X44888543Y-42799500D01*
X44888537Y-42799500D01*
X44888533Y-42799501D01*
X44667547Y-42828594D01*
X44667540Y-42828595D01*
X44667537Y-42828596D01*
X44452219Y-42886290D01*
X44452209Y-42886293D01*
X44246277Y-42971593D01*
X44246273Y-42971595D01*
X44053226Y-43083052D01*
X44053217Y-43083058D01*
X43876377Y-43218751D01*
X43876370Y-43218757D01*
X43718757Y-43376370D01*
X43718751Y-43376377D01*
X43583058Y-43553217D01*
X43583052Y-43553226D01*
X43471595Y-43746273D01*
X43471593Y-43746277D01*
X43386293Y-43952209D01*
X43386290Y-43952219D01*
X43351106Y-44083530D01*
X43328597Y-44167534D01*
X43328594Y-44167547D01*
X43299501Y-44388533D01*
X43299500Y-44388549D01*
X43299500Y-44611459D01*
X43311774Y-44704697D01*
X43301008Y-44773732D01*
X43276516Y-44808562D01*
X42797371Y-45287708D01*
X42362221Y-45722858D01*
X42362218Y-45722861D01*
X42326041Y-45759038D01*
X42222859Y-45862219D01*
X42113371Y-46026079D01*
X42113364Y-46026092D01*
X42062672Y-46148475D01*
X42062672Y-46148477D01*
X42044508Y-46192331D01*
X42041125Y-46200498D01*
X42037948Y-46208167D01*
X42037947Y-46208171D01*
X41999500Y-46401454D01*
X41999500Y-51785218D01*
X41979815Y-51852257D01*
X41927011Y-51898012D01*
X41857853Y-51907956D01*
X41794297Y-51878931D01*
X41787819Y-51872899D01*
X39536819Y-49621899D01*
X39503334Y-49560576D01*
X39500500Y-49534218D01*
X39500500Y-45755761D01*
X39520185Y-45688722D01*
X39524165Y-45682899D01*
X39612287Y-45561610D01*
X39705220Y-45379219D01*
X39768477Y-45184534D01*
X39800500Y-44982352D01*
X39800500Y-44777648D01*
X39774178Y-44611457D01*
X39768477Y-44575465D01*
X39723643Y-44437482D01*
X39705220Y-44380781D01*
X39705218Y-44380778D01*
X39705218Y-44380776D01*
X39671503Y-44314607D01*
X39612287Y-44198390D01*
X39604556Y-44187749D01*
X39491971Y-44032786D01*
X39347213Y-43888028D01*
X39181613Y-43767715D01*
X39181612Y-43767714D01*
X39181610Y-43767713D01*
X39119417Y-43736024D01*
X38999223Y-43674781D01*
X38804534Y-43611522D01*
X38629995Y-43583878D01*
X38602352Y-43579500D01*
X38397648Y-43579500D01*
X38373329Y-43583351D01*
X38195465Y-43611522D01*
X38000776Y-43674781D01*
X37818386Y-43767715D01*
X37652786Y-43888028D01*
X37508028Y-44032786D01*
X37387715Y-44198386D01*
X37294781Y-44380776D01*
X37231522Y-44575465D01*
X37199500Y-44777648D01*
X24500500Y-44777648D01*
X24500500Y-40799558D01*
X24520185Y-40732519D01*
X24572989Y-40686764D01*
X24642147Y-40676820D01*
X24705703Y-40705845D01*
X24739061Y-40752105D01*
X24779059Y-40848669D01*
X24779064Y-40848680D01*
X24814072Y-40909314D01*
X24904558Y-41066040D01*
X24904560Y-41066043D01*
X24904561Y-41066044D01*
X25057351Y-41265165D01*
X25057357Y-41265172D01*
X25234827Y-41442642D01*
X25234833Y-41442647D01*
X25433960Y-41595442D01*
X25573661Y-41676099D01*
X25651319Y-41720935D01*
X25651324Y-41720937D01*
X25651327Y-41720939D01*
X25883215Y-41816990D01*
X26125656Y-41881952D01*
X26374503Y-41914714D01*
X26374510Y-41914714D01*
X26625490Y-41914714D01*
X26625497Y-41914714D01*
X26874344Y-41881952D01*
X27116785Y-41816990D01*
X27348673Y-41720939D01*
X27566040Y-41595442D01*
X27765167Y-41442647D01*
X27942647Y-41265167D01*
X28095442Y-41066040D01*
X28220939Y-40848673D01*
X28316990Y-40616785D01*
X28381952Y-40374344D01*
X28414714Y-40125497D01*
X28414714Y-39874503D01*
X28381952Y-39625656D01*
X28316990Y-39383215D01*
X28220939Y-39151327D01*
X28220937Y-39151324D01*
X28220935Y-39151319D01*
X28166682Y-39057351D01*
X28095442Y-38933960D01*
X27942647Y-38734833D01*
X27942642Y-38734827D01*
X27919996Y-38712181D01*
X27886511Y-38650858D01*
X27891495Y-38581166D01*
X27933367Y-38525233D01*
X27998831Y-38500816D01*
X28007677Y-38500500D01*
X106200442Y-38500500D01*
X106267481Y-38520185D01*
G37*
%TD.AperFunction*%
%TD*%
M02*
