%TF.GenerationSoftware,KiCad,Pcbnew,10.0.3*%
%TF.CreationDate,2026-08-30T02:55:00+05:30*%
%TF.ProjectId,Transformerless Power Supply,5472616e-7366-46f7-926d-65726c657373,rev?*%
%TF.SameCoordinates,Original*%
%TF.FileFunction,Soldermask,Bot*%
%TF.FilePolarity,Negative*%
%FSLAX46Y46*%
G04 Gerber Fmt 4.6, Leading zero omitted, Abs format (unit mm)*
G04 Created by KiCad (PCBNEW 10.0.3) date 2026-08-30 02:55:00*
%MOMM*%
%LPD*%
G01*
G04 APERTURE LIST*
G04 Aperture macros list*
%AMRoundRect*
0 Rectangle with rounded corners*
0 $1 Rounding radius*
0 $2 $3 $4 $5 $6 $7 $8 $9 X,Y pos of 4 corners*
0 Add a 4 corners polygon primitive as box body*
4,1,4,$2,$3,$4,$5,$6,$7,$8,$9,$2,$3,0*
0 Add four circle primitives for the rounded corners*
1,1,$1+$1,$2,$3*
1,1,$1+$1,$4,$5*
1,1,$1+$1,$6,$7*
1,1,$1+$1,$8,$9*
0 Add four rect primitives between the rounded corners*
20,1,$1+$1,$2,$3,$4,$5,0*
20,1,$1+$1,$4,$5,$6,$7,0*
20,1,$1+$1,$6,$7,$8,$9,0*
20,1,$1+$1,$8,$9,$2,$3,0*%
G04 Aperture macros list end*
%ADD10C,1.600000*%
%ADD11RoundRect,0.250000X-0.750000X0.750000X-0.750000X-0.750000X0.750000X-0.750000X0.750000X0.750000X0*%
%ADD12C,2.000000*%
%ADD13RoundRect,0.250000X-1.050000X1.050000X-1.050000X-1.050000X1.050000X-1.050000X1.050000X1.050000X0*%
%ADD14C,2.600000*%
%ADD15RoundRect,0.250000X-0.650000X0.650000X-0.650000X-0.650000X0.650000X-0.650000X0.650000X0.650000X0*%
%ADD16C,1.800000*%
%ADD17RoundRect,0.249999X-0.850001X0.850001X-0.850001X-0.850001X0.850001X-0.850001X0.850001X0.850001X0*%
%ADD18C,2.200000*%
%ADD19RoundRect,0.250000X0.750000X0.750000X-0.750000X0.750000X-0.750000X-0.750000X0.750000X-0.750000X0*%
%ADD20R,1.800000X1.800000*%
%ADD21R,1.905000X2.000000*%
%ADD22O,1.905000X2.000000*%
%ADD23C,2.400000*%
G04 APERTURE END LIST*
D10*
%TO.C,C1*%
X65000000Y-50500000D03*
X70000000Y-50500000D03*
%TD*%
D11*
%TO.C,C2*%
X64000000Y-58132323D03*
D12*
X64000000Y-63132323D03*
%TD*%
D13*
%TO.C,J1*%
X35500000Y-60420000D03*
D14*
X35500000Y-65500000D03*
%TD*%
D15*
%TO.C,D6*%
X85000000Y-57190000D03*
D16*
X85000000Y-64810000D03*
%TD*%
D10*
%TO.C,R2*%
X85000000Y-79310000D03*
X85000000Y-71690000D03*
%TD*%
%TO.C,R4*%
X60000000Y-71000000D03*
X67620000Y-71000000D03*
%TD*%
D17*
%TO.C,D2*%
X54000000Y-55920000D03*
D18*
X54000000Y-66080000D03*
%TD*%
D10*
%TO.C,R3*%
X38500000Y-52500000D03*
X38500000Y-44880000D03*
%TD*%
%TO.C,R1*%
X77000000Y-79120000D03*
X77000000Y-71500000D03*
%TD*%
D19*
%TO.C,C3*%
X98767677Y-58000000D03*
D12*
X94967677Y-58000000D03*
%TD*%
D17*
%TO.C,D1*%
X46500000Y-55920000D03*
D18*
X46500000Y-66080000D03*
%TD*%
D20*
%TO.C,D7*%
X61000000Y-81000000D03*
D16*
X63540000Y-81000000D03*
%TD*%
D17*
%TO.C,D4*%
X54000000Y-73000000D03*
D18*
X54000000Y-83160000D03*
%TD*%
D21*
%TO.C,U1*%
X80460000Y-44950000D03*
D22*
X83000000Y-44950000D03*
X85540000Y-44950000D03*
%TD*%
D13*
%TO.C,J2*%
X97827500Y-73455000D03*
D14*
X97827500Y-78535000D03*
%TD*%
D15*
%TO.C,D5*%
X77000000Y-57190000D03*
D16*
X77000000Y-64810000D03*
%TD*%
D23*
%TO.C,C4*%
X45000000Y-44500000D03*
X60000000Y-44500000D03*
%TD*%
D17*
%TO.C,D3*%
X46500000Y-72500000D03*
D18*
X46500000Y-82660000D03*
%TD*%
M02*
