%TF.GenerationSoftware,KiCad,Pcbnew,10.0.3*%
%TF.CreationDate,2026-08-30T02:36:34+05:30*%
%TF.ProjectId,30A Home Automation with ESP32,33304120-486f-46d6-9520-4175746f6d61,rev?*%
%TF.SameCoordinates,Original*%
%TF.FileFunction,Paste,Top*%
%TF.FilePolarity,Positive*%
%FSLAX46Y46*%
G04 Gerber Fmt 4.6, Leading zero omitted, Abs format (unit mm)*
G04 Created by KiCad (PCBNEW 10.0.3) date 2026-08-30 02:36:34*
%MOMM*%
%LPD*%
G01*
G04 APERTURE LIST*
G04 Aperture macros list*
%AMRoundRect*
0 Rectangle with rounded corners*
0 $1 Rounding radius*
0 $2 $3 $4 $5 $6 $7 $8 $9 X,Y pos of 4 corners*
0 Add a 4 corners polygon primitive as box body*
4,1,4,$2,$3,$4,$5,$6,$7,$8,$9,$2,$3,0*
0 Add four circle primitives for the rounded corners*
1,1,$1+$1,$2,$3*
1,1,$1+$1,$4,$5*
1,1,$1+$1,$6,$7*
1,1,$1+$1,$8,$9*
0 Add four rect primitives between the rounded corners*
20,1,$1+$1,$2,$3,$4,$5,0*
20,1,$1+$1,$4,$5,$6,$7,0*
20,1,$1+$1,$6,$7,$8,$9,0*
20,1,$1+$1,$8,$9,$2,$3,0*%
G04 Aperture macros list end*
%ADD10RoundRect,0.243750X-0.243750X-0.456250X0.243750X-0.456250X0.243750X0.456250X-0.243750X0.456250X0*%
%ADD11RoundRect,0.250000X0.250000X0.475000X-0.250000X0.475000X-0.250000X-0.475000X0.250000X-0.475000X0*%
%ADD12RoundRect,0.250000X-0.262500X-0.450000X0.262500X-0.450000X0.262500X0.450000X-0.262500X0.450000X0*%
%ADD13R,1.500000X0.900000*%
%ADD14R,0.900000X1.500000*%
%ADD15R,1.050000X1.050000*%
%ADD16RoundRect,0.250000X0.450000X-0.262500X0.450000X0.262500X-0.450000X0.262500X-0.450000X-0.262500X0*%
%ADD17RoundRect,0.375000X-0.625000X-0.375000X0.625000X-0.375000X0.625000X0.375000X-0.625000X0.375000X0*%
%ADD18RoundRect,0.500000X-0.500000X-1.400000X0.500000X-1.400000X0.500000X1.400000X-0.500000X1.400000X0*%
G04 APERTURE END LIST*
D10*
%TO.C,D1*%
X139500000Y-58000000D03*
X141375000Y-58000000D03*
%TD*%
D11*
%TO.C,C2*%
X141400000Y-44500000D03*
X139500000Y-44500000D03*
%TD*%
%TO.C,C1*%
X141400000Y-51500000D03*
X139500000Y-51500000D03*
%TD*%
D12*
%TO.C,R8*%
X152500000Y-64500000D03*
X154325000Y-64500000D03*
%TD*%
D13*
%TO.C,U1*%
X157120000Y-110760000D03*
X157120000Y-109490000D03*
X157120000Y-108220000D03*
X157120000Y-106950000D03*
X157120000Y-105680000D03*
X157120000Y-104410000D03*
X157120000Y-103140000D03*
X157120000Y-101870000D03*
X157120000Y-100600000D03*
X157120000Y-99330000D03*
X157120000Y-98060000D03*
X157120000Y-96790000D03*
X157120000Y-95520000D03*
X157120000Y-94250000D03*
D14*
X154080000Y-93000000D03*
X152810000Y-93000000D03*
X151540000Y-93000000D03*
X150270000Y-93000000D03*
X149000000Y-93000000D03*
X147730000Y-93000000D03*
X146460000Y-93000000D03*
X145190000Y-93000000D03*
X143920000Y-93000000D03*
X142650000Y-93000000D03*
D13*
X139620000Y-94250000D03*
X139620000Y-95520000D03*
X139620000Y-96790000D03*
X139620000Y-98060000D03*
X139620000Y-99330000D03*
X139620000Y-100600000D03*
X139620000Y-101870000D03*
X139620000Y-103140000D03*
X139620000Y-104410000D03*
X139620000Y-105680000D03*
X139620000Y-106950000D03*
X139620000Y-108220000D03*
X139620000Y-109490000D03*
X139620000Y-110760000D03*
D15*
X150575000Y-104945000D03*
X150575000Y-103420000D03*
X150575000Y-101895000D03*
X149050000Y-104945000D03*
X149050000Y-103420000D03*
X149050000Y-101895000D03*
X147525000Y-104945000D03*
X147525000Y-103420000D03*
X147525000Y-101895000D03*
%TD*%
D12*
%TO.C,R4*%
X138000000Y-70500000D03*
X139825000Y-70500000D03*
%TD*%
%TO.C,R1*%
X126000000Y-104500000D03*
X127825000Y-104500000D03*
%TD*%
D10*
%TO.C,D4*%
X139500000Y-64545000D03*
X141375000Y-64545000D03*
%TD*%
D16*
%TO.C,R3*%
X113000000Y-89000000D03*
X113000000Y-87175000D03*
%TD*%
D17*
%TO.C,U4*%
X151850000Y-44700000D03*
X151850000Y-47000000D03*
D18*
X158150000Y-47000000D03*
D17*
X151850000Y-49300000D03*
%TD*%
M02*
