%TF.GenerationSoftware,KiCad,Pcbnew,10.0.3*%
%TF.CreationDate,2026-08-30T02:36:34+05:30*%
%TF.ProjectId,30A Home Automation with ESP32,33304120-486f-46d6-9520-4175746f6d61,rev?*%
%TF.SameCoordinates,Original*%
%TF.FileFunction,Soldermask,Bot*%
%TF.FilePolarity,Negative*%
%FSLAX46Y46*%
G04 Gerber Fmt 4.6, Leading zero omitted, Abs format (unit mm)*
G04 Created by KiCad (PCBNEW 10.0.3) date 2026-08-30 02:36:34*
%MOMM*%
%LPD*%
G01*
G04 APERTURE LIST*
G04 Aperture macros list*
%AMRoundRect*
0 Rectangle with rounded corners*
0 $1 Rounding radius*
0 $2 $3 $4 $5 $6 $7 $8 $9 X,Y pos of 4 corners*
0 Add a 4 corners polygon primitive as box body*
4,1,4,$2,$3,$4,$5,$6,$7,$8,$9,$2,$3,0*
0 Add four circle primitives for the rounded corners*
1,1,$1+$1,$2,$3*
1,1,$1+$1,$4,$5*
1,1,$1+$1,$6,$7*
1,1,$1+$1,$8,$9*
0 Add four rect primitives between the rounded corners*
20,1,$1+$1,$2,$3,$4,$5,0*
20,1,$1+$1,$4,$5,$6,$7,0*
20,1,$1+$1,$6,$7,$8,$9,0*
20,1,$1+$1,$8,$9,$2,$3,0*%
G04 Aperture macros list end*
%ADD10C,3.000000*%
%ADD11RoundRect,0.500000X-0.500000X-0.500000X0.500000X-0.500000X0.500000X0.500000X-0.500000X0.500000X0*%
%ADD12C,2.000000*%
%ADD13R,1.500000X1.050000*%
%ADD14O,1.500000X1.050000*%
%ADD15RoundRect,0.250000X0.550000X-0.550000X0.550000X0.550000X-0.550000X0.550000X-0.550000X-0.550000X0*%
%ADD16C,1.600000*%
%ADD17RoundRect,0.250000X1.050000X-1.050000X1.050000X1.050000X-1.050000X1.050000X-1.050000X-1.050000X0*%
%ADD18C,2.600000*%
%ADD19RoundRect,0.250000X-0.600000X-0.750000X0.600000X-0.750000X0.600000X0.750000X-0.600000X0.750000X0*%
%ADD20O,1.700000X2.000000*%
%ADD21C,2.500000*%
%ADD22C,0.800000*%
%ADD23C,5.400000*%
%ADD24R,1.050000X1.500000*%
%ADD25O,1.050000X1.500000*%
%ADD26R,1.700000X1.700000*%
%ADD27C,1.700000*%
%ADD28RoundRect,0.250000X0.262500X0.450000X-0.262500X0.450000X-0.262500X-0.450000X0.262500X-0.450000X0*%
G04 APERTURE END LIST*
D10*
%TO.C,K1*%
X95240000Y-110900000D03*
X92700000Y-93100000D03*
D11*
X107900000Y-107100000D03*
D12*
X107900000Y-96900000D03*
%TD*%
D13*
%TO.C,Q1*%
X121475000Y-89865000D03*
D14*
X121475000Y-88595000D03*
X121475000Y-87325000D03*
%TD*%
D15*
%TO.C,D3*%
X122200000Y-83295000D03*
D16*
X122200000Y-75675000D03*
%TD*%
D17*
%TO.C,J3*%
X87500000Y-81500000D03*
D18*
X87500000Y-76500000D03*
X87500000Y-71500000D03*
%TD*%
D17*
%TO.C,J2*%
X87672500Y-60620000D03*
D18*
X87672500Y-55540000D03*
X87672500Y-50460000D03*
X87672500Y-45380000D03*
%TD*%
D12*
%TO.C,SW1*%
X161000000Y-57500000D03*
X167500000Y-57500000D03*
X161000000Y-62000000D03*
X167500000Y-62000000D03*
%TD*%
D19*
%TO.C,U5*%
X100500000Y-51000000D03*
D20*
X100500000Y-56000000D03*
X129580000Y-46000000D03*
X129580000Y-61000000D03*
%TD*%
D10*
%TO.C,K2*%
X115000000Y-76000000D03*
D21*
X113050000Y-69950000D03*
D10*
X100850000Y-69950000D03*
X100800000Y-82000000D03*
D21*
X113050000Y-81950000D03*
%TD*%
D15*
%TO.C,U2*%
X127725000Y-99805000D03*
D16*
X130265000Y-99805000D03*
X130265000Y-92185000D03*
X127725000Y-92185000D03*
%TD*%
D22*
%TO.C,H1*%
X164406891Y-45481891D03*
X165000000Y-44050000D03*
X165000000Y-46913782D03*
X166431891Y-43456891D03*
D23*
X166431891Y-45481891D03*
D22*
X166431891Y-47506891D03*
X167863782Y-44050000D03*
X167863782Y-46913782D03*
X168456891Y-45481891D03*
%TD*%
D15*
%TO.C,U3*%
X136000000Y-83120000D03*
D16*
X138540000Y-83120000D03*
X138540000Y-75500000D03*
X136000000Y-75500000D03*
%TD*%
D15*
%TO.C,D2*%
X121000000Y-109310000D03*
D16*
X121000000Y-101690000D03*
%TD*%
D24*
%TO.C,Q2*%
X120530000Y-68010000D03*
D25*
X121800000Y-68010000D03*
X123070000Y-68010000D03*
%TD*%
D22*
%TO.C,H2*%
X164406891Y-106431891D03*
X165000000Y-105000000D03*
X165000000Y-107863782D03*
X166431891Y-104406891D03*
D23*
X166431891Y-106431891D03*
D22*
X166431891Y-108456891D03*
X167863782Y-105000000D03*
X167863782Y-107863782D03*
X168456891Y-106431891D03*
%TD*%
%TO.C,H4*%
X130000000Y-105975000D03*
X130593109Y-104543109D03*
X130593109Y-107406891D03*
X132025000Y-103950000D03*
D23*
X132025000Y-105975000D03*
D22*
X132025000Y-108000000D03*
X133456891Y-104543109D03*
X133456891Y-107406891D03*
X134050000Y-105975000D03*
%TD*%
%TO.C,H3*%
X128406891Y-70431891D03*
X129000000Y-69000000D03*
X129000000Y-71863782D03*
X130431891Y-68406891D03*
D23*
X130431891Y-70431891D03*
D22*
X130431891Y-72456891D03*
X131863782Y-69000000D03*
X131863782Y-71863782D03*
X132456891Y-70431891D03*
%TD*%
D12*
%TO.C,SW2*%
X161000000Y-85500000D03*
X167500000Y-85500000D03*
X161000000Y-90000000D03*
X167500000Y-90000000D03*
%TD*%
D26*
%TO.C,J1*%
X163000000Y-70460000D03*
D27*
X163000000Y-73000000D03*
X163000000Y-75540000D03*
X163000000Y-78080000D03*
%TD*%
D28*
%TO.C,R5*%
X148325000Y-57955000D03*
X146500000Y-57955000D03*
%TD*%
%TO.C,R6*%
X148325000Y-64500000D03*
X146500000Y-64500000D03*
%TD*%
%TO.C,R2*%
X129325000Y-79000000D03*
X127500000Y-79000000D03*
%TD*%
%TO.C,R7*%
X154325000Y-58000000D03*
X152500000Y-58000000D03*
%TD*%
M02*
