%TF.GenerationSoftware,KiCad,Pcbnew,10.0.3*%
%TF.CreationDate,2026-08-30T02:36:34+05:30*%
%TF.ProjectId,30A Home Automation with ESP32,33304120-486f-46d6-9520-4175746f6d61,rev?*%
%TF.SameCoordinates,Original*%
%TF.FileFunction,Legend,Top*%
%TF.FilePolarity,Positive*%
%FSLAX46Y46*%
G04 Gerber Fmt 4.6, Leading zero omitted, Abs format (unit mm)*
G04 Created by KiCad (PCBNEW 10.0.3) date 2026-08-30 02:36:34*
%MOMM*%
%LPD*%
G01*
G04 APERTURE LIST*
%ADD10C,0.100000*%
%ADD11C,0.150000*%
%ADD12C,0.120000*%
G04 APERTURE END LIST*
D10*
X138958646Y-40147419D02*
X139577693Y-40147419D01*
X139577693Y-40147419D02*
X139244360Y-40528371D01*
X139244360Y-40528371D02*
X139387217Y-40528371D01*
X139387217Y-40528371D02*
X139482455Y-40575990D01*
X139482455Y-40575990D02*
X139530074Y-40623609D01*
X139530074Y-40623609D02*
X139577693Y-40718847D01*
X139577693Y-40718847D02*
X139577693Y-40956942D01*
X139577693Y-40956942D02*
X139530074Y-41052180D01*
X139530074Y-41052180D02*
X139482455Y-41099800D01*
X139482455Y-41099800D02*
X139387217Y-41147419D01*
X139387217Y-41147419D02*
X139101503Y-41147419D01*
X139101503Y-41147419D02*
X139006265Y-41099800D01*
X139006265Y-41099800D02*
X138958646Y-41052180D01*
X140196741Y-40147419D02*
X140291979Y-40147419D01*
X140291979Y-40147419D02*
X140387217Y-40195038D01*
X140387217Y-40195038D02*
X140434836Y-40242657D01*
X140434836Y-40242657D02*
X140482455Y-40337895D01*
X140482455Y-40337895D02*
X140530074Y-40528371D01*
X140530074Y-40528371D02*
X140530074Y-40766466D01*
X140530074Y-40766466D02*
X140482455Y-40956942D01*
X140482455Y-40956942D02*
X140434836Y-41052180D01*
X140434836Y-41052180D02*
X140387217Y-41099800D01*
X140387217Y-41099800D02*
X140291979Y-41147419D01*
X140291979Y-41147419D02*
X140196741Y-41147419D01*
X140196741Y-41147419D02*
X140101503Y-41099800D01*
X140101503Y-41099800D02*
X140053884Y-41052180D01*
X140053884Y-41052180D02*
X140006265Y-40956942D01*
X140006265Y-40956942D02*
X139958646Y-40766466D01*
X139958646Y-40766466D02*
X139958646Y-40528371D01*
X139958646Y-40528371D02*
X140006265Y-40337895D01*
X140006265Y-40337895D02*
X140053884Y-40242657D01*
X140053884Y-40242657D02*
X140101503Y-40195038D01*
X140101503Y-40195038D02*
X140196741Y-40147419D01*
X140911027Y-40861704D02*
X141387217Y-40861704D01*
X140815789Y-41147419D02*
X141149122Y-40147419D01*
X141149122Y-40147419D02*
X141482455Y-41147419D01*
X142577694Y-41147419D02*
X142577694Y-40147419D01*
X142577694Y-40623609D02*
X143149122Y-40623609D01*
X143149122Y-41147419D02*
X143149122Y-40147419D01*
X143768170Y-41147419D02*
X143672932Y-41099800D01*
X143672932Y-41099800D02*
X143625313Y-41052180D01*
X143625313Y-41052180D02*
X143577694Y-40956942D01*
X143577694Y-40956942D02*
X143577694Y-40671228D01*
X143577694Y-40671228D02*
X143625313Y-40575990D01*
X143625313Y-40575990D02*
X143672932Y-40528371D01*
X143672932Y-40528371D02*
X143768170Y-40480752D01*
X143768170Y-40480752D02*
X143911027Y-40480752D01*
X143911027Y-40480752D02*
X144006265Y-40528371D01*
X144006265Y-40528371D02*
X144053884Y-40575990D01*
X144053884Y-40575990D02*
X144101503Y-40671228D01*
X144101503Y-40671228D02*
X144101503Y-40956942D01*
X144101503Y-40956942D02*
X144053884Y-41052180D01*
X144053884Y-41052180D02*
X144006265Y-41099800D01*
X144006265Y-41099800D02*
X143911027Y-41147419D01*
X143911027Y-41147419D02*
X143768170Y-41147419D01*
X144530075Y-41147419D02*
X144530075Y-40480752D01*
X144530075Y-40575990D02*
X144577694Y-40528371D01*
X144577694Y-40528371D02*
X144672932Y-40480752D01*
X144672932Y-40480752D02*
X144815789Y-40480752D01*
X144815789Y-40480752D02*
X144911027Y-40528371D01*
X144911027Y-40528371D02*
X144958646Y-40623609D01*
X144958646Y-40623609D02*
X144958646Y-41147419D01*
X144958646Y-40623609D02*
X145006265Y-40528371D01*
X145006265Y-40528371D02*
X145101503Y-40480752D01*
X145101503Y-40480752D02*
X145244360Y-40480752D01*
X145244360Y-40480752D02*
X145339599Y-40528371D01*
X145339599Y-40528371D02*
X145387218Y-40623609D01*
X145387218Y-40623609D02*
X145387218Y-41147419D01*
X146244360Y-41099800D02*
X146149122Y-41147419D01*
X146149122Y-41147419D02*
X145958646Y-41147419D01*
X145958646Y-41147419D02*
X145863408Y-41099800D01*
X145863408Y-41099800D02*
X145815789Y-41004561D01*
X145815789Y-41004561D02*
X145815789Y-40623609D01*
X145815789Y-40623609D02*
X145863408Y-40528371D01*
X145863408Y-40528371D02*
X145958646Y-40480752D01*
X145958646Y-40480752D02*
X146149122Y-40480752D01*
X146149122Y-40480752D02*
X146244360Y-40528371D01*
X146244360Y-40528371D02*
X146291979Y-40623609D01*
X146291979Y-40623609D02*
X146291979Y-40718847D01*
X146291979Y-40718847D02*
X145815789Y-40814085D01*
X147434837Y-40861704D02*
X147911027Y-40861704D01*
X147339599Y-41147419D02*
X147672932Y-40147419D01*
X147672932Y-40147419D02*
X148006265Y-41147419D01*
X148768170Y-40480752D02*
X148768170Y-41147419D01*
X148339599Y-40480752D02*
X148339599Y-41004561D01*
X148339599Y-41004561D02*
X148387218Y-41099800D01*
X148387218Y-41099800D02*
X148482456Y-41147419D01*
X148482456Y-41147419D02*
X148625313Y-41147419D01*
X148625313Y-41147419D02*
X148720551Y-41099800D01*
X148720551Y-41099800D02*
X148768170Y-41052180D01*
X149101504Y-40480752D02*
X149482456Y-40480752D01*
X149244361Y-40147419D02*
X149244361Y-41004561D01*
X149244361Y-41004561D02*
X149291980Y-41099800D01*
X149291980Y-41099800D02*
X149387218Y-41147419D01*
X149387218Y-41147419D02*
X149482456Y-41147419D01*
X149958647Y-41147419D02*
X149863409Y-41099800D01*
X149863409Y-41099800D02*
X149815790Y-41052180D01*
X149815790Y-41052180D02*
X149768171Y-40956942D01*
X149768171Y-40956942D02*
X149768171Y-40671228D01*
X149768171Y-40671228D02*
X149815790Y-40575990D01*
X149815790Y-40575990D02*
X149863409Y-40528371D01*
X149863409Y-40528371D02*
X149958647Y-40480752D01*
X149958647Y-40480752D02*
X150101504Y-40480752D01*
X150101504Y-40480752D02*
X150196742Y-40528371D01*
X150196742Y-40528371D02*
X150244361Y-40575990D01*
X150244361Y-40575990D02*
X150291980Y-40671228D01*
X150291980Y-40671228D02*
X150291980Y-40956942D01*
X150291980Y-40956942D02*
X150244361Y-41052180D01*
X150244361Y-41052180D02*
X150196742Y-41099800D01*
X150196742Y-41099800D02*
X150101504Y-41147419D01*
X150101504Y-41147419D02*
X149958647Y-41147419D01*
X150720552Y-41147419D02*
X150720552Y-40480752D01*
X150720552Y-40575990D02*
X150768171Y-40528371D01*
X150768171Y-40528371D02*
X150863409Y-40480752D01*
X150863409Y-40480752D02*
X151006266Y-40480752D01*
X151006266Y-40480752D02*
X151101504Y-40528371D01*
X151101504Y-40528371D02*
X151149123Y-40623609D01*
X151149123Y-40623609D02*
X151149123Y-41147419D01*
X151149123Y-40623609D02*
X151196742Y-40528371D01*
X151196742Y-40528371D02*
X151291980Y-40480752D01*
X151291980Y-40480752D02*
X151434837Y-40480752D01*
X151434837Y-40480752D02*
X151530076Y-40528371D01*
X151530076Y-40528371D02*
X151577695Y-40623609D01*
X151577695Y-40623609D02*
X151577695Y-41147419D01*
X152482456Y-41147419D02*
X152482456Y-40623609D01*
X152482456Y-40623609D02*
X152434837Y-40528371D01*
X152434837Y-40528371D02*
X152339599Y-40480752D01*
X152339599Y-40480752D02*
X152149123Y-40480752D01*
X152149123Y-40480752D02*
X152053885Y-40528371D01*
X152482456Y-41099800D02*
X152387218Y-41147419D01*
X152387218Y-41147419D02*
X152149123Y-41147419D01*
X152149123Y-41147419D02*
X152053885Y-41099800D01*
X152053885Y-41099800D02*
X152006266Y-41004561D01*
X152006266Y-41004561D02*
X152006266Y-40909323D01*
X152006266Y-40909323D02*
X152053885Y-40814085D01*
X152053885Y-40814085D02*
X152149123Y-40766466D01*
X152149123Y-40766466D02*
X152387218Y-40766466D01*
X152387218Y-40766466D02*
X152482456Y-40718847D01*
X152815790Y-40480752D02*
X153196742Y-40480752D01*
X152958647Y-40147419D02*
X152958647Y-41004561D01*
X152958647Y-41004561D02*
X153006266Y-41099800D01*
X153006266Y-41099800D02*
X153101504Y-41147419D01*
X153101504Y-41147419D02*
X153196742Y-41147419D01*
X153530076Y-41147419D02*
X153530076Y-40480752D01*
X153530076Y-40147419D02*
X153482457Y-40195038D01*
X153482457Y-40195038D02*
X153530076Y-40242657D01*
X153530076Y-40242657D02*
X153577695Y-40195038D01*
X153577695Y-40195038D02*
X153530076Y-40147419D01*
X153530076Y-40147419D02*
X153530076Y-40242657D01*
X154149123Y-41147419D02*
X154053885Y-41099800D01*
X154053885Y-41099800D02*
X154006266Y-41052180D01*
X154006266Y-41052180D02*
X153958647Y-40956942D01*
X153958647Y-40956942D02*
X153958647Y-40671228D01*
X153958647Y-40671228D02*
X154006266Y-40575990D01*
X154006266Y-40575990D02*
X154053885Y-40528371D01*
X154053885Y-40528371D02*
X154149123Y-40480752D01*
X154149123Y-40480752D02*
X154291980Y-40480752D01*
X154291980Y-40480752D02*
X154387218Y-40528371D01*
X154387218Y-40528371D02*
X154434837Y-40575990D01*
X154434837Y-40575990D02*
X154482456Y-40671228D01*
X154482456Y-40671228D02*
X154482456Y-40956942D01*
X154482456Y-40956942D02*
X154434837Y-41052180D01*
X154434837Y-41052180D02*
X154387218Y-41099800D01*
X154387218Y-41099800D02*
X154291980Y-41147419D01*
X154291980Y-41147419D02*
X154149123Y-41147419D01*
X154911028Y-40480752D02*
X154911028Y-41147419D01*
X154911028Y-40575990D02*
X154958647Y-40528371D01*
X154958647Y-40528371D02*
X155053885Y-40480752D01*
X155053885Y-40480752D02*
X155196742Y-40480752D01*
X155196742Y-40480752D02*
X155291980Y-40528371D01*
X155291980Y-40528371D02*
X155339599Y-40623609D01*
X155339599Y-40623609D02*
X155339599Y-41147419D01*
D11*
X97535305Y-116754819D02*
X97535305Y-115754819D01*
X98106733Y-116754819D02*
X97678162Y-116183390D01*
X98106733Y-115754819D02*
X97535305Y-116326247D01*
X99059114Y-116754819D02*
X98487686Y-116754819D01*
X98773400Y-116754819D02*
X98773400Y-115754819D01*
X98773400Y-115754819D02*
X98678162Y-115897676D01*
X98678162Y-115897676D02*
X98582924Y-115992914D01*
X98582924Y-115992914D02*
X98487686Y-116040533D01*
X139699405Y-56804819D02*
X139699405Y-55804819D01*
X139699405Y-55804819D02*
X139937500Y-55804819D01*
X139937500Y-55804819D02*
X140080357Y-55852438D01*
X140080357Y-55852438D02*
X140175595Y-55947676D01*
X140175595Y-55947676D02*
X140223214Y-56042914D01*
X140223214Y-56042914D02*
X140270833Y-56233390D01*
X140270833Y-56233390D02*
X140270833Y-56376247D01*
X140270833Y-56376247D02*
X140223214Y-56566723D01*
X140223214Y-56566723D02*
X140175595Y-56661961D01*
X140175595Y-56661961D02*
X140080357Y-56757200D01*
X140080357Y-56757200D02*
X139937500Y-56804819D01*
X139937500Y-56804819D02*
X139699405Y-56804819D01*
X141223214Y-56804819D02*
X140651786Y-56804819D01*
X140937500Y-56804819D02*
X140937500Y-55804819D01*
X140937500Y-55804819D02*
X140842262Y-55947676D01*
X140842262Y-55947676D02*
X140747024Y-56042914D01*
X140747024Y-56042914D02*
X140651786Y-56090533D01*
X118465057Y-88690238D02*
X118417438Y-88785476D01*
X118417438Y-88785476D02*
X118322200Y-88880714D01*
X118322200Y-88880714D02*
X118179342Y-89023571D01*
X118179342Y-89023571D02*
X118131723Y-89118809D01*
X118131723Y-89118809D02*
X118131723Y-89214047D01*
X118369819Y-89166428D02*
X118322200Y-89261666D01*
X118322200Y-89261666D02*
X118226961Y-89356904D01*
X118226961Y-89356904D02*
X118036485Y-89404523D01*
X118036485Y-89404523D02*
X117703152Y-89404523D01*
X117703152Y-89404523D02*
X117512676Y-89356904D01*
X117512676Y-89356904D02*
X117417438Y-89261666D01*
X117417438Y-89261666D02*
X117369819Y-89166428D01*
X117369819Y-89166428D02*
X117369819Y-88975952D01*
X117369819Y-88975952D02*
X117417438Y-88880714D01*
X117417438Y-88880714D02*
X117512676Y-88785476D01*
X117512676Y-88785476D02*
X117703152Y-88737857D01*
X117703152Y-88737857D02*
X118036485Y-88737857D01*
X118036485Y-88737857D02*
X118226961Y-88785476D01*
X118226961Y-88785476D02*
X118322200Y-88880714D01*
X118322200Y-88880714D02*
X118369819Y-88975952D01*
X118369819Y-88975952D02*
X118369819Y-89166428D01*
X118369819Y-87785476D02*
X118369819Y-88356904D01*
X118369819Y-88071190D02*
X117369819Y-88071190D01*
X117369819Y-88071190D02*
X117512676Y-88166428D01*
X117512676Y-88166428D02*
X117607914Y-88261666D01*
X117607914Y-88261666D02*
X117655533Y-88356904D01*
X120579819Y-82413094D02*
X119579819Y-82413094D01*
X119579819Y-82413094D02*
X119579819Y-82174999D01*
X119579819Y-82174999D02*
X119627438Y-82032142D01*
X119627438Y-82032142D02*
X119722676Y-81936904D01*
X119722676Y-81936904D02*
X119817914Y-81889285D01*
X119817914Y-81889285D02*
X120008390Y-81841666D01*
X120008390Y-81841666D02*
X120151247Y-81841666D01*
X120151247Y-81841666D02*
X120341723Y-81889285D01*
X120341723Y-81889285D02*
X120436961Y-81936904D01*
X120436961Y-81936904D02*
X120532200Y-82032142D01*
X120532200Y-82032142D02*
X120579819Y-82174999D01*
X120579819Y-82174999D02*
X120579819Y-82413094D01*
X119579819Y-81508332D02*
X119579819Y-80889285D01*
X119579819Y-80889285D02*
X119960771Y-81222618D01*
X119960771Y-81222618D02*
X119960771Y-81079761D01*
X119960771Y-81079761D02*
X120008390Y-80984523D01*
X120008390Y-80984523D02*
X120056009Y-80936904D01*
X120056009Y-80936904D02*
X120151247Y-80889285D01*
X120151247Y-80889285D02*
X120389342Y-80889285D01*
X120389342Y-80889285D02*
X120484580Y-80936904D01*
X120484580Y-80936904D02*
X120532200Y-80984523D01*
X120532200Y-80984523D02*
X120579819Y-81079761D01*
X120579819Y-81079761D02*
X120579819Y-81365475D01*
X120579819Y-81365475D02*
X120532200Y-81460713D01*
X120532200Y-81460713D02*
X120484580Y-81508332D01*
X120854819Y-83556904D02*
X119854819Y-83556904D01*
X120854819Y-82985476D02*
X120283390Y-83414047D01*
X119854819Y-82985476D02*
X120426247Y-83556904D01*
X80634819Y-76833333D02*
X81349104Y-76833333D01*
X81349104Y-76833333D02*
X81491961Y-76880952D01*
X81491961Y-76880952D02*
X81587200Y-76976190D01*
X81587200Y-76976190D02*
X81634819Y-77119047D01*
X81634819Y-77119047D02*
X81634819Y-77214285D01*
X80634819Y-76452380D02*
X80634819Y-75833333D01*
X80634819Y-75833333D02*
X81015771Y-76166666D01*
X81015771Y-76166666D02*
X81015771Y-76023809D01*
X81015771Y-76023809D02*
X81063390Y-75928571D01*
X81063390Y-75928571D02*
X81111009Y-75880952D01*
X81111009Y-75880952D02*
X81206247Y-75833333D01*
X81206247Y-75833333D02*
X81444342Y-75833333D01*
X81444342Y-75833333D02*
X81539580Y-75880952D01*
X81539580Y-75880952D02*
X81587200Y-75928571D01*
X81587200Y-75928571D02*
X81634819Y-76023809D01*
X81634819Y-76023809D02*
X81634819Y-76309523D01*
X81634819Y-76309523D02*
X81587200Y-76404761D01*
X81587200Y-76404761D02*
X81539580Y-76452380D01*
X140283333Y-46539580D02*
X140235714Y-46587200D01*
X140235714Y-46587200D02*
X140092857Y-46634819D01*
X140092857Y-46634819D02*
X139997619Y-46634819D01*
X139997619Y-46634819D02*
X139854762Y-46587200D01*
X139854762Y-46587200D02*
X139759524Y-46491961D01*
X139759524Y-46491961D02*
X139711905Y-46396723D01*
X139711905Y-46396723D02*
X139664286Y-46206247D01*
X139664286Y-46206247D02*
X139664286Y-46063390D01*
X139664286Y-46063390D02*
X139711905Y-45872914D01*
X139711905Y-45872914D02*
X139759524Y-45777676D01*
X139759524Y-45777676D02*
X139854762Y-45682438D01*
X139854762Y-45682438D02*
X139997619Y-45634819D01*
X139997619Y-45634819D02*
X140092857Y-45634819D01*
X140092857Y-45634819D02*
X140235714Y-45682438D01*
X140235714Y-45682438D02*
X140283333Y-45730057D01*
X140664286Y-45730057D02*
X140711905Y-45682438D01*
X140711905Y-45682438D02*
X140807143Y-45634819D01*
X140807143Y-45634819D02*
X141045238Y-45634819D01*
X141045238Y-45634819D02*
X141140476Y-45682438D01*
X141140476Y-45682438D02*
X141188095Y-45730057D01*
X141188095Y-45730057D02*
X141235714Y-45825295D01*
X141235714Y-45825295D02*
X141235714Y-45920533D01*
X141235714Y-45920533D02*
X141188095Y-46063390D01*
X141188095Y-46063390D02*
X140616667Y-46634819D01*
X140616667Y-46634819D02*
X141235714Y-46634819D01*
X140283333Y-53539580D02*
X140235714Y-53587200D01*
X140235714Y-53587200D02*
X140092857Y-53634819D01*
X140092857Y-53634819D02*
X139997619Y-53634819D01*
X139997619Y-53634819D02*
X139854762Y-53587200D01*
X139854762Y-53587200D02*
X139759524Y-53491961D01*
X139759524Y-53491961D02*
X139711905Y-53396723D01*
X139711905Y-53396723D02*
X139664286Y-53206247D01*
X139664286Y-53206247D02*
X139664286Y-53063390D01*
X139664286Y-53063390D02*
X139711905Y-52872914D01*
X139711905Y-52872914D02*
X139759524Y-52777676D01*
X139759524Y-52777676D02*
X139854762Y-52682438D01*
X139854762Y-52682438D02*
X139997619Y-52634819D01*
X139997619Y-52634819D02*
X140092857Y-52634819D01*
X140092857Y-52634819D02*
X140235714Y-52682438D01*
X140235714Y-52682438D02*
X140283333Y-52730057D01*
X141235714Y-53634819D02*
X140664286Y-53634819D01*
X140950000Y-53634819D02*
X140950000Y-52634819D01*
X140950000Y-52634819D02*
X140854762Y-52777676D01*
X140854762Y-52777676D02*
X140759524Y-52872914D01*
X140759524Y-52872914D02*
X140664286Y-52920533D01*
X153245833Y-63304819D02*
X152912500Y-62828628D01*
X152674405Y-63304819D02*
X152674405Y-62304819D01*
X152674405Y-62304819D02*
X153055357Y-62304819D01*
X153055357Y-62304819D02*
X153150595Y-62352438D01*
X153150595Y-62352438D02*
X153198214Y-62400057D01*
X153198214Y-62400057D02*
X153245833Y-62495295D01*
X153245833Y-62495295D02*
X153245833Y-62638152D01*
X153245833Y-62638152D02*
X153198214Y-62733390D01*
X153198214Y-62733390D02*
X153150595Y-62781009D01*
X153150595Y-62781009D02*
X153055357Y-62828628D01*
X153055357Y-62828628D02*
X152674405Y-62828628D01*
X153817262Y-62733390D02*
X153722024Y-62685771D01*
X153722024Y-62685771D02*
X153674405Y-62638152D01*
X153674405Y-62638152D02*
X153626786Y-62542914D01*
X153626786Y-62542914D02*
X153626786Y-62495295D01*
X153626786Y-62495295D02*
X153674405Y-62400057D01*
X153674405Y-62400057D02*
X153722024Y-62352438D01*
X153722024Y-62352438D02*
X153817262Y-62304819D01*
X153817262Y-62304819D02*
X154007738Y-62304819D01*
X154007738Y-62304819D02*
X154102976Y-62352438D01*
X154102976Y-62352438D02*
X154150595Y-62400057D01*
X154150595Y-62400057D02*
X154198214Y-62495295D01*
X154198214Y-62495295D02*
X154198214Y-62542914D01*
X154198214Y-62542914D02*
X154150595Y-62638152D01*
X154150595Y-62638152D02*
X154102976Y-62685771D01*
X154102976Y-62685771D02*
X154007738Y-62733390D01*
X154007738Y-62733390D02*
X153817262Y-62733390D01*
X153817262Y-62733390D02*
X153722024Y-62781009D01*
X153722024Y-62781009D02*
X153674405Y-62828628D01*
X153674405Y-62828628D02*
X153626786Y-62923866D01*
X153626786Y-62923866D02*
X153626786Y-63114342D01*
X153626786Y-63114342D02*
X153674405Y-63209580D01*
X153674405Y-63209580D02*
X153722024Y-63257200D01*
X153722024Y-63257200D02*
X153817262Y-63304819D01*
X153817262Y-63304819D02*
X154007738Y-63304819D01*
X154007738Y-63304819D02*
X154102976Y-63257200D01*
X154102976Y-63257200D02*
X154150595Y-63209580D01*
X154150595Y-63209580D02*
X154198214Y-63114342D01*
X154198214Y-63114342D02*
X154198214Y-62923866D01*
X154198214Y-62923866D02*
X154150595Y-62828628D01*
X154150595Y-62828628D02*
X154102976Y-62781009D01*
X154102976Y-62781009D02*
X154007738Y-62733390D01*
X80807319Y-53333333D02*
X81521604Y-53333333D01*
X81521604Y-53333333D02*
X81664461Y-53380952D01*
X81664461Y-53380952D02*
X81759700Y-53476190D01*
X81759700Y-53476190D02*
X81807319Y-53619047D01*
X81807319Y-53619047D02*
X81807319Y-53714285D01*
X80902557Y-52904761D02*
X80854938Y-52857142D01*
X80854938Y-52857142D02*
X80807319Y-52761904D01*
X80807319Y-52761904D02*
X80807319Y-52523809D01*
X80807319Y-52523809D02*
X80854938Y-52428571D01*
X80854938Y-52428571D02*
X80902557Y-52380952D01*
X80902557Y-52380952D02*
X80997795Y-52333333D01*
X80997795Y-52333333D02*
X81093033Y-52333333D01*
X81093033Y-52333333D02*
X81235890Y-52380952D01*
X81235890Y-52380952D02*
X81807319Y-52952380D01*
X81807319Y-52952380D02*
X81807319Y-52333333D01*
X162916667Y-55907200D02*
X163059524Y-55954819D01*
X163059524Y-55954819D02*
X163297619Y-55954819D01*
X163297619Y-55954819D02*
X163392857Y-55907200D01*
X163392857Y-55907200D02*
X163440476Y-55859580D01*
X163440476Y-55859580D02*
X163488095Y-55764342D01*
X163488095Y-55764342D02*
X163488095Y-55669104D01*
X163488095Y-55669104D02*
X163440476Y-55573866D01*
X163440476Y-55573866D02*
X163392857Y-55526247D01*
X163392857Y-55526247D02*
X163297619Y-55478628D01*
X163297619Y-55478628D02*
X163107143Y-55431009D01*
X163107143Y-55431009D02*
X163011905Y-55383390D01*
X163011905Y-55383390D02*
X162964286Y-55335771D01*
X162964286Y-55335771D02*
X162916667Y-55240533D01*
X162916667Y-55240533D02*
X162916667Y-55145295D01*
X162916667Y-55145295D02*
X162964286Y-55050057D01*
X162964286Y-55050057D02*
X163011905Y-55002438D01*
X163011905Y-55002438D02*
X163107143Y-54954819D01*
X163107143Y-54954819D02*
X163345238Y-54954819D01*
X163345238Y-54954819D02*
X163488095Y-55002438D01*
X163821429Y-54954819D02*
X164059524Y-55954819D01*
X164059524Y-55954819D02*
X164250000Y-55240533D01*
X164250000Y-55240533D02*
X164440476Y-55954819D01*
X164440476Y-55954819D02*
X164678572Y-54954819D01*
X165583333Y-55954819D02*
X165011905Y-55954819D01*
X165297619Y-55954819D02*
X165297619Y-54954819D01*
X165297619Y-54954819D02*
X165202381Y-55097676D01*
X165202381Y-55097676D02*
X165107143Y-55192914D01*
X165107143Y-55192914D02*
X165011905Y-55240533D01*
X114278095Y-40754819D02*
X114278095Y-41564342D01*
X114278095Y-41564342D02*
X114325714Y-41659580D01*
X114325714Y-41659580D02*
X114373333Y-41707200D01*
X114373333Y-41707200D02*
X114468571Y-41754819D01*
X114468571Y-41754819D02*
X114659047Y-41754819D01*
X114659047Y-41754819D02*
X114754285Y-41707200D01*
X114754285Y-41707200D02*
X114801904Y-41659580D01*
X114801904Y-41659580D02*
X114849523Y-41564342D01*
X114849523Y-41564342D02*
X114849523Y-40754819D01*
X115801904Y-40754819D02*
X115325714Y-40754819D01*
X115325714Y-40754819D02*
X115278095Y-41231009D01*
X115278095Y-41231009D02*
X115325714Y-41183390D01*
X115325714Y-41183390D02*
X115420952Y-41135771D01*
X115420952Y-41135771D02*
X115659047Y-41135771D01*
X115659047Y-41135771D02*
X115754285Y-41183390D01*
X115754285Y-41183390D02*
X115801904Y-41231009D01*
X115801904Y-41231009D02*
X115849523Y-41326247D01*
X115849523Y-41326247D02*
X115849523Y-41564342D01*
X115849523Y-41564342D02*
X115801904Y-41659580D01*
X115801904Y-41659580D02*
X115754285Y-41707200D01*
X115754285Y-41707200D02*
X115659047Y-41754819D01*
X115659047Y-41754819D02*
X115420952Y-41754819D01*
X115420952Y-41754819D02*
X115325714Y-41707200D01*
X115325714Y-41707200D02*
X115278095Y-41659580D01*
X158434819Y-94841904D02*
X159244342Y-94841904D01*
X159244342Y-94841904D02*
X159339580Y-94794285D01*
X159339580Y-94794285D02*
X159387200Y-94746666D01*
X159387200Y-94746666D02*
X159434819Y-94651428D01*
X159434819Y-94651428D02*
X159434819Y-94460952D01*
X159434819Y-94460952D02*
X159387200Y-94365714D01*
X159387200Y-94365714D02*
X159339580Y-94318095D01*
X159339580Y-94318095D02*
X159244342Y-94270476D01*
X159244342Y-94270476D02*
X158434819Y-94270476D01*
X159434819Y-93270476D02*
X159434819Y-93841904D01*
X159434819Y-93556190D02*
X158434819Y-93556190D01*
X158434819Y-93556190D02*
X158577676Y-93651428D01*
X158577676Y-93651428D02*
X158672914Y-93746666D01*
X158672914Y-93746666D02*
X158720533Y-93841904D01*
X106161905Y-67254819D02*
X106161905Y-66254819D01*
X106733333Y-67254819D02*
X106304762Y-66683390D01*
X106733333Y-66254819D02*
X106161905Y-66826247D01*
X107114286Y-66350057D02*
X107161905Y-66302438D01*
X107161905Y-66302438D02*
X107257143Y-66254819D01*
X107257143Y-66254819D02*
X107495238Y-66254819D01*
X107495238Y-66254819D02*
X107590476Y-66302438D01*
X107590476Y-66302438D02*
X107638095Y-66350057D01*
X107638095Y-66350057D02*
X107685714Y-66445295D01*
X107685714Y-66445295D02*
X107685714Y-66540533D01*
X107685714Y-66540533D02*
X107638095Y-66683390D01*
X107638095Y-66683390D02*
X107066667Y-67254819D01*
X107066667Y-67254819D02*
X107685714Y-67254819D01*
X124849819Y-96756904D02*
X125659342Y-96756904D01*
X125659342Y-96756904D02*
X125754580Y-96709285D01*
X125754580Y-96709285D02*
X125802200Y-96661666D01*
X125802200Y-96661666D02*
X125849819Y-96566428D01*
X125849819Y-96566428D02*
X125849819Y-96375952D01*
X125849819Y-96375952D02*
X125802200Y-96280714D01*
X125802200Y-96280714D02*
X125754580Y-96233095D01*
X125754580Y-96233095D02*
X125659342Y-96185476D01*
X125659342Y-96185476D02*
X124849819Y-96185476D01*
X124945057Y-95756904D02*
X124897438Y-95709285D01*
X124897438Y-95709285D02*
X124849819Y-95614047D01*
X124849819Y-95614047D02*
X124849819Y-95375952D01*
X124849819Y-95375952D02*
X124897438Y-95280714D01*
X124897438Y-95280714D02*
X124945057Y-95233095D01*
X124945057Y-95233095D02*
X125040295Y-95185476D01*
X125040295Y-95185476D02*
X125135533Y-95185476D01*
X125135533Y-95185476D02*
X125278390Y-95233095D01*
X125278390Y-95233095D02*
X125849819Y-95804523D01*
X125849819Y-95804523D02*
X125849819Y-95185476D01*
X166601877Y-45004819D02*
X166601877Y-44004819D01*
X166601877Y-44481009D02*
X167173305Y-44481009D01*
X167173305Y-45004819D02*
X167173305Y-44004819D01*
X168173305Y-45004819D02*
X167601877Y-45004819D01*
X167887591Y-45004819D02*
X167887591Y-44004819D01*
X167887591Y-44004819D02*
X167792353Y-44147676D01*
X167792353Y-44147676D02*
X167697115Y-44242914D01*
X167697115Y-44242914D02*
X167601877Y-44290533D01*
X133124819Y-80071904D02*
X133934342Y-80071904D01*
X133934342Y-80071904D02*
X134029580Y-80024285D01*
X134029580Y-80024285D02*
X134077200Y-79976666D01*
X134077200Y-79976666D02*
X134124819Y-79881428D01*
X134124819Y-79881428D02*
X134124819Y-79690952D01*
X134124819Y-79690952D02*
X134077200Y-79595714D01*
X134077200Y-79595714D02*
X134029580Y-79548095D01*
X134029580Y-79548095D02*
X133934342Y-79500476D01*
X133934342Y-79500476D02*
X133124819Y-79500476D01*
X133124819Y-79119523D02*
X133124819Y-78500476D01*
X133124819Y-78500476D02*
X133505771Y-78833809D01*
X133505771Y-78833809D02*
X133505771Y-78690952D01*
X133505771Y-78690952D02*
X133553390Y-78595714D01*
X133553390Y-78595714D02*
X133601009Y-78548095D01*
X133601009Y-78548095D02*
X133696247Y-78500476D01*
X133696247Y-78500476D02*
X133934342Y-78500476D01*
X133934342Y-78500476D02*
X134029580Y-78548095D01*
X134029580Y-78548095D02*
X134077200Y-78595714D01*
X134077200Y-78595714D02*
X134124819Y-78690952D01*
X134124819Y-78690952D02*
X134124819Y-78976666D01*
X134124819Y-78976666D02*
X134077200Y-79071904D01*
X134077200Y-79071904D02*
X134029580Y-79119523D01*
X119334819Y-106238094D02*
X118334819Y-106238094D01*
X118334819Y-106238094D02*
X118334819Y-105999999D01*
X118334819Y-105999999D02*
X118382438Y-105857142D01*
X118382438Y-105857142D02*
X118477676Y-105761904D01*
X118477676Y-105761904D02*
X118572914Y-105714285D01*
X118572914Y-105714285D02*
X118763390Y-105666666D01*
X118763390Y-105666666D02*
X118906247Y-105666666D01*
X118906247Y-105666666D02*
X119096723Y-105714285D01*
X119096723Y-105714285D02*
X119191961Y-105761904D01*
X119191961Y-105761904D02*
X119287200Y-105857142D01*
X119287200Y-105857142D02*
X119334819Y-105999999D01*
X119334819Y-105999999D02*
X119334819Y-106238094D01*
X118430057Y-105285713D02*
X118382438Y-105238094D01*
X118382438Y-105238094D02*
X118334819Y-105142856D01*
X118334819Y-105142856D02*
X118334819Y-104904761D01*
X118334819Y-104904761D02*
X118382438Y-104809523D01*
X118382438Y-104809523D02*
X118430057Y-104761904D01*
X118430057Y-104761904D02*
X118525295Y-104714285D01*
X118525295Y-104714285D02*
X118620533Y-104714285D01*
X118620533Y-104714285D02*
X118763390Y-104761904D01*
X118763390Y-104761904D02*
X119334819Y-105333332D01*
X119334819Y-105333332D02*
X119334819Y-104714285D01*
X119654819Y-109571904D02*
X118654819Y-109571904D01*
X119654819Y-109000476D02*
X119083390Y-109429047D01*
X118654819Y-109000476D02*
X119226247Y-109571904D01*
X139454819Y-68166666D02*
X138978628Y-68499999D01*
X139454819Y-68738094D02*
X138454819Y-68738094D01*
X138454819Y-68738094D02*
X138454819Y-68357142D01*
X138454819Y-68357142D02*
X138502438Y-68261904D01*
X138502438Y-68261904D02*
X138550057Y-68214285D01*
X138550057Y-68214285D02*
X138645295Y-68166666D01*
X138645295Y-68166666D02*
X138788152Y-68166666D01*
X138788152Y-68166666D02*
X138883390Y-68214285D01*
X138883390Y-68214285D02*
X138931009Y-68261904D01*
X138931009Y-68261904D02*
X138978628Y-68357142D01*
X138978628Y-68357142D02*
X138978628Y-68738094D01*
X138788152Y-67309523D02*
X139454819Y-67309523D01*
X138407200Y-67547618D02*
X139121485Y-67785713D01*
X139121485Y-67785713D02*
X139121485Y-67166666D01*
X121329761Y-71625057D02*
X121234523Y-71577438D01*
X121234523Y-71577438D02*
X121139285Y-71482200D01*
X121139285Y-71482200D02*
X120996428Y-71339342D01*
X120996428Y-71339342D02*
X120901190Y-71291723D01*
X120901190Y-71291723D02*
X120805952Y-71291723D01*
X120853571Y-71529819D02*
X120758333Y-71482200D01*
X120758333Y-71482200D02*
X120663095Y-71386961D01*
X120663095Y-71386961D02*
X120615476Y-71196485D01*
X120615476Y-71196485D02*
X120615476Y-70863152D01*
X120615476Y-70863152D02*
X120663095Y-70672676D01*
X120663095Y-70672676D02*
X120758333Y-70577438D01*
X120758333Y-70577438D02*
X120853571Y-70529819D01*
X120853571Y-70529819D02*
X121044047Y-70529819D01*
X121044047Y-70529819D02*
X121139285Y-70577438D01*
X121139285Y-70577438D02*
X121234523Y-70672676D01*
X121234523Y-70672676D02*
X121282142Y-70863152D01*
X121282142Y-70863152D02*
X121282142Y-71196485D01*
X121282142Y-71196485D02*
X121234523Y-71386961D01*
X121234523Y-71386961D02*
X121139285Y-71482200D01*
X121139285Y-71482200D02*
X121044047Y-71529819D01*
X121044047Y-71529819D02*
X120853571Y-71529819D01*
X121663095Y-70625057D02*
X121710714Y-70577438D01*
X121710714Y-70577438D02*
X121805952Y-70529819D01*
X121805952Y-70529819D02*
X122044047Y-70529819D01*
X122044047Y-70529819D02*
X122139285Y-70577438D01*
X122139285Y-70577438D02*
X122186904Y-70625057D01*
X122186904Y-70625057D02*
X122234523Y-70720295D01*
X122234523Y-70720295D02*
X122234523Y-70815533D01*
X122234523Y-70815533D02*
X122186904Y-70958390D01*
X122186904Y-70958390D02*
X121615476Y-71529819D01*
X121615476Y-71529819D02*
X122234523Y-71529819D01*
X126745833Y-103304819D02*
X126412500Y-102828628D01*
X126174405Y-103304819D02*
X126174405Y-102304819D01*
X126174405Y-102304819D02*
X126555357Y-102304819D01*
X126555357Y-102304819D02*
X126650595Y-102352438D01*
X126650595Y-102352438D02*
X126698214Y-102400057D01*
X126698214Y-102400057D02*
X126745833Y-102495295D01*
X126745833Y-102495295D02*
X126745833Y-102638152D01*
X126745833Y-102638152D02*
X126698214Y-102733390D01*
X126698214Y-102733390D02*
X126650595Y-102781009D01*
X126650595Y-102781009D02*
X126555357Y-102828628D01*
X126555357Y-102828628D02*
X126174405Y-102828628D01*
X127698214Y-103304819D02*
X127126786Y-103304819D01*
X127412500Y-103304819D02*
X127412500Y-102304819D01*
X127412500Y-102304819D02*
X127317262Y-102447676D01*
X127317262Y-102447676D02*
X127222024Y-102542914D01*
X127222024Y-102542914D02*
X127126786Y-102590533D01*
X166601877Y-105954819D02*
X166601877Y-104954819D01*
X166601877Y-105431009D02*
X167173305Y-105431009D01*
X167173305Y-105954819D02*
X167173305Y-104954819D01*
X167601877Y-105050057D02*
X167649496Y-105002438D01*
X167649496Y-105002438D02*
X167744734Y-104954819D01*
X167744734Y-104954819D02*
X167982829Y-104954819D01*
X167982829Y-104954819D02*
X168078067Y-105002438D01*
X168078067Y-105002438D02*
X168125686Y-105050057D01*
X168125686Y-105050057D02*
X168173305Y-105145295D01*
X168173305Y-105145295D02*
X168173305Y-105240533D01*
X168173305Y-105240533D02*
X168125686Y-105383390D01*
X168125686Y-105383390D02*
X167554258Y-105954819D01*
X167554258Y-105954819D02*
X168173305Y-105954819D01*
X139699405Y-63349819D02*
X139699405Y-62349819D01*
X139699405Y-62349819D02*
X139937500Y-62349819D01*
X139937500Y-62349819D02*
X140080357Y-62397438D01*
X140080357Y-62397438D02*
X140175595Y-62492676D01*
X140175595Y-62492676D02*
X140223214Y-62587914D01*
X140223214Y-62587914D02*
X140270833Y-62778390D01*
X140270833Y-62778390D02*
X140270833Y-62921247D01*
X140270833Y-62921247D02*
X140223214Y-63111723D01*
X140223214Y-63111723D02*
X140175595Y-63206961D01*
X140175595Y-63206961D02*
X140080357Y-63302200D01*
X140080357Y-63302200D02*
X139937500Y-63349819D01*
X139937500Y-63349819D02*
X139699405Y-63349819D01*
X141127976Y-62683152D02*
X141127976Y-63349819D01*
X140889881Y-62302200D02*
X140651786Y-63016485D01*
X140651786Y-63016485D02*
X141270833Y-63016485D01*
X111804819Y-88254166D02*
X111328628Y-88587499D01*
X111804819Y-88825594D02*
X110804819Y-88825594D01*
X110804819Y-88825594D02*
X110804819Y-88444642D01*
X110804819Y-88444642D02*
X110852438Y-88349404D01*
X110852438Y-88349404D02*
X110900057Y-88301785D01*
X110900057Y-88301785D02*
X110995295Y-88254166D01*
X110995295Y-88254166D02*
X111138152Y-88254166D01*
X111138152Y-88254166D02*
X111233390Y-88301785D01*
X111233390Y-88301785D02*
X111281009Y-88349404D01*
X111281009Y-88349404D02*
X111328628Y-88444642D01*
X111328628Y-88444642D02*
X111328628Y-88825594D01*
X110804819Y-87920832D02*
X110804819Y-87301785D01*
X110804819Y-87301785D02*
X111185771Y-87635118D01*
X111185771Y-87635118D02*
X111185771Y-87492261D01*
X111185771Y-87492261D02*
X111233390Y-87397023D01*
X111233390Y-87397023D02*
X111281009Y-87349404D01*
X111281009Y-87349404D02*
X111376247Y-87301785D01*
X111376247Y-87301785D02*
X111614342Y-87301785D01*
X111614342Y-87301785D02*
X111709580Y-87349404D01*
X111709580Y-87349404D02*
X111757200Y-87397023D01*
X111757200Y-87397023D02*
X111804819Y-87492261D01*
X111804819Y-87492261D02*
X111804819Y-87777975D01*
X111804819Y-87777975D02*
X111757200Y-87873213D01*
X111757200Y-87873213D02*
X111709580Y-87920832D01*
X132194986Y-105497928D02*
X132194986Y-104497928D01*
X132194986Y-104974118D02*
X132766414Y-104974118D01*
X132766414Y-105497928D02*
X132766414Y-104497928D01*
X133671176Y-104831261D02*
X133671176Y-105497928D01*
X133433081Y-104450309D02*
X133194986Y-105164594D01*
X133194986Y-105164594D02*
X133814033Y-105164594D01*
X154238095Y-41954819D02*
X154238095Y-42764342D01*
X154238095Y-42764342D02*
X154285714Y-42859580D01*
X154285714Y-42859580D02*
X154333333Y-42907200D01*
X154333333Y-42907200D02*
X154428571Y-42954819D01*
X154428571Y-42954819D02*
X154619047Y-42954819D01*
X154619047Y-42954819D02*
X154714285Y-42907200D01*
X154714285Y-42907200D02*
X154761904Y-42859580D01*
X154761904Y-42859580D02*
X154809523Y-42764342D01*
X154809523Y-42764342D02*
X154809523Y-41954819D01*
X155714285Y-42288152D02*
X155714285Y-42954819D01*
X155476190Y-41907200D02*
X155238095Y-42621485D01*
X155238095Y-42621485D02*
X155857142Y-42621485D01*
X130601877Y-69954819D02*
X130601877Y-68954819D01*
X130601877Y-69431009D02*
X131173305Y-69431009D01*
X131173305Y-69954819D02*
X131173305Y-68954819D01*
X131554258Y-68954819D02*
X132173305Y-68954819D01*
X132173305Y-68954819D02*
X131839972Y-69335771D01*
X131839972Y-69335771D02*
X131982829Y-69335771D01*
X131982829Y-69335771D02*
X132078067Y-69383390D01*
X132078067Y-69383390D02*
X132125686Y-69431009D01*
X132125686Y-69431009D02*
X132173305Y-69526247D01*
X132173305Y-69526247D02*
X132173305Y-69764342D01*
X132173305Y-69764342D02*
X132125686Y-69859580D01*
X132125686Y-69859580D02*
X132078067Y-69907200D01*
X132078067Y-69907200D02*
X131982829Y-69954819D01*
X131982829Y-69954819D02*
X131697115Y-69954819D01*
X131697115Y-69954819D02*
X131601877Y-69907200D01*
X131601877Y-69907200D02*
X131554258Y-69859580D01*
X162916667Y-83907200D02*
X163059524Y-83954819D01*
X163059524Y-83954819D02*
X163297619Y-83954819D01*
X163297619Y-83954819D02*
X163392857Y-83907200D01*
X163392857Y-83907200D02*
X163440476Y-83859580D01*
X163440476Y-83859580D02*
X163488095Y-83764342D01*
X163488095Y-83764342D02*
X163488095Y-83669104D01*
X163488095Y-83669104D02*
X163440476Y-83573866D01*
X163440476Y-83573866D02*
X163392857Y-83526247D01*
X163392857Y-83526247D02*
X163297619Y-83478628D01*
X163297619Y-83478628D02*
X163107143Y-83431009D01*
X163107143Y-83431009D02*
X163011905Y-83383390D01*
X163011905Y-83383390D02*
X162964286Y-83335771D01*
X162964286Y-83335771D02*
X162916667Y-83240533D01*
X162916667Y-83240533D02*
X162916667Y-83145295D01*
X162916667Y-83145295D02*
X162964286Y-83050057D01*
X162964286Y-83050057D02*
X163011905Y-83002438D01*
X163011905Y-83002438D02*
X163107143Y-82954819D01*
X163107143Y-82954819D02*
X163345238Y-82954819D01*
X163345238Y-82954819D02*
X163488095Y-83002438D01*
X163821429Y-82954819D02*
X164059524Y-83954819D01*
X164059524Y-83954819D02*
X164250000Y-83240533D01*
X164250000Y-83240533D02*
X164440476Y-83954819D01*
X164440476Y-83954819D02*
X164678572Y-82954819D01*
X165011905Y-83050057D02*
X165059524Y-83002438D01*
X165059524Y-83002438D02*
X165154762Y-82954819D01*
X165154762Y-82954819D02*
X165392857Y-82954819D01*
X165392857Y-82954819D02*
X165488095Y-83002438D01*
X165488095Y-83002438D02*
X165535714Y-83050057D01*
X165535714Y-83050057D02*
X165583333Y-83145295D01*
X165583333Y-83145295D02*
X165583333Y-83240533D01*
X165583333Y-83240533D02*
X165535714Y-83383390D01*
X165535714Y-83383390D02*
X164964286Y-83954819D01*
X164964286Y-83954819D02*
X165583333Y-83954819D01*
X162666666Y-67534819D02*
X162666666Y-68249104D01*
X162666666Y-68249104D02*
X162619047Y-68391961D01*
X162619047Y-68391961D02*
X162523809Y-68487200D01*
X162523809Y-68487200D02*
X162380952Y-68534819D01*
X162380952Y-68534819D02*
X162285714Y-68534819D01*
X163666666Y-68534819D02*
X163095238Y-68534819D01*
X163380952Y-68534819D02*
X163380952Y-67534819D01*
X163380952Y-67534819D02*
X163285714Y-67677676D01*
X163285714Y-67677676D02*
X163190476Y-67772914D01*
X163190476Y-67772914D02*
X163095238Y-67820533D01*
%TO.C,K1*%
D12*
X82490000Y-114440000D02*
X82490000Y-88560000D01*
X88850000Y-104540000D02*
X87630800Y-99968000D01*
X88850000Y-104540000D02*
X88850000Y-110900000D01*
X88850000Y-110900000D02*
X92914000Y-110900000D01*
X90120000Y-100222000D02*
X91136000Y-100984000D01*
X91136000Y-99460000D02*
X90120000Y-100222000D01*
X91136000Y-100984000D02*
X91136000Y-99460000D01*
X92700000Y-95396000D02*
X92700000Y-100222000D01*
X92700000Y-100222000D02*
X91136000Y-100222000D01*
X94440000Y-87690000D02*
X83360000Y-87690000D01*
X95310000Y-92340000D02*
X95310000Y-88560000D01*
X99440000Y-115310000D02*
X83360000Y-115310000D01*
X100310000Y-114440000D02*
X100310000Y-113460000D01*
X105105998Y-96894603D02*
X105105998Y-100222003D01*
X105106000Y-96894600D02*
X106376000Y-96894600D01*
X105106000Y-103778000D02*
X105106000Y-107105400D01*
X106376000Y-107105400D02*
X105106000Y-107105400D01*
X113640000Y-92990000D02*
X95960000Y-92990000D01*
X113640000Y-112810000D02*
X100960000Y-112810000D01*
X114510000Y-111940000D02*
X114510000Y-93860000D01*
X82490000Y-88560000D02*
G75*
G02*
X83360000Y-87690000I870000J0D01*
G01*
X83360000Y-115310000D02*
G75*
G02*
X82490000Y-114440000I0J870000D01*
G01*
X94440000Y-87690000D02*
G75*
G02*
X95310000Y-88560000I0J-870000D01*
G01*
X95960000Y-92990000D02*
G75*
G02*
X95310000Y-92340000I0J650000D01*
G01*
X100310000Y-113460000D02*
G75*
G02*
X100960000Y-112810000I650000J0D01*
G01*
X100310000Y-114440000D02*
G75*
G02*
X99440000Y-115310000I-870000J0D01*
G01*
X104597734Y-101238356D02*
G75*
G02*
X104598001Y-102000000I508266J-380644D01*
G01*
X104597735Y-102000355D02*
G75*
G02*
X104598001Y-102762000I508265J-380645D01*
G01*
X104598200Y-102761733D02*
G75*
G02*
X105106000Y-103778000I507800J-381267D01*
G01*
X105105998Y-100222003D02*
G75*
G02*
X104598203Y-101238266I2J-634997D01*
G01*
X113640000Y-92990000D02*
G75*
G02*
X114510000Y-93860000I0J-870000D01*
G01*
X114510000Y-111940000D02*
G75*
G02*
X113640000Y-112810000I-870000J0D01*
G01*
X88977000Y-104540000D02*
G75*
G02*
X88723000Y-104540000I-127000J0D01*
G01*
X88723000Y-104540000D02*
G75*
G02*
X88977000Y-104540000I127000J0D01*
G01*
%TO.C,D1*%
X138752500Y-57040000D02*
X138752500Y-58960000D01*
X138752500Y-58960000D02*
X141437500Y-58960000D01*
X141437500Y-57040000D02*
X138752500Y-57040000D01*
%TO.C,Q1*%
X123325000Y-90395000D02*
X123325000Y-86795000D01*
X118875000Y-88595000D02*
G75*
G02*
X123313478Y-86756522I2600000J0D01*
G01*
X123313478Y-90433478D02*
G75*
G02*
X118874999Y-88595000I-1838478J1838478D01*
G01*
%TO.C,D3*%
X121080000Y-80765000D02*
X123320000Y-80765000D01*
X121080000Y-80885000D02*
X123320000Y-80885000D01*
X121080000Y-81005000D02*
X123320000Y-81005000D01*
X122200000Y-76715000D02*
X122200000Y-77365000D01*
X122200000Y-82255000D02*
X122200000Y-81605000D01*
X121080000Y-77365000D02*
X123320000Y-77365000D01*
X123320000Y-81605000D01*
X121080000Y-81605000D01*
X121080000Y-77365000D01*
%TO.C,J3*%
X82180000Y-68880000D02*
X92220000Y-68880000D01*
X82180000Y-84120000D02*
X82180000Y-68880000D01*
X85200000Y-84120000D02*
X85200000Y-68880000D01*
X90100000Y-84120000D02*
X90100000Y-68880000D01*
X91600000Y-84120000D02*
X91600000Y-68880000D01*
X92220000Y-68880000D02*
X92220000Y-81200000D01*
X92220000Y-81800000D02*
X92220000Y-84120000D01*
X92220000Y-84120000D02*
X82180000Y-84120000D01*
X92220000Y-81500000D02*
X92830000Y-81060000D01*
X92830000Y-81940000D01*
X92220000Y-81500000D01*
G36*
X92830000Y-81940000D02*
G01*
X92220000Y-81500000D01*
X92830000Y-81060000D01*
X92830000Y-81940000D01*
G37*
%TO.C,C2*%
X140711252Y-43765000D02*
X140188748Y-43765000D01*
X140711252Y-45235000D02*
X140188748Y-45235000D01*
%TO.C,C1*%
X140711252Y-50765000D02*
X140188748Y-50765000D01*
X140711252Y-52235000D02*
X140188748Y-52235000D01*
%TO.C,R8*%
X153185436Y-63765000D02*
X153639564Y-63765000D01*
X153185436Y-65235000D02*
X153639564Y-65235000D01*
%TO.C,J2*%
X82352500Y-42720000D02*
X92392500Y-42720000D01*
X82352500Y-63280000D02*
X82352500Y-42720000D01*
X85372500Y-63280000D02*
X85372500Y-42720000D01*
X90272500Y-63280000D02*
X90272500Y-42720000D01*
X91772500Y-63280000D02*
X91772500Y-42720000D01*
X92392500Y-42720000D02*
X92392500Y-60320000D01*
X92392500Y-60920000D02*
X92392500Y-63280000D01*
X92392500Y-63280000D02*
X82352500Y-63280000D01*
X92392500Y-60620000D02*
X93002500Y-60180000D01*
X93002500Y-61060000D01*
X92392500Y-60620000D01*
G36*
X93002500Y-61060000D02*
G01*
X92392500Y-60620000D01*
X93002500Y-60180000D01*
X93002500Y-61060000D01*
G37*
%TO.C,SW1*%
X160750000Y-59000000D02*
X160750000Y-60500000D01*
X162000000Y-63000000D02*
X166500000Y-63000000D01*
X166500000Y-56500000D02*
X162000000Y-56500000D01*
X167750000Y-60500000D02*
X167750000Y-59000000D01*
%TO.C,U5*%
X96530000Y-42140000D02*
X133550000Y-42140000D01*
X96530000Y-50704000D02*
X96530000Y-42140000D01*
X96530000Y-64860000D02*
X96530000Y-51296000D01*
X133550000Y-42140000D02*
X133550000Y-64860000D01*
X133550000Y-64860000D02*
X96530000Y-64860000D01*
X96530000Y-51000000D02*
X95920000Y-51440000D01*
X95920000Y-50560000D01*
X96530000Y-51000000D01*
G36*
X96530000Y-51000000D02*
G01*
X95920000Y-51440000D01*
X95920000Y-50560000D01*
X96530000Y-51000000D01*
G37*
%TO.C,U1*%
X139250000Y-92630000D02*
X140250000Y-92630000D01*
X139250000Y-93410000D02*
X139250000Y-92630000D01*
X139250000Y-118370000D02*
X139250000Y-111955000D01*
X157490000Y-92630000D02*
X156490000Y-92630000D01*
X157490000Y-93410000D02*
X157490000Y-92630000D01*
X157490000Y-118370000D02*
X139250000Y-118370000D01*
X157490000Y-118370000D02*
X157490000Y-112210000D01*
X157495000Y-111485000D02*
X157995000Y-111485000D01*
X157495000Y-111985000D01*
X157495000Y-111485000D01*
G36*
X157495000Y-111985000D02*
G01*
X157495000Y-111485000D01*
X157995000Y-111485000D01*
X157495000Y-111985000D01*
G37*
%TO.C,K2*%
X96600000Y-68200000D02*
X116400000Y-68200000D01*
X96600000Y-83800000D02*
X96600000Y-68200000D01*
X100850000Y-71800000D02*
X100850000Y-74250000D01*
X100850000Y-80200000D02*
X100850000Y-77700000D01*
X104050000Y-75950000D02*
X99450000Y-78450000D01*
X105550000Y-72350000D02*
X112350000Y-72350000D01*
X105550000Y-75950000D02*
X104050000Y-75950000D01*
X105550000Y-75950000D02*
X105550000Y-72350000D01*
X106950000Y-74150000D02*
X110950000Y-74150000D01*
X106950000Y-74150000D02*
X110950000Y-77750000D01*
X106950000Y-77750000D02*
X106950000Y-74150000D01*
X108950000Y-74150000D02*
X108950000Y-69950000D01*
X108950000Y-81950000D02*
X108950000Y-77750000D01*
X108950000Y-81950000D02*
X111450000Y-81950000D01*
X110950000Y-74150000D02*
X110950000Y-77750000D01*
X110950000Y-77750000D02*
X106950000Y-77750000D01*
X111450000Y-69950000D02*
X108950000Y-69950000D01*
X112350000Y-75950000D02*
X112350000Y-72350000D01*
X112350000Y-75950000D02*
X113150000Y-75950000D01*
X116400000Y-74800000D02*
X116400000Y-68200000D01*
X116400000Y-83800000D02*
X96600000Y-83800000D01*
X116400000Y-83800000D02*
X116400000Y-77200000D01*
%TO.C,U2*%
X126395000Y-93345000D02*
X126395000Y-94995000D01*
X126395000Y-96995000D02*
X126395000Y-98645000D01*
X126395000Y-98645000D02*
X131595000Y-98645000D01*
X131595000Y-93345000D02*
X126395000Y-93345000D01*
X131595000Y-98645000D02*
X131595000Y-93345000D01*
X126395000Y-94995000D02*
G75*
G02*
X126395000Y-96995000I0J-1000000D01*
G01*
%TO.C,U3*%
X134670000Y-76660000D02*
X134670000Y-78310000D01*
X134670000Y-80310000D02*
X134670000Y-81960000D01*
X134670000Y-81960000D02*
X139870000Y-81960000D01*
X139870000Y-76660000D02*
X134670000Y-76660000D01*
X139870000Y-81960000D02*
X139870000Y-76660000D01*
X134670000Y-78310000D02*
G75*
G02*
X134670000Y-80310000I0J-1000000D01*
G01*
%TO.C,D2*%
X119880000Y-106780000D02*
X122120000Y-106780000D01*
X119880000Y-106900000D02*
X122120000Y-106900000D01*
X119880000Y-107020000D02*
X122120000Y-107020000D01*
X121000000Y-102730000D02*
X121000000Y-103380000D01*
X121000000Y-108270000D02*
X121000000Y-107620000D01*
X119880000Y-103380000D02*
X122120000Y-103380000D01*
X122120000Y-107620000D01*
X119880000Y-107620000D01*
X119880000Y-103380000D01*
%TO.C,R4*%
X138685436Y-69765000D02*
X139139564Y-69765000D01*
X138685436Y-71235000D02*
X139139564Y-71235000D01*
%TO.C,Q2*%
X120000000Y-69860000D02*
X123600000Y-69860000D01*
X119961522Y-69848478D02*
G75*
G02*
X121800000Y-65409999I1838478J1838478D01*
G01*
X121800000Y-65410000D02*
G75*
G02*
X123638478Y-69848478I0J-2600000D01*
G01*
%TO.C,R1*%
X126685436Y-103765000D02*
X127139564Y-103765000D01*
X126685436Y-105235000D02*
X127139564Y-105235000D01*
%TO.C,D4*%
X138752500Y-63585000D02*
X138752500Y-65505000D01*
X138752500Y-65505000D02*
X141437500Y-65505000D01*
X141437500Y-63585000D02*
X138752500Y-63585000D01*
%TO.C,R3*%
X112265000Y-88314564D02*
X112265000Y-87860436D01*
X113735000Y-88314564D02*
X113735000Y-87860436D01*
%TO.C,U4*%
X153150000Y-43590000D02*
X156910000Y-43590000D01*
X153150000Y-50410000D02*
X156910000Y-50410000D01*
X156910000Y-43590000D02*
X156910000Y-44850000D01*
X156910000Y-50410000D02*
X156910000Y-49150000D01*
X151870000Y-43690000D02*
X151630000Y-43360000D01*
X152110000Y-43360000D01*
X151870000Y-43690000D01*
G36*
X151870000Y-43690000D02*
G01*
X151630000Y-43360000D01*
X152110000Y-43360000D01*
X151870000Y-43690000D01*
G37*
%TO.C,SW2*%
X160750000Y-87000000D02*
X160750000Y-88500000D01*
X162000000Y-91000000D02*
X166500000Y-91000000D01*
X166500000Y-84500000D02*
X162000000Y-84500000D01*
X167750000Y-88500000D02*
X167750000Y-87000000D01*
%TO.C,J1*%
X161620000Y-69080000D02*
X163000000Y-69080000D01*
X161620000Y-70460000D02*
X161620000Y-69080000D01*
X161620000Y-71730000D02*
X161620000Y-79460000D01*
X161620000Y-71730000D02*
X164380000Y-71730000D01*
X161620000Y-79460000D02*
X164380000Y-79460000D01*
X164380000Y-71730000D02*
X164380000Y-79460000D01*
%TD*%
M02*
