M48
; DRILL file KiCad 10.0.3 date 2026-08-30T02:36:46
; FORMAT={-:-/ absolute / metric / decimal}
; #@! TF.CreationDate,2026-08-30T02:36:46+05:30
; #@! TF.GenerationSoftware,Kicad,Pcbnew,10.0.3
; #@! TF.FileFunction,Plated,1,2,PTH
FMAT,2
METRIC
; #@! TA.AperFunction,Plated,PTH,ComponentDrill
T1C0.200
; #@! TA.AperFunction,Plated,PTH,ViaDrill
T2C0.300
; #@! TA.AperFunction,Plated,PTH,ComponentDrill
T3C0.500
; #@! TA.AperFunction,Plated,PTH,ComponentDrill
T4C0.750
; #@! TA.AperFunction,Plated,PTH,ComponentDrill
T5C0.800
; #@! TA.AperFunction,Plated,PTH,ComponentDrill
T6C1.000
; #@! TA.AperFunction,Plated,PTH,ComponentDrill
T7C1.100
; #@! TA.AperFunction,Plated,PTH,ComponentDrill
T8C1.300
; #@! TA.AperFunction,Plated,PTH,ComponentDrill
T9C1.600
; #@! TA.AperFunction,Plated,PTH,ComponentDrill
T10C2.700
%
G90
G05
T1
X147.525Y-102.657
X147.525Y-104.182
X148.287Y-101.895
X148.287Y-103.42
X148.287Y-104.945
X149.05Y-102.657
X149.05Y-104.182
X149.812Y-101.895
X149.812Y-103.42
X149.812Y-104.945
X150.575Y-102.657
X150.575Y-104.182
T2
X126.275Y-83.5
X127.657Y-78.372
X136.1Y-97.575
X137.125Y-94.375
X141.05Y-96.55
X141.1Y-98.75
X141.875Y-108.65
X143.275Y-100.95
X145.825Y-70.3
X146.725Y-89.55
X148.175Y-67.4
X148.175Y-67.4
X148.325Y-64.5
X149.725Y-74.875
X152.65Y-67.95
X152.65Y-67.95
X154.466Y-74.262
X157.12Y-93.3
X162.975Y-66.75
X166.175Y-98.9
X167.45Y-69.275
T3
X128.407Y-70.432
X129.0Y-69.0
X129.0Y-71.864
X130.0Y-105.975
X130.432Y-68.407
X130.432Y-72.457
X130.593Y-104.543
X130.593Y-107.407
X131.864Y-69.0
X131.864Y-71.864
X132.025Y-103.95
X132.025Y-108.0
X132.457Y-70.432
X133.457Y-104.543
X133.457Y-107.407
X134.05Y-105.975
X164.407Y-45.482
X164.407Y-106.432
X165.0Y-44.05
X165.0Y-46.914
X165.0Y-105.0
X165.0Y-107.864
X166.432Y-43.457
X166.432Y-47.507
X166.432Y-104.407
X166.432Y-108.457
X167.864Y-44.05
X167.864Y-46.914
X167.864Y-105.0
X167.864Y-107.864
X168.457Y-45.482
X168.457Y-106.432
T4
X120.53Y-68.01
X121.475Y-87.325
X121.475Y-88.595
X121.475Y-89.865
X121.8Y-68.01
X123.07Y-68.01
T5
X121.0Y-101.69
X121.0Y-109.31
X122.2Y-75.675
X122.2Y-83.295
X127.725Y-92.185
X127.725Y-99.805
X130.265Y-92.185
X130.265Y-99.805
X136.0Y-75.5
X136.0Y-83.12
X138.54Y-75.5
X138.54Y-83.12
T6
X100.5Y-51.0
X100.5Y-56.0
X113.05Y-69.95
X113.05Y-81.95
X129.58Y-46.0
X129.58Y-61.0
X163.0Y-70.46
X163.0Y-73.0
X163.0Y-75.54
X163.0Y-78.08
T7
X107.9Y-96.9
X107.9Y-107.1
X161.0Y-57.5
X161.0Y-62.0
X161.0Y-85.5
X161.0Y-90.0
X167.5Y-57.5
X167.5Y-62.0
X167.5Y-85.5
X167.5Y-90.0
T8
X87.5Y-71.5
X87.5Y-76.5
X87.5Y-81.5
X87.672Y-45.38
X87.672Y-50.46
X87.672Y-55.54
X87.672Y-60.62
X100.8Y-82.0
X100.85Y-69.95
X115.0Y-76.0
T9
X92.7Y-93.1
X95.24Y-110.9
T10
X130.432Y-70.432
X132.025Y-105.975
X166.432Y-45.482
X166.432Y-106.432
M30
