M48
; DRILL file KiCad 10.0.3 date 2026-09-05T21:28:45
; FORMAT={-:-/ absolute / metric / decimal}
; #@! TF.CreationDate,2026-09-05T21:28:45+05:30
; #@! TF.GenerationSoftware,Kicad,Pcbnew,10.0.3
; #@! TF.FileFunction,Plated,1,2,PTH
FMAT,2
METRIC
; #@! TA.AperFunction,Plated,PTH,ViaDrill
T1C0.300
; #@! TA.AperFunction,Plated,PTH,ComponentDrill
T2C0.800
; #@! TA.AperFunction,Plated,PTH,ComponentDrill
T3C1.000
%
G90
G05
T1
X140.25Y-62.0
X144.25Y-61.4
X146.3Y-60.175
X147.25Y-59.46
X147.25Y-62.95
X151.425Y-58.85
X152.675Y-62.4
X153.15Y-59.525
X153.75Y-57.7
X153.75Y-57.7
X155.475Y-55.975
X159.95Y-57.65
X160.4Y-60.975
X161.95Y-57.7
T2
X142.45Y-46.2
X142.45Y-48.2
X150.725Y-70.0
X150.725Y-72.0
T3
X132.375Y-64.975
X132.375Y-67.475
X133.25Y-55.575
X133.25Y-58.075
X133.525Y-46.475
X133.525Y-48.975
X141.225Y-72.025
X143.725Y-72.025
X163.95Y-47.3
X163.95Y-49.84
X163.95Y-52.38
X163.95Y-54.92
X163.95Y-57.46
X163.95Y-60.0
X163.95Y-62.54
X163.95Y-65.08
M30
