%TF.GenerationSoftware,KiCad,Pcbnew,10.0.3*%
%TF.CreationDate,2026-09-05T21:31:02+05:30*%
%TF.ProjectId,dual DC motor driver board,6475616c-2044-4432-906d-6f746f722064,rev?*%
%TF.SameCoordinates,Original*%
%TF.FileFunction,Legend,Top*%
%TF.FilePolarity,Positive*%
%FSLAX46Y46*%
G04 Gerber Fmt 4.6, Leading zero omitted, Abs format (unit mm)*
G04 Created by KiCad (PCBNEW 10.0.3) date 2026-09-05 21:31:02*
%MOMM*%
%LPD*%
G01*
G04 APERTURE LIST*
G04 Aperture macros list*
%AMRoundRect*
0 Rectangle with rounded corners*
0 $1 Rounding radius*
0 $2 $3 $4 $5 $6 $7 $8 $9 X,Y pos of 4 corners*
0 Add a 4 corners polygon primitive as box body*
4,1,4,$2,$3,$4,$5,$6,$7,$8,$9,$2,$3,0*
0 Add four circle primitives for the rounded corners*
1,1,$1+$1,$2,$3*
1,1,$1+$1,$4,$5*
1,1,$1+$1,$6,$7*
1,1,$1+$1,$8,$9*
0 Add four rect primitives between the rounded corners*
20,1,$1+$1,$2,$3,$4,$5,0*
20,1,$1+$1,$4,$5,$6,$7,0*
20,1,$1+$1,$6,$7,$8,$9,0*
20,1,$1+$1,$8,$9,$2,$3,0*%
G04 Aperture macros list end*
%ADD10C,0.150000*%
%ADD11C,0.120000*%
%TA.AperFunction,ComponentPad*%
%ADD12RoundRect,0.250000X0.550000X-0.550000X0.550000X0.550000X-0.550000X0.550000X-0.550000X-0.550000X0*%
%TD*%
%TA.AperFunction,ComponentPad*%
%ADD13C,1.600000*%
%TD*%
%TA.AperFunction,ComponentPad*%
%ADD14RoundRect,0.250000X-0.750000X0.600000X-0.750000X-0.600000X0.750000X-0.600000X0.750000X0.600000X0*%
%TD*%
%TA.AperFunction,ComponentPad*%
%ADD15O,2.000000X1.700000*%
%TD*%
%TA.AperFunction,ComponentPad*%
%ADD16R,1.700000X1.700000*%
%TD*%
%TA.AperFunction,ComponentPad*%
%ADD17C,1.700000*%
%TD*%
%TA.AperFunction,ComponentPad*%
%ADD18RoundRect,0.250000X0.750000X-0.600000X0.750000X0.600000X-0.750000X0.600000X-0.750000X-0.600000X0*%
%TD*%
%TA.AperFunction,ComponentPad*%
%ADD19RoundRect,0.250000X0.600000X0.750000X-0.600000X0.750000X-0.600000X-0.750000X0.600000X-0.750000X0*%
%TD*%
%TA.AperFunction,ComponentPad*%
%ADD20O,1.700000X2.000000*%
%TD*%
%TA.AperFunction,ViaPad*%
%ADD21C,0.600000*%
%TD*%
%TA.AperFunction,Conductor*%
%ADD22C,0.200000*%
%TD*%
%TA.AperFunction,Conductor*%
%ADD23C,0.400000*%
%TD*%
%TA.AperFunction,Conductor*%
%ADD24C,0.250000*%
%TD*%
%TA.AperFunction,Conductor*%
%ADD25C,0.650000*%
%TD*%
%TA.AperFunction,Conductor*%
%ADD26C,1.000000*%
%TD*%
%ADD27RoundRect,0.250000X0.550000X-0.550000X0.550000X0.550000X-0.550000X0.550000X-0.550000X-0.550000X0*%
%ADD28C,1.600000*%
%ADD29RoundRect,0.250000X-0.750000X0.600000X-0.750000X-0.600000X0.750000X-0.600000X0.750000X0.600000X0*%
%ADD30O,2.000000X1.700000*%
%ADD31R,1.700000X1.700000*%
%ADD32C,1.700000*%
%ADD33RoundRect,0.250000X0.750000X-0.600000X0.750000X0.600000X-0.750000X0.600000X-0.750000X-0.600000X0*%
%ADD34RoundRect,0.250000X0.600000X0.750000X-0.600000X0.750000X-0.600000X-0.750000X0.600000X-0.750000X0*%
%ADD35O,1.700000X2.000000*%
%TA.AperFunction,SMDPad,CuDef*%
%ADD36RoundRect,0.250000X0.475000X-0.250000X0.475000X0.250000X-0.475000X0.250000X-0.475000X-0.250000X0*%
%TD*%
%TA.AperFunction,SMDPad,CuDef*%
%ADD37RoundRect,0.100000X-0.850000X-0.100000X0.850000X-0.100000X0.850000X0.100000X-0.850000X0.100000X0*%
%TD*%
%TA.AperFunction,SMDPad,CuDef*%
%ADD38RoundRect,0.250000X0.262500X0.450000X-0.262500X0.450000X-0.262500X-0.450000X0.262500X-0.450000X0*%
%TD*%
%ADD39RoundRect,0.250000X0.475000X-0.250000X0.475000X0.250000X-0.475000X0.250000X-0.475000X-0.250000X0*%
%ADD40RoundRect,0.100000X-0.850000X-0.100000X0.850000X-0.100000X0.850000X0.100000X-0.850000X0.100000X0*%
%ADD41RoundRect,0.250000X0.262500X0.450000X-0.262500X0.450000X-0.262500X-0.450000X0.262500X-0.450000X0*%
%ADD42C,0.050000*%
%ADD43C,0.080000*%
%ADD44C,0.100000*%
G04 APERTURE END LIST*
D10*
X147334580Y-71166666D02*
X147382200Y-71214285D01*
X147382200Y-71214285D02*
X147429819Y-71357142D01*
X147429819Y-71357142D02*
X147429819Y-71452380D01*
X147429819Y-71452380D02*
X147382200Y-71595237D01*
X147382200Y-71595237D02*
X147286961Y-71690475D01*
X147286961Y-71690475D02*
X147191723Y-71738094D01*
X147191723Y-71738094D02*
X147001247Y-71785713D01*
X147001247Y-71785713D02*
X146858390Y-71785713D01*
X146858390Y-71785713D02*
X146667914Y-71738094D01*
X146667914Y-71738094D02*
X146572676Y-71690475D01*
X146572676Y-71690475D02*
X146477438Y-71595237D01*
X146477438Y-71595237D02*
X146429819Y-71452380D01*
X146429819Y-71452380D02*
X146429819Y-71357142D01*
X146429819Y-71357142D02*
X146477438Y-71214285D01*
X146477438Y-71214285D02*
X146525057Y-71166666D01*
X146429819Y-70833332D02*
X146429819Y-70214285D01*
X146429819Y-70214285D02*
X146810771Y-70547618D01*
X146810771Y-70547618D02*
X146810771Y-70404761D01*
X146810771Y-70404761D02*
X146858390Y-70309523D01*
X146858390Y-70309523D02*
X146906009Y-70261904D01*
X146906009Y-70261904D02*
X147001247Y-70214285D01*
X147001247Y-70214285D02*
X147239342Y-70214285D01*
X147239342Y-70214285D02*
X147334580Y-70261904D01*
X147334580Y-70261904D02*
X147382200Y-70309523D01*
X147382200Y-70309523D02*
X147429819Y-70404761D01*
X147429819Y-70404761D02*
X147429819Y-70690475D01*
X147429819Y-70690475D02*
X147382200Y-70785713D01*
X147382200Y-70785713D02*
X147334580Y-70833332D01*
X136529819Y-48058333D02*
X137244104Y-48058333D01*
X137244104Y-48058333D02*
X137386961Y-48105952D01*
X137386961Y-48105952D02*
X137482200Y-48201190D01*
X137482200Y-48201190D02*
X137529819Y-48344047D01*
X137529819Y-48344047D02*
X137529819Y-48439285D01*
X137529819Y-47058333D02*
X137529819Y-47629761D01*
X137529819Y-47344047D02*
X136529819Y-47344047D01*
X136529819Y-47344047D02*
X136672676Y-47439285D01*
X136672676Y-47439285D02*
X136767914Y-47534523D01*
X136767914Y-47534523D02*
X136815533Y-47629761D01*
X139059580Y-47366666D02*
X139107200Y-47414285D01*
X139107200Y-47414285D02*
X139154819Y-47557142D01*
X139154819Y-47557142D02*
X139154819Y-47652380D01*
X139154819Y-47652380D02*
X139107200Y-47795237D01*
X139107200Y-47795237D02*
X139011961Y-47890475D01*
X139011961Y-47890475D02*
X138916723Y-47938094D01*
X138916723Y-47938094D02*
X138726247Y-47985713D01*
X138726247Y-47985713D02*
X138583390Y-47985713D01*
X138583390Y-47985713D02*
X138392914Y-47938094D01*
X138392914Y-47938094D02*
X138297676Y-47890475D01*
X138297676Y-47890475D02*
X138202438Y-47795237D01*
X138202438Y-47795237D02*
X138154819Y-47652380D01*
X138154819Y-47652380D02*
X138154819Y-47557142D01*
X138154819Y-47557142D02*
X138202438Y-47414285D01*
X138202438Y-47414285D02*
X138250057Y-47366666D01*
X139154819Y-46414285D02*
X139154819Y-46985713D01*
X139154819Y-46699999D02*
X138154819Y-46699999D01*
X138154819Y-46699999D02*
X138297676Y-46795237D01*
X138297676Y-46795237D02*
X138392914Y-46890475D01*
X138392914Y-46890475D02*
X138440533Y-46985713D01*
X156279580Y-71266666D02*
X156327200Y-71314285D01*
X156327200Y-71314285D02*
X156374819Y-71457142D01*
X156374819Y-71457142D02*
X156374819Y-71552380D01*
X156374819Y-71552380D02*
X156327200Y-71695237D01*
X156327200Y-71695237D02*
X156231961Y-71790475D01*
X156231961Y-71790475D02*
X156136723Y-71838094D01*
X156136723Y-71838094D02*
X155946247Y-71885713D01*
X155946247Y-71885713D02*
X155803390Y-71885713D01*
X155803390Y-71885713D02*
X155612914Y-71838094D01*
X155612914Y-71838094D02*
X155517676Y-71790475D01*
X155517676Y-71790475D02*
X155422438Y-71695237D01*
X155422438Y-71695237D02*
X155374819Y-71552380D01*
X155374819Y-71552380D02*
X155374819Y-71457142D01*
X155374819Y-71457142D02*
X155422438Y-71314285D01*
X155422438Y-71314285D02*
X155470057Y-71266666D01*
X155708152Y-70409523D02*
X156374819Y-70409523D01*
X155327200Y-70647618D02*
X156041485Y-70885713D01*
X156041485Y-70885713D02*
X156041485Y-70266666D01*
X136254819Y-57158333D02*
X136969104Y-57158333D01*
X136969104Y-57158333D02*
X137111961Y-57205952D01*
X137111961Y-57205952D02*
X137207200Y-57301190D01*
X137207200Y-57301190D02*
X137254819Y-57444047D01*
X137254819Y-57444047D02*
X137254819Y-57539285D01*
X136254819Y-56777380D02*
X136254819Y-56158333D01*
X136254819Y-56158333D02*
X136635771Y-56491666D01*
X136635771Y-56491666D02*
X136635771Y-56348809D01*
X136635771Y-56348809D02*
X136683390Y-56253571D01*
X136683390Y-56253571D02*
X136731009Y-56205952D01*
X136731009Y-56205952D02*
X136826247Y-56158333D01*
X136826247Y-56158333D02*
X137064342Y-56158333D01*
X137064342Y-56158333D02*
X137159580Y-56205952D01*
X137159580Y-56205952D02*
X137207200Y-56253571D01*
X137207200Y-56253571D02*
X137254819Y-56348809D01*
X137254819Y-56348809D02*
X137254819Y-56634523D01*
X137254819Y-56634523D02*
X137207200Y-56729761D01*
X137207200Y-56729761D02*
X137159580Y-56777380D01*
X145213095Y-53624819D02*
X145213095Y-54434342D01*
X145213095Y-54434342D02*
X145260714Y-54529580D01*
X145260714Y-54529580D02*
X145308333Y-54577200D01*
X145308333Y-54577200D02*
X145403571Y-54624819D01*
X145403571Y-54624819D02*
X145594047Y-54624819D01*
X145594047Y-54624819D02*
X145689285Y-54577200D01*
X145689285Y-54577200D02*
X145736904Y-54529580D01*
X145736904Y-54529580D02*
X145784523Y-54434342D01*
X145784523Y-54434342D02*
X145784523Y-53624819D01*
X146784523Y-54624819D02*
X146213095Y-54624819D01*
X146498809Y-54624819D02*
X146498809Y-53624819D01*
X146498809Y-53624819D02*
X146403571Y-53767676D01*
X146403571Y-53767676D02*
X146308333Y-53862914D01*
X146308333Y-53862914D02*
X146213095Y-53910533D01*
X163616666Y-44374819D02*
X163616666Y-45089104D01*
X163616666Y-45089104D02*
X163569047Y-45231961D01*
X163569047Y-45231961D02*
X163473809Y-45327200D01*
X163473809Y-45327200D02*
X163330952Y-45374819D01*
X163330952Y-45374819D02*
X163235714Y-45374819D01*
X164569047Y-44374819D02*
X164092857Y-44374819D01*
X164092857Y-44374819D02*
X164045238Y-44851009D01*
X164045238Y-44851009D02*
X164092857Y-44803390D01*
X164092857Y-44803390D02*
X164188095Y-44755771D01*
X164188095Y-44755771D02*
X164426190Y-44755771D01*
X164426190Y-44755771D02*
X164521428Y-44803390D01*
X164521428Y-44803390D02*
X164569047Y-44851009D01*
X164569047Y-44851009D02*
X164616666Y-44946247D01*
X164616666Y-44946247D02*
X164616666Y-45184342D01*
X164616666Y-45184342D02*
X164569047Y-45279580D01*
X164569047Y-45279580D02*
X164521428Y-45327200D01*
X164521428Y-45327200D02*
X164426190Y-45374819D01*
X164426190Y-45374819D02*
X164188095Y-45374819D01*
X164188095Y-45374819D02*
X164092857Y-45327200D01*
X164092857Y-45327200D02*
X164045238Y-45279580D01*
X128279819Y-66558333D02*
X128994104Y-66558333D01*
X128994104Y-66558333D02*
X129136961Y-66605952D01*
X129136961Y-66605952D02*
X129232200Y-66701190D01*
X129232200Y-66701190D02*
X129279819Y-66844047D01*
X129279819Y-66844047D02*
X129279819Y-66939285D01*
X128613152Y-65653571D02*
X129279819Y-65653571D01*
X128232200Y-65891666D02*
X128946485Y-66129761D01*
X128946485Y-66129761D02*
X128946485Y-65510714D01*
X149879580Y-47491666D02*
X149927200Y-47539285D01*
X149927200Y-47539285D02*
X149974819Y-47682142D01*
X149974819Y-47682142D02*
X149974819Y-47777380D01*
X149974819Y-47777380D02*
X149927200Y-47920237D01*
X149927200Y-47920237D02*
X149831961Y-48015475D01*
X149831961Y-48015475D02*
X149736723Y-48063094D01*
X149736723Y-48063094D02*
X149546247Y-48110713D01*
X149546247Y-48110713D02*
X149403390Y-48110713D01*
X149403390Y-48110713D02*
X149212914Y-48063094D01*
X149212914Y-48063094D02*
X149117676Y-48015475D01*
X149117676Y-48015475D02*
X149022438Y-47920237D01*
X149022438Y-47920237D02*
X148974819Y-47777380D01*
X148974819Y-47777380D02*
X148974819Y-47682142D01*
X148974819Y-47682142D02*
X149022438Y-47539285D01*
X149022438Y-47539285D02*
X149070057Y-47491666D01*
X149070057Y-47110713D02*
X149022438Y-47063094D01*
X149022438Y-47063094D02*
X148974819Y-46967856D01*
X148974819Y-46967856D02*
X148974819Y-46729761D01*
X148974819Y-46729761D02*
X149022438Y-46634523D01*
X149022438Y-46634523D02*
X149070057Y-46586904D01*
X149070057Y-46586904D02*
X149165295Y-46539285D01*
X149165295Y-46539285D02*
X149260533Y-46539285D01*
X149260533Y-46539285D02*
X149403390Y-46586904D01*
X149403390Y-46586904D02*
X149974819Y-47158332D01*
X149974819Y-47158332D02*
X149974819Y-46539285D01*
X158558333Y-65304819D02*
X158225000Y-64828628D01*
X157986905Y-65304819D02*
X157986905Y-64304819D01*
X157986905Y-64304819D02*
X158367857Y-64304819D01*
X158367857Y-64304819D02*
X158463095Y-64352438D01*
X158463095Y-64352438D02*
X158510714Y-64400057D01*
X158510714Y-64400057D02*
X158558333Y-64495295D01*
X158558333Y-64495295D02*
X158558333Y-64638152D01*
X158558333Y-64638152D02*
X158510714Y-64733390D01*
X158510714Y-64733390D02*
X158463095Y-64781009D01*
X158463095Y-64781009D02*
X158367857Y-64828628D01*
X158367857Y-64828628D02*
X157986905Y-64828628D01*
X159510714Y-65304819D02*
X158939286Y-65304819D01*
X159225000Y-65304819D02*
X159225000Y-64304819D01*
X159225000Y-64304819D02*
X159129762Y-64447676D01*
X159129762Y-64447676D02*
X159034524Y-64542914D01*
X159034524Y-64542914D02*
X158939286Y-64590533D01*
X142141666Y-75029819D02*
X142141666Y-75744104D01*
X142141666Y-75744104D02*
X142094047Y-75886961D01*
X142094047Y-75886961D02*
X141998809Y-75982200D01*
X141998809Y-75982200D02*
X141855952Y-76029819D01*
X141855952Y-76029819D02*
X141760714Y-76029819D01*
X142570238Y-75125057D02*
X142617857Y-75077438D01*
X142617857Y-75077438D02*
X142713095Y-75029819D01*
X142713095Y-75029819D02*
X142951190Y-75029819D01*
X142951190Y-75029819D02*
X143046428Y-75077438D01*
X143046428Y-75077438D02*
X143094047Y-75125057D01*
X143094047Y-75125057D02*
X143141666Y-75220295D01*
X143141666Y-75220295D02*
X143141666Y-75315533D01*
X143141666Y-75315533D02*
X143094047Y-75458390D01*
X143094047Y-75458390D02*
X142522619Y-76029819D01*
X142522619Y-76029819D02*
X143141666Y-76029819D01*
%TO.C,C3*%
D11*
X148145000Y-70960000D02*
X149685000Y-70960000D01*
X148145000Y-71000000D02*
X149685000Y-71000000D01*
X148146000Y-70920000D02*
X149685000Y-70920000D01*
X148148000Y-70880000D02*
X149685000Y-70880000D01*
X148150000Y-70840000D02*
X149685000Y-70840000D01*
X148153000Y-70800000D02*
X149685000Y-70800000D01*
X148156000Y-70760000D02*
X149685000Y-70760000D01*
X148160000Y-70720000D02*
X149685000Y-70720000D01*
X148165000Y-70680000D02*
X149685000Y-70680000D01*
X148170000Y-70640000D02*
X149685000Y-70640000D01*
X148176000Y-70600000D02*
X149685000Y-70600000D01*
X148182000Y-70560000D02*
X149685000Y-70560000D01*
X148189000Y-70520000D02*
X149685000Y-70520000D01*
X148197000Y-70480000D02*
X149685000Y-70480000D01*
X148206000Y-70440000D02*
X149685000Y-70440000D01*
X148215000Y-70400000D02*
X149685000Y-70400000D01*
X148224000Y-70360000D02*
X149685000Y-70360000D01*
X148235000Y-70320000D02*
X149685000Y-70320000D01*
X148246000Y-70280000D02*
X149685000Y-70280000D01*
X148258000Y-70240000D02*
X149685000Y-70240000D01*
X148270000Y-70200000D02*
X149685000Y-70200000D01*
X148283000Y-70160000D02*
X149685000Y-70160000D01*
X148297000Y-70120000D02*
X149685000Y-70120000D01*
X148312000Y-70080000D02*
X149685000Y-70080000D01*
X148327000Y-70040000D02*
X149685000Y-70040000D01*
X148343000Y-70000000D02*
X149685000Y-70000000D01*
X148360000Y-69960000D02*
X149685000Y-69960000D01*
X148378000Y-69920000D02*
X149685000Y-69920000D01*
X148396000Y-69880000D02*
X149685000Y-69880000D01*
X148416000Y-69840000D02*
X149685000Y-69840000D01*
X148436000Y-69800000D02*
X149685000Y-69800000D01*
X148457000Y-69760000D02*
X149685000Y-69760000D01*
X148479000Y-69720000D02*
X149685000Y-69720000D01*
X148502000Y-69680000D02*
X149685000Y-69680000D01*
X148526000Y-69640000D02*
X149685000Y-69640000D01*
X148550000Y-69600000D02*
X149685000Y-69600000D01*
X148576000Y-69560000D02*
X149685000Y-69560000D01*
X148603000Y-69520000D02*
X149685000Y-69520000D01*
X148631000Y-69480000D02*
X149685000Y-69480000D01*
X148660000Y-69440000D02*
X149685000Y-69440000D01*
X148690000Y-69400000D02*
X149685000Y-69400000D01*
X148722000Y-69360000D02*
X149685000Y-69360000D01*
X148755000Y-69320000D02*
X149685000Y-69320000D01*
X148789000Y-69280000D02*
X149685000Y-69280000D01*
X148824000Y-69240000D02*
X149685000Y-69240000D01*
X148861000Y-69200000D02*
X149685000Y-69200000D01*
X148900000Y-69160000D02*
X149685000Y-69160000D01*
X148940000Y-69120000D02*
X149685000Y-69120000D01*
X148982000Y-69080000D02*
X149685000Y-69080000D01*
X149000000Y-73554775D02*
X149500000Y-73554775D01*
X149026000Y-69040000D02*
X149685000Y-69040000D01*
X149073000Y-69000000D02*
X149685000Y-69000000D01*
X149121000Y-68960000D02*
X152329000Y-68960000D01*
X149172000Y-68920000D02*
X152278000Y-68920000D01*
X149226000Y-68880000D02*
X152224000Y-68880000D01*
X149250000Y-73804775D02*
X149250000Y-73304775D01*
X149282000Y-68840000D02*
X152168000Y-68840000D01*
X149342000Y-68800000D02*
X152108000Y-68800000D01*
X149406000Y-68760000D02*
X152044000Y-68760000D01*
X149474000Y-68720000D02*
X151976000Y-68720000D01*
X149548000Y-68680000D02*
X151902000Y-68680000D01*
X149627000Y-68640000D02*
X151823000Y-68640000D01*
X149714000Y-68600000D02*
X151736000Y-68600000D01*
X149811000Y-68560000D02*
X151639000Y-68560000D01*
X149920000Y-68520000D02*
X151530000Y-68520000D01*
X150048000Y-68480000D02*
X151402000Y-68480000D01*
X150208000Y-68440000D02*
X151242000Y-68440000D01*
X150442000Y-68400000D02*
X151008000Y-68400000D01*
X151765000Y-69000000D02*
X152377000Y-69000000D01*
X151765000Y-69040000D02*
X152424000Y-69040000D01*
X151765000Y-69080000D02*
X152468000Y-69080000D01*
X151765000Y-69120000D02*
X152510000Y-69120000D01*
X151765000Y-69160000D02*
X152550000Y-69160000D01*
X151765000Y-69200000D02*
X152589000Y-69200000D01*
X151765000Y-69240000D02*
X152626000Y-69240000D01*
X151765000Y-69280000D02*
X152661000Y-69280000D01*
X151765000Y-69320000D02*
X152695000Y-69320000D01*
X151765000Y-69360000D02*
X152728000Y-69360000D01*
X151765000Y-69400000D02*
X152760000Y-69400000D01*
X151765000Y-69440000D02*
X152790000Y-69440000D01*
X151765000Y-69480000D02*
X152819000Y-69480000D01*
X151765000Y-69520000D02*
X152847000Y-69520000D01*
X151765000Y-69560000D02*
X152874000Y-69560000D01*
X151765000Y-69600000D02*
X152900000Y-69600000D01*
X151765000Y-69640000D02*
X152924000Y-69640000D01*
X151765000Y-69680000D02*
X152948000Y-69680000D01*
X151765000Y-69720000D02*
X152971000Y-69720000D01*
X151765000Y-69760000D02*
X152993000Y-69760000D01*
X151765000Y-69800000D02*
X153014000Y-69800000D01*
X151765000Y-69840000D02*
X153034000Y-69840000D01*
X151765000Y-69880000D02*
X153054000Y-69880000D01*
X151765000Y-69920000D02*
X153072000Y-69920000D01*
X151765000Y-69960000D02*
X153090000Y-69960000D01*
X151765000Y-70000000D02*
X153107000Y-70000000D01*
X151765000Y-70040000D02*
X153123000Y-70040000D01*
X151765000Y-70080000D02*
X153138000Y-70080000D01*
X151765000Y-70120000D02*
X153153000Y-70120000D01*
X151765000Y-70160000D02*
X153167000Y-70160000D01*
X151765000Y-70200000D02*
X153180000Y-70200000D01*
X151765000Y-70240000D02*
X153192000Y-70240000D01*
X151765000Y-70280000D02*
X153204000Y-70280000D01*
X151765000Y-70320000D02*
X153215000Y-70320000D01*
X151765000Y-70360000D02*
X153226000Y-70360000D01*
X151765000Y-70400000D02*
X153235000Y-70400000D01*
X151765000Y-70440000D02*
X153244000Y-70440000D01*
X151765000Y-70480000D02*
X153253000Y-70480000D01*
X151765000Y-70520000D02*
X153261000Y-70520000D01*
X151765000Y-70560000D02*
X153268000Y-70560000D01*
X151765000Y-70600000D02*
X153274000Y-70600000D01*
X151765000Y-70640000D02*
X153280000Y-70640000D01*
X151765000Y-70680000D02*
X153285000Y-70680000D01*
X151765000Y-70720000D02*
X153290000Y-70720000D01*
X151765000Y-70760000D02*
X153294000Y-70760000D01*
X151765000Y-70800000D02*
X153297000Y-70800000D01*
X151765000Y-70840000D02*
X153300000Y-70840000D01*
X151765000Y-70880000D02*
X153302000Y-70880000D01*
X151765000Y-70920000D02*
X153304000Y-70920000D01*
X151765000Y-70960000D02*
X153305000Y-70960000D01*
X151765000Y-71000000D02*
X153305000Y-71000000D01*
X153345000Y-71000000D02*
G75*
G02*
X148105000Y-71000000I-2620000J0D01*
G01*
X148105000Y-71000000D02*
G75*
G02*
X153345000Y-71000000I2620000J0D01*
G01*
%TO.C,J1*%
X130775000Y-44675000D02*
X130775000Y-47725000D01*
X130775000Y-50775000D02*
X130775000Y-47725000D01*
X133725000Y-43925000D02*
X133725000Y-44675000D01*
X133725000Y-44675000D02*
X130775000Y-44675000D01*
X133725000Y-50775000D02*
X130775000Y-50775000D01*
X133725000Y-51525000D02*
X133725000Y-50775000D01*
X136275000Y-43625000D02*
X135025000Y-43625000D01*
X136275000Y-44875000D02*
X136275000Y-43625000D01*
X135225000Y-43925000D02*
X135975000Y-43925000D01*
X135975000Y-45725000D01*
X135225000Y-45725000D01*
X135225000Y-43925000D01*
X135225000Y-47225000D02*
X135975000Y-47225000D01*
X135975000Y-48225000D01*
X135225000Y-48225000D01*
X135225000Y-47225000D01*
X135225000Y-49725000D02*
X135975000Y-49725000D01*
X135975000Y-51525000D01*
X135225000Y-51525000D01*
X135225000Y-49725000D01*
X130015000Y-43915000D02*
X135985000Y-43915000D01*
X135985000Y-51535000D01*
X130015000Y-51535000D01*
X130015000Y-43915000D01*
%TO.C,C1*%
X139870000Y-47160000D02*
X141410000Y-47160000D01*
X139870000Y-47200000D02*
X141410000Y-47200000D01*
X139871000Y-47120000D02*
X141410000Y-47120000D01*
X139873000Y-47080000D02*
X141410000Y-47080000D01*
X139875000Y-47040000D02*
X141410000Y-47040000D01*
X139878000Y-47000000D02*
X141410000Y-47000000D01*
X139881000Y-46960000D02*
X141410000Y-46960000D01*
X139885000Y-46920000D02*
X141410000Y-46920000D01*
X139890000Y-46880000D02*
X141410000Y-46880000D01*
X139895000Y-46840000D02*
X141410000Y-46840000D01*
X139901000Y-46800000D02*
X141410000Y-46800000D01*
X139907000Y-46760000D02*
X141410000Y-46760000D01*
X139914000Y-46720000D02*
X141410000Y-46720000D01*
X139922000Y-46680000D02*
X141410000Y-46680000D01*
X139931000Y-46640000D02*
X141410000Y-46640000D01*
X139940000Y-46600000D02*
X141410000Y-46600000D01*
X139949000Y-46560000D02*
X141410000Y-46560000D01*
X139960000Y-46520000D02*
X141410000Y-46520000D01*
X139971000Y-46480000D02*
X141410000Y-46480000D01*
X139983000Y-46440000D02*
X141410000Y-46440000D01*
X139995000Y-46400000D02*
X141410000Y-46400000D01*
X140008000Y-46360000D02*
X141410000Y-46360000D01*
X140022000Y-46320000D02*
X141410000Y-46320000D01*
X140037000Y-46280000D02*
X141410000Y-46280000D01*
X140052000Y-46240000D02*
X141410000Y-46240000D01*
X140068000Y-46200000D02*
X141410000Y-46200000D01*
X140085000Y-46160000D02*
X141410000Y-46160000D01*
X140103000Y-46120000D02*
X141410000Y-46120000D01*
X140121000Y-46080000D02*
X141410000Y-46080000D01*
X140141000Y-46040000D02*
X141410000Y-46040000D01*
X140161000Y-46000000D02*
X141410000Y-46000000D01*
X140182000Y-45960000D02*
X141410000Y-45960000D01*
X140204000Y-45920000D02*
X141410000Y-45920000D01*
X140227000Y-45880000D02*
X141410000Y-45880000D01*
X140251000Y-45840000D02*
X141410000Y-45840000D01*
X140275000Y-45800000D02*
X141410000Y-45800000D01*
X140301000Y-45760000D02*
X141410000Y-45760000D01*
X140328000Y-45720000D02*
X141410000Y-45720000D01*
X140356000Y-45680000D02*
X141410000Y-45680000D01*
X140385000Y-45640000D02*
X141410000Y-45640000D01*
X140415000Y-45600000D02*
X141410000Y-45600000D01*
X140447000Y-45560000D02*
X141410000Y-45560000D01*
X140480000Y-45520000D02*
X141410000Y-45520000D01*
X140514000Y-45480000D02*
X141410000Y-45480000D01*
X140549000Y-45440000D02*
X141410000Y-45440000D01*
X140586000Y-45400000D02*
X141410000Y-45400000D01*
X140625000Y-45360000D02*
X141410000Y-45360000D01*
X140665000Y-45320000D02*
X141410000Y-45320000D01*
X140707000Y-45280000D02*
X141410000Y-45280000D01*
X140725000Y-49754775D02*
X141225000Y-49754775D01*
X140751000Y-45240000D02*
X141410000Y-45240000D01*
X140798000Y-45200000D02*
X141410000Y-45200000D01*
X140846000Y-45160000D02*
X144054000Y-45160000D01*
X140897000Y-45120000D02*
X144003000Y-45120000D01*
X140951000Y-45080000D02*
X143949000Y-45080000D01*
X140975000Y-50004775D02*
X140975000Y-49504775D01*
X141007000Y-45040000D02*
X143893000Y-45040000D01*
X141067000Y-45000000D02*
X143833000Y-45000000D01*
X141131000Y-44960000D02*
X143769000Y-44960000D01*
X141199000Y-44920000D02*
X143701000Y-44920000D01*
X141273000Y-44880000D02*
X143627000Y-44880000D01*
X141352000Y-44840000D02*
X143548000Y-44840000D01*
X141439000Y-44800000D02*
X143461000Y-44800000D01*
X141536000Y-44760000D02*
X143364000Y-44760000D01*
X141645000Y-44720000D02*
X143255000Y-44720000D01*
X141773000Y-44680000D02*
X143127000Y-44680000D01*
X141933000Y-44640000D02*
X142967000Y-44640000D01*
X142167000Y-44600000D02*
X142733000Y-44600000D01*
X143490000Y-45200000D02*
X144102000Y-45200000D01*
X143490000Y-45240000D02*
X144149000Y-45240000D01*
X143490000Y-45280000D02*
X144193000Y-45280000D01*
X143490000Y-45320000D02*
X144235000Y-45320000D01*
X143490000Y-45360000D02*
X144275000Y-45360000D01*
X143490000Y-45400000D02*
X144314000Y-45400000D01*
X143490000Y-45440000D02*
X144351000Y-45440000D01*
X143490000Y-45480000D02*
X144386000Y-45480000D01*
X143490000Y-45520000D02*
X144420000Y-45520000D01*
X143490000Y-45560000D02*
X144453000Y-45560000D01*
X143490000Y-45600000D02*
X144485000Y-45600000D01*
X143490000Y-45640000D02*
X144515000Y-45640000D01*
X143490000Y-45680000D02*
X144544000Y-45680000D01*
X143490000Y-45720000D02*
X144572000Y-45720000D01*
X143490000Y-45760000D02*
X144599000Y-45760000D01*
X143490000Y-45800000D02*
X144625000Y-45800000D01*
X143490000Y-45840000D02*
X144649000Y-45840000D01*
X143490000Y-45880000D02*
X144673000Y-45880000D01*
X143490000Y-45920000D02*
X144696000Y-45920000D01*
X143490000Y-45960000D02*
X144718000Y-45960000D01*
X143490000Y-46000000D02*
X144739000Y-46000000D01*
X143490000Y-46040000D02*
X144759000Y-46040000D01*
X143490000Y-46080000D02*
X144779000Y-46080000D01*
X143490000Y-46120000D02*
X144797000Y-46120000D01*
X143490000Y-46160000D02*
X144815000Y-46160000D01*
X143490000Y-46200000D02*
X144832000Y-46200000D01*
X143490000Y-46240000D02*
X144848000Y-46240000D01*
X143490000Y-46280000D02*
X144863000Y-46280000D01*
X143490000Y-46320000D02*
X144878000Y-46320000D01*
X143490000Y-46360000D02*
X144892000Y-46360000D01*
X143490000Y-46400000D02*
X144905000Y-46400000D01*
X143490000Y-46440000D02*
X144917000Y-46440000D01*
X143490000Y-46480000D02*
X144929000Y-46480000D01*
X143490000Y-46520000D02*
X144940000Y-46520000D01*
X143490000Y-46560000D02*
X144951000Y-46560000D01*
X143490000Y-46600000D02*
X144960000Y-46600000D01*
X143490000Y-46640000D02*
X144969000Y-46640000D01*
X143490000Y-46680000D02*
X144978000Y-46680000D01*
X143490000Y-46720000D02*
X144986000Y-46720000D01*
X143490000Y-46760000D02*
X144993000Y-46760000D01*
X143490000Y-46800000D02*
X144999000Y-46800000D01*
X143490000Y-46840000D02*
X145005000Y-46840000D01*
X143490000Y-46880000D02*
X145010000Y-46880000D01*
X143490000Y-46920000D02*
X145015000Y-46920000D01*
X143490000Y-46960000D02*
X145019000Y-46960000D01*
X143490000Y-47000000D02*
X145022000Y-47000000D01*
X143490000Y-47040000D02*
X145025000Y-47040000D01*
X143490000Y-47080000D02*
X145027000Y-47080000D01*
X143490000Y-47120000D02*
X145029000Y-47120000D01*
X143490000Y-47160000D02*
X145030000Y-47160000D01*
X143490000Y-47200000D02*
X145030000Y-47200000D01*
X145070000Y-47200000D02*
G75*
G02*
X139830000Y-47200000I-2620000J0D01*
G01*
X139830000Y-47200000D02*
G75*
G02*
X145070000Y-47200000I2620000J0D01*
G01*
%TO.C,C4*%
X156865000Y-71361252D02*
X156865000Y-70838748D01*
X158335000Y-71361252D02*
X158335000Y-70838748D01*
%TO.C,J3*%
X130500000Y-53775000D02*
X130500000Y-56825000D01*
X130500000Y-59875000D02*
X130500000Y-56825000D01*
X133450000Y-53025000D02*
X133450000Y-53775000D01*
X133450000Y-53775000D02*
X130500000Y-53775000D01*
X133450000Y-59875000D02*
X130500000Y-59875000D01*
X133450000Y-60625000D02*
X133450000Y-59875000D01*
X136000000Y-52725000D02*
X134750000Y-52725000D01*
X136000000Y-53975000D02*
X136000000Y-52725000D01*
X134950000Y-53025000D02*
X135700000Y-53025000D01*
X135700000Y-54825000D01*
X134950000Y-54825000D01*
X134950000Y-53025000D01*
X134950000Y-56325000D02*
X135700000Y-56325000D01*
X135700000Y-57325000D01*
X134950000Y-57325000D01*
X134950000Y-56325000D01*
X134950000Y-58825000D02*
X135700000Y-58825000D01*
X135700000Y-60625000D01*
X134950000Y-60625000D01*
X134950000Y-58825000D01*
X129740000Y-53015000D02*
X135710000Y-53015000D01*
X135710000Y-60635000D01*
X129740000Y-60635000D01*
X129740000Y-53015000D01*
%TO.C,U1*%
X143215000Y-55010000D02*
X148735000Y-55010000D01*
X143215000Y-55185000D02*
X143215000Y-55010000D01*
X143215000Y-63430000D02*
X143215000Y-63255000D01*
X148735000Y-55010000D02*
X148735000Y-55185000D01*
X148735000Y-63255000D02*
X148735000Y-63430000D01*
X148735000Y-63430000D02*
X143215000Y-63430000D01*
X142475000Y-55180000D02*
X142135000Y-54710000D01*
X142815000Y-54710000D01*
X142475000Y-55180000D01*
G36*
X142475000Y-55180000D02*
G01*
X142135000Y-54710000D01*
X142815000Y-54710000D01*
X142475000Y-55180000D01*
G37*
%TO.C,J5*%
X162570000Y-45920000D02*
X163950000Y-45920000D01*
X162570000Y-47300000D02*
X162570000Y-45920000D01*
X162570000Y-48570000D02*
X162570000Y-66460000D01*
X162570000Y-48570000D02*
X165330000Y-48570000D01*
X162570000Y-66460000D02*
X165330000Y-66460000D01*
X165330000Y-48570000D02*
X165330000Y-66460000D01*
%TO.C,J4*%
X129625000Y-69075000D02*
X129625000Y-70325000D01*
X129625000Y-70325000D02*
X130875000Y-70325000D01*
X132175000Y-62425000D02*
X132175000Y-63175000D01*
X132175000Y-63175000D02*
X135125000Y-63175000D01*
X132175000Y-69275000D02*
X135125000Y-69275000D01*
X132175000Y-70025000D02*
X132175000Y-69275000D01*
X135125000Y-63175000D02*
X135125000Y-66225000D01*
X135125000Y-69275000D02*
X135125000Y-66225000D01*
X129915000Y-62415000D02*
X135885000Y-62415000D01*
X135885000Y-70035000D01*
X129915000Y-70035000D01*
X129915000Y-62415000D01*
X129925000Y-62425000D02*
X130675000Y-62425000D01*
X130675000Y-64225000D01*
X129925000Y-64225000D01*
X129925000Y-62425000D01*
X129925000Y-65725000D02*
X130675000Y-65725000D01*
X130675000Y-66725000D01*
X129925000Y-66725000D01*
X129925000Y-65725000D01*
X129925000Y-68225000D02*
X130675000Y-68225000D01*
X130675000Y-70025000D01*
X129925000Y-70025000D01*
X129925000Y-68225000D01*
%TO.C,C2*%
X150465000Y-47586252D02*
X150465000Y-47063748D01*
X151935000Y-47586252D02*
X151935000Y-47063748D01*
%TO.C,R1*%
X159014564Y-62190000D02*
X158560436Y-62190000D01*
X159014564Y-63660000D02*
X158560436Y-63660000D01*
%TO.C,J2*%
X138675000Y-72225000D02*
X139425000Y-72225000D01*
X139425000Y-69275000D02*
X142475000Y-69275000D01*
X139425000Y-72225000D02*
X139425000Y-69275000D01*
X145325000Y-74775000D02*
X146575000Y-74775000D01*
X145525000Y-69275000D02*
X142475000Y-69275000D01*
X145525000Y-72225000D02*
X145525000Y-69275000D01*
X146275000Y-72225000D02*
X145525000Y-72225000D01*
X146575000Y-74775000D02*
X146575000Y-73525000D01*
X138675000Y-73725000D02*
X140475000Y-73725000D01*
X140475000Y-74475000D01*
X138675000Y-74475000D01*
X138675000Y-73725000D01*
X141975000Y-73725000D02*
X142975000Y-73725000D01*
X142975000Y-74475000D01*
X141975000Y-74475000D01*
X141975000Y-73725000D01*
X144475000Y-73725000D02*
X146275000Y-73725000D01*
X146275000Y-74475000D01*
X144475000Y-74475000D01*
X144475000Y-73725000D01*
X138665000Y-68515000D02*
X146285000Y-68515000D01*
X146285000Y-74485000D01*
X138665000Y-74485000D01*
X138665000Y-68515000D01*
%TD*%
D12*
%TO.P,C3,1*%
%TO.N,Net-(J2-Pin_1)*%
X150725000Y-72000000D03*
D13*
%TO.P,C3,2*%
%TO.N,Net-(U1-VCC)*%
X150725000Y-70000000D03*
%TD*%
D14*
%TO.P,J1,1,Pin_1_1*%
%TO.N,Net-(J1-Pin_1)*%
X133525000Y-46475000D03*
D15*
%TO.P,J1,2,Pin_2_2*%
%TO.N,GND*%
X133525000Y-48975000D03*
%TD*%
D12*
%TO.P,C1,1*%
%TO.N,Net-(J1-Pin_1)*%
X142450000Y-48200000D03*
D13*
%TO.P,C1,2*%
%TO.N,/VM*%
X142450000Y-46200000D03*
%TD*%
D14*
%TO.P,J3,1,Pin_1_1*%
%TO.N,Net-(J3-Pin_1)*%
X133250000Y-55575000D03*
D15*
%TO.P,J3,2,Pin_2_2*%
%TO.N,Net-(J3-Pin_2)*%
X133250000Y-58075000D03*
%TD*%
D16*
%TO.P,J5,1,Pin_1_1*%
%TO.N,Net-(J5-Pin_1)*%
X163950000Y-47300000D03*
D17*
%TO.P,J5,2,Pin_2_2*%
%TO.N,Net-(J5-Pin_2)*%
X163950000Y-49840000D03*
%TO.P,J5,3,Pin_3_3*%
%TO.N,Net-(J5-Pin_3)*%
X163950000Y-52380000D03*
%TO.P,J5,4,Pin_4_4*%
%TO.N,Net-(J5-Pin_4)*%
X163950000Y-54920000D03*
%TO.P,J5,5,Pin_5_5*%
%TO.N,Net-(J5-Pin_5)*%
X163950000Y-57460000D03*
%TO.P,J5,6,Pin_6_6*%
%TO.N,Net-(J5-Pin_6)*%
X163950000Y-60000000D03*
%TO.P,J5,7,Pin_7_7*%
%TO.N,Net-(J5-Pin_7)*%
X163950000Y-62540000D03*
%TO.P,J5,8,Pin_8_8*%
%TO.N,GND*%
X163950000Y-65080000D03*
%TD*%
D18*
%TO.P,J4,1,Pin_1_1*%
%TO.N,Net-(J4-Pin_1)*%
X132375000Y-67475000D03*
D15*
%TO.P,J4,2,Pin_2_2*%
%TO.N,Net-(J4-Pin_2)*%
X132375000Y-64975000D03*
%TD*%
D19*
%TO.P,J2,1,Pin_1_1*%
%TO.N,Net-(J2-Pin_1)*%
X143725000Y-72025000D03*
D20*
%TO.P,J2,2,Pin_2_2*%
%TO.N,GND*%
X141225000Y-72025000D03*
%TD*%
D21*
%TO.N,GND*%
X144250000Y-61400000D03*
X153150000Y-59525000D03*
%TO.N,/STBY*%
X151425000Y-58850000D03*
%TO.N,Net-(U1-VCC)*%
X147250000Y-59460122D03*
X147250000Y-62950000D03*
%TO.N,Net-(J5-Pin_5)*%
X161950000Y-57700000D03*
X159950000Y-57650000D03*
%TO.N,Net-(J5-Pin_2)*%
X155475000Y-55975000D03*
X153750000Y-57700000D03*
X153750000Y-57700000D03*
%TO.N,GND*%
X146300000Y-60175000D03*
%TO.N,/STBY*%
X152675000Y-62400000D03*
%TO.N,GND*%
X140250000Y-62000000D03*
%TO.N,Net-(J5-Pin_6)*%
X160400000Y-60975000D03*
%TD*%
%TO.N,GND*%
D22*
X145475000Y-60175000D02*
X144250000Y-61400000D01*
X146300000Y-60175000D02*
X145475000Y-60175000D01*
X163055000Y-65975000D02*
X163950000Y-65080000D01*
X155825000Y-66000000D02*
X155850000Y-65975000D01*
X155850000Y-65975000D02*
X163055000Y-65975000D01*
X153625000Y-63800000D02*
X155825000Y-66000000D01*
X153625000Y-60000000D02*
X153625000Y-63800000D01*
X153150000Y-59525000D02*
X153625000Y-60000000D01*
%TO.N,Net-(U1-VCC)*%
D23*
X147250000Y-62950000D02*
X147250000Y-59460122D01*
%TO.N,Net-(J5-Pin_5)*%
D24*
X161900000Y-57650000D02*
X161950000Y-57700000D01*
X159950000Y-57650000D02*
X161900000Y-57650000D01*
%TO.N,Net-(J5-Pin_2)*%
D22*
X155475000Y-55975000D02*
X155525000Y-55925000D01*
X155525000Y-55925000D02*
X155525000Y-55800000D01*
X153750000Y-57700000D02*
X155475000Y-55975000D01*
%TO.N,GND*%
D25*
X140825000Y-62575000D02*
X140250000Y-62000000D01*
X141225000Y-62575000D02*
X140825000Y-62575000D01*
%TO.N,Net-(J2-Pin_1)*%
D26*
X143750000Y-72000000D02*
X143725000Y-72025000D01*
%TO.N,GND*%
D25*
X141225000Y-72025000D02*
X141225000Y-62575000D01*
%TO.N,Net-(J5-Pin_6)*%
D24*
X154650000Y-60675000D02*
X154650000Y-60525000D01*
X154950000Y-60975000D02*
X154650000Y-60675000D01*
X160400000Y-60975000D02*
X154950000Y-60975000D01*
%TO.N,GND*%
X163950000Y-65080000D02*
X163520000Y-64650000D01*
%TO.N,/STBY*%
D22*
X152675000Y-60100000D02*
X151425000Y-58850000D01*
X152675000Y-62400000D02*
X152675000Y-60100000D01*
%TD*%
%TA.AperFunction,Conductor*%
%TO.N,GND*%
G36*
X166618039Y-42920185D02*
G01*
X166663794Y-42972989D01*
X166675000Y-43024500D01*
X166675000Y-75675500D01*
X166655315Y-75742539D01*
X166602511Y-75788294D01*
X166551000Y-75799500D01*
X131957277Y-75799500D01*
X131890238Y-75779815D01*
X131844483Y-75727011D01*
X131833291Y-75673636D01*
X131892011Y-71768753D01*
X139875000Y-71768753D01*
X139875000Y-71775000D01*
X140791988Y-71775000D01*
X140759075Y-71832007D01*
X140725000Y-71959174D01*
X140725000Y-72090826D01*
X140759075Y-72217993D01*
X140791988Y-72275000D01*
X139875000Y-72275000D01*
X139875000Y-72281246D01*
X139908242Y-72491127D01*
X139908242Y-72491130D01*
X139973904Y-72693217D01*
X140070379Y-72882557D01*
X140195272Y-73054459D01*
X140195276Y-73054464D01*
X140345535Y-73204723D01*
X140345540Y-73204727D01*
X140517442Y-73329620D01*
X140706782Y-73426095D01*
X140908871Y-73491757D01*
X140975000Y-73502231D01*
X140975000Y-72458012D01*
X141032007Y-72490925D01*
X141159174Y-72525000D01*
X141290826Y-72525000D01*
X141417993Y-72490925D01*
X141475000Y-72458012D01*
X141475000Y-73502230D01*
X141541126Y-73491757D01*
X141541129Y-73491757D01*
X141743217Y-73426095D01*
X141932557Y-73329620D01*
X142104458Y-73204728D01*
X142243330Y-73065856D01*
X142304653Y-73032371D01*
X142374345Y-73037355D01*
X142430279Y-73079226D01*
X142436551Y-73088440D01*
X142440185Y-73094331D01*
X142440186Y-73094334D01*
X142532288Y-73243656D01*
X142656344Y-73367712D01*
X142805666Y-73459814D01*
X142972203Y-73514999D01*
X143074991Y-73525500D01*
X144375008Y-73525499D01*
X144477797Y-73514999D01*
X144644334Y-73459814D01*
X144793656Y-73367712D01*
X144917712Y-73243656D01*
X145009814Y-73094334D01*
X145064999Y-72927797D01*
X145075500Y-72825009D01*
X145075499Y-71224992D01*
X145064999Y-71122203D01*
X145009814Y-70955666D01*
X144917712Y-70806344D01*
X144793656Y-70682288D01*
X144644334Y-70590186D01*
X144477797Y-70535001D01*
X144477795Y-70535000D01*
X144375010Y-70524500D01*
X143074998Y-70524500D01*
X143074981Y-70524501D01*
X142972203Y-70535000D01*
X142972200Y-70535001D01*
X142805668Y-70590185D01*
X142805663Y-70590187D01*
X142656342Y-70682289D01*
X142532289Y-70806342D01*
X142436551Y-70961559D01*
X142384603Y-71008283D01*
X142315640Y-71019506D01*
X142251558Y-70991662D01*
X142243331Y-70984143D01*
X142104464Y-70845276D01*
X142104459Y-70845272D01*
X141932557Y-70720379D01*
X141743215Y-70623903D01*
X141541124Y-70558241D01*
X141475000Y-70547768D01*
X141475000Y-71591988D01*
X141417993Y-71559075D01*
X141290826Y-71525000D01*
X141159174Y-71525000D01*
X141032007Y-71559075D01*
X140975000Y-71591988D01*
X140975000Y-70547768D01*
X140974999Y-70547768D01*
X140908875Y-70558241D01*
X140706784Y-70623903D01*
X140517442Y-70720379D01*
X140345540Y-70845272D01*
X140345535Y-70845276D01*
X140195276Y-70995535D01*
X140195272Y-70995540D01*
X140070379Y-71167442D01*
X139973904Y-71356782D01*
X139908242Y-71558869D01*
X139908242Y-71558872D01*
X139875000Y-71768753D01*
X131892011Y-71768753D01*
X131920148Y-69897648D01*
X149424500Y-69897648D01*
X149424500Y-70102351D01*
X149456522Y-70304534D01*
X149519781Y-70499223D01*
X149612712Y-70681608D01*
X149612714Y-70681612D01*
X149613206Y-70682289D01*
X149663788Y-70751910D01*
X149663790Y-70751912D01*
X149687270Y-70817718D01*
X149671444Y-70885772D01*
X149651154Y-70912478D01*
X149582287Y-70981345D01*
X149490187Y-71130663D01*
X149490185Y-71130668D01*
X149462349Y-71214670D01*
X149435001Y-71297203D01*
X149435001Y-71297204D01*
X149435000Y-71297204D01*
X149424500Y-71399983D01*
X149424500Y-72600001D01*
X149424501Y-72600018D01*
X149435000Y-72702796D01*
X149435001Y-72702799D01*
X149475498Y-72825008D01*
X149490186Y-72869334D01*
X149582288Y-73018656D01*
X149706344Y-73142712D01*
X149855666Y-73234814D01*
X150022203Y-73289999D01*
X150124991Y-73300500D01*
X151325008Y-73300499D01*
X151427797Y-73289999D01*
X151594334Y-73234814D01*
X151743656Y-73142712D01*
X151867712Y-73018656D01*
X151959814Y-72869334D01*
X152014999Y-72702797D01*
X152025500Y-72600009D01*
X152025499Y-71399992D01*
X152014999Y-71297203D01*
X151959814Y-71130666D01*
X151867712Y-70981344D01*
X151798846Y-70912478D01*
X151765361Y-70851155D01*
X151770345Y-70781463D01*
X151786206Y-70751916D01*
X151837287Y-70681610D01*
X151930220Y-70499219D01*
X151993477Y-70304534D01*
X152025500Y-70102352D01*
X152025500Y-69897648D01*
X151993477Y-69695466D01*
X151930220Y-69500781D01*
X151930218Y-69500778D01*
X151930218Y-69500776D01*
X151896503Y-69434607D01*
X151837287Y-69318390D01*
X151829556Y-69307749D01*
X151716971Y-69152786D01*
X151572213Y-69008028D01*
X151406613Y-68887715D01*
X151406612Y-68887714D01*
X151406610Y-68887713D01*
X151349653Y-68858691D01*
X151224223Y-68794781D01*
X151029534Y-68731522D01*
X150854995Y-68703878D01*
X150827352Y-68699500D01*
X150622648Y-68699500D01*
X150598329Y-68703351D01*
X150420465Y-68731522D01*
X150225776Y-68794781D01*
X150043386Y-68887715D01*
X149877786Y-69008028D01*
X149733028Y-69152786D01*
X149612715Y-69318386D01*
X149519781Y-69500776D01*
X149456522Y-69695465D01*
X149424500Y-69897648D01*
X131920148Y-69897648D01*
X131934434Y-68947631D01*
X131955123Y-68880899D01*
X132008609Y-68835943D01*
X132058415Y-68825499D01*
X133175008Y-68825499D01*
X133277797Y-68814999D01*
X133444334Y-68759814D01*
X133593656Y-68667712D01*
X133717712Y-68543656D01*
X133809814Y-68394334D01*
X133864999Y-68227797D01*
X133875500Y-68125009D01*
X133875499Y-66824992D01*
X133864999Y-66722203D01*
X133809814Y-66555666D01*
X133717712Y-66406344D01*
X133593656Y-66282288D01*
X133593655Y-66282287D01*
X133547064Y-66253550D01*
X133444334Y-66190186D01*
X133444332Y-66190185D01*
X133438878Y-66186821D01*
X133392154Y-66134873D01*
X133380931Y-66065910D01*
X133408775Y-66001828D01*
X133416272Y-65993623D01*
X133555104Y-65854792D01*
X133564604Y-65841717D01*
X133680048Y-65682820D01*
X133680047Y-65682820D01*
X133680051Y-65682816D01*
X133776557Y-65493412D01*
X133842246Y-65291243D01*
X133875500Y-65081287D01*
X133875500Y-64868713D01*
X133842246Y-64658757D01*
X133776557Y-64456588D01*
X133680051Y-64267184D01*
X133680049Y-64267181D01*
X133680048Y-64267179D01*
X133555109Y-64095213D01*
X133404786Y-63944890D01*
X133232820Y-63819951D01*
X133043414Y-63723444D01*
X133043413Y-63723443D01*
X133043412Y-63723443D01*
X132841243Y-63657754D01*
X132841241Y-63657753D01*
X132841240Y-63657753D01*
X132679957Y-63632208D01*
X132631287Y-63624500D01*
X132140360Y-63624500D01*
X132073321Y-63604815D01*
X132027566Y-63552011D01*
X132016374Y-63498636D01*
X132029191Y-62646286D01*
X132062275Y-60446153D01*
X153849500Y-60446153D01*
X153849500Y-60603846D01*
X153880261Y-60758489D01*
X153880264Y-60758501D01*
X153940602Y-60904172D01*
X153940609Y-60904185D01*
X154028210Y-61035288D01*
X154028213Y-61035292D01*
X154139707Y-61146786D01*
X154139711Y-61146789D01*
X154270817Y-61234392D01*
X154270819Y-61234392D01*
X154270821Y-61234394D01*
X154312257Y-61251557D01*
X154340187Y-61263126D01*
X154347119Y-61267758D01*
X154352162Y-61268855D01*
X154380416Y-61290006D01*
X154461016Y-61370606D01*
X154461045Y-61370637D01*
X154551264Y-61460856D01*
X154551267Y-61460858D01*
X154587831Y-61485289D01*
X154653714Y-61529312D01*
X154734207Y-61562652D01*
X154767548Y-61576463D01*
X154827971Y-61588481D01*
X154888393Y-61600500D01*
X154888394Y-61600500D01*
X159857650Y-61600500D01*
X159924689Y-61620185D01*
X159926541Y-61621398D01*
X160020821Y-61684394D01*
X160020823Y-61684395D01*
X160020827Y-61684397D01*
X160166498Y-61744735D01*
X160166503Y-61744737D01*
X160321153Y-61775499D01*
X160321156Y-61775500D01*
X160321158Y-61775500D01*
X160478844Y-61775500D01*
X160478845Y-61775499D01*
X160633497Y-61744737D01*
X160779179Y-61684394D01*
X160910289Y-61596789D01*
X161021789Y-61485289D01*
X161109394Y-61354179D01*
X161169737Y-61208497D01*
X161200500Y-61053842D01*
X161200500Y-60896158D01*
X161200500Y-60896155D01*
X161200499Y-60896153D01*
X161173117Y-60758497D01*
X161169737Y-60741503D01*
X161155785Y-60707820D01*
X161109397Y-60595827D01*
X161109390Y-60595814D01*
X161021789Y-60464711D01*
X161021786Y-60464707D01*
X160910292Y-60353213D01*
X160910288Y-60353210D01*
X160779185Y-60265609D01*
X160779172Y-60265602D01*
X160633501Y-60205264D01*
X160633489Y-60205261D01*
X160478845Y-60174500D01*
X160478842Y-60174500D01*
X160321158Y-60174500D01*
X160321155Y-60174500D01*
X160166510Y-60205261D01*
X160166498Y-60205264D01*
X160020827Y-60265602D01*
X160020815Y-60265609D01*
X159926541Y-60328602D01*
X159859864Y-60349480D01*
X159857650Y-60349500D01*
X155526614Y-60349500D01*
X155459575Y-60329815D01*
X155413820Y-60277011D01*
X155412053Y-60272952D01*
X155359397Y-60145827D01*
X155359390Y-60145814D01*
X155271789Y-60014711D01*
X155271786Y-60014707D01*
X155160292Y-59903213D01*
X155160288Y-59903210D01*
X155029185Y-59815609D01*
X155029172Y-59815602D01*
X154883501Y-59755264D01*
X154883489Y-59755261D01*
X154728845Y-59724500D01*
X154728842Y-59724500D01*
X154571158Y-59724500D01*
X154571155Y-59724500D01*
X154416510Y-59755261D01*
X154416498Y-59755264D01*
X154270827Y-59815602D01*
X154270814Y-59815609D01*
X154139711Y-59903210D01*
X154139707Y-59903213D01*
X154028213Y-60014707D01*
X154028210Y-60014711D01*
X153940609Y-60145814D01*
X153940602Y-60145827D01*
X153880264Y-60291498D01*
X153880261Y-60291510D01*
X153849500Y-60446153D01*
X132062275Y-60446153D01*
X132080338Y-59244966D01*
X132101027Y-59178236D01*
X132154513Y-59133280D01*
X132223813Y-59124377D01*
X132277208Y-59146517D01*
X132320866Y-59178236D01*
X132392184Y-59230051D01*
X132581588Y-59326557D01*
X132783757Y-59392246D01*
X132993713Y-59425500D01*
X132993714Y-59425500D01*
X133506286Y-59425500D01*
X133506287Y-59425500D01*
X133716243Y-59392246D01*
X133918412Y-59326557D01*
X134107816Y-59230051D01*
X134179134Y-59178236D01*
X134279786Y-59105109D01*
X134279788Y-59105106D01*
X134279792Y-59105104D01*
X134430104Y-58954792D01*
X134430106Y-58954788D01*
X134430109Y-58954786D01*
X134555048Y-58782820D01*
X134555047Y-58782820D01*
X134555051Y-58782816D01*
X134651557Y-58593412D01*
X134717246Y-58391243D01*
X134750500Y-58181287D01*
X134750500Y-57968713D01*
X134717246Y-57758757D01*
X134651557Y-57556588D01*
X134555051Y-57367184D01*
X134555049Y-57367181D01*
X134555048Y-57367179D01*
X134430109Y-57195213D01*
X134291294Y-57056398D01*
X134257809Y-56995075D01*
X134262793Y-56925383D01*
X134304665Y-56869450D01*
X134313879Y-56863178D01*
X134319331Y-56859814D01*
X134319334Y-56859814D01*
X134468656Y-56767712D01*
X134592712Y-56643656D01*
X134684814Y-56494334D01*
X134739999Y-56327797D01*
X134750500Y-56225009D01*
X134750499Y-54924992D01*
X134739999Y-54822203D01*
X134684814Y-54655666D01*
X134592712Y-54506344D01*
X134468656Y-54382288D01*
X134319334Y-54290186D01*
X134152797Y-54235001D01*
X134152795Y-54235000D01*
X134050010Y-54224500D01*
X132449998Y-54224500D01*
X132449981Y-54224501D01*
X132347203Y-54235000D01*
X132347198Y-54235001D01*
X132320326Y-54243906D01*
X132250498Y-54246306D01*
X132190457Y-54210573D01*
X132159266Y-54148052D01*
X132157340Y-54124353D01*
X132218975Y-50025641D01*
X132239664Y-49958910D01*
X132293150Y-49913954D01*
X132362451Y-49905051D01*
X132425563Y-49935029D01*
X132430641Y-49939829D01*
X132495535Y-50004723D01*
X132495540Y-50004727D01*
X132667442Y-50129620D01*
X132856782Y-50226095D01*
X133058870Y-50291757D01*
X133268754Y-50325000D01*
X133275000Y-50325000D01*
X133275000Y-49408012D01*
X133332007Y-49440925D01*
X133459174Y-49475000D01*
X133590826Y-49475000D01*
X133717993Y-49440925D01*
X133775000Y-49408012D01*
X133775000Y-50325000D01*
X133781246Y-50325000D01*
X133991127Y-50291757D01*
X133991130Y-50291757D01*
X134193217Y-50226095D01*
X134382557Y-50129620D01*
X134554459Y-50004727D01*
X134554464Y-50004723D01*
X134704723Y-49854464D01*
X134704727Y-49854459D01*
X134829620Y-49682557D01*
X134926095Y-49493217D01*
X134991757Y-49291129D01*
X134991757Y-49291126D01*
X135002231Y-49225000D01*
X133958012Y-49225000D01*
X133990925Y-49167993D01*
X134025000Y-49040826D01*
X134025000Y-48909174D01*
X133990925Y-48782007D01*
X133958012Y-48725000D01*
X135002231Y-48725000D01*
X134991757Y-48658873D01*
X134991757Y-48658870D01*
X134926095Y-48456782D01*
X134829620Y-48267442D01*
X134704727Y-48095540D01*
X134704723Y-48095535D01*
X134565856Y-47956668D01*
X134532371Y-47895345D01*
X134537355Y-47825653D01*
X134579227Y-47769720D01*
X134588441Y-47763448D01*
X134594331Y-47759814D01*
X134594334Y-47759814D01*
X134743656Y-47667712D01*
X134867712Y-47543656D01*
X134959814Y-47394334D01*
X135014999Y-47227797D01*
X135025500Y-47125009D01*
X135025499Y-46097648D01*
X141149500Y-46097648D01*
X141149500Y-46302351D01*
X141181522Y-46504534D01*
X141244781Y-46699223D01*
X141336037Y-46878320D01*
X141337713Y-46881610D01*
X141388788Y-46951910D01*
X141388790Y-46951912D01*
X141412270Y-47017718D01*
X141396444Y-47085772D01*
X141376154Y-47112478D01*
X141307287Y-47181345D01*
X141215187Y-47330663D01*
X141215186Y-47330666D01*
X141160001Y-47497203D01*
X141160001Y-47497204D01*
X141160000Y-47497204D01*
X141149500Y-47599983D01*
X141149500Y-48800001D01*
X141149501Y-48800018D01*
X141160000Y-48902796D01*
X141160001Y-48902799D01*
X141187640Y-48986206D01*
X141215186Y-49069334D01*
X141307288Y-49218656D01*
X141431344Y-49342712D01*
X141580666Y-49434814D01*
X141747203Y-49489999D01*
X141849991Y-49500500D01*
X143050008Y-49500499D01*
X143152797Y-49489999D01*
X143319334Y-49434814D01*
X143468656Y-49342712D01*
X143592712Y-49218656D01*
X143684814Y-49069334D01*
X143739999Y-48902797D01*
X143750500Y-48800009D01*
X143750499Y-47599992D01*
X143739999Y-47497203D01*
X143684814Y-47330666D01*
X143592712Y-47181344D01*
X143523846Y-47112478D01*
X143490361Y-47051155D01*
X143495345Y-46981463D01*
X143511206Y-46951916D01*
X143562287Y-46881610D01*
X143655220Y-46699219D01*
X143718477Y-46504534D01*
X143734696Y-46402135D01*
X162599500Y-46402135D01*
X162599500Y-48197870D01*
X162599501Y-48197876D01*
X162605908Y-48257483D01*
X162656202Y-48392328D01*
X162656206Y-48392335D01*
X162742452Y-48507544D01*
X162742455Y-48507547D01*
X162857664Y-48593793D01*
X162857671Y-48593797D01*
X162989082Y-48642810D01*
X163045016Y-48684681D01*
X163069433Y-48750145D01*
X163054582Y-48818418D01*
X163033431Y-48846673D01*
X162919889Y-48960215D01*
X162794951Y-49132179D01*
X162698444Y-49321585D01*
X162632753Y-49523760D01*
X162599500Y-49733713D01*
X162599500Y-49946286D01*
X162612068Y-50025641D01*
X162632754Y-50156243D01*
X162676785Y-50291757D01*
X162698444Y-50358414D01*
X162794951Y-50547820D01*
X162919890Y-50719786D01*
X163070213Y-50870109D01*
X163242182Y-50995050D01*
X163250946Y-50999516D01*
X163301742Y-51047491D01*
X163318536Y-51115312D01*
X163295998Y-51181447D01*
X163250946Y-51220484D01*
X163242182Y-51224949D01*
X163070213Y-51349890D01*
X162919890Y-51500213D01*
X162794951Y-51672179D01*
X162698444Y-51861585D01*
X162632753Y-52063760D01*
X162599500Y-52273713D01*
X162599500Y-52486286D01*
X162632753Y-52696239D01*
X162698444Y-52898414D01*
X162794951Y-53087820D01*
X162919890Y-53259786D01*
X163070213Y-53410109D01*
X163242182Y-53535050D01*
X163250946Y-53539516D01*
X163301742Y-53587491D01*
X163318536Y-53655312D01*
X163295998Y-53721447D01*
X163250946Y-53760484D01*
X163242182Y-53764949D01*
X163070213Y-53889890D01*
X162919890Y-54040213D01*
X162794951Y-54212179D01*
X162698444Y-54401585D01*
X162632753Y-54603760D01*
X162599500Y-54813713D01*
X162599500Y-55026286D01*
X162632753Y-55236239D01*
X162698444Y-55438414D01*
X162794951Y-55627820D01*
X162919890Y-55799786D01*
X163070213Y-55950109D01*
X163242182Y-56075050D01*
X163250946Y-56079516D01*
X163301742Y-56127491D01*
X163318536Y-56195312D01*
X163295998Y-56261447D01*
X163250946Y-56300484D01*
X163242182Y-56304949D01*
X163070213Y-56429890D01*
X162919890Y-56580213D01*
X162794951Y-56752179D01*
X162698444Y-56941585D01*
X162632753Y-57143760D01*
X162599500Y-57353713D01*
X162599500Y-57566286D01*
X162632753Y-57776239D01*
X162698444Y-57978414D01*
X162794951Y-58167820D01*
X162919890Y-58339786D01*
X163070213Y-58490109D01*
X163242182Y-58615050D01*
X163250946Y-58619516D01*
X163301742Y-58667491D01*
X163318536Y-58735312D01*
X163295998Y-58801447D01*
X163250946Y-58840484D01*
X163242182Y-58844949D01*
X163070213Y-58969890D01*
X162919890Y-59120213D01*
X162794951Y-59292179D01*
X162698444Y-59481585D01*
X162632753Y-59683760D01*
X162599500Y-59893713D01*
X162599500Y-60106286D01*
X162628836Y-60291510D01*
X162632754Y-60316243D01*
X162680994Y-60464711D01*
X162698444Y-60518414D01*
X162794951Y-60707820D01*
X162919890Y-60879786D01*
X163070213Y-61030109D01*
X163242182Y-61155050D01*
X163250946Y-61159516D01*
X163301742Y-61207491D01*
X163318536Y-61275312D01*
X163295998Y-61341447D01*
X163250946Y-61380484D01*
X163242182Y-61384949D01*
X163070213Y-61509890D01*
X162919890Y-61660213D01*
X162794951Y-61832179D01*
X162698444Y-62021585D01*
X162632753Y-62223760D01*
X162599500Y-62433713D01*
X162599500Y-62646286D01*
X162632753Y-62856239D01*
X162698444Y-63058414D01*
X162794951Y-63247820D01*
X162919890Y-63419786D01*
X163070213Y-63570109D01*
X163242179Y-63695048D01*
X163242181Y-63695049D01*
X163242184Y-63695051D01*
X163251493Y-63699794D01*
X163302290Y-63747766D01*
X163319087Y-63815587D01*
X163296552Y-63881722D01*
X163251505Y-63920760D01*
X163242446Y-63925376D01*
X163242440Y-63925380D01*
X163188282Y-63964727D01*
X163188282Y-63964728D01*
X163820591Y-64597037D01*
X163757007Y-64614075D01*
X163642993Y-64679901D01*
X163549901Y-64772993D01*
X163484075Y-64887007D01*
X163467037Y-64950591D01*
X162834728Y-64318282D01*
X162834727Y-64318282D01*
X162795380Y-64372439D01*
X162698904Y-64561782D01*
X162633242Y-64763869D01*
X162633242Y-64763872D01*
X162600000Y-64973753D01*
X162600000Y-65186246D01*
X162633242Y-65396127D01*
X162633242Y-65396130D01*
X162698904Y-65598217D01*
X162795375Y-65787550D01*
X162834728Y-65841716D01*
X163467037Y-65209408D01*
X163484075Y-65272993D01*
X163549901Y-65387007D01*
X163642993Y-65480099D01*
X163757007Y-65545925D01*
X163820590Y-65562962D01*
X163188282Y-66195269D01*
X163188282Y-66195270D01*
X163242449Y-66234624D01*
X163431782Y-66331095D01*
X163633870Y-66396757D01*
X163843754Y-66430000D01*
X164056246Y-66430000D01*
X164266127Y-66396757D01*
X164266130Y-66396757D01*
X164468217Y-66331095D01*
X164657554Y-66234622D01*
X164711716Y-66195270D01*
X164711717Y-66195270D01*
X164079408Y-65562962D01*
X164142993Y-65545925D01*
X164257007Y-65480099D01*
X164350099Y-65387007D01*
X164415925Y-65272993D01*
X164432962Y-65209408D01*
X165065270Y-65841717D01*
X165065270Y-65841716D01*
X165104622Y-65787554D01*
X165201095Y-65598217D01*
X165266757Y-65396130D01*
X165266757Y-65396127D01*
X165300000Y-65186246D01*
X165300000Y-64973753D01*
X165266757Y-64763872D01*
X165266757Y-64763869D01*
X165201095Y-64561782D01*
X165104624Y-64372449D01*
X165065270Y-64318282D01*
X165065269Y-64318282D01*
X164432962Y-64950590D01*
X164415925Y-64887007D01*
X164350099Y-64772993D01*
X164257007Y-64679901D01*
X164142993Y-64614075D01*
X164079409Y-64597037D01*
X164711716Y-63964728D01*
X164657547Y-63925373D01*
X164657547Y-63925372D01*
X164648500Y-63920763D01*
X164597706Y-63872788D01*
X164580912Y-63804966D01*
X164603451Y-63738832D01*
X164648508Y-63699793D01*
X164657816Y-63695051D01*
X164782016Y-63604815D01*
X164829786Y-63570109D01*
X164829788Y-63570106D01*
X164829792Y-63570104D01*
X164980104Y-63419792D01*
X164980106Y-63419788D01*
X164980109Y-63419786D01*
X165105048Y-63247820D01*
X165105047Y-63247820D01*
X165105051Y-63247816D01*
X165201557Y-63058412D01*
X165267246Y-62856243D01*
X165300500Y-62646287D01*
X165300500Y-62433713D01*
X165267246Y-62223757D01*
X165201557Y-62021588D01*
X165105051Y-61832184D01*
X165105049Y-61832181D01*
X165105048Y-61832179D01*
X164980109Y-61660213D01*
X164829786Y-61509890D01*
X164657820Y-61384951D01*
X164657115Y-61384591D01*
X164649054Y-61380485D01*
X164598259Y-61332512D01*
X164581463Y-61264692D01*
X164603999Y-61198556D01*
X164649054Y-61159515D01*
X164657816Y-61155051D01*
X164797114Y-61053846D01*
X164829786Y-61030109D01*
X164829788Y-61030106D01*
X164829792Y-61030104D01*
X164980104Y-60879792D01*
X164980106Y-60879788D01*
X164980109Y-60879786D01*
X165105048Y-60707820D01*
X165105047Y-60707820D01*
X165105051Y-60707816D01*
X165201557Y-60518412D01*
X165267246Y-60316243D01*
X165300500Y-60106287D01*
X165300500Y-59893713D01*
X165267246Y-59683757D01*
X165201557Y-59481588D01*
X165105051Y-59292184D01*
X165105049Y-59292181D01*
X165105048Y-59292179D01*
X164980109Y-59120213D01*
X164829786Y-58969890D01*
X164657820Y-58844951D01*
X164657115Y-58844591D01*
X164649054Y-58840485D01*
X164598259Y-58792512D01*
X164581463Y-58724692D01*
X164603999Y-58658556D01*
X164649054Y-58619515D01*
X164657816Y-58615051D01*
X164687600Y-58593412D01*
X164829786Y-58490109D01*
X164829788Y-58490106D01*
X164829792Y-58490104D01*
X164980104Y-58339792D01*
X164980106Y-58339788D01*
X164980109Y-58339786D01*
X165105048Y-58167820D01*
X165105047Y-58167820D01*
X165105051Y-58167816D01*
X165201557Y-57978412D01*
X165267246Y-57776243D01*
X165300500Y-57566287D01*
X165300500Y-57353713D01*
X165267246Y-57143757D01*
X165201557Y-56941588D01*
X165105051Y-56752184D01*
X165105049Y-56752181D01*
X165105048Y-56752179D01*
X164980109Y-56580213D01*
X164829786Y-56429890D01*
X164657820Y-56304951D01*
X164657115Y-56304591D01*
X164649054Y-56300485D01*
X164598259Y-56252512D01*
X164581463Y-56184692D01*
X164603999Y-56118556D01*
X164649054Y-56079515D01*
X164657816Y-56075051D01*
X164679789Y-56059086D01*
X164829786Y-55950109D01*
X164829788Y-55950106D01*
X164829792Y-55950104D01*
X164980104Y-55799792D01*
X164980106Y-55799788D01*
X164980109Y-55799786D01*
X165105048Y-55627820D01*
X165105047Y-55627820D01*
X165105051Y-55627816D01*
X165201557Y-55438412D01*
X165267246Y-55236243D01*
X165300500Y-55026287D01*
X165300500Y-54813713D01*
X165267246Y-54603757D01*
X165201557Y-54401588D01*
X165105051Y-54212184D01*
X165105049Y-54212181D01*
X165105048Y-54212179D01*
X164980109Y-54040213D01*
X164829786Y-53889890D01*
X164657820Y-53764951D01*
X164657115Y-53764591D01*
X164649054Y-53760485D01*
X164598259Y-53712512D01*
X164581463Y-53644692D01*
X164603999Y-53578556D01*
X164649054Y-53539515D01*
X164657816Y-53535051D01*
X164679789Y-53519086D01*
X164829786Y-53410109D01*
X164829788Y-53410106D01*
X164829792Y-53410104D01*
X164980104Y-53259792D01*
X164980106Y-53259788D01*
X164980109Y-53259786D01*
X165105048Y-53087820D01*
X165105047Y-53087820D01*
X165105051Y-53087816D01*
X165201557Y-52898412D01*
X165267246Y-52696243D01*
X165300500Y-52486287D01*
X165300500Y-52273713D01*
X165267246Y-52063757D01*
X165201557Y-51861588D01*
X165105051Y-51672184D01*
X165105049Y-51672181D01*
X165105048Y-51672179D01*
X164980109Y-51500213D01*
X164829786Y-51349890D01*
X164657820Y-51224951D01*
X164657115Y-51224591D01*
X164649054Y-51220485D01*
X164598259Y-51172512D01*
X164581463Y-51104692D01*
X164603999Y-51038556D01*
X164649054Y-50999515D01*
X164657816Y-50995051D01*
X164679789Y-50979086D01*
X164829786Y-50870109D01*
X164829788Y-50870106D01*
X164829792Y-50870104D01*
X164980104Y-50719792D01*
X164980106Y-50719788D01*
X164980109Y-50719786D01*
X165105048Y-50547820D01*
X165105047Y-50547820D01*
X165105051Y-50547816D01*
X165201557Y-50358412D01*
X165267246Y-50156243D01*
X165300500Y-49946287D01*
X165300500Y-49733713D01*
X165267246Y-49523757D01*
X165201557Y-49321588D01*
X165105051Y-49132184D01*
X165105049Y-49132181D01*
X165105048Y-49132179D01*
X164980109Y-48960213D01*
X164866569Y-48846673D01*
X164833084Y-48785350D01*
X164838068Y-48715658D01*
X164879940Y-48659725D01*
X164910915Y-48642810D01*
X165042331Y-48593796D01*
X165157546Y-48507546D01*
X165243796Y-48392331D01*
X165294091Y-48257483D01*
X165300500Y-48197873D01*
X165300499Y-46402128D01*
X165294091Y-46342517D01*
X165279110Y-46302352D01*
X165243797Y-46207671D01*
X165243793Y-46207664D01*
X165157547Y-46092455D01*
X165157544Y-46092452D01*
X165042335Y-46006206D01*
X165042328Y-46006202D01*
X164907482Y-45955908D01*
X164907483Y-45955908D01*
X164847883Y-45949501D01*
X164847881Y-45949500D01*
X164847873Y-45949500D01*
X164847864Y-45949500D01*
X163052129Y-45949500D01*
X163052123Y-45949501D01*
X162992516Y-45955908D01*
X162857671Y-46006202D01*
X162857664Y-46006206D01*
X162742455Y-46092452D01*
X162742452Y-46092455D01*
X162656206Y-46207664D01*
X162656202Y-46207671D01*
X162605908Y-46342517D01*
X162599501Y-46402116D01*
X162599501Y-46402123D01*
X162599500Y-46402135D01*
X143734696Y-46402135D01*
X143750500Y-46302352D01*
X143750500Y-46097648D01*
X143718477Y-45895465D01*
X143655218Y-45700776D01*
X143621503Y-45634607D01*
X143562287Y-45518390D01*
X143554556Y-45507749D01*
X143441971Y-45352786D01*
X143297213Y-45208028D01*
X143131613Y-45087715D01*
X143131612Y-45087714D01*
X143131610Y-45087713D01*
X143074653Y-45058691D01*
X142949223Y-44994781D01*
X142754534Y-44931522D01*
X142579995Y-44903878D01*
X142552352Y-44899500D01*
X142347648Y-44899500D01*
X142323329Y-44903351D01*
X142145465Y-44931522D01*
X141950776Y-44994781D01*
X141768386Y-45087715D01*
X141602786Y-45208028D01*
X141458028Y-45352786D01*
X141337715Y-45518386D01*
X141244781Y-45700776D01*
X141181522Y-45895465D01*
X141149500Y-46097648D01*
X135025499Y-46097648D01*
X135025499Y-45824992D01*
X135014999Y-45722203D01*
X134959814Y-45555666D01*
X134867712Y-45406344D01*
X134743656Y-45282288D01*
X134650888Y-45225069D01*
X134594336Y-45190187D01*
X134594331Y-45190185D01*
X134592862Y-45189698D01*
X134427797Y-45135001D01*
X134427795Y-45135000D01*
X134325010Y-45124500D01*
X132724998Y-45124500D01*
X132724981Y-45124501D01*
X132622203Y-45135000D01*
X132622200Y-45135001D01*
X132456480Y-45189916D01*
X132386652Y-45192318D01*
X132326610Y-45156586D01*
X132295417Y-45094066D01*
X132293490Y-45070355D01*
X132324284Y-43022635D01*
X132344974Y-42955900D01*
X132398460Y-42910944D01*
X132448270Y-42900500D01*
X166551000Y-42900500D01*
X166618039Y-42920185D01*
G37*
%TD.AperFunction*%
%TD*%
D27*
%TO.C,C3*%
X150725000Y-72000000D03*
D28*
X150725000Y-70000000D03*
%TD*%
D29*
%TO.C,J1*%
X133525000Y-46475000D03*
D30*
X133525000Y-48975000D03*
%TD*%
D27*
%TO.C,C1*%
X142450000Y-48200000D03*
D28*
X142450000Y-46200000D03*
%TD*%
D29*
%TO.C,J3*%
X133250000Y-55575000D03*
D30*
X133250000Y-58075000D03*
%TD*%
D31*
%TO.C,J5*%
X163950000Y-47300000D03*
D32*
X163950000Y-49840000D03*
X163950000Y-52380000D03*
X163950000Y-54920000D03*
X163950000Y-57460000D03*
X163950000Y-60000000D03*
X163950000Y-62540000D03*
X163950000Y-65080000D03*
%TD*%
D33*
%TO.C,J4*%
X132375000Y-67475000D03*
D30*
X132375000Y-64975000D03*
%TD*%
D34*
%TO.C,J2*%
X143725000Y-72025000D03*
D35*
X141225000Y-72025000D03*
%TD*%
D12*
%TO.P,C3,1*%
%TO.N,Net-(J2-Pin_1)*%
X150725000Y-72000000D03*
D13*
%TO.P,C3,2*%
%TO.N,Net-(U1-VCC)*%
X150725000Y-70000000D03*
%TD*%
D14*
%TO.P,J1,1,Pin_1_1*%
%TO.N,Net-(J1-Pin_1)*%
X133525000Y-46475000D03*
D15*
%TO.P,J1,2,Pin_2_2*%
%TO.N,GND*%
X133525000Y-48975000D03*
%TD*%
D12*
%TO.P,C1,1*%
%TO.N,Net-(J1-Pin_1)*%
X142450000Y-48200000D03*
D13*
%TO.P,C1,2*%
%TO.N,/VM*%
X142450000Y-46200000D03*
%TD*%
D36*
%TO.P,C4,1*%
%TO.N,Net-(J2-Pin_1)*%
X157600000Y-72050000D03*
%TO.P,C4,2*%
%TO.N,Net-(U1-VCC)*%
X157600000Y-70150000D03*
%TD*%
D14*
%TO.P,J3,1,Pin_1_1*%
%TO.N,Net-(J3-Pin_1)*%
X133250000Y-55575000D03*
D15*
%TO.P,J3,2,Pin_2_2*%
%TO.N,Net-(J3-Pin_2)*%
X133250000Y-58075000D03*
%TD*%
D37*
%TO.P,U1,1,AO1_1*%
%TO.N,Net-(J3-Pin_1)*%
X142475000Y-55645000D03*
%TO.P,U1,2,AO1_2*%
X142475000Y-56295000D03*
%TO.P,U1,3,PGND1_3*%
%TO.N,GND*%
X142475000Y-56945000D03*
%TO.P,U1,4,PGND1_4*%
X142475000Y-57595000D03*
%TO.P,U1,5,AO2_5*%
%TO.N,Net-(J3-Pin_2)*%
X142475000Y-58245000D03*
%TO.P,U1,6,AO2_6*%
X142475000Y-58895000D03*
%TO.P,U1,7,BO2_7*%
%TO.N,Net-(J4-Pin_2)*%
X142475000Y-59545000D03*
%TO.P,U1,8,BO2_8*%
X142475000Y-60195000D03*
%TO.P,U1,9,PGND2_9*%
%TO.N,GND*%
X142475000Y-60845000D03*
%TO.P,U1,10,PGND2_10*%
X142475000Y-61495000D03*
%TO.P,U1,11,BO1_11*%
%TO.N,Net-(J4-Pin_1)*%
X142475000Y-62145000D03*
%TO.P,U1,12,BO1_12*%
X142475000Y-62795000D03*
%TO.P,U1,13,VM2_13*%
%TO.N,/VM*%
X149475000Y-62795000D03*
%TO.P,U1,14,VM3_14*%
X149475000Y-62145000D03*
%TO.P,U1,15,PWMB_15*%
%TO.N,Net-(J5-Pin_4)*%
X149475000Y-61495000D03*
%TO.P,U1,16,BIN2_16*%
%TO.N,Net-(J5-Pin_6)*%
X149475000Y-60845000D03*
%TO.P,U1,17,BIN1_17*%
%TO.N,Net-(J5-Pin_5)*%
X149475000Y-60195000D03*
%TO.P,U1,18,GND_18*%
%TO.N,GND*%
X149475000Y-59545000D03*
%TO.P,U1,19,STBY_19*%
%TO.N,/STBY*%
X149475000Y-58895000D03*
%TO.P,U1,20,VCC_20*%
%TO.N,Net-(U1-VCC)*%
X149475000Y-58245000D03*
%TO.P,U1,21,AIN1_21*%
%TO.N,Net-(J5-Pin_2)*%
X149475000Y-57595000D03*
%TO.P,U1,22,AIN2_22*%
%TO.N,Net-(J5-Pin_3)*%
X149475000Y-56945000D03*
%TO.P,U1,23,PWMA_23*%
%TO.N,Net-(J5-Pin_1)*%
X149475000Y-56295000D03*
%TO.P,U1,24,VM1_24*%
%TO.N,/VM*%
X149475000Y-55645000D03*
%TD*%
D16*
%TO.P,J5,1,Pin_1_1*%
%TO.N,Net-(J5-Pin_1)*%
X163950000Y-47300000D03*
D17*
%TO.P,J5,2,Pin_2_2*%
%TO.N,Net-(J5-Pin_2)*%
X163950000Y-49840000D03*
%TO.P,J5,3,Pin_3_3*%
%TO.N,Net-(J5-Pin_3)*%
X163950000Y-52380000D03*
%TO.P,J5,4,Pin_4_4*%
%TO.N,Net-(J5-Pin_4)*%
X163950000Y-54920000D03*
%TO.P,J5,5,Pin_5_5*%
%TO.N,Net-(J5-Pin_5)*%
X163950000Y-57460000D03*
%TO.P,J5,6,Pin_6_6*%
%TO.N,Net-(J5-Pin_6)*%
X163950000Y-60000000D03*
%TO.P,J5,7,Pin_7_7*%
%TO.N,Net-(J5-Pin_7)*%
X163950000Y-62540000D03*
%TO.P,J5,8,Pin_8_8*%
%TO.N,GND*%
X163950000Y-65080000D03*
%TD*%
D18*
%TO.P,J4,1,Pin_1_1*%
%TO.N,Net-(J4-Pin_1)*%
X132375000Y-67475000D03*
D15*
%TO.P,J4,2,Pin_2_2*%
%TO.N,Net-(J4-Pin_2)*%
X132375000Y-64975000D03*
%TD*%
D36*
%TO.P,C2,1*%
%TO.N,Net-(J1-Pin_1)*%
X151200000Y-48275000D03*
%TO.P,C2,2*%
%TO.N,/VM*%
X151200000Y-46375000D03*
%TD*%
D38*
%TO.P,R1,1*%
%TO.N,Net-(J5-Pin_7)*%
X159700000Y-62925000D03*
%TO.P,R1,2*%
%TO.N,/STBY*%
X157875000Y-62925000D03*
%TD*%
D19*
%TO.P,J2,1,Pin_1_1*%
%TO.N,Net-(J2-Pin_1)*%
X143725000Y-72025000D03*
D20*
%TO.P,J2,2,Pin_2_2*%
%TO.N,GND*%
X141225000Y-72025000D03*
%TD*%
D21*
%TO.N,GND*%
X144250000Y-61400000D03*
X153150000Y-59525000D03*
%TO.N,/STBY*%
X151425000Y-58850000D03*
%TO.N,Net-(U1-VCC)*%
X147250000Y-59460122D03*
X147250000Y-62950000D03*
%TO.N,Net-(J5-Pin_5)*%
X161950000Y-57700000D03*
X159950000Y-57650000D03*
%TO.N,Net-(J5-Pin_2)*%
X155475000Y-55975000D03*
X153750000Y-57700000D03*
X153750000Y-57700000D03*
%TO.N,GND*%
X146300000Y-60175000D03*
%TO.N,/STBY*%
X152675000Y-62400000D03*
%TO.N,GND*%
X140250000Y-62000000D03*
%TO.N,Net-(J5-Pin_6)*%
X160400000Y-60975000D03*
%TD*%
%TO.N,GND*%
D22*
X144250000Y-61175000D02*
X143649406Y-60574406D01*
X144250000Y-61400000D02*
X144250000Y-61175000D01*
D24*
X143649406Y-60574406D02*
X143378812Y-60845000D01*
D22*
X153130000Y-59545000D02*
X153150000Y-59525000D01*
X149475000Y-59545000D02*
X153130000Y-59545000D01*
%TO.N,Net-(U1-VCC)*%
D23*
X147250000Y-62950000D02*
X147250000Y-62825000D01*
%TO.N,Net-(J5-Pin_5)*%
D24*
X163710000Y-57700000D02*
X163950000Y-57460000D01*
X161950000Y-57700000D02*
X163710000Y-57700000D01*
%TO.N,Net-(J5-Pin_4)*%
X162075000Y-54900000D02*
X162275000Y-54900000D01*
X160800000Y-56275000D02*
X162075000Y-55000000D01*
X162075000Y-55000000D02*
X162075000Y-54900000D01*
X160975000Y-56450000D02*
X160800000Y-56275000D01*
X162295000Y-54920000D02*
X163950000Y-54920000D01*
X160975000Y-57895000D02*
X160975000Y-56450000D01*
X162275000Y-54900000D02*
X162295000Y-54920000D01*
X157375000Y-61495000D02*
X149475000Y-61495000D01*
X160975000Y-57895000D02*
X157375000Y-61495000D01*
%TO.N,Net-(J5-Pin_5)*%
X156175000Y-57650000D02*
X159950000Y-57650000D01*
X153575000Y-60250000D02*
X156175000Y-57650000D01*
X153575000Y-60250000D02*
X150479999Y-60250000D01*
%TO.N,Net-(J5-Pin_2)*%
D22*
X158335000Y-49840000D02*
X163950000Y-49840000D01*
X155500000Y-52675000D02*
X158335000Y-49840000D01*
X155500000Y-55950000D02*
X155500000Y-52675000D01*
X155475000Y-55975000D02*
X155500000Y-55950000D01*
X153645000Y-57595000D02*
X153750000Y-57700000D01*
X149475000Y-57595000D02*
X153645000Y-57595000D01*
%TO.N,Net-(J5-Pin_3)*%
X161170000Y-52380000D02*
X163950000Y-52380000D01*
X149475000Y-56945000D02*
X156605000Y-56945000D01*
X156605000Y-56945000D02*
X161170000Y-52380000D01*
%TO.N,Net-(J5-Pin_1)*%
D24*
X152025000Y-54845000D02*
X150575000Y-56295000D01*
X152025000Y-54100000D02*
X152025000Y-54845000D01*
X150575000Y-56295000D02*
X149475000Y-56295000D01*
X152150000Y-53975000D02*
X152025000Y-54100000D01*
X154800000Y-49525000D02*
X152150000Y-52175000D01*
X154875000Y-49600000D02*
X154800000Y-49525000D01*
X157425000Y-49600000D02*
X154875000Y-49600000D01*
X152150000Y-52175000D02*
X152150000Y-53975000D01*
X159725000Y-47300000D02*
X157425000Y-49600000D01*
X163950000Y-47300000D02*
X159725000Y-47300000D01*
%TO.N,Net-(J4-Pin_1)*%
D25*
X142300000Y-63500000D02*
X142475000Y-63325000D01*
X141050000Y-64800000D02*
X142300000Y-63550000D01*
X135500000Y-67475000D02*
X138175000Y-64800000D01*
X138175000Y-64800000D02*
X141050000Y-64800000D01*
X132375000Y-67475000D02*
X135500000Y-67475000D01*
X142300000Y-63550000D02*
X142300000Y-63500000D01*
X142475000Y-63325000D02*
X142475000Y-62795000D01*
%TO.N,Net-(J4-Pin_2)*%
X142475000Y-60120000D02*
X142475000Y-59670000D01*
X140480000Y-60120000D02*
X142475000Y-60120000D01*
X140475000Y-60125000D02*
X140480000Y-60120000D01*
X138350000Y-60125000D02*
X140475000Y-60125000D01*
X136775000Y-61700000D02*
X138350000Y-60125000D01*
X132375000Y-64975000D02*
X135650000Y-61700000D01*
X135650000Y-61700000D02*
X136775000Y-61700000D01*
%TO.N,GND*%
D22*
X147895001Y-60175000D02*
X146300000Y-60175000D01*
X148525001Y-59545000D02*
X147895001Y-60175000D01*
X149475000Y-59545000D02*
X148525001Y-59545000D01*
%TO.N,Net-(J5-Pin_5)*%
D24*
X153650000Y-60250000D02*
X153575000Y-60250000D01*
X150479999Y-60250000D02*
X150424999Y-60195000D01*
X150424999Y-60195000D02*
X149475000Y-60195000D01*
%TO.N,/STBY*%
D22*
X153200000Y-62925000D02*
X152675000Y-62400000D01*
X157875000Y-62925000D02*
X153200000Y-62925000D01*
%TO.N,GND*%
X144725000Y-55644999D02*
X143424999Y-56945000D01*
X144725000Y-52100000D02*
X144725000Y-55644999D01*
X136650000Y-52100000D02*
X144725000Y-52100000D01*
X143424999Y-56945000D02*
X142475000Y-56945000D01*
X133525000Y-48975000D02*
X136650000Y-52100000D01*
D24*
X140755000Y-61495000D02*
X140250000Y-62000000D01*
X142475000Y-61495000D02*
X140755000Y-61495000D01*
%TO.N,Net-(J2-Pin_1)*%
D26*
X150775000Y-72050000D02*
X150725000Y-72000000D01*
X150700000Y-72025000D02*
X150725000Y-72000000D01*
X157550000Y-72000000D02*
X157600000Y-72050000D01*
X143725000Y-72025000D02*
X150700000Y-72025000D01*
X150725000Y-72000000D02*
X157550000Y-72000000D01*
%TO.N,Net-(U1-VCC)*%
X150875000Y-70150000D02*
X150725000Y-70000000D01*
D23*
X148465122Y-58245000D02*
X147250000Y-59460122D01*
X147250000Y-66525000D02*
X147250000Y-62950000D01*
D26*
X150725000Y-70000000D02*
X157450000Y-70000000D01*
X157450000Y-70000000D02*
X157600000Y-70150000D01*
D23*
X149475000Y-58245000D02*
X148465122Y-58245000D01*
X147250000Y-66525000D02*
X150725000Y-70000000D01*
%TO.N,Net-(J1-Pin_1)*%
D26*
X151125000Y-48200000D02*
X151200000Y-48275000D01*
X142450000Y-48200000D02*
X151125000Y-48200000D01*
X140075000Y-48200000D02*
X142450000Y-48200000D01*
X133525000Y-46475000D02*
X137850000Y-46475000D01*
X139825000Y-48450000D02*
X140075000Y-48200000D01*
%TO.N,GND*%
D24*
X143420000Y-57595000D02*
X143750000Y-57925000D01*
X142475000Y-56945000D02*
X142475000Y-57670000D01*
X143750000Y-60473812D02*
X143649406Y-60574406D01*
X142475000Y-60845000D02*
X142475000Y-61495000D01*
X143750000Y-57925000D02*
X143750000Y-60473812D01*
X142475000Y-56945000D02*
X142475000Y-57595000D01*
X143378812Y-60845000D02*
X142475000Y-60845000D01*
X142475000Y-57595000D02*
X143420000Y-57595000D01*
%TO.N,/VM*%
D26*
X154225000Y-48600000D02*
X149475000Y-53350000D01*
D24*
X145630000Y-62145000D02*
X149475000Y-62145000D01*
X145450000Y-58720001D02*
X145450000Y-62325000D01*
X145450000Y-62325000D02*
X145630000Y-62145000D01*
D26*
X149475000Y-53350000D02*
X149475000Y-55395000D01*
D24*
X149475000Y-55645000D02*
X148525001Y-55645000D01*
D26*
X151025000Y-46200000D02*
X151200000Y-46375000D01*
X151200000Y-46375000D02*
X152000000Y-46375000D01*
D24*
X149475000Y-62145000D02*
X149475000Y-62795000D01*
D26*
X142450000Y-46200000D02*
X151025000Y-46200000D01*
D24*
X148525001Y-55645000D02*
X145450000Y-58720001D01*
D26*
X152000000Y-46375000D02*
X154225000Y-48600000D01*
%TO.N,Net-(J3-Pin_1)*%
D25*
X133250000Y-55575000D02*
X142405000Y-55575000D01*
X142405000Y-55575000D02*
X142475000Y-55645000D01*
X142475000Y-55645000D02*
X142475000Y-56220000D01*
X133320000Y-55645000D02*
X133250000Y-55575000D01*
%TO.N,Net-(J3-Pin_2)*%
X133975000Y-57350000D02*
X133975000Y-57300000D01*
X133975000Y-57300000D02*
X140025000Y-57300000D01*
X141045000Y-58320000D02*
X142475000Y-58320000D01*
X133250000Y-58075000D02*
X133975000Y-57350000D01*
X140025000Y-57300000D02*
X141045000Y-58320000D01*
X142475000Y-58320000D02*
X142475000Y-58820000D01*
%TO.N,Net-(J4-Pin_1)*%
X142475000Y-62795000D02*
X142475000Y-62220000D01*
%TO.N,Net-(J5-Pin_6)*%
D24*
X163050000Y-60900000D02*
X160325000Y-60900000D01*
X154330000Y-60845000D02*
X149475000Y-60845000D01*
X163950000Y-60000000D02*
X163050000Y-60900000D01*
X160325000Y-60900000D02*
X160400000Y-60975000D01*
X154650000Y-60525000D02*
X154330000Y-60845000D01*
%TO.N,Net-(J5-Pin_1)*%
X150730000Y-56295000D02*
X150575000Y-56295000D01*
%TO.N,Net-(J5-Pin_7)*%
X159700000Y-62925000D02*
X163565000Y-62925000D01*
X163565000Y-62925000D02*
X163950000Y-62540000D01*
%TO.N,Net-(J1-Pin_1)*%
D26*
X137850000Y-46475000D02*
X139825000Y-48450000D01*
%TO.N,/STBY*%
D22*
X151425000Y-58850000D02*
X149520000Y-58850000D01*
X149520000Y-58850000D02*
X149475000Y-58895000D01*
%TD*%
D27*
%TO.C,C3*%
X150725000Y-72000000D03*
D28*
X150725000Y-70000000D03*
%TD*%
D29*
%TO.C,J1*%
X133525000Y-46475000D03*
D30*
X133525000Y-48975000D03*
%TD*%
D27*
%TO.C,C1*%
X142450000Y-48200000D03*
D28*
X142450000Y-46200000D03*
%TD*%
D39*
%TO.C,C4*%
X157600000Y-72050000D03*
X157600000Y-70150000D03*
%TD*%
D29*
%TO.C,J3*%
X133250000Y-55575000D03*
D30*
X133250000Y-58075000D03*
%TD*%
D40*
%TO.C,U1*%
X142475000Y-55645000D03*
X142475000Y-56295000D03*
X142475000Y-56945000D03*
X142475000Y-57595000D03*
X142475000Y-58245000D03*
X142475000Y-58895000D03*
X142475000Y-59545000D03*
X142475000Y-60195000D03*
X142475000Y-60845000D03*
X142475000Y-61495000D03*
X142475000Y-62145000D03*
X142475000Y-62795000D03*
X149475000Y-62795000D03*
X149475000Y-62145000D03*
X149475000Y-61495000D03*
X149475000Y-60845000D03*
X149475000Y-60195000D03*
X149475000Y-59545000D03*
X149475000Y-58895000D03*
X149475000Y-58245000D03*
X149475000Y-57595000D03*
X149475000Y-56945000D03*
X149475000Y-56295000D03*
X149475000Y-55645000D03*
%TD*%
D31*
%TO.C,J5*%
X163950000Y-47300000D03*
D32*
X163950000Y-49840000D03*
X163950000Y-52380000D03*
X163950000Y-54920000D03*
X163950000Y-57460000D03*
X163950000Y-60000000D03*
X163950000Y-62540000D03*
X163950000Y-65080000D03*
%TD*%
D33*
%TO.C,J4*%
X132375000Y-67475000D03*
D30*
X132375000Y-64975000D03*
%TD*%
D39*
%TO.C,C2*%
X151200000Y-48275000D03*
X151200000Y-46375000D03*
%TD*%
D41*
%TO.C,R1*%
X159700000Y-62925000D03*
X157875000Y-62925000D03*
%TD*%
D34*
%TO.C,J2*%
X143725000Y-72025000D03*
D35*
X141225000Y-72025000D03*
%TD*%
D39*
%TO.C,C4*%
X157600000Y-72050000D03*
X157600000Y-70150000D03*
%TD*%
D40*
%TO.C,U1*%
X142475000Y-55645000D03*
X142475000Y-56295000D03*
X142475000Y-56945000D03*
X142475000Y-57595000D03*
X142475000Y-58245000D03*
X142475000Y-58895000D03*
X142475000Y-59545000D03*
X142475000Y-60195000D03*
X142475000Y-60845000D03*
X142475000Y-61495000D03*
X142475000Y-62145000D03*
X142475000Y-62795000D03*
X149475000Y-62795000D03*
X149475000Y-62145000D03*
X149475000Y-61495000D03*
X149475000Y-60845000D03*
X149475000Y-60195000D03*
X149475000Y-59545000D03*
X149475000Y-58895000D03*
X149475000Y-58245000D03*
X149475000Y-57595000D03*
X149475000Y-56945000D03*
X149475000Y-56295000D03*
X149475000Y-55645000D03*
%TD*%
D39*
%TO.C,C2*%
X151200000Y-48275000D03*
X151200000Y-46375000D03*
%TD*%
D41*
%TO.C,R1*%
X159700000Y-62925000D03*
X157875000Y-62925000D03*
%TD*%
%TO.C,C3*%
D42*
X153475000Y-71000000D02*
G75*
G02*
X147975000Y-71000000I-2750000J0D01*
G01*
X147975000Y-71000000D02*
G75*
G02*
X153475000Y-71000000I2750000J0D01*
G01*
%TO.C,J1*%
X129625000Y-43525000D02*
X136375000Y-43525000D01*
X136375000Y-51925000D01*
X129625000Y-51925000D01*
X129625000Y-43525000D01*
%TO.C,C1*%
X145200000Y-47200000D02*
G75*
G02*
X139700000Y-47200000I-2750000J0D01*
G01*
X139700000Y-47200000D02*
G75*
G02*
X145200000Y-47200000I2750000J0D01*
G01*
%TO.C,C4*%
X156620000Y-69400000D02*
X158580000Y-69400000D01*
X158580000Y-72800000D01*
X156620000Y-72800000D01*
X156620000Y-69400000D01*
%TO.C,J3*%
X129350000Y-52625000D02*
X136100000Y-52625000D01*
X136100000Y-61025000D01*
X129350000Y-61025000D01*
X129350000Y-52625000D01*
%TO.C,U1*%
X141275000Y-55190000D02*
X143075000Y-55190000D01*
X141275000Y-63250000D02*
X141275000Y-55190000D01*
X143075000Y-54870000D02*
X148875000Y-54870000D01*
X143075000Y-55190000D02*
X143075000Y-54870000D01*
X143075000Y-63250000D02*
X141275000Y-63250000D01*
X143075000Y-63570000D02*
X143075000Y-63250000D01*
X148875000Y-54870000D02*
X148875000Y-55190000D01*
X148875000Y-55190000D02*
X150675000Y-55190000D01*
X148875000Y-63250000D02*
X148875000Y-63570000D01*
X148875000Y-63570000D02*
X143075000Y-63570000D01*
X150675000Y-55190000D02*
X150675000Y-63250000D01*
X150675000Y-63250000D02*
X148875000Y-63250000D01*
%TO.C,J5*%
X162180000Y-45530000D02*
X165720000Y-45530000D01*
X165720000Y-66850000D01*
X162180000Y-66850000D01*
X162180000Y-45530000D01*
%TO.C,J4*%
X129525000Y-62025000D02*
X136275000Y-62025000D01*
X136275000Y-70425000D01*
X129525000Y-70425000D01*
X129525000Y-62025000D01*
%TO.C,C2*%
X150220000Y-45625000D02*
X152180000Y-45625000D01*
X152180000Y-49025000D01*
X150220000Y-49025000D01*
X150220000Y-45625000D01*
%TO.C,R1*%
X157107500Y-61975000D02*
X160467500Y-61975000D01*
X160467500Y-63875000D01*
X157107500Y-63875000D01*
X157107500Y-61975000D01*
%TO.C,J2*%
X138275000Y-68125000D02*
X146675000Y-68125000D01*
X146675000Y-74875000D01*
X138275000Y-74875000D01*
X138275000Y-68125000D01*
%TD*%
D10*
X154929819Y-72071428D02*
X154929819Y-72642856D01*
X154929819Y-72357142D02*
X153929819Y-72357142D01*
X153929819Y-72357142D02*
X154072676Y-72452380D01*
X154072676Y-72452380D02*
X154167914Y-72547618D01*
X154167914Y-72547618D02*
X154215533Y-72642856D01*
X153929819Y-71452380D02*
X153929819Y-71357142D01*
X153929819Y-71357142D02*
X153977438Y-71261904D01*
X153977438Y-71261904D02*
X154025057Y-71214285D01*
X154025057Y-71214285D02*
X154120295Y-71166666D01*
X154120295Y-71166666D02*
X154310771Y-71119047D01*
X154310771Y-71119047D02*
X154548866Y-71119047D01*
X154548866Y-71119047D02*
X154739342Y-71166666D01*
X154739342Y-71166666D02*
X154834580Y-71214285D01*
X154834580Y-71214285D02*
X154882200Y-71261904D01*
X154882200Y-71261904D02*
X154929819Y-71357142D01*
X154929819Y-71357142D02*
X154929819Y-71452380D01*
X154929819Y-71452380D02*
X154882200Y-71547618D01*
X154882200Y-71547618D02*
X154834580Y-71595237D01*
X154834580Y-71595237D02*
X154739342Y-71642856D01*
X154739342Y-71642856D02*
X154548866Y-71690475D01*
X154548866Y-71690475D02*
X154310771Y-71690475D01*
X154310771Y-71690475D02*
X154120295Y-71642856D01*
X154120295Y-71642856D02*
X154025057Y-71595237D01*
X154025057Y-71595237D02*
X153977438Y-71547618D01*
X153977438Y-71547618D02*
X153929819Y-71452380D01*
X154263152Y-70261904D02*
X154929819Y-70261904D01*
X154263152Y-70690475D02*
X154786961Y-70690475D01*
X154786961Y-70690475D02*
X154882200Y-70642856D01*
X154882200Y-70642856D02*
X154929819Y-70547618D01*
X154929819Y-70547618D02*
X154929819Y-70404761D01*
X154929819Y-70404761D02*
X154882200Y-70309523D01*
X154882200Y-70309523D02*
X154834580Y-70261904D01*
X154406009Y-69452380D02*
X154406009Y-69785713D01*
X154929819Y-69785713D02*
X153929819Y-69785713D01*
X153929819Y-69785713D02*
X153929819Y-69309523D01*
X151084580Y-71166666D02*
X151132200Y-71214285D01*
X151132200Y-71214285D02*
X151179819Y-71357142D01*
X151179819Y-71357142D02*
X151179819Y-71452380D01*
X151179819Y-71452380D02*
X151132200Y-71595237D01*
X151132200Y-71595237D02*
X151036961Y-71690475D01*
X151036961Y-71690475D02*
X150941723Y-71738094D01*
X150941723Y-71738094D02*
X150751247Y-71785713D01*
X150751247Y-71785713D02*
X150608390Y-71785713D01*
X150608390Y-71785713D02*
X150417914Y-71738094D01*
X150417914Y-71738094D02*
X150322676Y-71690475D01*
X150322676Y-71690475D02*
X150227438Y-71595237D01*
X150227438Y-71595237D02*
X150179819Y-71452380D01*
X150179819Y-71452380D02*
X150179819Y-71357142D01*
X150179819Y-71357142D02*
X150227438Y-71214285D01*
X150227438Y-71214285D02*
X150275057Y-71166666D01*
X150179819Y-70833332D02*
X150179819Y-70214285D01*
X150179819Y-70214285D02*
X150560771Y-70547618D01*
X150560771Y-70547618D02*
X150560771Y-70404761D01*
X150560771Y-70404761D02*
X150608390Y-70309523D01*
X150608390Y-70309523D02*
X150656009Y-70261904D01*
X150656009Y-70261904D02*
X150751247Y-70214285D01*
X150751247Y-70214285D02*
X150989342Y-70214285D01*
X150989342Y-70214285D02*
X151084580Y-70261904D01*
X151084580Y-70261904D02*
X151132200Y-70309523D01*
X151132200Y-70309523D02*
X151179819Y-70404761D01*
X151179819Y-70404761D02*
X151179819Y-70690475D01*
X151179819Y-70690475D02*
X151132200Y-70785713D01*
X151132200Y-70785713D02*
X151084580Y-70833332D01*
X129284580Y-51463095D02*
X129332200Y-51510714D01*
X129332200Y-51510714D02*
X129379819Y-51653571D01*
X129379819Y-51653571D02*
X129379819Y-51748809D01*
X129379819Y-51748809D02*
X129332200Y-51891666D01*
X129332200Y-51891666D02*
X129236961Y-51986904D01*
X129236961Y-51986904D02*
X129141723Y-52034523D01*
X129141723Y-52034523D02*
X128951247Y-52082142D01*
X128951247Y-52082142D02*
X128808390Y-52082142D01*
X128808390Y-52082142D02*
X128617914Y-52034523D01*
X128617914Y-52034523D02*
X128522676Y-51986904D01*
X128522676Y-51986904D02*
X128427438Y-51891666D01*
X128427438Y-51891666D02*
X128379819Y-51748809D01*
X128379819Y-51748809D02*
X128379819Y-51653571D01*
X128379819Y-51653571D02*
X128427438Y-51510714D01*
X128427438Y-51510714D02*
X128475057Y-51463095D01*
X129379819Y-50891666D02*
X129332200Y-50986904D01*
X129332200Y-50986904D02*
X129284580Y-51034523D01*
X129284580Y-51034523D02*
X129189342Y-51082142D01*
X129189342Y-51082142D02*
X128903628Y-51082142D01*
X128903628Y-51082142D02*
X128808390Y-51034523D01*
X128808390Y-51034523D02*
X128760771Y-50986904D01*
X128760771Y-50986904D02*
X128713152Y-50891666D01*
X128713152Y-50891666D02*
X128713152Y-50748809D01*
X128713152Y-50748809D02*
X128760771Y-50653571D01*
X128760771Y-50653571D02*
X128808390Y-50605952D01*
X128808390Y-50605952D02*
X128903628Y-50558333D01*
X128903628Y-50558333D02*
X129189342Y-50558333D01*
X129189342Y-50558333D02*
X129284580Y-50605952D01*
X129284580Y-50605952D02*
X129332200Y-50653571D01*
X129332200Y-50653571D02*
X129379819Y-50748809D01*
X129379819Y-50748809D02*
X129379819Y-50891666D01*
X128713152Y-50129761D02*
X129379819Y-50129761D01*
X128808390Y-50129761D02*
X128760771Y-50082142D01*
X128760771Y-50082142D02*
X128713152Y-49986904D01*
X128713152Y-49986904D02*
X128713152Y-49844047D01*
X128713152Y-49844047D02*
X128760771Y-49748809D01*
X128760771Y-49748809D02*
X128856009Y-49701190D01*
X128856009Y-49701190D02*
X129379819Y-49701190D01*
X128713152Y-49224999D02*
X129379819Y-49224999D01*
X128808390Y-49224999D02*
X128760771Y-49177380D01*
X128760771Y-49177380D02*
X128713152Y-49082142D01*
X128713152Y-49082142D02*
X128713152Y-48939285D01*
X128713152Y-48939285D02*
X128760771Y-48844047D01*
X128760771Y-48844047D02*
X128856009Y-48796428D01*
X128856009Y-48796428D02*
X129379819Y-48796428D01*
X129475057Y-48558333D02*
X129475057Y-47796428D01*
X128379819Y-47367856D02*
X128379819Y-47272618D01*
X128379819Y-47272618D02*
X128427438Y-47177380D01*
X128427438Y-47177380D02*
X128475057Y-47129761D01*
X128475057Y-47129761D02*
X128570295Y-47082142D01*
X128570295Y-47082142D02*
X128760771Y-47034523D01*
X128760771Y-47034523D02*
X128998866Y-47034523D01*
X128998866Y-47034523D02*
X129189342Y-47082142D01*
X129189342Y-47082142D02*
X129284580Y-47129761D01*
X129284580Y-47129761D02*
X129332200Y-47177380D01*
X129332200Y-47177380D02*
X129379819Y-47272618D01*
X129379819Y-47272618D02*
X129379819Y-47367856D01*
X129379819Y-47367856D02*
X129332200Y-47463094D01*
X129332200Y-47463094D02*
X129284580Y-47510713D01*
X129284580Y-47510713D02*
X129189342Y-47558332D01*
X129189342Y-47558332D02*
X128998866Y-47605951D01*
X128998866Y-47605951D02*
X128760771Y-47605951D01*
X128760771Y-47605951D02*
X128570295Y-47558332D01*
X128570295Y-47558332D02*
X128475057Y-47510713D01*
X128475057Y-47510713D02*
X128427438Y-47463094D01*
X128427438Y-47463094D02*
X128379819Y-47367856D01*
X129379819Y-46082142D02*
X129379819Y-46653570D01*
X129379819Y-46367856D02*
X128379819Y-46367856D01*
X128379819Y-46367856D02*
X128522676Y-46463094D01*
X128522676Y-46463094D02*
X128617914Y-46558332D01*
X128617914Y-46558332D02*
X128665533Y-46653570D01*
X129379819Y-45748808D02*
X128713152Y-45224999D01*
X128713152Y-45748808D02*
X129379819Y-45224999D01*
X128379819Y-44653570D02*
X128379819Y-44558332D01*
X128379819Y-44558332D02*
X128427438Y-44463094D01*
X128427438Y-44463094D02*
X128475057Y-44415475D01*
X128475057Y-44415475D02*
X128570295Y-44367856D01*
X128570295Y-44367856D02*
X128760771Y-44320237D01*
X128760771Y-44320237D02*
X128998866Y-44320237D01*
X128998866Y-44320237D02*
X129189342Y-44367856D01*
X129189342Y-44367856D02*
X129284580Y-44415475D01*
X129284580Y-44415475D02*
X129332200Y-44463094D01*
X129332200Y-44463094D02*
X129379819Y-44558332D01*
X129379819Y-44558332D02*
X129379819Y-44653570D01*
X129379819Y-44653570D02*
X129332200Y-44748808D01*
X129332200Y-44748808D02*
X129284580Y-44796427D01*
X129284580Y-44796427D02*
X129189342Y-44844046D01*
X129189342Y-44844046D02*
X128998866Y-44891665D01*
X128998866Y-44891665D02*
X128760771Y-44891665D01*
X128760771Y-44891665D02*
X128570295Y-44844046D01*
X128570295Y-44844046D02*
X128475057Y-44796427D01*
X128475057Y-44796427D02*
X128427438Y-44748808D01*
X128427438Y-44748808D02*
X128379819Y-44653570D01*
X128475057Y-43939284D02*
X128427438Y-43891665D01*
X128427438Y-43891665D02*
X128379819Y-43796427D01*
X128379819Y-43796427D02*
X128379819Y-43558332D01*
X128379819Y-43558332D02*
X128427438Y-43463094D01*
X128427438Y-43463094D02*
X128475057Y-43415475D01*
X128475057Y-43415475D02*
X128570295Y-43367856D01*
X128570295Y-43367856D02*
X128665533Y-43367856D01*
X128665533Y-43367856D02*
X128808390Y-43415475D01*
X128808390Y-43415475D02*
X129379819Y-43986903D01*
X129379819Y-43986903D02*
X129379819Y-43367856D01*
X130279819Y-48058333D02*
X130994104Y-48058333D01*
X130994104Y-48058333D02*
X131136961Y-48105952D01*
X131136961Y-48105952D02*
X131232200Y-48201190D01*
X131232200Y-48201190D02*
X131279819Y-48344047D01*
X131279819Y-48344047D02*
X131279819Y-48439285D01*
X131279819Y-47058333D02*
X131279819Y-47629761D01*
X131279819Y-47344047D02*
X130279819Y-47344047D01*
X130279819Y-47344047D02*
X130422676Y-47439285D01*
X130422676Y-47439285D02*
X130517914Y-47534523D01*
X130517914Y-47534523D02*
X130565533Y-47629761D01*
X146654819Y-48271428D02*
X146654819Y-48842856D01*
X146654819Y-48557142D02*
X145654819Y-48557142D01*
X145654819Y-48557142D02*
X145797676Y-48652380D01*
X145797676Y-48652380D02*
X145892914Y-48747618D01*
X145892914Y-48747618D02*
X145940533Y-48842856D01*
X145654819Y-47652380D02*
X145654819Y-47557142D01*
X145654819Y-47557142D02*
X145702438Y-47461904D01*
X145702438Y-47461904D02*
X145750057Y-47414285D01*
X145750057Y-47414285D02*
X145845295Y-47366666D01*
X145845295Y-47366666D02*
X146035771Y-47319047D01*
X146035771Y-47319047D02*
X146273866Y-47319047D01*
X146273866Y-47319047D02*
X146464342Y-47366666D01*
X146464342Y-47366666D02*
X146559580Y-47414285D01*
X146559580Y-47414285D02*
X146607200Y-47461904D01*
X146607200Y-47461904D02*
X146654819Y-47557142D01*
X146654819Y-47557142D02*
X146654819Y-47652380D01*
X146654819Y-47652380D02*
X146607200Y-47747618D01*
X146607200Y-47747618D02*
X146559580Y-47795237D01*
X146559580Y-47795237D02*
X146464342Y-47842856D01*
X146464342Y-47842856D02*
X146273866Y-47890475D01*
X146273866Y-47890475D02*
X146035771Y-47890475D01*
X146035771Y-47890475D02*
X145845295Y-47842856D01*
X145845295Y-47842856D02*
X145750057Y-47795237D01*
X145750057Y-47795237D02*
X145702438Y-47747618D01*
X145702438Y-47747618D02*
X145654819Y-47652380D01*
X145988152Y-46461904D02*
X146654819Y-46461904D01*
X145988152Y-46890475D02*
X146511961Y-46890475D01*
X146511961Y-46890475D02*
X146607200Y-46842856D01*
X146607200Y-46842856D02*
X146654819Y-46747618D01*
X146654819Y-46747618D02*
X146654819Y-46604761D01*
X146654819Y-46604761D02*
X146607200Y-46509523D01*
X146607200Y-46509523D02*
X146559580Y-46461904D01*
X146131009Y-45652380D02*
X146131009Y-45985713D01*
X146654819Y-45985713D02*
X145654819Y-45985713D01*
X145654819Y-45985713D02*
X145654819Y-45509523D01*
X142809580Y-47366666D02*
X142857200Y-47414285D01*
X142857200Y-47414285D02*
X142904819Y-47557142D01*
X142904819Y-47557142D02*
X142904819Y-47652380D01*
X142904819Y-47652380D02*
X142857200Y-47795237D01*
X142857200Y-47795237D02*
X142761961Y-47890475D01*
X142761961Y-47890475D02*
X142666723Y-47938094D01*
X142666723Y-47938094D02*
X142476247Y-47985713D01*
X142476247Y-47985713D02*
X142333390Y-47985713D01*
X142333390Y-47985713D02*
X142142914Y-47938094D01*
X142142914Y-47938094D02*
X142047676Y-47890475D01*
X142047676Y-47890475D02*
X141952438Y-47795237D01*
X141952438Y-47795237D02*
X141904819Y-47652380D01*
X141904819Y-47652380D02*
X141904819Y-47557142D01*
X141904819Y-47557142D02*
X141952438Y-47414285D01*
X141952438Y-47414285D02*
X142000057Y-47366666D01*
X142904819Y-46414285D02*
X142904819Y-46985713D01*
X142904819Y-46699999D02*
X141904819Y-46699999D01*
X141904819Y-46699999D02*
X142047676Y-46795237D01*
X142047676Y-46795237D02*
X142142914Y-46890475D01*
X142142914Y-46890475D02*
X142190533Y-46985713D01*
X158734819Y-72742856D02*
X158734819Y-72647618D01*
X158734819Y-72647618D02*
X158782438Y-72552380D01*
X158782438Y-72552380D02*
X158830057Y-72504761D01*
X158830057Y-72504761D02*
X158925295Y-72457142D01*
X158925295Y-72457142D02*
X159115771Y-72409523D01*
X159115771Y-72409523D02*
X159353866Y-72409523D01*
X159353866Y-72409523D02*
X159544342Y-72457142D01*
X159544342Y-72457142D02*
X159639580Y-72504761D01*
X159639580Y-72504761D02*
X159687200Y-72552380D01*
X159687200Y-72552380D02*
X159734819Y-72647618D01*
X159734819Y-72647618D02*
X159734819Y-72742856D01*
X159734819Y-72742856D02*
X159687200Y-72838094D01*
X159687200Y-72838094D02*
X159639580Y-72885713D01*
X159639580Y-72885713D02*
X159544342Y-72933332D01*
X159544342Y-72933332D02*
X159353866Y-72980951D01*
X159353866Y-72980951D02*
X159115771Y-72980951D01*
X159115771Y-72980951D02*
X158925295Y-72933332D01*
X158925295Y-72933332D02*
X158830057Y-72885713D01*
X158830057Y-72885713D02*
X158782438Y-72838094D01*
X158782438Y-72838094D02*
X158734819Y-72742856D01*
X159639580Y-71980951D02*
X159687200Y-71933332D01*
X159687200Y-71933332D02*
X159734819Y-71980951D01*
X159734819Y-71980951D02*
X159687200Y-72028570D01*
X159687200Y-72028570D02*
X159639580Y-71980951D01*
X159639580Y-71980951D02*
X159734819Y-71980951D01*
X159734819Y-70980952D02*
X159734819Y-71552380D01*
X159734819Y-71266666D02*
X158734819Y-71266666D01*
X158734819Y-71266666D02*
X158877676Y-71361904D01*
X158877676Y-71361904D02*
X158972914Y-71457142D01*
X158972914Y-71457142D02*
X159020533Y-71552380D01*
X159068152Y-70123809D02*
X159734819Y-70123809D01*
X159068152Y-70552380D02*
X159591961Y-70552380D01*
X159591961Y-70552380D02*
X159687200Y-70504761D01*
X159687200Y-70504761D02*
X159734819Y-70409523D01*
X159734819Y-70409523D02*
X159734819Y-70266666D01*
X159734819Y-70266666D02*
X159687200Y-70171428D01*
X159687200Y-70171428D02*
X159639580Y-70123809D01*
X159211009Y-69314285D02*
X159211009Y-69647618D01*
X159734819Y-69647618D02*
X158734819Y-69647618D01*
X158734819Y-69647618D02*
X158734819Y-69171428D01*
D43*
X157779530Y-71183333D02*
X157803340Y-71207142D01*
X157803340Y-71207142D02*
X157827149Y-71278571D01*
X157827149Y-71278571D02*
X157827149Y-71326190D01*
X157827149Y-71326190D02*
X157803340Y-71397618D01*
X157803340Y-71397618D02*
X157755720Y-71445237D01*
X157755720Y-71445237D02*
X157708101Y-71469047D01*
X157708101Y-71469047D02*
X157612863Y-71492856D01*
X157612863Y-71492856D02*
X157541435Y-71492856D01*
X157541435Y-71492856D02*
X157446197Y-71469047D01*
X157446197Y-71469047D02*
X157398578Y-71445237D01*
X157398578Y-71445237D02*
X157350959Y-71397618D01*
X157350959Y-71397618D02*
X157327149Y-71326190D01*
X157327149Y-71326190D02*
X157327149Y-71278571D01*
X157327149Y-71278571D02*
X157350959Y-71207142D01*
X157350959Y-71207142D02*
X157374768Y-71183333D01*
X157493816Y-70754761D02*
X157827149Y-70754761D01*
X157303340Y-70873809D02*
X157660482Y-70992856D01*
X157660482Y-70992856D02*
X157660482Y-70683333D01*
D10*
X129009580Y-60563095D02*
X129057200Y-60610714D01*
X129057200Y-60610714D02*
X129104819Y-60753571D01*
X129104819Y-60753571D02*
X129104819Y-60848809D01*
X129104819Y-60848809D02*
X129057200Y-60991666D01*
X129057200Y-60991666D02*
X128961961Y-61086904D01*
X128961961Y-61086904D02*
X128866723Y-61134523D01*
X128866723Y-61134523D02*
X128676247Y-61182142D01*
X128676247Y-61182142D02*
X128533390Y-61182142D01*
X128533390Y-61182142D02*
X128342914Y-61134523D01*
X128342914Y-61134523D02*
X128247676Y-61086904D01*
X128247676Y-61086904D02*
X128152438Y-60991666D01*
X128152438Y-60991666D02*
X128104819Y-60848809D01*
X128104819Y-60848809D02*
X128104819Y-60753571D01*
X128104819Y-60753571D02*
X128152438Y-60610714D01*
X128152438Y-60610714D02*
X128200057Y-60563095D01*
X129104819Y-59991666D02*
X129057200Y-60086904D01*
X129057200Y-60086904D02*
X129009580Y-60134523D01*
X129009580Y-60134523D02*
X128914342Y-60182142D01*
X128914342Y-60182142D02*
X128628628Y-60182142D01*
X128628628Y-60182142D02*
X128533390Y-60134523D01*
X128533390Y-60134523D02*
X128485771Y-60086904D01*
X128485771Y-60086904D02*
X128438152Y-59991666D01*
X128438152Y-59991666D02*
X128438152Y-59848809D01*
X128438152Y-59848809D02*
X128485771Y-59753571D01*
X128485771Y-59753571D02*
X128533390Y-59705952D01*
X128533390Y-59705952D02*
X128628628Y-59658333D01*
X128628628Y-59658333D02*
X128914342Y-59658333D01*
X128914342Y-59658333D02*
X129009580Y-59705952D01*
X129009580Y-59705952D02*
X129057200Y-59753571D01*
X129057200Y-59753571D02*
X129104819Y-59848809D01*
X129104819Y-59848809D02*
X129104819Y-59991666D01*
X128438152Y-59229761D02*
X129104819Y-59229761D01*
X128533390Y-59229761D02*
X128485771Y-59182142D01*
X128485771Y-59182142D02*
X128438152Y-59086904D01*
X128438152Y-59086904D02*
X128438152Y-58944047D01*
X128438152Y-58944047D02*
X128485771Y-58848809D01*
X128485771Y-58848809D02*
X128581009Y-58801190D01*
X128581009Y-58801190D02*
X129104819Y-58801190D01*
X128438152Y-58324999D02*
X129104819Y-58324999D01*
X128533390Y-58324999D02*
X128485771Y-58277380D01*
X128485771Y-58277380D02*
X128438152Y-58182142D01*
X128438152Y-58182142D02*
X128438152Y-58039285D01*
X128438152Y-58039285D02*
X128485771Y-57944047D01*
X128485771Y-57944047D02*
X128581009Y-57896428D01*
X128581009Y-57896428D02*
X129104819Y-57896428D01*
X129200057Y-57658333D02*
X129200057Y-56896428D01*
X128104819Y-56467856D02*
X128104819Y-56372618D01*
X128104819Y-56372618D02*
X128152438Y-56277380D01*
X128152438Y-56277380D02*
X128200057Y-56229761D01*
X128200057Y-56229761D02*
X128295295Y-56182142D01*
X128295295Y-56182142D02*
X128485771Y-56134523D01*
X128485771Y-56134523D02*
X128723866Y-56134523D01*
X128723866Y-56134523D02*
X128914342Y-56182142D01*
X128914342Y-56182142D02*
X129009580Y-56229761D01*
X129009580Y-56229761D02*
X129057200Y-56277380D01*
X129057200Y-56277380D02*
X129104819Y-56372618D01*
X129104819Y-56372618D02*
X129104819Y-56467856D01*
X129104819Y-56467856D02*
X129057200Y-56563094D01*
X129057200Y-56563094D02*
X129009580Y-56610713D01*
X129009580Y-56610713D02*
X128914342Y-56658332D01*
X128914342Y-56658332D02*
X128723866Y-56705951D01*
X128723866Y-56705951D02*
X128485771Y-56705951D01*
X128485771Y-56705951D02*
X128295295Y-56658332D01*
X128295295Y-56658332D02*
X128200057Y-56610713D01*
X128200057Y-56610713D02*
X128152438Y-56563094D01*
X128152438Y-56563094D02*
X128104819Y-56467856D01*
X129104819Y-55182142D02*
X129104819Y-55753570D01*
X129104819Y-55467856D02*
X128104819Y-55467856D01*
X128104819Y-55467856D02*
X128247676Y-55563094D01*
X128247676Y-55563094D02*
X128342914Y-55658332D01*
X128342914Y-55658332D02*
X128390533Y-55753570D01*
X129104819Y-54848808D02*
X128438152Y-54324999D01*
X128438152Y-54848808D02*
X129104819Y-54324999D01*
X128104819Y-53753570D02*
X128104819Y-53658332D01*
X128104819Y-53658332D02*
X128152438Y-53563094D01*
X128152438Y-53563094D02*
X128200057Y-53515475D01*
X128200057Y-53515475D02*
X128295295Y-53467856D01*
X128295295Y-53467856D02*
X128485771Y-53420237D01*
X128485771Y-53420237D02*
X128723866Y-53420237D01*
X128723866Y-53420237D02*
X128914342Y-53467856D01*
X128914342Y-53467856D02*
X129009580Y-53515475D01*
X129009580Y-53515475D02*
X129057200Y-53563094D01*
X129057200Y-53563094D02*
X129104819Y-53658332D01*
X129104819Y-53658332D02*
X129104819Y-53753570D01*
X129104819Y-53753570D02*
X129057200Y-53848808D01*
X129057200Y-53848808D02*
X129009580Y-53896427D01*
X129009580Y-53896427D02*
X128914342Y-53944046D01*
X128914342Y-53944046D02*
X128723866Y-53991665D01*
X128723866Y-53991665D02*
X128485771Y-53991665D01*
X128485771Y-53991665D02*
X128295295Y-53944046D01*
X128295295Y-53944046D02*
X128200057Y-53896427D01*
X128200057Y-53896427D02*
X128152438Y-53848808D01*
X128152438Y-53848808D02*
X128104819Y-53753570D01*
X128200057Y-53039284D02*
X128152438Y-52991665D01*
X128152438Y-52991665D02*
X128104819Y-52896427D01*
X128104819Y-52896427D02*
X128104819Y-52658332D01*
X128104819Y-52658332D02*
X128152438Y-52563094D01*
X128152438Y-52563094D02*
X128200057Y-52515475D01*
X128200057Y-52515475D02*
X128295295Y-52467856D01*
X128295295Y-52467856D02*
X128390533Y-52467856D01*
X128390533Y-52467856D02*
X128533390Y-52515475D01*
X128533390Y-52515475D02*
X129104819Y-53086903D01*
X129104819Y-53086903D02*
X129104819Y-52467856D01*
X130004819Y-57158333D02*
X130719104Y-57158333D01*
X130719104Y-57158333D02*
X130861961Y-57205952D01*
X130861961Y-57205952D02*
X130957200Y-57301190D01*
X130957200Y-57301190D02*
X131004819Y-57444047D01*
X131004819Y-57444047D02*
X131004819Y-57539285D01*
X130004819Y-56777380D02*
X130004819Y-56158333D01*
X130004819Y-56158333D02*
X130385771Y-56491666D01*
X130385771Y-56491666D02*
X130385771Y-56348809D01*
X130385771Y-56348809D02*
X130433390Y-56253571D01*
X130433390Y-56253571D02*
X130481009Y-56205952D01*
X130481009Y-56205952D02*
X130576247Y-56158333D01*
X130576247Y-56158333D02*
X130814342Y-56158333D01*
X130814342Y-56158333D02*
X130909580Y-56205952D01*
X130909580Y-56205952D02*
X130957200Y-56253571D01*
X130957200Y-56253571D02*
X131004819Y-56348809D01*
X131004819Y-56348809D02*
X131004819Y-56634523D01*
X131004819Y-56634523D02*
X130957200Y-56729761D01*
X130957200Y-56729761D02*
X130909580Y-56777380D01*
X141832143Y-63724819D02*
X142403571Y-63724819D01*
X142117857Y-64724819D02*
X142117857Y-63724819D01*
X143070238Y-64201009D02*
X143213095Y-64248628D01*
X143213095Y-64248628D02*
X143260714Y-64296247D01*
X143260714Y-64296247D02*
X143308333Y-64391485D01*
X143308333Y-64391485D02*
X143308333Y-64534342D01*
X143308333Y-64534342D02*
X143260714Y-64629580D01*
X143260714Y-64629580D02*
X143213095Y-64677200D01*
X143213095Y-64677200D02*
X143117857Y-64724819D01*
X143117857Y-64724819D02*
X142736905Y-64724819D01*
X142736905Y-64724819D02*
X142736905Y-63724819D01*
X142736905Y-63724819D02*
X143070238Y-63724819D01*
X143070238Y-63724819D02*
X143165476Y-63772438D01*
X143165476Y-63772438D02*
X143213095Y-63820057D01*
X143213095Y-63820057D02*
X143260714Y-63915295D01*
X143260714Y-63915295D02*
X143260714Y-64010533D01*
X143260714Y-64010533D02*
X143213095Y-64105771D01*
X143213095Y-64105771D02*
X143165476Y-64153390D01*
X143165476Y-64153390D02*
X143070238Y-64201009D01*
X143070238Y-64201009D02*
X142736905Y-64201009D01*
X144165476Y-63724819D02*
X143975000Y-63724819D01*
X143975000Y-63724819D02*
X143879762Y-63772438D01*
X143879762Y-63772438D02*
X143832143Y-63820057D01*
X143832143Y-63820057D02*
X143736905Y-63962914D01*
X143736905Y-63962914D02*
X143689286Y-64153390D01*
X143689286Y-64153390D02*
X143689286Y-64534342D01*
X143689286Y-64534342D02*
X143736905Y-64629580D01*
X143736905Y-64629580D02*
X143784524Y-64677200D01*
X143784524Y-64677200D02*
X143879762Y-64724819D01*
X143879762Y-64724819D02*
X144070238Y-64724819D01*
X144070238Y-64724819D02*
X144165476Y-64677200D01*
X144165476Y-64677200D02*
X144213095Y-64629580D01*
X144213095Y-64629580D02*
X144260714Y-64534342D01*
X144260714Y-64534342D02*
X144260714Y-64296247D01*
X144260714Y-64296247D02*
X144213095Y-64201009D01*
X144213095Y-64201009D02*
X144165476Y-64153390D01*
X144165476Y-64153390D02*
X144070238Y-64105771D01*
X144070238Y-64105771D02*
X143879762Y-64105771D01*
X143879762Y-64105771D02*
X143784524Y-64153390D01*
X143784524Y-64153390D02*
X143736905Y-64201009D01*
X143736905Y-64201009D02*
X143689286Y-64296247D01*
X145117857Y-63724819D02*
X144927381Y-63724819D01*
X144927381Y-63724819D02*
X144832143Y-63772438D01*
X144832143Y-63772438D02*
X144784524Y-63820057D01*
X144784524Y-63820057D02*
X144689286Y-63962914D01*
X144689286Y-63962914D02*
X144641667Y-64153390D01*
X144641667Y-64153390D02*
X144641667Y-64534342D01*
X144641667Y-64534342D02*
X144689286Y-64629580D01*
X144689286Y-64629580D02*
X144736905Y-64677200D01*
X144736905Y-64677200D02*
X144832143Y-64724819D01*
X144832143Y-64724819D02*
X145022619Y-64724819D01*
X145022619Y-64724819D02*
X145117857Y-64677200D01*
X145117857Y-64677200D02*
X145165476Y-64629580D01*
X145165476Y-64629580D02*
X145213095Y-64534342D01*
X145213095Y-64534342D02*
X145213095Y-64296247D01*
X145213095Y-64296247D02*
X145165476Y-64201009D01*
X145165476Y-64201009D02*
X145117857Y-64153390D01*
X145117857Y-64153390D02*
X145022619Y-64105771D01*
X145022619Y-64105771D02*
X144832143Y-64105771D01*
X144832143Y-64105771D02*
X144736905Y-64153390D01*
X144736905Y-64153390D02*
X144689286Y-64201009D01*
X144689286Y-64201009D02*
X144641667Y-64296247D01*
X146165476Y-64724819D02*
X145594048Y-64724819D01*
X145879762Y-64724819D02*
X145879762Y-63724819D01*
X145879762Y-63724819D02*
X145784524Y-63867676D01*
X145784524Y-63867676D02*
X145689286Y-63962914D01*
X145689286Y-63962914D02*
X145594048Y-64010533D01*
X146546429Y-63820057D02*
X146594048Y-63772438D01*
X146594048Y-63772438D02*
X146689286Y-63724819D01*
X146689286Y-63724819D02*
X146927381Y-63724819D01*
X146927381Y-63724819D02*
X147022619Y-63772438D01*
X147022619Y-63772438D02*
X147070238Y-63820057D01*
X147070238Y-63820057D02*
X147117857Y-63915295D01*
X147117857Y-63915295D02*
X147117857Y-64010533D01*
X147117857Y-64010533D02*
X147070238Y-64153390D01*
X147070238Y-64153390D02*
X146498810Y-64724819D01*
X146498810Y-64724819D02*
X147117857Y-64724819D01*
X147879762Y-64201009D02*
X147546429Y-64201009D01*
X147546429Y-64724819D02*
X147546429Y-63724819D01*
X147546429Y-63724819D02*
X148022619Y-63724819D01*
X148403572Y-64724819D02*
X148403572Y-63724819D01*
X148403572Y-63724819D02*
X148975000Y-64724819D01*
X148975000Y-64724819D02*
X148975000Y-63724819D01*
X149975000Y-63772438D02*
X149879762Y-63724819D01*
X149879762Y-63724819D02*
X149736905Y-63724819D01*
X149736905Y-63724819D02*
X149594048Y-63772438D01*
X149594048Y-63772438D02*
X149498810Y-63867676D01*
X149498810Y-63867676D02*
X149451191Y-63962914D01*
X149451191Y-63962914D02*
X149403572Y-64153390D01*
X149403572Y-64153390D02*
X149403572Y-64296247D01*
X149403572Y-64296247D02*
X149451191Y-64486723D01*
X149451191Y-64486723D02*
X149498810Y-64581961D01*
X149498810Y-64581961D02*
X149594048Y-64677200D01*
X149594048Y-64677200D02*
X149736905Y-64724819D01*
X149736905Y-64724819D02*
X149832143Y-64724819D01*
X149832143Y-64724819D02*
X149975000Y-64677200D01*
X149975000Y-64677200D02*
X150022619Y-64629580D01*
X150022619Y-64629580D02*
X150022619Y-64296247D01*
X150022619Y-64296247D02*
X149832143Y-64296247D01*
X145213095Y-58674819D02*
X145213095Y-59484342D01*
X145213095Y-59484342D02*
X145260714Y-59579580D01*
X145260714Y-59579580D02*
X145308333Y-59627200D01*
X145308333Y-59627200D02*
X145403571Y-59674819D01*
X145403571Y-59674819D02*
X145594047Y-59674819D01*
X145594047Y-59674819D02*
X145689285Y-59627200D01*
X145689285Y-59627200D02*
X145736904Y-59579580D01*
X145736904Y-59579580D02*
X145784523Y-59484342D01*
X145784523Y-59484342D02*
X145784523Y-58674819D01*
X146784523Y-59674819D02*
X146213095Y-59674819D01*
X146498809Y-59674819D02*
X146498809Y-58674819D01*
X146498809Y-58674819D02*
X146403571Y-58817676D01*
X146403571Y-58817676D02*
X146308333Y-58912914D01*
X146308333Y-58912914D02*
X146213095Y-58960533D01*
X157961904Y-67959580D02*
X157914285Y-68007200D01*
X157914285Y-68007200D02*
X157771428Y-68054819D01*
X157771428Y-68054819D02*
X157676190Y-68054819D01*
X157676190Y-68054819D02*
X157533333Y-68007200D01*
X157533333Y-68007200D02*
X157438095Y-67911961D01*
X157438095Y-67911961D02*
X157390476Y-67816723D01*
X157390476Y-67816723D02*
X157342857Y-67626247D01*
X157342857Y-67626247D02*
X157342857Y-67483390D01*
X157342857Y-67483390D02*
X157390476Y-67292914D01*
X157390476Y-67292914D02*
X157438095Y-67197676D01*
X157438095Y-67197676D02*
X157533333Y-67102438D01*
X157533333Y-67102438D02*
X157676190Y-67054819D01*
X157676190Y-67054819D02*
X157771428Y-67054819D01*
X157771428Y-67054819D02*
X157914285Y-67102438D01*
X157914285Y-67102438D02*
X157961904Y-67150057D01*
X158533333Y-68054819D02*
X158438095Y-68007200D01*
X158438095Y-68007200D02*
X158390476Y-67959580D01*
X158390476Y-67959580D02*
X158342857Y-67864342D01*
X158342857Y-67864342D02*
X158342857Y-67578628D01*
X158342857Y-67578628D02*
X158390476Y-67483390D01*
X158390476Y-67483390D02*
X158438095Y-67435771D01*
X158438095Y-67435771D02*
X158533333Y-67388152D01*
X158533333Y-67388152D02*
X158676190Y-67388152D01*
X158676190Y-67388152D02*
X158771428Y-67435771D01*
X158771428Y-67435771D02*
X158819047Y-67483390D01*
X158819047Y-67483390D02*
X158866666Y-67578628D01*
X158866666Y-67578628D02*
X158866666Y-67864342D01*
X158866666Y-67864342D02*
X158819047Y-67959580D01*
X158819047Y-67959580D02*
X158771428Y-68007200D01*
X158771428Y-68007200D02*
X158676190Y-68054819D01*
X158676190Y-68054819D02*
X158533333Y-68054819D01*
X159295238Y-67388152D02*
X159295238Y-68054819D01*
X159295238Y-67483390D02*
X159342857Y-67435771D01*
X159342857Y-67435771D02*
X159438095Y-67388152D01*
X159438095Y-67388152D02*
X159580952Y-67388152D01*
X159580952Y-67388152D02*
X159676190Y-67435771D01*
X159676190Y-67435771D02*
X159723809Y-67531009D01*
X159723809Y-67531009D02*
X159723809Y-68054819D01*
X160200000Y-67388152D02*
X160200000Y-68054819D01*
X160200000Y-67483390D02*
X160247619Y-67435771D01*
X160247619Y-67435771D02*
X160342857Y-67388152D01*
X160342857Y-67388152D02*
X160485714Y-67388152D01*
X160485714Y-67388152D02*
X160580952Y-67435771D01*
X160580952Y-67435771D02*
X160628571Y-67531009D01*
X160628571Y-67531009D02*
X160628571Y-68054819D01*
X160866667Y-68150057D02*
X161628571Y-68150057D01*
X162057143Y-67054819D02*
X162152381Y-67054819D01*
X162152381Y-67054819D02*
X162247619Y-67102438D01*
X162247619Y-67102438D02*
X162295238Y-67150057D01*
X162295238Y-67150057D02*
X162342857Y-67245295D01*
X162342857Y-67245295D02*
X162390476Y-67435771D01*
X162390476Y-67435771D02*
X162390476Y-67673866D01*
X162390476Y-67673866D02*
X162342857Y-67864342D01*
X162342857Y-67864342D02*
X162295238Y-67959580D01*
X162295238Y-67959580D02*
X162247619Y-68007200D01*
X162247619Y-68007200D02*
X162152381Y-68054819D01*
X162152381Y-68054819D02*
X162057143Y-68054819D01*
X162057143Y-68054819D02*
X161961905Y-68007200D01*
X161961905Y-68007200D02*
X161914286Y-67959580D01*
X161914286Y-67959580D02*
X161866667Y-67864342D01*
X161866667Y-67864342D02*
X161819048Y-67673866D01*
X161819048Y-67673866D02*
X161819048Y-67435771D01*
X161819048Y-67435771D02*
X161866667Y-67245295D01*
X161866667Y-67245295D02*
X161914286Y-67150057D01*
X161914286Y-67150057D02*
X161961905Y-67102438D01*
X161961905Y-67102438D02*
X162057143Y-67054819D01*
X163342857Y-68054819D02*
X162771429Y-68054819D01*
X163057143Y-68054819D02*
X163057143Y-67054819D01*
X163057143Y-67054819D02*
X162961905Y-67197676D01*
X162961905Y-67197676D02*
X162866667Y-67292914D01*
X162866667Y-67292914D02*
X162771429Y-67340533D01*
X163676191Y-68054819D02*
X164200000Y-67388152D01*
X163676191Y-67388152D02*
X164200000Y-68054819D01*
X164771429Y-67054819D02*
X164866667Y-67054819D01*
X164866667Y-67054819D02*
X164961905Y-67102438D01*
X164961905Y-67102438D02*
X165009524Y-67150057D01*
X165009524Y-67150057D02*
X165057143Y-67245295D01*
X165057143Y-67245295D02*
X165104762Y-67435771D01*
X165104762Y-67435771D02*
X165104762Y-67673866D01*
X165104762Y-67673866D02*
X165057143Y-67864342D01*
X165057143Y-67864342D02*
X165009524Y-67959580D01*
X165009524Y-67959580D02*
X164961905Y-68007200D01*
X164961905Y-68007200D02*
X164866667Y-68054819D01*
X164866667Y-68054819D02*
X164771429Y-68054819D01*
X164771429Y-68054819D02*
X164676191Y-68007200D01*
X164676191Y-68007200D02*
X164628572Y-67959580D01*
X164628572Y-67959580D02*
X164580953Y-67864342D01*
X164580953Y-67864342D02*
X164533334Y-67673866D01*
X164533334Y-67673866D02*
X164533334Y-67435771D01*
X164533334Y-67435771D02*
X164580953Y-67245295D01*
X164580953Y-67245295D02*
X164628572Y-67150057D01*
X164628572Y-67150057D02*
X164676191Y-67102438D01*
X164676191Y-67102438D02*
X164771429Y-67054819D01*
X165676191Y-67483390D02*
X165580953Y-67435771D01*
X165580953Y-67435771D02*
X165533334Y-67388152D01*
X165533334Y-67388152D02*
X165485715Y-67292914D01*
X165485715Y-67292914D02*
X165485715Y-67245295D01*
X165485715Y-67245295D02*
X165533334Y-67150057D01*
X165533334Y-67150057D02*
X165580953Y-67102438D01*
X165580953Y-67102438D02*
X165676191Y-67054819D01*
X165676191Y-67054819D02*
X165866667Y-67054819D01*
X165866667Y-67054819D02*
X165961905Y-67102438D01*
X165961905Y-67102438D02*
X166009524Y-67150057D01*
X166009524Y-67150057D02*
X166057143Y-67245295D01*
X166057143Y-67245295D02*
X166057143Y-67292914D01*
X166057143Y-67292914D02*
X166009524Y-67388152D01*
X166009524Y-67388152D02*
X165961905Y-67435771D01*
X165961905Y-67435771D02*
X165866667Y-67483390D01*
X165866667Y-67483390D02*
X165676191Y-67483390D01*
X165676191Y-67483390D02*
X165580953Y-67531009D01*
X165580953Y-67531009D02*
X165533334Y-67578628D01*
X165533334Y-67578628D02*
X165485715Y-67673866D01*
X165485715Y-67673866D02*
X165485715Y-67864342D01*
X165485715Y-67864342D02*
X165533334Y-67959580D01*
X165533334Y-67959580D02*
X165580953Y-68007200D01*
X165580953Y-68007200D02*
X165676191Y-68054819D01*
X165676191Y-68054819D02*
X165866667Y-68054819D01*
X165866667Y-68054819D02*
X165961905Y-68007200D01*
X165961905Y-68007200D02*
X166009524Y-67959580D01*
X166009524Y-67959580D02*
X166057143Y-67864342D01*
X166057143Y-67864342D02*
X166057143Y-67673866D01*
X166057143Y-67673866D02*
X166009524Y-67578628D01*
X166009524Y-67578628D02*
X165961905Y-67531009D01*
X165961905Y-67531009D02*
X165866667Y-67483390D01*
X163404819Y-56523333D02*
X164119104Y-56523333D01*
X164119104Y-56523333D02*
X164261961Y-56570952D01*
X164261961Y-56570952D02*
X164357200Y-56666190D01*
X164357200Y-56666190D02*
X164404819Y-56809047D01*
X164404819Y-56809047D02*
X164404819Y-56904285D01*
X163404819Y-55570952D02*
X163404819Y-56047142D01*
X163404819Y-56047142D02*
X163881009Y-56094761D01*
X163881009Y-56094761D02*
X163833390Y-56047142D01*
X163833390Y-56047142D02*
X163785771Y-55951904D01*
X163785771Y-55951904D02*
X163785771Y-55713809D01*
X163785771Y-55713809D02*
X163833390Y-55618571D01*
X163833390Y-55618571D02*
X163881009Y-55570952D01*
X163881009Y-55570952D02*
X163976247Y-55523333D01*
X163976247Y-55523333D02*
X164214342Y-55523333D01*
X164214342Y-55523333D02*
X164309580Y-55570952D01*
X164309580Y-55570952D02*
X164357200Y-55618571D01*
X164357200Y-55618571D02*
X164404819Y-55713809D01*
X164404819Y-55713809D02*
X164404819Y-55951904D01*
X164404819Y-55951904D02*
X164357200Y-56047142D01*
X164357200Y-56047142D02*
X164309580Y-56094761D01*
X137534580Y-70563095D02*
X137582200Y-70610714D01*
X137582200Y-70610714D02*
X137629819Y-70753571D01*
X137629819Y-70753571D02*
X137629819Y-70848809D01*
X137629819Y-70848809D02*
X137582200Y-70991666D01*
X137582200Y-70991666D02*
X137486961Y-71086904D01*
X137486961Y-71086904D02*
X137391723Y-71134523D01*
X137391723Y-71134523D02*
X137201247Y-71182142D01*
X137201247Y-71182142D02*
X137058390Y-71182142D01*
X137058390Y-71182142D02*
X136867914Y-71134523D01*
X136867914Y-71134523D02*
X136772676Y-71086904D01*
X136772676Y-71086904D02*
X136677438Y-70991666D01*
X136677438Y-70991666D02*
X136629819Y-70848809D01*
X136629819Y-70848809D02*
X136629819Y-70753571D01*
X136629819Y-70753571D02*
X136677438Y-70610714D01*
X136677438Y-70610714D02*
X136725057Y-70563095D01*
X137629819Y-69991666D02*
X137582200Y-70086904D01*
X137582200Y-70086904D02*
X137534580Y-70134523D01*
X137534580Y-70134523D02*
X137439342Y-70182142D01*
X137439342Y-70182142D02*
X137153628Y-70182142D01*
X137153628Y-70182142D02*
X137058390Y-70134523D01*
X137058390Y-70134523D02*
X137010771Y-70086904D01*
X137010771Y-70086904D02*
X136963152Y-69991666D01*
X136963152Y-69991666D02*
X136963152Y-69848809D01*
X136963152Y-69848809D02*
X137010771Y-69753571D01*
X137010771Y-69753571D02*
X137058390Y-69705952D01*
X137058390Y-69705952D02*
X137153628Y-69658333D01*
X137153628Y-69658333D02*
X137439342Y-69658333D01*
X137439342Y-69658333D02*
X137534580Y-69705952D01*
X137534580Y-69705952D02*
X137582200Y-69753571D01*
X137582200Y-69753571D02*
X137629819Y-69848809D01*
X137629819Y-69848809D02*
X137629819Y-69991666D01*
X136963152Y-69229761D02*
X137629819Y-69229761D01*
X137058390Y-69229761D02*
X137010771Y-69182142D01*
X137010771Y-69182142D02*
X136963152Y-69086904D01*
X136963152Y-69086904D02*
X136963152Y-68944047D01*
X136963152Y-68944047D02*
X137010771Y-68848809D01*
X137010771Y-68848809D02*
X137106009Y-68801190D01*
X137106009Y-68801190D02*
X137629819Y-68801190D01*
X136963152Y-68324999D02*
X137629819Y-68324999D01*
X137058390Y-68324999D02*
X137010771Y-68277380D01*
X137010771Y-68277380D02*
X136963152Y-68182142D01*
X136963152Y-68182142D02*
X136963152Y-68039285D01*
X136963152Y-68039285D02*
X137010771Y-67944047D01*
X137010771Y-67944047D02*
X137106009Y-67896428D01*
X137106009Y-67896428D02*
X137629819Y-67896428D01*
X137725057Y-67658333D02*
X137725057Y-66896428D01*
X136629819Y-66467856D02*
X136629819Y-66372618D01*
X136629819Y-66372618D02*
X136677438Y-66277380D01*
X136677438Y-66277380D02*
X136725057Y-66229761D01*
X136725057Y-66229761D02*
X136820295Y-66182142D01*
X136820295Y-66182142D02*
X137010771Y-66134523D01*
X137010771Y-66134523D02*
X137248866Y-66134523D01*
X137248866Y-66134523D02*
X137439342Y-66182142D01*
X137439342Y-66182142D02*
X137534580Y-66229761D01*
X137534580Y-66229761D02*
X137582200Y-66277380D01*
X137582200Y-66277380D02*
X137629819Y-66372618D01*
X137629819Y-66372618D02*
X137629819Y-66467856D01*
X137629819Y-66467856D02*
X137582200Y-66563094D01*
X137582200Y-66563094D02*
X137534580Y-66610713D01*
X137534580Y-66610713D02*
X137439342Y-66658332D01*
X137439342Y-66658332D02*
X137248866Y-66705951D01*
X137248866Y-66705951D02*
X137010771Y-66705951D01*
X137010771Y-66705951D02*
X136820295Y-66658332D01*
X136820295Y-66658332D02*
X136725057Y-66610713D01*
X136725057Y-66610713D02*
X136677438Y-66563094D01*
X136677438Y-66563094D02*
X136629819Y-66467856D01*
X137629819Y-65182142D02*
X137629819Y-65753570D01*
X137629819Y-65467856D02*
X136629819Y-65467856D01*
X136629819Y-65467856D02*
X136772676Y-65563094D01*
X136772676Y-65563094D02*
X136867914Y-65658332D01*
X136867914Y-65658332D02*
X136915533Y-65753570D01*
X137629819Y-64848808D02*
X136963152Y-64324999D01*
X136963152Y-64848808D02*
X137629819Y-64324999D01*
X136629819Y-63753570D02*
X136629819Y-63658332D01*
X136629819Y-63658332D02*
X136677438Y-63563094D01*
X136677438Y-63563094D02*
X136725057Y-63515475D01*
X136725057Y-63515475D02*
X136820295Y-63467856D01*
X136820295Y-63467856D02*
X137010771Y-63420237D01*
X137010771Y-63420237D02*
X137248866Y-63420237D01*
X137248866Y-63420237D02*
X137439342Y-63467856D01*
X137439342Y-63467856D02*
X137534580Y-63515475D01*
X137534580Y-63515475D02*
X137582200Y-63563094D01*
X137582200Y-63563094D02*
X137629819Y-63658332D01*
X137629819Y-63658332D02*
X137629819Y-63753570D01*
X137629819Y-63753570D02*
X137582200Y-63848808D01*
X137582200Y-63848808D02*
X137534580Y-63896427D01*
X137534580Y-63896427D02*
X137439342Y-63944046D01*
X137439342Y-63944046D02*
X137248866Y-63991665D01*
X137248866Y-63991665D02*
X137010771Y-63991665D01*
X137010771Y-63991665D02*
X136820295Y-63944046D01*
X136820295Y-63944046D02*
X136725057Y-63896427D01*
X136725057Y-63896427D02*
X136677438Y-63848808D01*
X136677438Y-63848808D02*
X136629819Y-63753570D01*
X136725057Y-63039284D02*
X136677438Y-62991665D01*
X136677438Y-62991665D02*
X136629819Y-62896427D01*
X136629819Y-62896427D02*
X136629819Y-62658332D01*
X136629819Y-62658332D02*
X136677438Y-62563094D01*
X136677438Y-62563094D02*
X136725057Y-62515475D01*
X136725057Y-62515475D02*
X136820295Y-62467856D01*
X136820295Y-62467856D02*
X136915533Y-62467856D01*
X136915533Y-62467856D02*
X137058390Y-62515475D01*
X137058390Y-62515475D02*
X137629819Y-63086903D01*
X137629819Y-63086903D02*
X137629819Y-62467856D01*
X134529819Y-66558333D02*
X135244104Y-66558333D01*
X135244104Y-66558333D02*
X135386961Y-66605952D01*
X135386961Y-66605952D02*
X135482200Y-66701190D01*
X135482200Y-66701190D02*
X135529819Y-66844047D01*
X135529819Y-66844047D02*
X135529819Y-66939285D01*
X134863152Y-65653571D02*
X135529819Y-65653571D01*
X134482200Y-65891666D02*
X135196485Y-66129761D01*
X135196485Y-66129761D02*
X135196485Y-65510714D01*
X152334819Y-48967856D02*
X152334819Y-48872618D01*
X152334819Y-48872618D02*
X152382438Y-48777380D01*
X152382438Y-48777380D02*
X152430057Y-48729761D01*
X152430057Y-48729761D02*
X152525295Y-48682142D01*
X152525295Y-48682142D02*
X152715771Y-48634523D01*
X152715771Y-48634523D02*
X152953866Y-48634523D01*
X152953866Y-48634523D02*
X153144342Y-48682142D01*
X153144342Y-48682142D02*
X153239580Y-48729761D01*
X153239580Y-48729761D02*
X153287200Y-48777380D01*
X153287200Y-48777380D02*
X153334819Y-48872618D01*
X153334819Y-48872618D02*
X153334819Y-48967856D01*
X153334819Y-48967856D02*
X153287200Y-49063094D01*
X153287200Y-49063094D02*
X153239580Y-49110713D01*
X153239580Y-49110713D02*
X153144342Y-49158332D01*
X153144342Y-49158332D02*
X152953866Y-49205951D01*
X152953866Y-49205951D02*
X152715771Y-49205951D01*
X152715771Y-49205951D02*
X152525295Y-49158332D01*
X152525295Y-49158332D02*
X152430057Y-49110713D01*
X152430057Y-49110713D02*
X152382438Y-49063094D01*
X152382438Y-49063094D02*
X152334819Y-48967856D01*
X153239580Y-48205951D02*
X153287200Y-48158332D01*
X153287200Y-48158332D02*
X153334819Y-48205951D01*
X153334819Y-48205951D02*
X153287200Y-48253570D01*
X153287200Y-48253570D02*
X153239580Y-48205951D01*
X153239580Y-48205951D02*
X153334819Y-48205951D01*
X153334819Y-47205952D02*
X153334819Y-47777380D01*
X153334819Y-47491666D02*
X152334819Y-47491666D01*
X152334819Y-47491666D02*
X152477676Y-47586904D01*
X152477676Y-47586904D02*
X152572914Y-47682142D01*
X152572914Y-47682142D02*
X152620533Y-47777380D01*
X152668152Y-46348809D02*
X153334819Y-46348809D01*
X152668152Y-46777380D02*
X153191961Y-46777380D01*
X153191961Y-46777380D02*
X153287200Y-46729761D01*
X153287200Y-46729761D02*
X153334819Y-46634523D01*
X153334819Y-46634523D02*
X153334819Y-46491666D01*
X153334819Y-46491666D02*
X153287200Y-46396428D01*
X153287200Y-46396428D02*
X153239580Y-46348809D01*
X152811009Y-45539285D02*
X152811009Y-45872618D01*
X153334819Y-45872618D02*
X152334819Y-45872618D01*
X152334819Y-45872618D02*
X152334819Y-45396428D01*
D43*
X151379530Y-47408333D02*
X151403340Y-47432142D01*
X151403340Y-47432142D02*
X151427149Y-47503571D01*
X151427149Y-47503571D02*
X151427149Y-47551190D01*
X151427149Y-47551190D02*
X151403340Y-47622618D01*
X151403340Y-47622618D02*
X151355720Y-47670237D01*
X151355720Y-47670237D02*
X151308101Y-47694047D01*
X151308101Y-47694047D02*
X151212863Y-47717856D01*
X151212863Y-47717856D02*
X151141435Y-47717856D01*
X151141435Y-47717856D02*
X151046197Y-47694047D01*
X151046197Y-47694047D02*
X150998578Y-47670237D01*
X150998578Y-47670237D02*
X150950959Y-47622618D01*
X150950959Y-47622618D02*
X150927149Y-47551190D01*
X150927149Y-47551190D02*
X150927149Y-47503571D01*
X150927149Y-47503571D02*
X150950959Y-47432142D01*
X150950959Y-47432142D02*
X150974768Y-47408333D01*
X150974768Y-47217856D02*
X150950959Y-47194047D01*
X150950959Y-47194047D02*
X150927149Y-47146428D01*
X150927149Y-47146428D02*
X150927149Y-47027380D01*
X150927149Y-47027380D02*
X150950959Y-46979761D01*
X150950959Y-46979761D02*
X150974768Y-46955952D01*
X150974768Y-46955952D02*
X151022387Y-46932142D01*
X151022387Y-46932142D02*
X151070006Y-46932142D01*
X151070006Y-46932142D02*
X151141435Y-46955952D01*
X151141435Y-46955952D02*
X151427149Y-47241666D01*
X151427149Y-47241666D02*
X151427149Y-46932142D01*
D10*
X157959523Y-61354819D02*
X157388095Y-61354819D01*
X157673809Y-61354819D02*
X157673809Y-60354819D01*
X157673809Y-60354819D02*
X157578571Y-60497676D01*
X157578571Y-60497676D02*
X157483333Y-60592914D01*
X157483333Y-60592914D02*
X157388095Y-60640533D01*
X158578571Y-60354819D02*
X158673809Y-60354819D01*
X158673809Y-60354819D02*
X158769047Y-60402438D01*
X158769047Y-60402438D02*
X158816666Y-60450057D01*
X158816666Y-60450057D02*
X158864285Y-60545295D01*
X158864285Y-60545295D02*
X158911904Y-60735771D01*
X158911904Y-60735771D02*
X158911904Y-60973866D01*
X158911904Y-60973866D02*
X158864285Y-61164342D01*
X158864285Y-61164342D02*
X158816666Y-61259580D01*
X158816666Y-61259580D02*
X158769047Y-61307200D01*
X158769047Y-61307200D02*
X158673809Y-61354819D01*
X158673809Y-61354819D02*
X158578571Y-61354819D01*
X158578571Y-61354819D02*
X158483333Y-61307200D01*
X158483333Y-61307200D02*
X158435714Y-61259580D01*
X158435714Y-61259580D02*
X158388095Y-61164342D01*
X158388095Y-61164342D02*
X158340476Y-60973866D01*
X158340476Y-60973866D02*
X158340476Y-60735771D01*
X158340476Y-60735771D02*
X158388095Y-60545295D01*
X158388095Y-60545295D02*
X158435714Y-60450057D01*
X158435714Y-60450057D02*
X158483333Y-60402438D01*
X158483333Y-60402438D02*
X158578571Y-60354819D01*
X159340476Y-61354819D02*
X159340476Y-60354819D01*
X159911904Y-61354819D02*
X159483333Y-60783390D01*
X159911904Y-60354819D02*
X159340476Y-60926247D01*
D43*
X158704166Y-63152149D02*
X158537500Y-62914054D01*
X158418452Y-63152149D02*
X158418452Y-62652149D01*
X158418452Y-62652149D02*
X158608928Y-62652149D01*
X158608928Y-62652149D02*
X158656547Y-62675959D01*
X158656547Y-62675959D02*
X158680357Y-62699768D01*
X158680357Y-62699768D02*
X158704166Y-62747387D01*
X158704166Y-62747387D02*
X158704166Y-62818816D01*
X158704166Y-62818816D02*
X158680357Y-62866435D01*
X158680357Y-62866435D02*
X158656547Y-62890244D01*
X158656547Y-62890244D02*
X158608928Y-62914054D01*
X158608928Y-62914054D02*
X158418452Y-62914054D01*
X159180357Y-63152149D02*
X158894643Y-63152149D01*
X159037500Y-63152149D02*
X159037500Y-62652149D01*
X159037500Y-62652149D02*
X158989881Y-62723578D01*
X158989881Y-62723578D02*
X158942262Y-62771197D01*
X158942262Y-62771197D02*
X158894643Y-62795006D01*
D10*
X139111904Y-67634580D02*
X139064285Y-67682200D01*
X139064285Y-67682200D02*
X138921428Y-67729819D01*
X138921428Y-67729819D02*
X138826190Y-67729819D01*
X138826190Y-67729819D02*
X138683333Y-67682200D01*
X138683333Y-67682200D02*
X138588095Y-67586961D01*
X138588095Y-67586961D02*
X138540476Y-67491723D01*
X138540476Y-67491723D02*
X138492857Y-67301247D01*
X138492857Y-67301247D02*
X138492857Y-67158390D01*
X138492857Y-67158390D02*
X138540476Y-66967914D01*
X138540476Y-66967914D02*
X138588095Y-66872676D01*
X138588095Y-66872676D02*
X138683333Y-66777438D01*
X138683333Y-66777438D02*
X138826190Y-66729819D01*
X138826190Y-66729819D02*
X138921428Y-66729819D01*
X138921428Y-66729819D02*
X139064285Y-66777438D01*
X139064285Y-66777438D02*
X139111904Y-66825057D01*
X139683333Y-67729819D02*
X139588095Y-67682200D01*
X139588095Y-67682200D02*
X139540476Y-67634580D01*
X139540476Y-67634580D02*
X139492857Y-67539342D01*
X139492857Y-67539342D02*
X139492857Y-67253628D01*
X139492857Y-67253628D02*
X139540476Y-67158390D01*
X139540476Y-67158390D02*
X139588095Y-67110771D01*
X139588095Y-67110771D02*
X139683333Y-67063152D01*
X139683333Y-67063152D02*
X139826190Y-67063152D01*
X139826190Y-67063152D02*
X139921428Y-67110771D01*
X139921428Y-67110771D02*
X139969047Y-67158390D01*
X139969047Y-67158390D02*
X140016666Y-67253628D01*
X140016666Y-67253628D02*
X140016666Y-67539342D01*
X140016666Y-67539342D02*
X139969047Y-67634580D01*
X139969047Y-67634580D02*
X139921428Y-67682200D01*
X139921428Y-67682200D02*
X139826190Y-67729819D01*
X139826190Y-67729819D02*
X139683333Y-67729819D01*
X140445238Y-67063152D02*
X140445238Y-67729819D01*
X140445238Y-67158390D02*
X140492857Y-67110771D01*
X140492857Y-67110771D02*
X140588095Y-67063152D01*
X140588095Y-67063152D02*
X140730952Y-67063152D01*
X140730952Y-67063152D02*
X140826190Y-67110771D01*
X140826190Y-67110771D02*
X140873809Y-67206009D01*
X140873809Y-67206009D02*
X140873809Y-67729819D01*
X141350000Y-67063152D02*
X141350000Y-67729819D01*
X141350000Y-67158390D02*
X141397619Y-67110771D01*
X141397619Y-67110771D02*
X141492857Y-67063152D01*
X141492857Y-67063152D02*
X141635714Y-67063152D01*
X141635714Y-67063152D02*
X141730952Y-67110771D01*
X141730952Y-67110771D02*
X141778571Y-67206009D01*
X141778571Y-67206009D02*
X141778571Y-67729819D01*
X142016667Y-67825057D02*
X142778571Y-67825057D01*
X143207143Y-66729819D02*
X143302381Y-66729819D01*
X143302381Y-66729819D02*
X143397619Y-66777438D01*
X143397619Y-66777438D02*
X143445238Y-66825057D01*
X143445238Y-66825057D02*
X143492857Y-66920295D01*
X143492857Y-66920295D02*
X143540476Y-67110771D01*
X143540476Y-67110771D02*
X143540476Y-67348866D01*
X143540476Y-67348866D02*
X143492857Y-67539342D01*
X143492857Y-67539342D02*
X143445238Y-67634580D01*
X143445238Y-67634580D02*
X143397619Y-67682200D01*
X143397619Y-67682200D02*
X143302381Y-67729819D01*
X143302381Y-67729819D02*
X143207143Y-67729819D01*
X143207143Y-67729819D02*
X143111905Y-67682200D01*
X143111905Y-67682200D02*
X143064286Y-67634580D01*
X143064286Y-67634580D02*
X143016667Y-67539342D01*
X143016667Y-67539342D02*
X142969048Y-67348866D01*
X142969048Y-67348866D02*
X142969048Y-67110771D01*
X142969048Y-67110771D02*
X143016667Y-66920295D01*
X143016667Y-66920295D02*
X143064286Y-66825057D01*
X143064286Y-66825057D02*
X143111905Y-66777438D01*
X143111905Y-66777438D02*
X143207143Y-66729819D01*
X144492857Y-67729819D02*
X143921429Y-67729819D01*
X144207143Y-67729819D02*
X144207143Y-66729819D01*
X144207143Y-66729819D02*
X144111905Y-66872676D01*
X144111905Y-66872676D02*
X144016667Y-66967914D01*
X144016667Y-66967914D02*
X143921429Y-67015533D01*
X144826191Y-67729819D02*
X145350000Y-67063152D01*
X144826191Y-67063152D02*
X145350000Y-67729819D01*
X145921429Y-66729819D02*
X146016667Y-66729819D01*
X146016667Y-66729819D02*
X146111905Y-66777438D01*
X146111905Y-66777438D02*
X146159524Y-66825057D01*
X146159524Y-66825057D02*
X146207143Y-66920295D01*
X146207143Y-66920295D02*
X146254762Y-67110771D01*
X146254762Y-67110771D02*
X146254762Y-67348866D01*
X146254762Y-67348866D02*
X146207143Y-67539342D01*
X146207143Y-67539342D02*
X146159524Y-67634580D01*
X146159524Y-67634580D02*
X146111905Y-67682200D01*
X146111905Y-67682200D02*
X146016667Y-67729819D01*
X146016667Y-67729819D02*
X145921429Y-67729819D01*
X145921429Y-67729819D02*
X145826191Y-67682200D01*
X145826191Y-67682200D02*
X145778572Y-67634580D01*
X145778572Y-67634580D02*
X145730953Y-67539342D01*
X145730953Y-67539342D02*
X145683334Y-67348866D01*
X145683334Y-67348866D02*
X145683334Y-67110771D01*
X145683334Y-67110771D02*
X145730953Y-66920295D01*
X145730953Y-66920295D02*
X145778572Y-66825057D01*
X145778572Y-66825057D02*
X145826191Y-66777438D01*
X145826191Y-66777438D02*
X145921429Y-66729819D01*
X146635715Y-66825057D02*
X146683334Y-66777438D01*
X146683334Y-66777438D02*
X146778572Y-66729819D01*
X146778572Y-66729819D02*
X147016667Y-66729819D01*
X147016667Y-66729819D02*
X147111905Y-66777438D01*
X147111905Y-66777438D02*
X147159524Y-66825057D01*
X147159524Y-66825057D02*
X147207143Y-66920295D01*
X147207143Y-66920295D02*
X147207143Y-67015533D01*
X147207143Y-67015533D02*
X147159524Y-67158390D01*
X147159524Y-67158390D02*
X146588096Y-67729819D01*
X146588096Y-67729819D02*
X147207143Y-67729819D01*
X142141666Y-68779819D02*
X142141666Y-69494104D01*
X142141666Y-69494104D02*
X142094047Y-69636961D01*
X142094047Y-69636961D02*
X141998809Y-69732200D01*
X141998809Y-69732200D02*
X141855952Y-69779819D01*
X141855952Y-69779819D02*
X141760714Y-69779819D01*
X142570238Y-68875057D02*
X142617857Y-68827438D01*
X142617857Y-68827438D02*
X142713095Y-68779819D01*
X142713095Y-68779819D02*
X142951190Y-68779819D01*
X142951190Y-68779819D02*
X143046428Y-68827438D01*
X143046428Y-68827438D02*
X143094047Y-68875057D01*
X143094047Y-68875057D02*
X143141666Y-68970295D01*
X143141666Y-68970295D02*
X143141666Y-69065533D01*
X143141666Y-69065533D02*
X143094047Y-69208390D01*
X143094047Y-69208390D02*
X142522619Y-69779819D01*
X142522619Y-69779819D02*
X143141666Y-69779819D01*
%TO.C,C3*%
D44*
X149387500Y-72883605D02*
X149887500Y-72883605D01*
X149637500Y-73133605D02*
X149637500Y-72633605D01*
X153225000Y-71000000D02*
G75*
G02*
X148225000Y-71000000I-2500000J0D01*
G01*
X148225000Y-71000000D02*
G75*
G02*
X153225000Y-71000000I2500000J0D01*
G01*
%TO.C,J1*%
X134875000Y-46475000D02*
X135875000Y-47100000D01*
X135875000Y-45850000D02*
X134875000Y-46475000D01*
X130125000Y-44025000D02*
X135875000Y-44025000D01*
X135875000Y-51425000D01*
X130125000Y-51425000D01*
X130125000Y-44025000D01*
%TO.C,C1*%
X141112500Y-49083605D02*
X141612500Y-49083605D01*
X141362500Y-49333605D02*
X141362500Y-48833605D01*
X144950000Y-47200000D02*
G75*
G02*
X139950000Y-47200000I-2500000J0D01*
G01*
X139950000Y-47200000D02*
G75*
G02*
X144950000Y-47200000I2500000J0D01*
G01*
%TO.C,C4*%
X156975000Y-70100000D02*
X158225000Y-70100000D01*
X158225000Y-72100000D01*
X156975000Y-72100000D01*
X156975000Y-70100000D01*
%TO.C,J3*%
X134600000Y-55575000D02*
X135600000Y-56200000D01*
X135600000Y-54950000D02*
X134600000Y-55575000D01*
X129850000Y-53125000D02*
X135600000Y-53125000D01*
X135600000Y-60525000D01*
X129850000Y-60525000D01*
X129850000Y-53125000D01*
%TO.C,U1*%
X144325000Y-55120000D02*
X148625000Y-55120000D01*
X148625000Y-63320000D01*
X143325000Y-63320000D01*
X143325000Y-56120000D01*
X144325000Y-55120000D01*
%TO.C,J5*%
X162680000Y-46665000D02*
X163315000Y-46030000D01*
X162680000Y-66350000D02*
X162680000Y-46665000D01*
X163315000Y-46030000D02*
X165220000Y-46030000D01*
X165220000Y-46030000D02*
X165220000Y-66350000D01*
X165220000Y-66350000D02*
X162680000Y-66350000D01*
%TO.C,J4*%
X130025000Y-68100000D02*
X131025000Y-67475000D01*
X131025000Y-67475000D02*
X130025000Y-66850000D01*
X130025000Y-62525000D02*
X135775000Y-62525000D01*
X135775000Y-69925000D01*
X130025000Y-69925000D01*
X130025000Y-62525000D01*
%TO.C,C2*%
X150575000Y-46325000D02*
X151825000Y-46325000D01*
X151825000Y-48325000D01*
X150575000Y-48325000D01*
X150575000Y-46325000D01*
%TO.C,R1*%
X157787500Y-62300000D02*
X159787500Y-62300000D01*
X159787500Y-63550000D01*
X157787500Y-63550000D01*
X157787500Y-62300000D01*
%TO.C,J2*%
X143725000Y-73375000D02*
X143100000Y-74375000D01*
X144350000Y-74375000D02*
X143725000Y-73375000D01*
X138775000Y-68625000D02*
X146175000Y-68625000D01*
X146175000Y-74375000D01*
X138775000Y-74375000D01*
X138775000Y-68625000D01*
%TD*%
M02*
