%TF.GenerationSoftware,KiCad,Pcbnew,10.0.3*%
%TF.CreationDate,2026-08-30T02:51:34+05:30*%
%TF.ProjectId,AC_to_DCconv,41435f74-6f5f-4444-9363-6f6e762e6b69,rev?*%
%TF.SameCoordinates,Original*%
%TF.FileFunction,Legend,Top*%
%TF.FilePolarity,Positive*%
%FSLAX46Y46*%
G04 Gerber Fmt 4.6, Leading zero omitted, Abs format (unit mm)*
G04 Created by KiCad (PCBNEW 10.0.3) date 2026-08-30 02:51:34*
%MOMM*%
%LPD*%
G01*
G04 APERTURE LIST*
%ADD10C,0.100000*%
%ADD11C,0.150000*%
%ADD12C,0.120000*%
G04 APERTURE END LIST*
D10*
X106756265Y-62086704D02*
X107232455Y-62086704D01*
X106661027Y-62372419D02*
X106994360Y-61372419D01*
X106994360Y-61372419D02*
X107327693Y-62372419D01*
X108232455Y-62277180D02*
X108184836Y-62324800D01*
X108184836Y-62324800D02*
X108041979Y-62372419D01*
X108041979Y-62372419D02*
X107946741Y-62372419D01*
X107946741Y-62372419D02*
X107803884Y-62324800D01*
X107803884Y-62324800D02*
X107708646Y-62229561D01*
X107708646Y-62229561D02*
X107661027Y-62134323D01*
X107661027Y-62134323D02*
X107613408Y-61943847D01*
X107613408Y-61943847D02*
X107613408Y-61800990D01*
X107613408Y-61800990D02*
X107661027Y-61610514D01*
X107661027Y-61610514D02*
X107708646Y-61515276D01*
X107708646Y-61515276D02*
X107803884Y-61420038D01*
X107803884Y-61420038D02*
X107946741Y-61372419D01*
X107946741Y-61372419D02*
X108041979Y-61372419D01*
X108041979Y-61372419D02*
X108184836Y-61420038D01*
X108184836Y-61420038D02*
X108232455Y-61467657D01*
X109422932Y-62372419D02*
X109422932Y-61705752D01*
X109422932Y-61372419D02*
X109375313Y-61420038D01*
X109375313Y-61420038D02*
X109422932Y-61467657D01*
X109422932Y-61467657D02*
X109470551Y-61420038D01*
X109470551Y-61420038D02*
X109422932Y-61372419D01*
X109422932Y-61372419D02*
X109422932Y-61467657D01*
X109899122Y-61705752D02*
X109899122Y-62372419D01*
X109899122Y-61800990D02*
X109946741Y-61753371D01*
X109946741Y-61753371D02*
X110041979Y-61705752D01*
X110041979Y-61705752D02*
X110184836Y-61705752D01*
X110184836Y-61705752D02*
X110280074Y-61753371D01*
X110280074Y-61753371D02*
X110327693Y-61848609D01*
X110327693Y-61848609D02*
X110327693Y-62372419D01*
X106803884Y-96372419D02*
X106803884Y-95372419D01*
X106803884Y-95372419D02*
X107041979Y-95372419D01*
X107041979Y-95372419D02*
X107184836Y-95420038D01*
X107184836Y-95420038D02*
X107280074Y-95515276D01*
X107280074Y-95515276D02*
X107327693Y-95610514D01*
X107327693Y-95610514D02*
X107375312Y-95800990D01*
X107375312Y-95800990D02*
X107375312Y-95943847D01*
X107375312Y-95943847D02*
X107327693Y-96134323D01*
X107327693Y-96134323D02*
X107280074Y-96229561D01*
X107280074Y-96229561D02*
X107184836Y-96324800D01*
X107184836Y-96324800D02*
X107041979Y-96372419D01*
X107041979Y-96372419D02*
X106803884Y-96372419D01*
X108375312Y-96277180D02*
X108327693Y-96324800D01*
X108327693Y-96324800D02*
X108184836Y-96372419D01*
X108184836Y-96372419D02*
X108089598Y-96372419D01*
X108089598Y-96372419D02*
X107946741Y-96324800D01*
X107946741Y-96324800D02*
X107851503Y-96229561D01*
X107851503Y-96229561D02*
X107803884Y-96134323D01*
X107803884Y-96134323D02*
X107756265Y-95943847D01*
X107756265Y-95943847D02*
X107756265Y-95800990D01*
X107756265Y-95800990D02*
X107803884Y-95610514D01*
X107803884Y-95610514D02*
X107851503Y-95515276D01*
X107851503Y-95515276D02*
X107946741Y-95420038D01*
X107946741Y-95420038D02*
X108089598Y-95372419D01*
X108089598Y-95372419D02*
X108184836Y-95372419D01*
X108184836Y-95372419D02*
X108327693Y-95420038D01*
X108327693Y-95420038D02*
X108375312Y-95467657D01*
X109708646Y-96372419D02*
X109613408Y-96324800D01*
X109613408Y-96324800D02*
X109565789Y-96277180D01*
X109565789Y-96277180D02*
X109518170Y-96181942D01*
X109518170Y-96181942D02*
X109518170Y-95896228D01*
X109518170Y-95896228D02*
X109565789Y-95800990D01*
X109565789Y-95800990D02*
X109613408Y-95753371D01*
X109613408Y-95753371D02*
X109708646Y-95705752D01*
X109708646Y-95705752D02*
X109851503Y-95705752D01*
X109851503Y-95705752D02*
X109946741Y-95753371D01*
X109946741Y-95753371D02*
X109994360Y-95800990D01*
X109994360Y-95800990D02*
X110041979Y-95896228D01*
X110041979Y-95896228D02*
X110041979Y-96181942D01*
X110041979Y-96181942D02*
X109994360Y-96277180D01*
X109994360Y-96277180D02*
X109946741Y-96324800D01*
X109946741Y-96324800D02*
X109851503Y-96372419D01*
X109851503Y-96372419D02*
X109708646Y-96372419D01*
X110899122Y-95705752D02*
X110899122Y-96372419D01*
X110470551Y-95705752D02*
X110470551Y-96229561D01*
X110470551Y-96229561D02*
X110518170Y-96324800D01*
X110518170Y-96324800D02*
X110613408Y-96372419D01*
X110613408Y-96372419D02*
X110756265Y-96372419D01*
X110756265Y-96372419D02*
X110851503Y-96324800D01*
X110851503Y-96324800D02*
X110899122Y-96277180D01*
X111232456Y-95705752D02*
X111613408Y-95705752D01*
X111375313Y-95372419D02*
X111375313Y-96229561D01*
X111375313Y-96229561D02*
X111422932Y-96324800D01*
X111422932Y-96324800D02*
X111518170Y-96372419D01*
X111518170Y-96372419D02*
X111613408Y-96372419D01*
X140256265Y-97586704D02*
X140732455Y-97586704D01*
X140161027Y-97872419D02*
X140494360Y-96872419D01*
X140494360Y-96872419D02*
X140827693Y-97872419D01*
X141732455Y-97777180D02*
X141684836Y-97824800D01*
X141684836Y-97824800D02*
X141541979Y-97872419D01*
X141541979Y-97872419D02*
X141446741Y-97872419D01*
X141446741Y-97872419D02*
X141303884Y-97824800D01*
X141303884Y-97824800D02*
X141208646Y-97729561D01*
X141208646Y-97729561D02*
X141161027Y-97634323D01*
X141161027Y-97634323D02*
X141113408Y-97443847D01*
X141113408Y-97443847D02*
X141113408Y-97300990D01*
X141113408Y-97300990D02*
X141161027Y-97110514D01*
X141161027Y-97110514D02*
X141208646Y-97015276D01*
X141208646Y-97015276D02*
X141303884Y-96920038D01*
X141303884Y-96920038D02*
X141446741Y-96872419D01*
X141446741Y-96872419D02*
X141541979Y-96872419D01*
X141541979Y-96872419D02*
X141684836Y-96920038D01*
X141684836Y-96920038D02*
X141732455Y-96967657D01*
X142780075Y-97205752D02*
X143161027Y-97205752D01*
X142922932Y-96872419D02*
X142922932Y-97729561D01*
X142922932Y-97729561D02*
X142970551Y-97824800D01*
X142970551Y-97824800D02*
X143065789Y-97872419D01*
X143065789Y-97872419D02*
X143161027Y-97872419D01*
X143637218Y-97872419D02*
X143541980Y-97824800D01*
X143541980Y-97824800D02*
X143494361Y-97777180D01*
X143494361Y-97777180D02*
X143446742Y-97681942D01*
X143446742Y-97681942D02*
X143446742Y-97396228D01*
X143446742Y-97396228D02*
X143494361Y-97300990D01*
X143494361Y-97300990D02*
X143541980Y-97253371D01*
X143541980Y-97253371D02*
X143637218Y-97205752D01*
X143637218Y-97205752D02*
X143780075Y-97205752D01*
X143780075Y-97205752D02*
X143875313Y-97253371D01*
X143875313Y-97253371D02*
X143922932Y-97300990D01*
X143922932Y-97300990D02*
X143970551Y-97396228D01*
X143970551Y-97396228D02*
X143970551Y-97681942D01*
X143970551Y-97681942D02*
X143922932Y-97777180D01*
X143922932Y-97777180D02*
X143875313Y-97824800D01*
X143875313Y-97824800D02*
X143780075Y-97872419D01*
X143780075Y-97872419D02*
X143637218Y-97872419D01*
X145161028Y-97872419D02*
X145161028Y-96872419D01*
X145161028Y-96872419D02*
X145399123Y-96872419D01*
X145399123Y-96872419D02*
X145541980Y-96920038D01*
X145541980Y-96920038D02*
X145637218Y-97015276D01*
X145637218Y-97015276D02*
X145684837Y-97110514D01*
X145684837Y-97110514D02*
X145732456Y-97300990D01*
X145732456Y-97300990D02*
X145732456Y-97443847D01*
X145732456Y-97443847D02*
X145684837Y-97634323D01*
X145684837Y-97634323D02*
X145637218Y-97729561D01*
X145637218Y-97729561D02*
X145541980Y-97824800D01*
X145541980Y-97824800D02*
X145399123Y-97872419D01*
X145399123Y-97872419D02*
X145161028Y-97872419D01*
X146732456Y-97777180D02*
X146684837Y-97824800D01*
X146684837Y-97824800D02*
X146541980Y-97872419D01*
X146541980Y-97872419D02*
X146446742Y-97872419D01*
X146446742Y-97872419D02*
X146303885Y-97824800D01*
X146303885Y-97824800D02*
X146208647Y-97729561D01*
X146208647Y-97729561D02*
X146161028Y-97634323D01*
X146161028Y-97634323D02*
X146113409Y-97443847D01*
X146113409Y-97443847D02*
X146113409Y-97300990D01*
X146113409Y-97300990D02*
X146161028Y-97110514D01*
X146161028Y-97110514D02*
X146208647Y-97015276D01*
X146208647Y-97015276D02*
X146303885Y-96920038D01*
X146303885Y-96920038D02*
X146446742Y-96872419D01*
X146446742Y-96872419D02*
X146541980Y-96872419D01*
X146541980Y-96872419D02*
X146684837Y-96920038D01*
X146684837Y-96920038D02*
X146732456Y-96967657D01*
X148494361Y-97777180D02*
X148446742Y-97824800D01*
X148446742Y-97824800D02*
X148303885Y-97872419D01*
X148303885Y-97872419D02*
X148208647Y-97872419D01*
X148208647Y-97872419D02*
X148065790Y-97824800D01*
X148065790Y-97824800D02*
X147970552Y-97729561D01*
X147970552Y-97729561D02*
X147922933Y-97634323D01*
X147922933Y-97634323D02*
X147875314Y-97443847D01*
X147875314Y-97443847D02*
X147875314Y-97300990D01*
X147875314Y-97300990D02*
X147922933Y-97110514D01*
X147922933Y-97110514D02*
X147970552Y-97015276D01*
X147970552Y-97015276D02*
X148065790Y-96920038D01*
X148065790Y-96920038D02*
X148208647Y-96872419D01*
X148208647Y-96872419D02*
X148303885Y-96872419D01*
X148303885Y-96872419D02*
X148446742Y-96920038D01*
X148446742Y-96920038D02*
X148494361Y-96967657D01*
X149065790Y-97872419D02*
X148970552Y-97824800D01*
X148970552Y-97824800D02*
X148922933Y-97777180D01*
X148922933Y-97777180D02*
X148875314Y-97681942D01*
X148875314Y-97681942D02*
X148875314Y-97396228D01*
X148875314Y-97396228D02*
X148922933Y-97300990D01*
X148922933Y-97300990D02*
X148970552Y-97253371D01*
X148970552Y-97253371D02*
X149065790Y-97205752D01*
X149065790Y-97205752D02*
X149208647Y-97205752D01*
X149208647Y-97205752D02*
X149303885Y-97253371D01*
X149303885Y-97253371D02*
X149351504Y-97300990D01*
X149351504Y-97300990D02*
X149399123Y-97396228D01*
X149399123Y-97396228D02*
X149399123Y-97681942D01*
X149399123Y-97681942D02*
X149351504Y-97777180D01*
X149351504Y-97777180D02*
X149303885Y-97824800D01*
X149303885Y-97824800D02*
X149208647Y-97872419D01*
X149208647Y-97872419D02*
X149065790Y-97872419D01*
X149827695Y-97205752D02*
X149827695Y-97872419D01*
X149827695Y-97300990D02*
X149875314Y-97253371D01*
X149875314Y-97253371D02*
X149970552Y-97205752D01*
X149970552Y-97205752D02*
X150113409Y-97205752D01*
X150113409Y-97205752D02*
X150208647Y-97253371D01*
X150208647Y-97253371D02*
X150256266Y-97348609D01*
X150256266Y-97348609D02*
X150256266Y-97872419D01*
X150637219Y-97205752D02*
X150875314Y-97872419D01*
X150875314Y-97872419D02*
X151113409Y-97205752D01*
X151875314Y-97824800D02*
X151780076Y-97872419D01*
X151780076Y-97872419D02*
X151589600Y-97872419D01*
X151589600Y-97872419D02*
X151494362Y-97824800D01*
X151494362Y-97824800D02*
X151446743Y-97729561D01*
X151446743Y-97729561D02*
X151446743Y-97348609D01*
X151446743Y-97348609D02*
X151494362Y-97253371D01*
X151494362Y-97253371D02*
X151589600Y-97205752D01*
X151589600Y-97205752D02*
X151780076Y-97205752D01*
X151780076Y-97205752D02*
X151875314Y-97253371D01*
X151875314Y-97253371D02*
X151922933Y-97348609D01*
X151922933Y-97348609D02*
X151922933Y-97443847D01*
X151922933Y-97443847D02*
X151446743Y-97539085D01*
X152208648Y-97205752D02*
X152589600Y-97205752D01*
X152351505Y-96872419D02*
X152351505Y-97729561D01*
X152351505Y-97729561D02*
X152399124Y-97824800D01*
X152399124Y-97824800D02*
X152494362Y-97872419D01*
X152494362Y-97872419D02*
X152589600Y-97872419D01*
X153303886Y-97824800D02*
X153208648Y-97872419D01*
X153208648Y-97872419D02*
X153018172Y-97872419D01*
X153018172Y-97872419D02*
X152922934Y-97824800D01*
X152922934Y-97824800D02*
X152875315Y-97729561D01*
X152875315Y-97729561D02*
X152875315Y-97348609D01*
X152875315Y-97348609D02*
X152922934Y-97253371D01*
X152922934Y-97253371D02*
X153018172Y-97205752D01*
X153018172Y-97205752D02*
X153208648Y-97205752D01*
X153208648Y-97205752D02*
X153303886Y-97253371D01*
X153303886Y-97253371D02*
X153351505Y-97348609D01*
X153351505Y-97348609D02*
X153351505Y-97443847D01*
X153351505Y-97443847D02*
X152875315Y-97539085D01*
X153780077Y-97872419D02*
X153780077Y-97205752D01*
X153780077Y-97396228D02*
X153827696Y-97300990D01*
X153827696Y-97300990D02*
X153875315Y-97253371D01*
X153875315Y-97253371D02*
X153970553Y-97205752D01*
X153970553Y-97205752D02*
X154065791Y-97205752D01*
D11*
X140914819Y-69356666D02*
X140438628Y-69689999D01*
X140914819Y-69928094D02*
X139914819Y-69928094D01*
X139914819Y-69928094D02*
X139914819Y-69547142D01*
X139914819Y-69547142D02*
X139962438Y-69451904D01*
X139962438Y-69451904D02*
X140010057Y-69404285D01*
X140010057Y-69404285D02*
X140105295Y-69356666D01*
X140105295Y-69356666D02*
X140248152Y-69356666D01*
X140248152Y-69356666D02*
X140343390Y-69404285D01*
X140343390Y-69404285D02*
X140391009Y-69451904D01*
X140391009Y-69451904D02*
X140438628Y-69547142D01*
X140438628Y-69547142D02*
X140438628Y-69928094D01*
X140914819Y-68404285D02*
X140914819Y-68975713D01*
X140914819Y-68689999D02*
X139914819Y-68689999D01*
X139914819Y-68689999D02*
X140057676Y-68785237D01*
X140057676Y-68785237D02*
X140152914Y-68880475D01*
X140152914Y-68880475D02*
X140200533Y-68975713D01*
X138609580Y-91916666D02*
X138657200Y-91964285D01*
X138657200Y-91964285D02*
X138704819Y-92107142D01*
X138704819Y-92107142D02*
X138704819Y-92202380D01*
X138704819Y-92202380D02*
X138657200Y-92345237D01*
X138657200Y-92345237D02*
X138561961Y-92440475D01*
X138561961Y-92440475D02*
X138466723Y-92488094D01*
X138466723Y-92488094D02*
X138276247Y-92535713D01*
X138276247Y-92535713D02*
X138133390Y-92535713D01*
X138133390Y-92535713D02*
X137942914Y-92488094D01*
X137942914Y-92488094D02*
X137847676Y-92440475D01*
X137847676Y-92440475D02*
X137752438Y-92345237D01*
X137752438Y-92345237D02*
X137704819Y-92202380D01*
X137704819Y-92202380D02*
X137704819Y-92107142D01*
X137704819Y-92107142D02*
X137752438Y-91964285D01*
X137752438Y-91964285D02*
X137800057Y-91916666D01*
X138704819Y-90964285D02*
X138704819Y-91535713D01*
X138704819Y-91249999D02*
X137704819Y-91249999D01*
X137704819Y-91249999D02*
X137847676Y-91345237D01*
X137847676Y-91345237D02*
X137942914Y-91440475D01*
X137942914Y-91440475D02*
X137990533Y-91535713D01*
X128424819Y-70238094D02*
X127424819Y-70238094D01*
X127424819Y-70238094D02*
X127424819Y-69999999D01*
X127424819Y-69999999D02*
X127472438Y-69857142D01*
X127472438Y-69857142D02*
X127567676Y-69761904D01*
X127567676Y-69761904D02*
X127662914Y-69714285D01*
X127662914Y-69714285D02*
X127853390Y-69666666D01*
X127853390Y-69666666D02*
X127996247Y-69666666D01*
X127996247Y-69666666D02*
X128186723Y-69714285D01*
X128186723Y-69714285D02*
X128281961Y-69761904D01*
X128281961Y-69761904D02*
X128377200Y-69857142D01*
X128377200Y-69857142D02*
X128424819Y-69999999D01*
X128424819Y-69999999D02*
X128424819Y-70238094D01*
X128424819Y-68714285D02*
X128424819Y-69285713D01*
X128424819Y-68999999D02*
X127424819Y-68999999D01*
X127424819Y-68999999D02*
X127567676Y-69095237D01*
X127567676Y-69095237D02*
X127662914Y-69190475D01*
X127662914Y-69190475D02*
X127710533Y-69285713D01*
X128054819Y-64681904D02*
X127054819Y-64681904D01*
X128054819Y-64110476D02*
X127483390Y-64539047D01*
X127054819Y-64110476D02*
X127626247Y-64681904D01*
X146333333Y-79034819D02*
X146000000Y-78558628D01*
X145761905Y-79034819D02*
X145761905Y-78034819D01*
X145761905Y-78034819D02*
X146142857Y-78034819D01*
X146142857Y-78034819D02*
X146238095Y-78082438D01*
X146238095Y-78082438D02*
X146285714Y-78130057D01*
X146285714Y-78130057D02*
X146333333Y-78225295D01*
X146333333Y-78225295D02*
X146333333Y-78368152D01*
X146333333Y-78368152D02*
X146285714Y-78463390D01*
X146285714Y-78463390D02*
X146238095Y-78511009D01*
X146238095Y-78511009D02*
X146142857Y-78558628D01*
X146142857Y-78558628D02*
X145761905Y-78558628D01*
X146714286Y-78130057D02*
X146761905Y-78082438D01*
X146761905Y-78082438D02*
X146857143Y-78034819D01*
X146857143Y-78034819D02*
X147095238Y-78034819D01*
X147095238Y-78034819D02*
X147190476Y-78082438D01*
X147190476Y-78082438D02*
X147238095Y-78130057D01*
X147238095Y-78130057D02*
X147285714Y-78225295D01*
X147285714Y-78225295D02*
X147285714Y-78320533D01*
X147285714Y-78320533D02*
X147238095Y-78463390D01*
X147238095Y-78463390D02*
X146666667Y-79034819D01*
X146666667Y-79034819D02*
X147285714Y-79034819D01*
X104307319Y-70838333D02*
X105021604Y-70838333D01*
X105021604Y-70838333D02*
X105164461Y-70885952D01*
X105164461Y-70885952D02*
X105259700Y-70981190D01*
X105259700Y-70981190D02*
X105307319Y-71124047D01*
X105307319Y-71124047D02*
X105307319Y-71219285D01*
X105307319Y-69838333D02*
X105307319Y-70409761D01*
X105307319Y-70124047D02*
X104307319Y-70124047D01*
X104307319Y-70124047D02*
X104450176Y-70219285D01*
X104450176Y-70219285D02*
X104545414Y-70314523D01*
X104545414Y-70314523D02*
X104593033Y-70409761D01*
X152761905Y-67494819D02*
X152761905Y-66494819D01*
X152761905Y-66494819D02*
X153000000Y-66494819D01*
X153000000Y-66494819D02*
X153142857Y-66542438D01*
X153142857Y-66542438D02*
X153238095Y-66637676D01*
X153238095Y-66637676D02*
X153285714Y-66732914D01*
X153285714Y-66732914D02*
X153333333Y-66923390D01*
X153333333Y-66923390D02*
X153333333Y-67066247D01*
X153333333Y-67066247D02*
X153285714Y-67256723D01*
X153285714Y-67256723D02*
X153238095Y-67351961D01*
X153238095Y-67351961D02*
X153142857Y-67447200D01*
X153142857Y-67447200D02*
X153000000Y-67494819D01*
X153000000Y-67494819D02*
X152761905Y-67494819D01*
X154238095Y-66494819D02*
X153761905Y-66494819D01*
X153761905Y-66494819D02*
X153714286Y-66971009D01*
X153714286Y-66971009D02*
X153761905Y-66923390D01*
X153761905Y-66923390D02*
X153857143Y-66875771D01*
X153857143Y-66875771D02*
X154095238Y-66875771D01*
X154095238Y-66875771D02*
X154190476Y-66923390D01*
X154190476Y-66923390D02*
X154238095Y-66971009D01*
X154238095Y-66971009D02*
X154285714Y-67066247D01*
X154285714Y-67066247D02*
X154285714Y-67304342D01*
X154285714Y-67304342D02*
X154238095Y-67399580D01*
X154238095Y-67399580D02*
X154190476Y-67447200D01*
X154190476Y-67447200D02*
X154095238Y-67494819D01*
X154095238Y-67494819D02*
X153857143Y-67494819D01*
X153857143Y-67494819D02*
X153761905Y-67447200D01*
X153761905Y-67447200D02*
X153714286Y-67399580D01*
X136924819Y-70238094D02*
X135924819Y-70238094D01*
X135924819Y-70238094D02*
X135924819Y-69999999D01*
X135924819Y-69999999D02*
X135972438Y-69857142D01*
X135972438Y-69857142D02*
X136067676Y-69761904D01*
X136067676Y-69761904D02*
X136162914Y-69714285D01*
X136162914Y-69714285D02*
X136353390Y-69666666D01*
X136353390Y-69666666D02*
X136496247Y-69666666D01*
X136496247Y-69666666D02*
X136686723Y-69714285D01*
X136686723Y-69714285D02*
X136781961Y-69761904D01*
X136781961Y-69761904D02*
X136877200Y-69857142D01*
X136877200Y-69857142D02*
X136924819Y-69999999D01*
X136924819Y-69999999D02*
X136924819Y-70238094D01*
X136020057Y-69285713D02*
X135972438Y-69238094D01*
X135972438Y-69238094D02*
X135924819Y-69142856D01*
X135924819Y-69142856D02*
X135924819Y-68904761D01*
X135924819Y-68904761D02*
X135972438Y-68809523D01*
X135972438Y-68809523D02*
X136020057Y-68761904D01*
X136020057Y-68761904D02*
X136115295Y-68714285D01*
X136115295Y-68714285D02*
X136210533Y-68714285D01*
X136210533Y-68714285D02*
X136353390Y-68761904D01*
X136353390Y-68761904D02*
X136924819Y-69333332D01*
X136924819Y-69333332D02*
X136924819Y-68714285D01*
X136554819Y-64681904D02*
X135554819Y-64681904D01*
X136554819Y-64110476D02*
X135983390Y-64539047D01*
X135554819Y-64110476D02*
X136126247Y-64681904D01*
X104307319Y-88838333D02*
X105021604Y-88838333D01*
X105021604Y-88838333D02*
X105164461Y-88885952D01*
X105164461Y-88885952D02*
X105259700Y-88981190D01*
X105259700Y-88981190D02*
X105307319Y-89124047D01*
X105307319Y-89124047D02*
X105307319Y-89219285D01*
X104402557Y-88409761D02*
X104354938Y-88362142D01*
X104354938Y-88362142D02*
X104307319Y-88266904D01*
X104307319Y-88266904D02*
X104307319Y-88028809D01*
X104307319Y-88028809D02*
X104354938Y-87933571D01*
X104354938Y-87933571D02*
X104402557Y-87885952D01*
X104402557Y-87885952D02*
X104497795Y-87838333D01*
X104497795Y-87838333D02*
X104593033Y-87838333D01*
X104593033Y-87838333D02*
X104735890Y-87885952D01*
X104735890Y-87885952D02*
X105307319Y-88457380D01*
X105307319Y-88457380D02*
X105307319Y-87838333D01*
X136924819Y-90238094D02*
X135924819Y-90238094D01*
X135924819Y-90238094D02*
X135924819Y-89999999D01*
X135924819Y-89999999D02*
X135972438Y-89857142D01*
X135972438Y-89857142D02*
X136067676Y-89761904D01*
X136067676Y-89761904D02*
X136162914Y-89714285D01*
X136162914Y-89714285D02*
X136353390Y-89666666D01*
X136353390Y-89666666D02*
X136496247Y-89666666D01*
X136496247Y-89666666D02*
X136686723Y-89714285D01*
X136686723Y-89714285D02*
X136781961Y-89761904D01*
X136781961Y-89761904D02*
X136877200Y-89857142D01*
X136877200Y-89857142D02*
X136924819Y-89999999D01*
X136924819Y-89999999D02*
X136924819Y-90238094D01*
X136258152Y-88809523D02*
X136924819Y-88809523D01*
X135877200Y-89047618D02*
X136591485Y-89285713D01*
X136591485Y-89285713D02*
X136591485Y-88666666D01*
X136554819Y-84681904D02*
X135554819Y-84681904D01*
X136554819Y-84110476D02*
X135983390Y-84539047D01*
X135554819Y-84110476D02*
X136126247Y-84681904D01*
X127924819Y-90238094D02*
X126924819Y-90238094D01*
X126924819Y-90238094D02*
X126924819Y-89999999D01*
X126924819Y-89999999D02*
X126972438Y-89857142D01*
X126972438Y-89857142D02*
X127067676Y-89761904D01*
X127067676Y-89761904D02*
X127162914Y-89714285D01*
X127162914Y-89714285D02*
X127353390Y-89666666D01*
X127353390Y-89666666D02*
X127496247Y-89666666D01*
X127496247Y-89666666D02*
X127686723Y-89714285D01*
X127686723Y-89714285D02*
X127781961Y-89761904D01*
X127781961Y-89761904D02*
X127877200Y-89857142D01*
X127877200Y-89857142D02*
X127924819Y-89999999D01*
X127924819Y-89999999D02*
X127924819Y-90238094D01*
X126924819Y-89333332D02*
X126924819Y-88714285D01*
X126924819Y-88714285D02*
X127305771Y-89047618D01*
X127305771Y-89047618D02*
X127305771Y-88904761D01*
X127305771Y-88904761D02*
X127353390Y-88809523D01*
X127353390Y-88809523D02*
X127401009Y-88761904D01*
X127401009Y-88761904D02*
X127496247Y-88714285D01*
X127496247Y-88714285D02*
X127734342Y-88714285D01*
X127734342Y-88714285D02*
X127829580Y-88761904D01*
X127829580Y-88761904D02*
X127877200Y-88809523D01*
X127877200Y-88809523D02*
X127924819Y-88904761D01*
X127924819Y-88904761D02*
X127924819Y-89190475D01*
X127924819Y-89190475D02*
X127877200Y-89285713D01*
X127877200Y-89285713D02*
X127829580Y-89333332D01*
X127554819Y-84681904D02*
X126554819Y-84681904D01*
X127554819Y-84110476D02*
X126983390Y-84539047D01*
X126554819Y-84110476D02*
X127126247Y-84681904D01*
%TO.C,R1*%
D12*
X142380000Y-66320000D02*
X142380000Y-67270000D01*
X142380000Y-72060000D02*
X142380000Y-71110000D01*
X141460000Y-67270000D02*
X143300000Y-67270000D01*
X143300000Y-71110000D01*
X141460000Y-71110000D01*
X141460000Y-67270000D01*
%TO.C,C1*%
X147620000Y-91750000D02*
G75*
G02*
X139380000Y-91750000I-4120000J0D01*
G01*
X139380000Y-91750000D02*
G75*
G02*
X147620000Y-91750000I4120000J0D01*
G01*
%TO.C,D1*%
X125500000Y-65760000D02*
X125500000Y-66780000D01*
X125500000Y-73240000D02*
X125500000Y-72220000D01*
X126970000Y-67560000D02*
X124030000Y-67560000D01*
X126970000Y-67680000D02*
X124030000Y-67680000D01*
X126970000Y-67800000D02*
X124030000Y-67800000D01*
X124030000Y-66780000D02*
X126970000Y-66780000D01*
X126970000Y-72220000D01*
X124030000Y-72220000D01*
X124030000Y-66780000D01*
%TO.C,R2*%
X143630000Y-80500000D02*
X144580000Y-80500000D01*
X149370000Y-80500000D02*
X148420000Y-80500000D01*
X144580000Y-79580000D02*
X148420000Y-79580000D01*
X148420000Y-81420000D01*
X144580000Y-81420000D01*
X144580000Y-79580000D01*
%TO.C,J1*%
X105852500Y-65305000D02*
X115892500Y-65305000D01*
X105852500Y-75705000D02*
X105852500Y-65305000D01*
X108872500Y-75705000D02*
X108872500Y-65305000D01*
X113772500Y-75705000D02*
X113772500Y-65305000D01*
X115272500Y-75705000D02*
X115272500Y-65305000D01*
X115892500Y-65305000D02*
X115892500Y-72745000D01*
X115892500Y-73345000D02*
X115892500Y-75705000D01*
X115892500Y-75705000D02*
X105852500Y-75705000D01*
X115892500Y-73045000D02*
X116502500Y-72605000D01*
X116502500Y-73485000D01*
X115892500Y-73045000D01*
G36*
X116502500Y-73485000D02*
G01*
X115892500Y-73045000D01*
X116502500Y-72605000D01*
X116502500Y-73485000D01*
G37*
%TO.C,D5*%
X150940000Y-69455000D02*
X150940000Y-72545000D01*
X150940000Y-69455170D02*
G75*
G02*
X156490000Y-71000000I2560000J-1544830D01*
G01*
X156490000Y-71000000D02*
G75*
G02*
X150940000Y-72544830I-2990000J0D01*
G01*
X156000000Y-71000000D02*
G75*
G02*
X151000000Y-71000000I-2500000J0D01*
G01*
X151000000Y-71000000D02*
G75*
G02*
X156000000Y-71000000I2500000J0D01*
G01*
%TO.C,D2*%
X134000000Y-65760000D02*
X134000000Y-66780000D01*
X134000000Y-73240000D02*
X134000000Y-72220000D01*
X135470000Y-67560000D02*
X132530000Y-67560000D01*
X135470000Y-67680000D02*
X132530000Y-67680000D01*
X135470000Y-67800000D02*
X132530000Y-67800000D01*
X132530000Y-66780000D02*
X135470000Y-66780000D01*
X135470000Y-72220000D01*
X132530000Y-72220000D01*
X132530000Y-66780000D01*
%TO.C,J2*%
X105852500Y-83305000D02*
X115892500Y-83305000D01*
X105852500Y-93705000D02*
X105852500Y-83305000D01*
X108872500Y-93705000D02*
X108872500Y-83305000D01*
X113772500Y-93705000D02*
X113772500Y-83305000D01*
X115272500Y-93705000D02*
X115272500Y-83305000D01*
X115892500Y-83305000D02*
X115892500Y-90745000D01*
X115892500Y-91345000D02*
X115892500Y-93705000D01*
X115892500Y-93705000D02*
X105852500Y-93705000D01*
X115892500Y-91045000D02*
X116502500Y-90605000D01*
X116502500Y-91485000D01*
X115892500Y-91045000D01*
G36*
X116502500Y-91485000D02*
G01*
X115892500Y-91045000D01*
X116502500Y-90605000D01*
X116502500Y-91485000D01*
G37*
%TO.C,D4*%
X134000000Y-85760000D02*
X134000000Y-86780000D01*
X134000000Y-93240000D02*
X134000000Y-92220000D01*
X135470000Y-87560000D02*
X132530000Y-87560000D01*
X135470000Y-87680000D02*
X132530000Y-87680000D01*
X135470000Y-87800000D02*
X132530000Y-87800000D01*
X132530000Y-86780000D02*
X135470000Y-86780000D01*
X135470000Y-92220000D01*
X132530000Y-92220000D01*
X132530000Y-86780000D01*
%TO.C,D3*%
X125000000Y-85760000D02*
X125000000Y-86780000D01*
X125000000Y-93240000D02*
X125000000Y-92220000D01*
X126470000Y-87560000D02*
X123530000Y-87560000D01*
X126470000Y-87680000D02*
X123530000Y-87680000D01*
X126470000Y-87800000D02*
X123530000Y-87800000D01*
X123530000Y-86780000D02*
X126470000Y-86780000D01*
X126470000Y-92220000D01*
X123530000Y-92220000D01*
X123530000Y-86780000D01*
%TD*%
M02*
