%TF.GenerationSoftware,KiCad,Pcbnew,10.0.3*%
%TF.CreationDate,2026-08-30T02:51:34+05:30*%
%TF.ProjectId,AC_to_DCconv,41435f74-6f5f-4444-9363-6f6e762e6b69,rev?*%
%TF.SameCoordinates,Original*%
%TF.FileFunction,Copper,L2,Bot*%
%TF.FilePolarity,Positive*%
%FSLAX46Y46*%
G04 Gerber Fmt 4.6, Leading zero omitted, Abs format (unit mm)*
G04 Created by KiCad (PCBNEW 10.0.3) date 2026-08-30 02:51:34*
%MOMM*%
%LPD*%
G01*
G04 APERTURE LIST*
G04 Aperture macros list*
%AMRoundRect*
0 Rectangle with rounded corners*
0 $1 Rounding radius*
0 $2 $3 $4 $5 $6 $7 $8 $9 X,Y pos of 4 corners*
0 Add a 4 corners polygon primitive as box body*
4,1,4,$2,$3,$4,$5,$6,$7,$8,$9,$2,$3,0*
0 Add four circle primitives for the rounded corners*
1,1,$1+$1,$2,$3*
1,1,$1+$1,$4,$5*
1,1,$1+$1,$6,$7*
1,1,$1+$1,$8,$9*
0 Add four rect primitives between the rounded corners*
20,1,$1+$1,$2,$3,$4,$5,0*
20,1,$1+$1,$4,$5,$6,$7,0*
20,1,$1+$1,$6,$7,$8,$9,0*
20,1,$1+$1,$8,$9,$2,$3,0*%
G04 Aperture macros list end*
%TA.AperFunction,ComponentPad*%
%ADD10C,1.400000*%
%TD*%
%TA.AperFunction,ComponentPad*%
%ADD11C,1.600000*%
%TD*%
%TA.AperFunction,ComponentPad*%
%ADD12RoundRect,0.249999X-0.850001X0.850001X-0.850001X-0.850001X0.850001X-0.850001X0.850001X0.850001X0*%
%TD*%
%TA.AperFunction,ComponentPad*%
%ADD13C,2.200000*%
%TD*%
%TA.AperFunction,ComponentPad*%
%ADD14RoundRect,0.250000X1.050000X-1.050000X1.050000X1.050000X-1.050000X1.050000X-1.050000X-1.050000X0*%
%TD*%
%TA.AperFunction,ComponentPad*%
%ADD15C,2.600000*%
%TD*%
%TA.AperFunction,ComponentPad*%
%ADD16R,1.800000X1.800000*%
%TD*%
%TA.AperFunction,ComponentPad*%
%ADD17C,1.800000*%
%TD*%
%TA.AperFunction,Conductor*%
%ADD18C,0.500000*%
%TD*%
%TA.AperFunction,Conductor*%
%ADD19C,1.000000*%
%TD*%
G04 APERTURE END LIST*
D10*
%TO.P,R1,1*%
%TO.N,/+VE*%
X142380000Y-73000000D03*
%TO.P,R1,2*%
%TO.N,GND*%
X142380000Y-65380000D03*
%TD*%
D11*
%TO.P,C1,1*%
%TO.N,/+VE*%
X143500000Y-93500000D03*
%TO.P,C1,2*%
%TO.N,GND*%
X143500000Y-90000000D03*
%TD*%
D12*
%TO.P,D1,1,K_1*%
%TO.N,/+VE*%
X125500000Y-64420000D03*
D13*
%TO.P,D1,2,A_2*%
%TO.N,Net-(D1-A)*%
X125500000Y-74580000D03*
%TD*%
D10*
%TO.P,R2,1*%
%TO.N,/+VE*%
X142690000Y-80500000D03*
%TO.P,R2,2*%
%TO.N,Net-(D5-A)*%
X150310000Y-80500000D03*
%TD*%
D14*
%TO.P,J1,1,Pin_1_1*%
%TO.N,Net-(D2-A)*%
X111172500Y-73045000D03*
D15*
%TO.P,J1,2,Pin_2_2*%
%TO.N,Net-(D1-A)*%
X111172500Y-67965000D03*
%TD*%
D16*
%TO.P,D5,1,K_1*%
%TO.N,GND*%
X152230000Y-71000000D03*
D17*
%TO.P,D5,2,A_2*%
%TO.N,Net-(D5-A)*%
X154770000Y-71000000D03*
%TD*%
D12*
%TO.P,D2,1,K_1*%
%TO.N,/+VE*%
X134000000Y-64420000D03*
D13*
%TO.P,D2,2,A_2*%
%TO.N,Net-(D2-A)*%
X134000000Y-74580000D03*
%TD*%
D14*
%TO.P,J2,1,Pin_1_1*%
%TO.N,GND*%
X111172500Y-91045000D03*
D15*
%TO.P,J2,2,Pin_2_2*%
%TO.N,/+VE*%
X111172500Y-85965000D03*
%TD*%
D12*
%TO.P,D4,1,K_1*%
%TO.N,Net-(D2-A)*%
X134000000Y-84420000D03*
D13*
%TO.P,D4,2,A_2*%
%TO.N,GND*%
X134000000Y-94580000D03*
%TD*%
D12*
%TO.P,D3,1,K_1*%
%TO.N,Net-(D1-A)*%
X125000000Y-84420000D03*
D13*
%TO.P,D3,2,A_2*%
%TO.N,GND*%
X125000000Y-94580000D03*
%TD*%
%TO.N,GND*%
D18*
X143000000Y-83000000D02*
X143000000Y-82436346D01*
D19*
X139000000Y-68500000D02*
X139260000Y-68500000D01*
%TO.N,/+VE*%
X137800000Y-64700000D02*
X137800000Y-73000000D01*
X139000000Y-89000000D02*
X139000000Y-84190000D01*
X125500000Y-64420000D02*
X134000000Y-64420000D01*
X137920000Y-64420000D02*
X138000000Y-64500000D01*
X137800000Y-73000000D02*
X137800000Y-75800000D01*
X121420000Y-64420000D02*
X125500000Y-64420000D01*
X105328428Y-67171572D02*
X109500000Y-63000000D01*
X143500000Y-93500000D02*
X139000000Y-89000000D01*
X138690000Y-76500000D02*
X142690000Y-80500000D01*
X138500000Y-76500000D02*
X138690000Y-76500000D01*
X106500000Y-81500000D02*
X105328428Y-80328428D01*
X138000000Y-64500000D02*
X137800000Y-64700000D01*
X139000000Y-84190000D02*
X142690000Y-80500000D01*
X111172500Y-85965000D02*
X106707500Y-81500000D01*
X120000000Y-63000000D02*
X121420000Y-64420000D01*
X106707500Y-81500000D02*
X106500000Y-81500000D01*
X105328428Y-80328428D02*
X105328428Y-67171572D01*
X137800000Y-75800000D02*
X138500000Y-76500000D01*
X109500000Y-63000000D02*
X120000000Y-63000000D01*
X142380000Y-73000000D02*
X137800000Y-73000000D01*
X134000000Y-64420000D02*
X137920000Y-64420000D01*
%TO.N,Net-(D1-A)*%
X111172500Y-67965000D02*
X121965000Y-67965000D01*
X121965000Y-67965000D02*
X125000000Y-71000000D01*
X125000000Y-75080000D02*
X125500000Y-74580000D01*
X125000000Y-71000000D02*
X125500000Y-71000000D01*
X125000000Y-84420000D02*
X125000000Y-75080000D01*
X125500000Y-71000000D02*
X125500000Y-74580000D01*
%TO.N,Net-(D2-A)*%
X119500000Y-72500000D02*
X121500000Y-74500000D01*
X121500000Y-74500000D02*
X121500000Y-87000000D01*
X134000000Y-84420000D02*
X134000000Y-74580000D01*
X118955000Y-73045000D02*
X119500000Y-72500000D01*
X134000000Y-87000000D02*
X134000000Y-84420000D01*
X111172500Y-73045000D02*
X118955000Y-73045000D01*
X132000000Y-89500000D02*
X134000000Y-87500000D01*
X124000000Y-89500000D02*
X132000000Y-89500000D01*
X121500000Y-87000000D02*
X124000000Y-89500000D01*
X134000000Y-87500000D02*
X134500000Y-87500000D01*
X134500000Y-87500000D02*
X134000000Y-87000000D01*
%TO.N,Net-(D5-A)*%
D18*
X154770000Y-78230000D02*
X152500000Y-80500000D01*
X152500000Y-80500000D02*
X150310000Y-80500000D01*
X154770000Y-71000000D02*
X154770000Y-78230000D01*
%TD*%
%TA.AperFunction,Conductor*%
%TO.N,GND*%
G36*
X155696488Y-61520185D02*
G01*
X155742243Y-61572989D01*
X155752187Y-61642147D01*
X155723162Y-61705703D01*
X155702337Y-61724815D01*
X155522490Y-61855483D01*
X155522488Y-61855485D01*
X155522487Y-61855485D01*
X155355485Y-62022487D01*
X155355485Y-62022488D01*
X155355483Y-62022490D01*
X155343835Y-62038522D01*
X155216657Y-62213566D01*
X155109433Y-62424003D01*
X155036446Y-62648631D01*
X154999500Y-62881902D01*
X154999500Y-63118097D01*
X155036446Y-63351368D01*
X155109433Y-63575996D01*
X155200641Y-63755000D01*
X155216657Y-63786433D01*
X155355483Y-63977510D01*
X155522490Y-64144517D01*
X155713567Y-64283343D01*
X155812991Y-64334002D01*
X155924003Y-64390566D01*
X155924005Y-64390566D01*
X155924008Y-64390568D01*
X156044412Y-64429689D01*
X156148631Y-64463553D01*
X156381903Y-64500500D01*
X156381908Y-64500500D01*
X156618097Y-64500500D01*
X156851368Y-64463553D01*
X157075992Y-64390568D01*
X157286433Y-64283343D01*
X157477510Y-64144517D01*
X157644517Y-63977510D01*
X157775183Y-63797664D01*
X157830512Y-63755000D01*
X157900126Y-63749021D01*
X157961920Y-63781627D01*
X157996278Y-63842466D01*
X157999500Y-63870551D01*
X157999500Y-96629448D01*
X157979815Y-96696487D01*
X157927011Y-96742242D01*
X157857853Y-96752186D01*
X157794297Y-96723161D01*
X157775182Y-96702334D01*
X157755295Y-96674962D01*
X157644517Y-96522490D01*
X157477510Y-96355483D01*
X157286433Y-96216657D01*
X157214490Y-96180000D01*
X157075996Y-96109433D01*
X156851368Y-96036446D01*
X156618097Y-95999500D01*
X156618092Y-95999500D01*
X156381908Y-95999500D01*
X156381903Y-95999500D01*
X156148631Y-96036446D01*
X155924003Y-96109433D01*
X155713566Y-96216657D01*
X155604550Y-96295862D01*
X155522490Y-96355483D01*
X155522488Y-96355485D01*
X155522487Y-96355485D01*
X155355485Y-96522487D01*
X155355485Y-96522488D01*
X155355483Y-96522490D01*
X155345343Y-96536447D01*
X155216657Y-96713566D01*
X155109433Y-96924003D01*
X155036446Y-97148631D01*
X154999500Y-97381902D01*
X154999500Y-97618097D01*
X155036446Y-97851368D01*
X155109433Y-98075996D01*
X155200641Y-98255000D01*
X155216657Y-98286433D01*
X155355483Y-98477510D01*
X155522490Y-98644517D01*
X155702335Y-98775183D01*
X155745000Y-98830512D01*
X155750979Y-98900126D01*
X155718373Y-98961920D01*
X155657534Y-98996278D01*
X155629449Y-98999500D01*
X105871905Y-98999500D01*
X105804866Y-98979815D01*
X105759111Y-98927011D01*
X105749167Y-98857853D01*
X105771586Y-98802615D01*
X105777629Y-98794297D01*
X105783343Y-98786433D01*
X105890568Y-98575992D01*
X105963553Y-98351368D01*
X105988929Y-98191150D01*
X106000500Y-98118097D01*
X106000500Y-97881902D01*
X105963553Y-97648631D01*
X105890566Y-97424003D01*
X105783342Y-97213566D01*
X105644517Y-97022490D01*
X105477510Y-96855483D01*
X105286433Y-96716657D01*
X105258323Y-96702334D01*
X105075996Y-96609433D01*
X104851368Y-96536446D01*
X104618097Y-96499500D01*
X104618092Y-96499500D01*
X104381908Y-96499500D01*
X104381903Y-96499500D01*
X104148631Y-96536446D01*
X103924003Y-96609433D01*
X103713567Y-96716656D01*
X103697385Y-96728414D01*
X103631578Y-96751893D01*
X103563524Y-96736067D01*
X103514830Y-96685961D01*
X103500500Y-96628095D01*
X103500500Y-94454071D01*
X123400000Y-94454071D01*
X123400000Y-94705928D01*
X123439397Y-94954669D01*
X123517219Y-95194184D01*
X123631557Y-95418583D01*
X123705748Y-95520697D01*
X123705748Y-95520698D01*
X124476212Y-94750234D01*
X124487482Y-94792292D01*
X124559890Y-94917708D01*
X124662292Y-95020110D01*
X124787708Y-95092518D01*
X124829765Y-95103787D01*
X124059300Y-95874250D01*
X124161416Y-95948442D01*
X124385815Y-96062780D01*
X124625330Y-96140602D01*
X124874072Y-96180000D01*
X125125928Y-96180000D01*
X125374669Y-96140602D01*
X125614184Y-96062780D01*
X125838575Y-95948446D01*
X125838581Y-95948442D01*
X125940697Y-95874250D01*
X125940698Y-95874250D01*
X125170234Y-95103787D01*
X125212292Y-95092518D01*
X125337708Y-95020110D01*
X125440110Y-94917708D01*
X125512518Y-94792292D01*
X125523787Y-94750234D01*
X126294250Y-95520698D01*
X126294250Y-95520697D01*
X126368442Y-95418581D01*
X126368446Y-95418575D01*
X126482780Y-95194184D01*
X126560602Y-94954669D01*
X126600000Y-94705928D01*
X126600000Y-94454071D01*
X132400000Y-94454071D01*
X132400000Y-94705928D01*
X132439397Y-94954669D01*
X132517219Y-95194184D01*
X132631557Y-95418583D01*
X132705748Y-95520697D01*
X132705748Y-95520698D01*
X133476212Y-94750234D01*
X133487482Y-94792292D01*
X133559890Y-94917708D01*
X133662292Y-95020110D01*
X133787708Y-95092518D01*
X133829765Y-95103787D01*
X133059300Y-95874250D01*
X133161416Y-95948442D01*
X133385815Y-96062780D01*
X133625330Y-96140602D01*
X133874072Y-96180000D01*
X134125928Y-96180000D01*
X134374669Y-96140602D01*
X134614184Y-96062780D01*
X134838575Y-95948446D01*
X134838581Y-95948442D01*
X134940697Y-95874250D01*
X134940698Y-95874250D01*
X134170234Y-95103787D01*
X134212292Y-95092518D01*
X134337708Y-95020110D01*
X134440110Y-94917708D01*
X134512518Y-94792292D01*
X134523787Y-94750234D01*
X135294250Y-95520698D01*
X135294250Y-95520697D01*
X135368442Y-95418581D01*
X135368446Y-95418575D01*
X135482780Y-95194184D01*
X135560602Y-94954669D01*
X135600000Y-94705928D01*
X135600000Y-94454071D01*
X135560602Y-94205330D01*
X135482780Y-93965815D01*
X135368442Y-93741416D01*
X135294250Y-93639301D01*
X135294250Y-93639300D01*
X134523787Y-94409764D01*
X134512518Y-94367708D01*
X134440110Y-94242292D01*
X134337708Y-94139890D01*
X134212292Y-94067482D01*
X134170232Y-94056212D01*
X134940698Y-93285748D01*
X134838583Y-93211557D01*
X134614184Y-93097219D01*
X134374669Y-93019397D01*
X134125928Y-92980000D01*
X133874072Y-92980000D01*
X133625330Y-93019397D01*
X133385815Y-93097219D01*
X133161413Y-93211559D01*
X133059301Y-93285747D01*
X133059300Y-93285748D01*
X133829765Y-94056212D01*
X133787708Y-94067482D01*
X133662292Y-94139890D01*
X133559890Y-94242292D01*
X133487482Y-94367708D01*
X133476212Y-94409765D01*
X132705748Y-93639300D01*
X132705747Y-93639301D01*
X132631559Y-93741413D01*
X132517219Y-93965815D01*
X132439397Y-94205330D01*
X132400000Y-94454071D01*
X126600000Y-94454071D01*
X126560602Y-94205330D01*
X126482780Y-93965815D01*
X126368442Y-93741416D01*
X126294250Y-93639301D01*
X126294250Y-93639300D01*
X125523787Y-94409764D01*
X125512518Y-94367708D01*
X125440110Y-94242292D01*
X125337708Y-94139890D01*
X125212292Y-94067482D01*
X125170232Y-94056212D01*
X125940698Y-93285748D01*
X125838583Y-93211557D01*
X125614184Y-93097219D01*
X125374669Y-93019397D01*
X125125928Y-92980000D01*
X124874072Y-92980000D01*
X124625330Y-93019397D01*
X124385815Y-93097219D01*
X124161413Y-93211559D01*
X124059301Y-93285747D01*
X124059300Y-93285748D01*
X124829765Y-94056212D01*
X124787708Y-94067482D01*
X124662292Y-94139890D01*
X124559890Y-94242292D01*
X124487482Y-94367708D01*
X124476212Y-94409765D01*
X123705748Y-93639300D01*
X123705747Y-93639301D01*
X123631559Y-93741413D01*
X123517219Y-93965815D01*
X123439397Y-94205330D01*
X123400000Y-94454071D01*
X103500500Y-94454071D01*
X103500500Y-89945013D01*
X109372500Y-89945013D01*
X109372500Y-90795000D01*
X110572499Y-90795000D01*
X110547479Y-90855402D01*
X110522500Y-90980981D01*
X110522500Y-91109019D01*
X110547479Y-91234598D01*
X110572499Y-91295000D01*
X109372501Y-91295000D01*
X109372501Y-92144986D01*
X109382994Y-92247697D01*
X109438141Y-92414119D01*
X109438143Y-92414124D01*
X109530184Y-92563345D01*
X109654154Y-92687315D01*
X109803375Y-92779356D01*
X109803380Y-92779358D01*
X109969802Y-92834505D01*
X109969809Y-92834506D01*
X110072519Y-92844999D01*
X110922499Y-92844999D01*
X110922500Y-92844998D01*
X110922500Y-91645001D01*
X110982902Y-91670021D01*
X111108481Y-91695000D01*
X111236519Y-91695000D01*
X111362098Y-91670021D01*
X111422500Y-91645001D01*
X111422500Y-92844999D01*
X112272472Y-92844999D01*
X112272486Y-92844998D01*
X112375197Y-92834505D01*
X112541619Y-92779358D01*
X112541624Y-92779356D01*
X112690845Y-92687315D01*
X112814815Y-92563345D01*
X112906856Y-92414124D01*
X112906858Y-92414119D01*
X112962005Y-92247697D01*
X112962006Y-92247690D01*
X112972499Y-92144986D01*
X112972500Y-92144973D01*
X112972500Y-91295000D01*
X111772501Y-91295000D01*
X111797521Y-91234598D01*
X111822500Y-91109019D01*
X111822500Y-90980981D01*
X111797521Y-90855402D01*
X111772501Y-90795000D01*
X112972499Y-90795000D01*
X112972499Y-89945028D01*
X112972498Y-89945013D01*
X112962005Y-89842302D01*
X112906858Y-89675880D01*
X112906856Y-89675875D01*
X112814815Y-89526654D01*
X112690845Y-89402684D01*
X112541624Y-89310643D01*
X112541619Y-89310641D01*
X112375197Y-89255494D01*
X112375190Y-89255493D01*
X112272486Y-89245000D01*
X111422500Y-89245000D01*
X111422500Y-90444998D01*
X111362098Y-90419979D01*
X111236519Y-90395000D01*
X111108481Y-90395000D01*
X110982902Y-90419979D01*
X110922500Y-90444998D01*
X110922500Y-89245000D01*
X110072528Y-89245000D01*
X110072512Y-89245001D01*
X109969802Y-89255494D01*
X109803380Y-89310641D01*
X109803375Y-89310643D01*
X109654154Y-89402684D01*
X109530184Y-89526654D01*
X109438143Y-89675875D01*
X109438141Y-89675880D01*
X109382994Y-89842302D01*
X109382993Y-89842309D01*
X109372500Y-89945013D01*
X103500500Y-89945013D01*
X103500500Y-67073028D01*
X104327928Y-67073028D01*
X104327928Y-80426972D01*
X104347152Y-80523616D01*
X104365005Y-80613369D01*
X104366375Y-80620258D01*
X104366377Y-80620264D01*
X104441792Y-80802335D01*
X104441799Y-80802348D01*
X104551288Y-80966209D01*
X104551291Y-80966213D01*
X104694965Y-81109887D01*
X104694987Y-81109907D01*
X105719735Y-82134655D01*
X105719764Y-82134686D01*
X105862214Y-82277136D01*
X105862218Y-82277139D01*
X106026079Y-82386628D01*
X106026092Y-82386635D01*
X106154833Y-82439961D01*
X106183998Y-82452041D01*
X106208164Y-82462051D01*
X106229274Y-82466249D01*
X106291185Y-82498632D01*
X106292766Y-82500186D01*
X109359888Y-85567309D01*
X109393373Y-85628632D01*
X109395146Y-85671175D01*
X109372001Y-85846978D01*
X109372000Y-85846995D01*
X109372000Y-86083004D01*
X109372001Y-86083020D01*
X109402806Y-86317010D01*
X109463894Y-86544993D01*
X109554214Y-86763045D01*
X109554219Y-86763056D01*
X109611469Y-86862214D01*
X109672227Y-86967450D01*
X109672229Y-86967453D01*
X109672230Y-86967454D01*
X109815906Y-87154697D01*
X109815912Y-87154704D01*
X109982795Y-87321587D01*
X109982802Y-87321593D01*
X110086882Y-87401456D01*
X110170050Y-87465273D01*
X110301418Y-87541118D01*
X110374443Y-87583280D01*
X110374448Y-87583282D01*
X110374451Y-87583284D01*
X110592507Y-87673606D01*
X110820486Y-87734693D01*
X111054489Y-87765500D01*
X111054496Y-87765500D01*
X111290504Y-87765500D01*
X111290511Y-87765500D01*
X111524514Y-87734693D01*
X111752493Y-87673606D01*
X111970549Y-87583284D01*
X112174950Y-87465273D01*
X112362199Y-87321592D01*
X112529092Y-87154699D01*
X112672773Y-86967450D01*
X112790784Y-86763049D01*
X112881106Y-86544993D01*
X112942193Y-86317014D01*
X112973000Y-86083011D01*
X112973000Y-85846989D01*
X112942193Y-85612986D01*
X112881106Y-85385007D01*
X112790784Y-85166951D01*
X112790782Y-85166948D01*
X112790780Y-85166943D01*
X112748618Y-85093918D01*
X112672773Y-84962550D01*
X112529092Y-84775301D01*
X112529087Y-84775295D01*
X112362204Y-84608412D01*
X112362197Y-84608406D01*
X112174954Y-84464730D01*
X112174953Y-84464729D01*
X112174950Y-84464727D01*
X112093457Y-84417677D01*
X111970556Y-84346719D01*
X111970545Y-84346714D01*
X111752493Y-84256394D01*
X111524510Y-84195306D01*
X111290520Y-84164501D01*
X111290517Y-84164500D01*
X111290511Y-84164500D01*
X111054489Y-84164500D01*
X111054483Y-84164500D01*
X111054478Y-84164501D01*
X110878675Y-84187646D01*
X110809640Y-84176880D01*
X110774809Y-84152388D01*
X107491709Y-80869289D01*
X107491706Y-80869285D01*
X107491706Y-80869286D01*
X107484639Y-80862219D01*
X107484639Y-80862218D01*
X107345282Y-80722861D01*
X107345281Y-80722860D01*
X107345280Y-80722859D01*
X107181416Y-80613369D01*
X107181411Y-80613366D01*
X107056327Y-80561555D01*
X107056328Y-80561555D01*
X107052665Y-80560038D01*
X106999336Y-80537949D01*
X106970146Y-80532142D01*
X106962362Y-80529486D01*
X106940267Y-80513895D01*
X106916312Y-80501365D01*
X106914733Y-80499813D01*
X106365247Y-79950327D01*
X106331762Y-79889004D01*
X106328928Y-79862646D01*
X106328928Y-71944983D01*
X109372000Y-71944983D01*
X109372000Y-74145001D01*
X109372001Y-74145007D01*
X109382500Y-74247796D01*
X109382501Y-74247799D01*
X109433419Y-74401456D01*
X109437686Y-74414334D01*
X109529788Y-74563656D01*
X109653844Y-74687712D01*
X109803166Y-74779814D01*
X109969703Y-74834999D01*
X110072491Y-74845500D01*
X112272508Y-74845499D01*
X112375297Y-74834999D01*
X112541834Y-74779814D01*
X112691156Y-74687712D01*
X112815212Y-74563656D01*
X112907314Y-74414334D01*
X112962499Y-74247797D01*
X112966548Y-74208163D01*
X112971786Y-74156897D01*
X112998183Y-74092205D01*
X113055364Y-74052054D01*
X113095144Y-74045500D01*
X119053543Y-74045500D01*
X119080981Y-74040041D01*
X119151141Y-74026086D01*
X119246836Y-74007051D01*
X119300165Y-73984961D01*
X119414453Y-73937621D01*
X119483920Y-73930154D01*
X119546399Y-73961430D01*
X119549583Y-73964503D01*
X120463181Y-74878101D01*
X120496666Y-74939424D01*
X120499500Y-74965782D01*
X120499500Y-87098541D01*
X120510671Y-87154699D01*
X120537949Y-87291836D01*
X120560038Y-87345165D01*
X120563233Y-87352880D01*
X120563234Y-87352881D01*
X120613366Y-87473911D01*
X120613371Y-87473920D01*
X120722857Y-87637777D01*
X120722863Y-87637785D01*
X120866537Y-87781459D01*
X120866559Y-87781479D01*
X123219735Y-90134655D01*
X123219764Y-90134686D01*
X123362214Y-90277136D01*
X123362218Y-90277139D01*
X123526079Y-90386628D01*
X123526092Y-90386635D01*
X123654833Y-90439961D01*
X123697744Y-90457735D01*
X123708164Y-90462051D01*
X123804812Y-90481275D01*
X123853135Y-90490887D01*
X123901458Y-90500500D01*
X123901459Y-90500500D01*
X132098542Y-90500500D01*
X132129566Y-90494328D01*
X132195188Y-90481275D01*
X132291836Y-90462051D01*
X132345165Y-90439961D01*
X132473914Y-90386632D01*
X132637782Y-90277139D01*
X132777139Y-90137782D01*
X132777140Y-90137779D01*
X132784206Y-90130714D01*
X132784208Y-90130710D01*
X134378101Y-88536819D01*
X134439424Y-88503334D01*
X134465782Y-88500500D01*
X134598542Y-88500500D01*
X134629566Y-88494328D01*
X134695188Y-88481275D01*
X134791836Y-88462051D01*
X134845165Y-88439961D01*
X134973914Y-88386632D01*
X135137782Y-88277139D01*
X135277139Y-88137782D01*
X135386632Y-87973914D01*
X135462051Y-87791835D01*
X135467290Y-87765500D01*
X135478177Y-87710763D01*
X135492694Y-87637786D01*
X135492694Y-87637782D01*
X135500500Y-87598541D01*
X135500500Y-87401459D01*
X135500500Y-87401456D01*
X135462052Y-87208170D01*
X135462051Y-87208169D01*
X135462051Y-87208165D01*
X135411275Y-87085580D01*
X135386635Y-87026092D01*
X135386628Y-87026079D01*
X135277139Y-86862218D01*
X135277136Y-86862214D01*
X135134686Y-86719764D01*
X135134655Y-86719735D01*
X135036819Y-86621899D01*
X135003334Y-86560576D01*
X135000500Y-86534218D01*
X135000500Y-86100301D01*
X135020185Y-86033262D01*
X135072989Y-85987507D01*
X135085487Y-85982598D01*
X135169335Y-85954814D01*
X135318656Y-85862712D01*
X135442712Y-85738656D01*
X135534814Y-85589335D01*
X135589999Y-85422798D01*
X135600500Y-85320010D01*
X135600500Y-83519990D01*
X135589999Y-83417202D01*
X135534814Y-83250665D01*
X135442712Y-83101344D01*
X135318656Y-82977288D01*
X135169335Y-82885186D01*
X135085495Y-82857404D01*
X135028050Y-82817631D01*
X135001228Y-82753114D01*
X135000500Y-82739698D01*
X135000500Y-75893962D01*
X135020185Y-75826923D01*
X135039623Y-75804650D01*
X135039211Y-75804238D01*
X135120590Y-75722859D01*
X135220793Y-75622656D01*
X135368870Y-75418845D01*
X135483241Y-75194379D01*
X135561090Y-74954785D01*
X135600500Y-74705962D01*
X135600500Y-74454038D01*
X135561090Y-74205215D01*
X135483241Y-73965621D01*
X135483239Y-73965618D01*
X135483239Y-73965616D01*
X135441747Y-73884184D01*
X135368870Y-73741155D01*
X135349952Y-73715117D01*
X135220798Y-73537350D01*
X135220794Y-73537345D01*
X135042654Y-73359205D01*
X135042649Y-73359201D01*
X134838848Y-73211132D01*
X134838847Y-73211131D01*
X134838845Y-73211130D01*
X134768747Y-73175413D01*
X134614383Y-73096760D01*
X134374785Y-73018910D01*
X134125962Y-72979500D01*
X133874038Y-72979500D01*
X133749626Y-72999205D01*
X133625214Y-73018910D01*
X133385616Y-73096760D01*
X133161151Y-73211132D01*
X132957350Y-73359201D01*
X132957345Y-73359205D01*
X132779205Y-73537345D01*
X132779201Y-73537350D01*
X132631132Y-73741151D01*
X132516760Y-73965616D01*
X132438910Y-74205214D01*
X132432165Y-74247799D01*
X132399500Y-74454038D01*
X132399500Y-74705962D01*
X132419938Y-74834999D01*
X132438910Y-74954785D01*
X132516760Y-75194383D01*
X132631132Y-75418848D01*
X132779201Y-75622649D01*
X132779205Y-75622654D01*
X132960789Y-75804238D01*
X132959714Y-75805312D01*
X132994225Y-75858180D01*
X132999500Y-75893962D01*
X132999500Y-82739698D01*
X132979815Y-82806737D01*
X132927011Y-82852492D01*
X132914505Y-82857404D01*
X132830665Y-82885186D01*
X132830662Y-82885187D01*
X132681342Y-82977289D01*
X132557289Y-83101342D01*
X132465187Y-83250662D01*
X132465186Y-83250665D01*
X132410001Y-83417202D01*
X132410001Y-83417203D01*
X132410000Y-83417203D01*
X132399500Y-83519982D01*
X132399500Y-85320017D01*
X132410000Y-85422796D01*
X132410001Y-85422798D01*
X132465186Y-85589335D01*
X132557288Y-85738656D01*
X132681344Y-85862712D01*
X132830665Y-85954814D01*
X132914505Y-85982596D01*
X132971949Y-86022368D01*
X132998772Y-86086883D01*
X132999500Y-86100301D01*
X132999500Y-87034218D01*
X132979815Y-87101257D01*
X132963181Y-87121899D01*
X131621899Y-88463181D01*
X131560576Y-88496666D01*
X131534218Y-88499500D01*
X124465782Y-88499500D01*
X124398743Y-88479815D01*
X124378101Y-88463181D01*
X122536819Y-86621899D01*
X122503334Y-86560576D01*
X122500500Y-86534218D01*
X122500500Y-74401456D01*
X122475063Y-74273581D01*
X122475063Y-74273580D01*
X122462051Y-74208164D01*
X122460829Y-74205215D01*
X122435891Y-74145008D01*
X122386632Y-74026086D01*
X122386628Y-74026079D01*
X122277139Y-73862218D01*
X122277136Y-73862214D01*
X122134686Y-73719764D01*
X122134655Y-73719735D01*
X120137784Y-71722863D01*
X120137780Y-71722860D01*
X119973920Y-71613372D01*
X119973910Y-71613367D01*
X119791836Y-71537949D01*
X119791828Y-71537947D01*
X119598543Y-71499500D01*
X119598540Y-71499500D01*
X119401459Y-71499500D01*
X119401456Y-71499500D01*
X119208171Y-71537947D01*
X119208163Y-71537949D01*
X119026087Y-71613367D01*
X119026078Y-71613372D01*
X118862218Y-71722860D01*
X118862214Y-71722863D01*
X118576898Y-72008181D01*
X118515575Y-72041666D01*
X118489217Y-72044500D01*
X113095143Y-72044500D01*
X113028104Y-72024815D01*
X112982349Y-71972011D01*
X112971785Y-71933102D01*
X112967121Y-71887453D01*
X112962499Y-71842203D01*
X112907314Y-71675666D01*
X112815212Y-71526344D01*
X112691156Y-71402288D01*
X112598388Y-71345069D01*
X112541836Y-71310187D01*
X112541831Y-71310185D01*
X112540362Y-71309698D01*
X112375297Y-71255001D01*
X112375295Y-71255000D01*
X112272510Y-71244500D01*
X110072498Y-71244500D01*
X110072481Y-71244501D01*
X109969703Y-71255000D01*
X109969700Y-71255001D01*
X109803168Y-71310185D01*
X109803163Y-71310187D01*
X109653842Y-71402289D01*
X109529789Y-71526342D01*
X109437687Y-71675663D01*
X109437686Y-71675666D01*
X109382501Y-71842203D01*
X109382501Y-71842204D01*
X109382500Y-71842204D01*
X109372000Y-71944983D01*
X106328928Y-71944983D01*
X106328928Y-67846995D01*
X109372000Y-67846995D01*
X109372000Y-68083004D01*
X109372001Y-68083020D01*
X109402806Y-68317010D01*
X109463894Y-68544993D01*
X109554214Y-68763045D01*
X109554219Y-68763056D01*
X109625177Y-68885957D01*
X109672227Y-68967450D01*
X109672229Y-68967453D01*
X109672230Y-68967454D01*
X109815906Y-69154697D01*
X109815912Y-69154704D01*
X109982795Y-69321587D01*
X109982801Y-69321592D01*
X110170050Y-69465273D01*
X110301418Y-69541118D01*
X110374443Y-69583280D01*
X110374448Y-69583282D01*
X110374451Y-69583284D01*
X110592507Y-69673606D01*
X110820486Y-69734693D01*
X111054489Y-69765500D01*
X111054496Y-69765500D01*
X111290504Y-69765500D01*
X111290511Y-69765500D01*
X111524514Y-69734693D01*
X111752493Y-69673606D01*
X111970549Y-69583284D01*
X112174950Y-69465273D01*
X112362199Y-69321592D01*
X112529092Y-69154699D01*
X112637043Y-69014013D01*
X112693471Y-68972811D01*
X112735419Y-68965500D01*
X121499218Y-68965500D01*
X121566257Y-68985185D01*
X121586899Y-69001819D01*
X124219735Y-71634655D01*
X124219764Y-71634686D01*
X124362213Y-71777135D01*
X124362216Y-71777137D01*
X124362218Y-71777139D01*
X124444391Y-71832045D01*
X124489195Y-71885655D01*
X124499500Y-71935146D01*
X124499500Y-73266037D01*
X124479815Y-73333076D01*
X124460376Y-73355350D01*
X124460788Y-73355762D01*
X124279205Y-73537345D01*
X124279201Y-73537350D01*
X124131132Y-73741151D01*
X124016760Y-73965616D01*
X123938910Y-74205214D01*
X123899500Y-74454038D01*
X123899500Y-74705961D01*
X123938909Y-74954781D01*
X123993431Y-75122582D01*
X123999500Y-75160900D01*
X123999500Y-82739698D01*
X123979815Y-82806737D01*
X123927011Y-82852492D01*
X123914505Y-82857404D01*
X123830665Y-82885186D01*
X123830662Y-82885187D01*
X123681342Y-82977289D01*
X123557289Y-83101342D01*
X123465187Y-83250662D01*
X123465186Y-83250665D01*
X123410001Y-83417202D01*
X123410001Y-83417203D01*
X123410000Y-83417203D01*
X123399500Y-83519982D01*
X123399500Y-85320017D01*
X123410000Y-85422796D01*
X123410001Y-85422798D01*
X123465186Y-85589335D01*
X123557288Y-85738656D01*
X123681344Y-85862712D01*
X123830665Y-85954814D01*
X123997202Y-86009999D01*
X124099990Y-86020500D01*
X124099995Y-86020500D01*
X125900005Y-86020500D01*
X125900010Y-86020500D01*
X126002798Y-86009999D01*
X126169335Y-85954814D01*
X126318656Y-85862712D01*
X126442712Y-85738656D01*
X126534814Y-85589335D01*
X126589999Y-85422798D01*
X126600500Y-85320010D01*
X126600500Y-83519990D01*
X126589999Y-83417202D01*
X126534814Y-83250665D01*
X126442712Y-83101344D01*
X126318656Y-82977288D01*
X126169335Y-82885186D01*
X126085495Y-82857404D01*
X126028050Y-82817631D01*
X126001228Y-82753114D01*
X126000500Y-82739698D01*
X126000500Y-76190333D01*
X126020185Y-76123294D01*
X126072989Y-76077539D01*
X126086180Y-76072402D01*
X126114379Y-76063241D01*
X126338845Y-75948870D01*
X126542656Y-75800793D01*
X126720793Y-75622656D01*
X126868870Y-75418845D01*
X126983241Y-75194379D01*
X127061090Y-74954785D01*
X127100500Y-74705962D01*
X127100500Y-74454038D01*
X127061090Y-74205215D01*
X126983241Y-73965621D01*
X126983239Y-73965618D01*
X126983239Y-73965616D01*
X126941747Y-73884184D01*
X126868870Y-73741155D01*
X126849952Y-73715117D01*
X126720798Y-73537350D01*
X126720794Y-73537345D01*
X126539212Y-73355762D01*
X126540285Y-73354688D01*
X126505774Y-73301815D01*
X126500500Y-73266037D01*
X126500500Y-70901456D01*
X126462052Y-70708170D01*
X126462051Y-70708169D01*
X126462051Y-70708165D01*
X126462049Y-70708160D01*
X126386635Y-70526092D01*
X126386628Y-70526079D01*
X126277139Y-70362218D01*
X126277136Y-70362214D01*
X126137785Y-70222863D01*
X126137781Y-70222860D01*
X125973920Y-70113371D01*
X125973907Y-70113364D01*
X125791839Y-70037950D01*
X125791829Y-70037947D01*
X125598543Y-69999500D01*
X125598541Y-69999500D01*
X125465782Y-69999500D01*
X125398743Y-69979815D01*
X125378101Y-69963181D01*
X122746479Y-67331559D01*
X122746459Y-67331537D01*
X122602785Y-67187863D01*
X122602781Y-67187860D01*
X122438920Y-67078371D01*
X122438911Y-67078366D01*
X122317382Y-67028027D01*
X122317379Y-67028026D01*
X122310165Y-67025038D01*
X122256836Y-67002949D01*
X122146511Y-66981004D01*
X122142233Y-66980153D01*
X122142222Y-66980150D01*
X122063543Y-66964500D01*
X122063541Y-66964500D01*
X112735419Y-66964500D01*
X112668380Y-66944815D01*
X112637043Y-66915986D01*
X112609224Y-66879732D01*
X112529092Y-66775301D01*
X112529087Y-66775295D01*
X112362204Y-66608412D01*
X112362197Y-66608406D01*
X112174954Y-66464730D01*
X112174953Y-66464729D01*
X112174950Y-66464727D01*
X112073802Y-66406329D01*
X111970556Y-66346719D01*
X111970545Y-66346714D01*
X111752493Y-66256394D01*
X111524510Y-66195306D01*
X111290520Y-66164501D01*
X111290517Y-66164500D01*
X111290511Y-66164500D01*
X111054489Y-66164500D01*
X111054483Y-66164500D01*
X111054479Y-66164501D01*
X110820489Y-66195306D01*
X110592506Y-66256394D01*
X110374454Y-66346714D01*
X110374443Y-66346719D01*
X110170045Y-66464730D01*
X109982802Y-66608406D01*
X109982795Y-66608412D01*
X109815912Y-66775295D01*
X109815906Y-66775302D01*
X109672230Y-66962545D01*
X109554219Y-67166943D01*
X109554214Y-67166954D01*
X109463894Y-67385006D01*
X109402806Y-67612989D01*
X109372001Y-67846979D01*
X109372000Y-67846995D01*
X106328928Y-67846995D01*
X106328928Y-67637354D01*
X106348613Y-67570315D01*
X106365247Y-67549673D01*
X109878102Y-64036819D01*
X109939425Y-64003334D01*
X109965783Y-64000500D01*
X119534218Y-64000500D01*
X119601257Y-64020185D01*
X119621898Y-64036818D01*
X120642860Y-65057781D01*
X120642861Y-65057782D01*
X120725512Y-65140433D01*
X120782219Y-65197140D01*
X120946079Y-65306628D01*
X120946092Y-65306635D01*
X121074833Y-65359961D01*
X121117744Y-65377735D01*
X121128164Y-65382051D01*
X121224812Y-65401275D01*
X121273135Y-65410887D01*
X121321458Y-65420500D01*
X121321459Y-65420500D01*
X121321460Y-65420500D01*
X121518540Y-65420500D01*
X123819699Y-65420500D01*
X123886738Y-65440185D01*
X123932493Y-65492989D01*
X123937401Y-65505487D01*
X123950329Y-65544500D01*
X123965185Y-65589332D01*
X123965187Y-65589337D01*
X124000070Y-65645890D01*
X124057288Y-65738656D01*
X124181344Y-65862712D01*
X124330665Y-65954814D01*
X124497202Y-66009999D01*
X124599990Y-66020500D01*
X124599995Y-66020500D01*
X126400005Y-66020500D01*
X126400010Y-66020500D01*
X126502798Y-66009999D01*
X126669335Y-65954814D01*
X126818656Y-65862712D01*
X126942712Y-65738656D01*
X127034814Y-65589335D01*
X127062596Y-65505494D01*
X127102368Y-65448051D01*
X127166883Y-65421228D01*
X127180301Y-65420500D01*
X132319699Y-65420500D01*
X132386738Y-65440185D01*
X132432493Y-65492989D01*
X132437401Y-65505487D01*
X132450329Y-65544500D01*
X132465185Y-65589332D01*
X132465187Y-65589337D01*
X132500070Y-65645890D01*
X132557288Y-65738656D01*
X132681344Y-65862712D01*
X132830665Y-65954814D01*
X132997202Y-66009999D01*
X133099990Y-66020500D01*
X133099995Y-66020500D01*
X134900005Y-66020500D01*
X134900010Y-66020500D01*
X135002798Y-66009999D01*
X135169335Y-65954814D01*
X135318656Y-65862712D01*
X135442712Y-65738656D01*
X135534814Y-65589335D01*
X135562596Y-65505494D01*
X135602368Y-65448051D01*
X135666883Y-65421228D01*
X135680301Y-65420500D01*
X136675500Y-65420500D01*
X136742539Y-65440185D01*
X136788294Y-65492989D01*
X136799500Y-65544500D01*
X136799500Y-75898544D01*
X136824870Y-76026086D01*
X136837947Y-76091829D01*
X136837949Y-76091837D01*
X136913364Y-76273907D01*
X136913371Y-76273920D01*
X137022859Y-76437780D01*
X137022860Y-76437781D01*
X137022861Y-76437782D01*
X137162218Y-76577139D01*
X137162219Y-76577139D01*
X137169286Y-76584206D01*
X137169285Y-76584206D01*
X137169288Y-76584208D01*
X137722860Y-77137781D01*
X137722861Y-77137782D01*
X137862218Y-77277139D01*
X138026086Y-77386632D01*
X138132745Y-77430811D01*
X138208164Y-77462051D01*
X138218109Y-77464029D01*
X138228245Y-77467977D01*
X138247636Y-77482934D01*
X138269334Y-77494282D01*
X138270920Y-77495840D01*
X141187399Y-80412320D01*
X141220883Y-80473641D01*
X141215899Y-80543333D01*
X141187398Y-80587680D01*
X139640424Y-82134655D01*
X138362221Y-83412858D01*
X138362218Y-83412861D01*
X138292538Y-83482540D01*
X138222859Y-83552219D01*
X138113371Y-83716079D01*
X138113364Y-83716092D01*
X138037950Y-83898160D01*
X138037947Y-83898170D01*
X137999500Y-84091456D01*
X137999500Y-84091459D01*
X137999500Y-89098541D01*
X137999500Y-89098543D01*
X137999499Y-89098543D01*
X138037947Y-89291829D01*
X138037950Y-89291839D01*
X138113364Y-89473907D01*
X138113371Y-89473920D01*
X138222860Y-89637781D01*
X138222863Y-89637785D01*
X138366537Y-89781459D01*
X138366559Y-89781479D01*
X142173281Y-93588201D01*
X142206766Y-93649524D01*
X142208073Y-93656483D01*
X142231523Y-93804535D01*
X142294781Y-93999223D01*
X142387715Y-94181613D01*
X142508028Y-94347213D01*
X142652786Y-94491971D01*
X142807749Y-94604556D01*
X142818390Y-94612287D01*
X142897134Y-94652409D01*
X143000776Y-94705218D01*
X143000778Y-94705218D01*
X143000781Y-94705220D01*
X143105137Y-94739127D01*
X143195465Y-94768477D01*
X143296557Y-94784488D01*
X143397648Y-94800500D01*
X143397649Y-94800500D01*
X143602351Y-94800500D01*
X143602352Y-94800500D01*
X143804534Y-94768477D01*
X143999219Y-94705220D01*
X144181610Y-94612287D01*
X144325713Y-94507591D01*
X144347213Y-94491971D01*
X144347215Y-94491968D01*
X144347219Y-94491966D01*
X144491966Y-94347219D01*
X144491968Y-94347215D01*
X144491971Y-94347213D01*
X144579712Y-94226446D01*
X144612287Y-94181610D01*
X144705220Y-93999219D01*
X144768477Y-93804534D01*
X144800500Y-93602352D01*
X144800500Y-93397648D01*
X144768477Y-93195465D01*
X144736555Y-93097219D01*
X144705220Y-93000781D01*
X144705218Y-93000778D01*
X144705218Y-93000776D01*
X144671503Y-92934607D01*
X144612287Y-92818390D01*
X144583929Y-92779358D01*
X144491971Y-92652786D01*
X144347213Y-92508028D01*
X144181613Y-92387715D01*
X144181612Y-92387714D01*
X144181610Y-92387713D01*
X144124653Y-92358691D01*
X143999223Y-92294781D01*
X143804535Y-92231523D01*
X143656483Y-92208073D01*
X143593349Y-92178143D01*
X143588201Y-92173281D01*
X142777168Y-91362248D01*
X142743683Y-91300925D01*
X142748667Y-91231233D01*
X142790539Y-91175300D01*
X142856003Y-91150883D01*
X142921144Y-91164082D01*
X143000968Y-91204755D01*
X143195582Y-91267990D01*
X143397683Y-91300000D01*
X143602317Y-91300000D01*
X143804417Y-91267990D01*
X143999031Y-91204755D01*
X144181349Y-91111859D01*
X144225921Y-91079474D01*
X143546446Y-90400000D01*
X143552661Y-90400000D01*
X143654394Y-90372741D01*
X143745606Y-90320080D01*
X143820080Y-90245606D01*
X143872741Y-90154394D01*
X143900000Y-90052661D01*
X143900000Y-90046448D01*
X144579474Y-90725922D01*
X144579474Y-90725921D01*
X144611859Y-90681349D01*
X144704755Y-90499031D01*
X144767990Y-90304417D01*
X144800000Y-90102317D01*
X144800000Y-89897682D01*
X144767990Y-89695582D01*
X144704755Y-89500968D01*
X144611859Y-89318650D01*
X144579474Y-89274077D01*
X144579474Y-89274076D01*
X143900000Y-89953551D01*
X143900000Y-89947339D01*
X143872741Y-89845606D01*
X143820080Y-89754394D01*
X143745606Y-89679920D01*
X143654394Y-89627259D01*
X143552661Y-89600000D01*
X143546446Y-89600000D01*
X144225922Y-88920524D01*
X144225921Y-88920523D01*
X144181359Y-88888147D01*
X144181350Y-88888141D01*
X143999031Y-88795244D01*
X143804417Y-88732009D01*
X143602317Y-88700000D01*
X143397683Y-88700000D01*
X143195582Y-88732009D01*
X143000968Y-88795244D01*
X142818644Y-88888143D01*
X142774077Y-88920523D01*
X142774077Y-88920524D01*
X143453554Y-89600000D01*
X143447339Y-89600000D01*
X143345606Y-89627259D01*
X143254394Y-89679920D01*
X143179920Y-89754394D01*
X143127259Y-89845606D01*
X143100000Y-89947339D01*
X143100000Y-89953553D01*
X142420524Y-89274077D01*
X142420523Y-89274077D01*
X142388143Y-89318644D01*
X142295244Y-89500968D01*
X142232009Y-89695582D01*
X142200000Y-89897682D01*
X142200000Y-90102317D01*
X142232009Y-90304417D01*
X142295244Y-90499031D01*
X142335917Y-90578855D01*
X142348813Y-90647525D01*
X142322536Y-90712265D01*
X142265430Y-90752522D01*
X142195624Y-90755514D01*
X142137751Y-90722831D01*
X140036819Y-88621899D01*
X140003334Y-88560576D01*
X140000500Y-88534218D01*
X140000500Y-84655781D01*
X140020185Y-84588742D01*
X140036814Y-84568105D01*
X142898501Y-81706417D01*
X142959822Y-81672934D01*
X142966776Y-81671627D01*
X142971118Y-81670940D01*
X143150832Y-81612547D01*
X143319199Y-81526760D01*
X143472073Y-81415690D01*
X143605690Y-81282073D01*
X143716760Y-81129199D01*
X143802547Y-80960832D01*
X143860940Y-80781118D01*
X143870167Y-80722859D01*
X143890500Y-80594486D01*
X143890500Y-80405513D01*
X149109500Y-80405513D01*
X149109500Y-80594486D01*
X149139059Y-80781118D01*
X149197454Y-80960836D01*
X149271198Y-81105566D01*
X149283240Y-81129199D01*
X149394310Y-81282073D01*
X149527927Y-81415690D01*
X149680801Y-81526760D01*
X149760347Y-81567290D01*
X149849163Y-81612545D01*
X149849165Y-81612545D01*
X149849168Y-81612547D01*
X149945497Y-81643846D01*
X150028881Y-81670940D01*
X150215514Y-81700500D01*
X150215519Y-81700500D01*
X150404486Y-81700500D01*
X150591118Y-81670940D01*
X150591121Y-81670939D01*
X150770832Y-81612547D01*
X150939199Y-81526760D01*
X151092073Y-81415690D01*
X151220944Y-81286819D01*
X151282267Y-81253334D01*
X151308625Y-81250500D01*
X152573920Y-81250500D01*
X152671462Y-81231096D01*
X152718913Y-81221658D01*
X152855495Y-81165084D01*
X152944569Y-81105567D01*
X152944571Y-81105566D01*
X152978409Y-81082957D01*
X152978410Y-81082955D01*
X152978416Y-81082952D01*
X155352952Y-78708416D01*
X155402186Y-78634729D01*
X155435084Y-78585495D01*
X155491658Y-78448913D01*
X155520500Y-78303918D01*
X155520500Y-72249024D01*
X155540185Y-72181985D01*
X155571616Y-72148705D01*
X155580727Y-72142086D01*
X155682365Y-72068242D01*
X155838242Y-71912365D01*
X155967815Y-71734022D01*
X156067895Y-71537606D01*
X156136015Y-71327951D01*
X156170500Y-71110222D01*
X156170500Y-70889778D01*
X156136015Y-70672049D01*
X156101955Y-70567221D01*
X156067896Y-70462396D01*
X156067895Y-70462393D01*
X156016850Y-70362214D01*
X155967815Y-70265978D01*
X155936488Y-70222860D01*
X155838247Y-70087641D01*
X155838243Y-70087636D01*
X155682363Y-69931756D01*
X155682358Y-69931752D01*
X155504025Y-69802187D01*
X155504024Y-69802186D01*
X155504022Y-69802185D01*
X155441096Y-69770122D01*
X155307606Y-69702104D01*
X155307603Y-69702103D01*
X155097952Y-69633985D01*
X154989086Y-69616742D01*
X154880222Y-69599500D01*
X154659778Y-69599500D01*
X154587201Y-69610995D01*
X154442047Y-69633985D01*
X154232396Y-69702103D01*
X154232393Y-69702104D01*
X154035974Y-69802187D01*
X153857641Y-69931752D01*
X153857636Y-69931756D01*
X153807075Y-69982317D01*
X153745752Y-70015801D01*
X153676060Y-70010816D01*
X153620127Y-69968945D01*
X153603213Y-69937968D01*
X153573354Y-69857913D01*
X153573350Y-69857906D01*
X153487190Y-69742812D01*
X153487187Y-69742809D01*
X153372093Y-69656649D01*
X153372086Y-69656645D01*
X153237379Y-69606403D01*
X153237372Y-69606401D01*
X153177844Y-69600000D01*
X152480000Y-69600000D01*
X152480000Y-70624722D01*
X152403694Y-70580667D01*
X152289244Y-70550000D01*
X152170756Y-70550000D01*
X152056306Y-70580667D01*
X151980000Y-70624722D01*
X151980000Y-69600000D01*
X151282155Y-69600000D01*
X151222627Y-69606401D01*
X151222620Y-69606403D01*
X151087913Y-69656645D01*
X151087906Y-69656649D01*
X150972812Y-69742809D01*
X150972809Y-69742812D01*
X150886649Y-69857906D01*
X150886645Y-69857913D01*
X150836403Y-69992620D01*
X150836401Y-69992627D01*
X150830000Y-70052155D01*
X150830000Y-70750000D01*
X151854722Y-70750000D01*
X151810667Y-70826306D01*
X151780000Y-70940756D01*
X151780000Y-71059244D01*
X151810667Y-71173694D01*
X151854722Y-71250000D01*
X150830000Y-71250000D01*
X150830000Y-71947844D01*
X150836401Y-72007372D01*
X150836403Y-72007379D01*
X150886645Y-72142086D01*
X150886649Y-72142093D01*
X150972809Y-72257187D01*
X150972812Y-72257190D01*
X151087906Y-72343350D01*
X151087913Y-72343354D01*
X151222620Y-72393596D01*
X151222627Y-72393598D01*
X151282155Y-72399999D01*
X151282172Y-72400000D01*
X151980000Y-72400000D01*
X151980000Y-71375277D01*
X152056306Y-71419333D01*
X152170756Y-71450000D01*
X152289244Y-71450000D01*
X152403694Y-71419333D01*
X152480000Y-71375277D01*
X152480000Y-72400000D01*
X153177828Y-72400000D01*
X153177844Y-72399999D01*
X153237372Y-72393598D01*
X153237379Y-72393596D01*
X153372086Y-72343354D01*
X153372093Y-72343350D01*
X153487187Y-72257190D01*
X153487190Y-72257187D01*
X153573350Y-72142093D01*
X153573354Y-72142086D01*
X153603213Y-72062031D01*
X153620538Y-72038886D01*
X153635443Y-72014105D01*
X153641222Y-72011255D01*
X153645084Y-72006097D01*
X153672177Y-71995991D01*
X153698109Y-71983205D01*
X153704510Y-71983931D01*
X153710548Y-71981680D01*
X153738805Y-71987826D01*
X153767532Y-71991089D01*
X153774095Y-71995503D01*
X153778821Y-71996531D01*
X153797777Y-72009280D01*
X153802640Y-72013247D01*
X153857635Y-72068242D01*
X153971190Y-72150744D01*
X153973882Y-72152940D01*
X153991751Y-72179008D01*
X154011051Y-72204035D01*
X154011859Y-72208340D01*
X154013387Y-72210569D01*
X154013595Y-72217584D01*
X154019500Y-72249024D01*
X154019500Y-77867770D01*
X153999815Y-77934809D01*
X153983181Y-77955451D01*
X152225451Y-79713181D01*
X152164128Y-79746666D01*
X152137770Y-79749500D01*
X151308625Y-79749500D01*
X151241586Y-79729815D01*
X151220944Y-79713181D01*
X151092075Y-79584312D01*
X151092073Y-79584310D01*
X150939199Y-79473240D01*
X150770836Y-79387454D01*
X150591118Y-79329059D01*
X150404486Y-79299500D01*
X150404481Y-79299500D01*
X150215519Y-79299500D01*
X150215514Y-79299500D01*
X150028881Y-79329059D01*
X149849163Y-79387454D01*
X149680800Y-79473240D01*
X149593579Y-79536610D01*
X149527927Y-79584310D01*
X149527925Y-79584312D01*
X149527924Y-79584312D01*
X149394312Y-79717924D01*
X149394312Y-79717925D01*
X149394310Y-79717927D01*
X149385673Y-79729815D01*
X149283240Y-79870800D01*
X149197454Y-80039163D01*
X149139059Y-80218881D01*
X149109500Y-80405513D01*
X143890500Y-80405513D01*
X143860940Y-80218881D01*
X143802545Y-80039163D01*
X143738775Y-79914008D01*
X143716760Y-79870801D01*
X143605690Y-79717927D01*
X143472073Y-79584310D01*
X143319199Y-79473240D01*
X143150832Y-79387453D01*
X142971118Y-79329060D01*
X142971116Y-79329059D01*
X142971114Y-79329059D01*
X142971112Y-79329058D01*
X142966778Y-79328372D01*
X142903645Y-79298439D01*
X142898502Y-79293581D01*
X139474209Y-75869289D01*
X139474206Y-75869285D01*
X139474206Y-75869286D01*
X139467139Y-75862219D01*
X139467139Y-75862218D01*
X139327782Y-75722861D01*
X139327781Y-75722860D01*
X139327780Y-75722859D01*
X139163917Y-75613369D01*
X139022350Y-75554730D01*
X139022329Y-75554722D01*
X139020378Y-75553914D01*
X138981836Y-75537949D01*
X138972693Y-75536130D01*
X138963263Y-75532598D01*
X138943051Y-75517423D01*
X138920656Y-75505708D01*
X138919079Y-75504158D01*
X138836819Y-75421898D01*
X138803334Y-75360575D01*
X138800500Y-75334217D01*
X138800500Y-74124500D01*
X138820185Y-74057461D01*
X138872989Y-74011706D01*
X138924500Y-74000500D01*
X141674367Y-74000500D01*
X141741406Y-74020185D01*
X141747254Y-74024183D01*
X141750799Y-74026759D01*
X141919163Y-74112545D01*
X141919165Y-74112545D01*
X141919168Y-74112547D01*
X142015497Y-74143846D01*
X142098881Y-74170940D01*
X142285514Y-74200500D01*
X142285519Y-74200500D01*
X142474486Y-74200500D01*
X142661118Y-74170940D01*
X142840832Y-74112547D01*
X143009199Y-74026760D01*
X143162073Y-73915690D01*
X143295690Y-73782073D01*
X143406760Y-73629199D01*
X143492547Y-73460832D01*
X143550940Y-73281118D01*
X143562025Y-73211130D01*
X143580500Y-73094486D01*
X143580500Y-72905513D01*
X143550940Y-72718881D01*
X143492545Y-72539163D01*
X143447290Y-72450347D01*
X143406760Y-72370801D01*
X143295690Y-72217927D01*
X143162073Y-72084310D01*
X143009199Y-71973240D01*
X143006787Y-71972011D01*
X142840836Y-71887454D01*
X142661118Y-71829059D01*
X142474486Y-71799500D01*
X142474481Y-71799500D01*
X142285519Y-71799500D01*
X142285514Y-71799500D01*
X142098881Y-71829059D01*
X141919163Y-71887454D01*
X141750799Y-71973240D01*
X141747254Y-71975817D01*
X141681448Y-71999298D01*
X141674367Y-71999500D01*
X138924500Y-71999500D01*
X138857461Y-71979815D01*
X138811706Y-71927011D01*
X138800500Y-71875500D01*
X138800500Y-66387882D01*
X141725669Y-66387882D01*
X141725670Y-66387883D01*
X141751059Y-66406329D01*
X141919362Y-66492085D01*
X142098997Y-66550451D01*
X142285553Y-66580000D01*
X142474447Y-66580000D01*
X142661002Y-66550451D01*
X142840637Y-66492085D01*
X143008937Y-66406331D01*
X143034328Y-66387883D01*
X143034328Y-66387882D01*
X142380001Y-65733554D01*
X142380000Y-65733554D01*
X141725669Y-66387882D01*
X138800500Y-66387882D01*
X138800500Y-65285552D01*
X141180000Y-65285552D01*
X141180000Y-65474447D01*
X141209548Y-65661002D01*
X141267914Y-65840637D01*
X141353666Y-66008933D01*
X141372116Y-66034328D01*
X142026446Y-65380000D01*
X142026446Y-65379999D01*
X141980369Y-65333922D01*
X142030000Y-65333922D01*
X142030000Y-65426078D01*
X142053852Y-65515095D01*
X142099930Y-65594905D01*
X142165095Y-65660070D01*
X142244905Y-65706148D01*
X142333922Y-65730000D01*
X142426078Y-65730000D01*
X142515095Y-65706148D01*
X142594905Y-65660070D01*
X142660070Y-65594905D01*
X142706148Y-65515095D01*
X142730000Y-65426078D01*
X142730000Y-65379999D01*
X142733554Y-65379999D01*
X142733554Y-65380000D01*
X143387882Y-66034328D01*
X143387883Y-66034328D01*
X143406331Y-66008937D01*
X143492085Y-65840637D01*
X143550451Y-65661002D01*
X143580000Y-65474447D01*
X143580000Y-65285552D01*
X143550451Y-65098997D01*
X143492085Y-64919362D01*
X143406329Y-64751059D01*
X143387883Y-64725670D01*
X143387882Y-64725669D01*
X142733554Y-65379999D01*
X142730000Y-65379999D01*
X142730000Y-65333922D01*
X142706148Y-65244905D01*
X142660070Y-65165095D01*
X142594905Y-65099930D01*
X142515095Y-65053852D01*
X142426078Y-65030000D01*
X142333922Y-65030000D01*
X142244905Y-65053852D01*
X142165095Y-65099930D01*
X142099930Y-65165095D01*
X142053852Y-65244905D01*
X142030000Y-65333922D01*
X141980369Y-65333922D01*
X141372116Y-64725669D01*
X141372116Y-64725670D01*
X141353669Y-64751060D01*
X141267914Y-64919362D01*
X141209548Y-65098997D01*
X141180000Y-65285552D01*
X138800500Y-65285552D01*
X138800500Y-65140433D01*
X138820185Y-65073394D01*
X138821398Y-65071542D01*
X138830593Y-65057782D01*
X138886631Y-64973914D01*
X138962052Y-64791835D01*
X139000500Y-64598540D01*
X139000500Y-64401460D01*
X138994663Y-64372116D01*
X141725669Y-64372116D01*
X142380000Y-65026446D01*
X142380001Y-65026446D01*
X143034328Y-64372116D01*
X143008933Y-64353666D01*
X142840637Y-64267914D01*
X142661002Y-64209548D01*
X142474447Y-64180000D01*
X142285553Y-64180000D01*
X142098997Y-64209548D01*
X141919362Y-64267914D01*
X141751060Y-64353669D01*
X141725670Y-64372116D01*
X141725669Y-64372116D01*
X138994663Y-64372116D01*
X138962052Y-64208164D01*
X138886631Y-64026086D01*
X138777140Y-63862218D01*
X138777138Y-63862216D01*
X138777136Y-63862213D01*
X138634698Y-63719775D01*
X138634669Y-63719748D01*
X138557782Y-63642861D01*
X138557781Y-63642860D01*
X138557780Y-63642859D01*
X138393917Y-63533369D01*
X138259062Y-63477511D01*
X138250378Y-63473914D01*
X138211836Y-63457949D01*
X138115188Y-63438724D01*
X138111272Y-63437945D01*
X138111268Y-63437944D01*
X138018544Y-63419500D01*
X138018541Y-63419500D01*
X135680301Y-63419500D01*
X135613262Y-63399815D01*
X135567507Y-63347011D01*
X135562598Y-63334512D01*
X135534814Y-63250665D01*
X135442712Y-63101344D01*
X135318656Y-62977288D01*
X135169335Y-62885186D01*
X135002798Y-62830001D01*
X135002796Y-62830000D01*
X134900017Y-62819500D01*
X134900010Y-62819500D01*
X133099990Y-62819500D01*
X133099982Y-62819500D01*
X132997203Y-62830000D01*
X132997202Y-62830001D01*
X132932721Y-62851368D01*
X132830667Y-62885185D01*
X132830662Y-62885187D01*
X132681342Y-62977289D01*
X132557289Y-63101342D01*
X132465187Y-63250662D01*
X132465186Y-63250665D01*
X132437403Y-63334505D01*
X132397632Y-63391949D01*
X132333117Y-63418772D01*
X132319699Y-63419500D01*
X127180301Y-63419500D01*
X127113262Y-63399815D01*
X127067507Y-63347011D01*
X127062598Y-63334512D01*
X127034814Y-63250665D01*
X126942712Y-63101344D01*
X126818656Y-62977288D01*
X126669335Y-62885186D01*
X126502798Y-62830001D01*
X126502796Y-62830000D01*
X126400017Y-62819500D01*
X126400010Y-62819500D01*
X124599990Y-62819500D01*
X124599982Y-62819500D01*
X124497203Y-62830000D01*
X124497202Y-62830001D01*
X124432721Y-62851368D01*
X124330667Y-62885185D01*
X124330662Y-62885187D01*
X124181342Y-62977289D01*
X124057289Y-63101342D01*
X123965187Y-63250662D01*
X123965186Y-63250665D01*
X123937403Y-63334505D01*
X123897632Y-63391949D01*
X123833117Y-63418772D01*
X123819699Y-63419500D01*
X121885783Y-63419500D01*
X121818744Y-63399815D01*
X121798102Y-63383181D01*
X120784209Y-62369289D01*
X120784206Y-62369285D01*
X120784206Y-62369286D01*
X120777139Y-62362219D01*
X120777139Y-62362218D01*
X120637782Y-62222861D01*
X120637781Y-62222860D01*
X120637780Y-62222859D01*
X120473920Y-62113371D01*
X120473911Y-62113366D01*
X120401315Y-62083296D01*
X120345165Y-62060038D01*
X120291836Y-62037949D01*
X120291832Y-62037948D01*
X120291828Y-62037946D01*
X120195188Y-62018724D01*
X120098544Y-61999500D01*
X120098541Y-61999500D01*
X109401459Y-61999500D01*
X109374950Y-62004773D01*
X109241339Y-62031349D01*
X109208164Y-62037948D01*
X109026088Y-62113366D01*
X109026079Y-62113371D01*
X108862219Y-62222859D01*
X108862215Y-62222862D01*
X105725118Y-65359961D01*
X104690648Y-66394431D01*
X104690646Y-66394433D01*
X104620966Y-66464112D01*
X104551287Y-66533791D01*
X104441799Y-66697651D01*
X104441792Y-66697664D01*
X104366378Y-66879732D01*
X104366375Y-66879742D01*
X104327928Y-67073028D01*
X103500500Y-67073028D01*
X103500500Y-63871904D01*
X103520185Y-63804865D01*
X103572989Y-63759110D01*
X103642147Y-63749166D01*
X103697387Y-63771587D01*
X103713567Y-63783343D01*
X103810915Y-63832944D01*
X103924003Y-63890566D01*
X103924005Y-63890566D01*
X103924008Y-63890568D01*
X104044412Y-63929689D01*
X104148631Y-63963553D01*
X104381903Y-64000500D01*
X104381908Y-64000500D01*
X104618097Y-64000500D01*
X104851368Y-63963553D01*
X105075992Y-63890568D01*
X105286433Y-63783343D01*
X105477510Y-63644517D01*
X105644517Y-63477510D01*
X105783343Y-63286433D01*
X105890568Y-63075992D01*
X105963553Y-62851368D01*
X105988929Y-62691150D01*
X106000500Y-62618097D01*
X106000500Y-62381902D01*
X105963553Y-62148631D01*
X105921343Y-62018724D01*
X105890568Y-61924008D01*
X105890566Y-61924005D01*
X105890566Y-61924003D01*
X105783343Y-61713567D01*
X105771586Y-61697385D01*
X105748107Y-61631578D01*
X105763933Y-61563524D01*
X105814039Y-61514830D01*
X105871905Y-61500500D01*
X155629449Y-61500500D01*
X155696488Y-61520185D01*
G37*
%TD.AperFunction*%
%TD*%
M02*
